<?xml version="1.0" encoding="utf-8"?>
<!-- Generator: Adobe Illustrator 28.0.0, SVG Export Plug-In . SVG Version: 6.00 Build 0)  -->
<svg version="1.1" id="Layer_1" xmlns="http://www.w3.org/2000/svg" xmlns:xlink="http://www.w3.org/1999/xlink" x="0px" y="0px"
	 viewBox="0 0 1034.7 1033.6" style="enable-background:new 0 0 1034.7 1033.6;" xml:space="preserve">
<style type="text/css">
	.st0{fill:#4C4C4C;}
	.st1{fill:none;}
	.st2{fill:#BE9961;}
	.st3{fill:#BE9961;stroke:#BE9961;stroke-width:0.75;stroke-miterlimit:10;}
	.st4{fill:#BE9961;stroke:#BE9961;stroke-width:3;stroke-miterlimit:10;}
	.st5{fill:#4C4C4C;stroke:#4C4C4C;stroke-width:2;stroke-miterlimit:10;}
	.st6{fill:#FFFFFF;}
	.st7{fill:#FFFFFF;stroke:#000000;stroke-miterlimit:10;}
	.st8{fill:#E1CD97;}
</style>
<rect x="-0.3" y="405" class="st0" width="1035" height="631.6"/>
<rect x="150.5" class="st0" width="884.2" height="29.5"/>
<path class="st0" d="M1041.1,29.4v0.1h-1.1v-0.1H1041.1z"/>
<path class="st1" d="M0,328.5v-12v-10.1v-11v-7.1v-19v-2.1v-17c-0.1,0-0.1,0-0.2,0v82.5c0.1,0,0.1,0,0.2,0V328.5z"/>
<path class="st1" d="M0,514.9v-0.6v-20.6v-139v-8.5v-3.8c-0.1-0.2-0.1-0.4-0.2-0.6v219.8l0.1-21.1L0,514.9z"/>
<rect x="3211.7" y="897.2" class="st1" width="2.6" height="5.1"/>
<path class="st1" d="M0,229.4V101.2v-3.8V83.5V61.4V43.3V22.1v-17v-6.2h-0.2v249.7c0.1,0,0.1,0,0.2,0V229.4z"/>
<path class="st1" d="M689.6,6c1.6,0,3.1,0,4.7,0.1c0.4-2,0.9-4.1,1.4-6.1h-10.2c0.5,2,1,4,1.4,6C687.8,6,688.7,6,689.6,6z"/>
<path class="st1" d="M341.6,6c0.9,0,1.8,0,2.7,0c0.4-2,0.9-4,1.4-6h-10.2c0.5,2,1,4,1.4,6.1C338.4,6,340,6,341.6,6z"/>
<path class="st0" d="M170.3,461.9C170.3,461.9,170.3,462,170.3,461.9C170.3,462,170.3,462,170.3,461.9c-1.6,0.1-3.1,0.2-4.7,0.2
	h-3.7l0,0V462h3.7C167.2,462,168.7,462,170.3,461.9z"/>
<path class="st0" d="M170.3,462c7,33.5,23.5,63.4,46.7,86.9C193.8,525.4,177.3,495.5,170.3,462z"/>
<path class="st0" d="M239.2,567.9c24.8,17.9,54.5,29.5,86.7,32.4C293.7,597.5,264.1,585.9,239.2,567.9z"/>
<path class="st2" d="M512.9,462c-16.6,79.4-87,139-171.3,139c-5.3,0-10.5-0.2-15.7-0.7c-32.2-2.8-61.9-14.4-86.7-32.4
	c-3-2.1-5.9-4.4-8.7-6.7c-4.7-3.9-9.2-8-13.5-12.3c-23.1-23.4-39.7-53.4-46.7-86.9v-0.1c7-0.2,13.9-0.8,20.6-1.8v0.1
	c3.1,12.8,7.8,24.9,13.8,36.2v0.1c0.9,1.7,1.9,3.4,2.8,5.1c0.6,1.1,1.3,2.2,1.9,3.2c0.6,1,1.2,2,1.9,3c0.5,0.8,1,1.5,1.5,2.2
	c0.1,0.2,0.3,0.4,0.4,0.6c0.6,0.9,1.2,1.7,1.8,2.6l0,0c8.5,12,18.6,22.7,30.1,31.8c14.9,11.9,32.1,21.1,50.8,26.9
	c0.1,0,0.1,0,0.2,0.1c1.4,0.4,2.8,0.8,4.2,1.2c0.3,0.1,0.5,0.1,0.8,0.2c1.2,0.3,2.5,0.7,3.7,1c0.3,0.1,0.7,0.2,1,0.2
	c1.2,0.3,2.5,0.6,3.7,0.8c0.3,0.1,0.7,0.1,1,0.2c1.5,0.3,3.1,0.6,4.7,0.9c2.2,0.4,4.4,0.7,6.6,1c1.1,0.2,2.2,0.3,3.3,0.4
	c2.2,0.2,4.5,0.4,6.7,0.6c3.4,0.2,6.8,0.3,10.2,0.3c11.4,0,22.6-1.2,33.3-3.6c53.6-11.7,96.9-51.1,114.1-102.3
	c1.4-4.1,2.6-8.3,3.6-12.5C499.6,461.4,506.2,461.9,512.9,462z"/>
<path class="st0" d="M342.6,558c-63.5,0-116.8-43.2-132.4-101.7l0,0c-6.3,1.6-12.7,3-19.2,3.9C207.4,528.4,268.8,579,342.1,579
	c73.1,0,134.4-50.4,151-118.4c-6.2-0.8-12.4-1.9-18.4-3.4C458.9,515.3,405.7,558,342.6,558z"/>
<path class="st2" d="M860.9,461.9c-16.6,79.4-87,139.1-171.3,139.1s-154.7-59.6-171.3-139c7-0.1,13.9-0.6,20.7-1.5
	c16.6,68,77.9,118.5,151.1,118.5s134.6-50.6,151.1-118.7C847.7,461.2,854.2,461.8,860.9,461.9z"/>
<path class="st0" d="M692.6,563c-65.2,0-119.7-45.5-133.6-106.4c-6.5,1.7-13.2,3-20,3.9c16.6,68,77.9,118.5,151.1,118.5
	s134.6-50.6,151.1-118.7c-5.2-0.7-10.2-1.7-15.2-2.8C811.7,518,757.4,563,692.6,563z"/>
<path class="st2" d="M1034.7,576v21.9c-2.3-0.1-4.6-0.2-6.8-0.3c-1.1-0.1-2.2-0.2-3.4-0.2c-16.7-1.4-32.7-5.2-47.7-11
	c-1.1-0.4-2.2-0.9-3.3-1.3c-8-3.2-15.6-7.1-22.9-11.4c-1-0.6-2.1-1.2-3.1-1.9c-0.5-0.3-1.1-0.7-1.6-1c-1-0.6-2-1.3-3-2l0,0
	c-0.9-0.6-1.8-1.2-2.8-1.9c-4.8-3.3-9.4-6.9-13.8-10.6c-1.6-1.4-3.2-2.8-4.8-4.2l0,0c-1.8-1.6-3.5-3.3-5.2-5
	c-0.9-0.9-1.7-1.7-2.6-2.6c-5.9-6.1-11.3-12.6-16.2-19.4c-6.3-8.8-11.9-18.2-16.5-28.2c-0.5-1.1-1-2.2-1.5-3.4
	c-2-4.5-3.8-9-5.4-13.7c-2-5.8-3.7-11.8-5.1-17.9c7-0.1,14-0.7,20.8-1.6C907,525.3,965,573.6,1034.7,576z"/>
<path class="st0" d="M1034.7,557.8V576C965,573.6,907,525.3,889.8,460.4c6.9-1,13.7-2.3,20.4-4.1c0.7,2.7,1.5,5.5,2.4,8.1l0,0
	c0.6,1.7,1.1,3.3,1.8,5c0.7,1.8,1.4,3.5,2.1,5.3c0.4,0.9,0.8,1.7,1.1,2.6c0.8,1.7,1.6,3.4,2.4,5.1c0.4,0.8,0.8,1.7,1.3,2.5
	c0.9,1.7,1.8,3.3,2.7,4.9l0,0c0.4,0.7,0.8,1.4,1.2,2.1c0.5,0.9,1.1,1.7,1.6,2.6c1.1,1.7,2.2,3.4,3.4,5c0.6,0.8,1.2,1.7,1.8,2.5
	c1,1.3,1.9,2.6,2.9,3.8c9.7,12.3,21.4,22.8,34.7,31.2c1.4,0.9,2.8,1.7,4.2,2.5c8.2,4.8,16.9,8.7,26,11.7c1.5,0.5,3.1,1,4.6,1.4
	c1.4,0.4,2.8,0.8,4.2,1.1c3.3,0.9,6.7,1.6,10.1,2.2c1.2,0.2,2.4,0.4,3.6,0.6c1.8,0.3,3.6,0.5,5.4,0.7
	C1030.2,557.5,1032.4,557.6,1034.7,557.8z"/>
<path class="st2" d="M3189.6,315.6c-2-0.4-3.9-0.9-5.9-1.4C3185.7,314.7,3187.6,315.1,3189.6,315.6z"/>
<path class="st0" d="M3189.6,315.6c-2-0.4-3.9-0.9-5.9-1.4C3185.7,314.7,3187.6,315.1,3189.6,315.6z"/>
<path class="st2" d="M161.9,462C161.9,462,161.9,462.1,161.9,462c-1,4.8-2.2,9.5-3.6,14.1C137.9,544.3,77.1,595,3.6,600.6
	c-1.2,0.1-2.5,0.2-3.7,0.2v-22c69.2-3.9,126.3-53,142.3-118.2v-0.1C148.6,461.3,155.2,461.8,161.9,462z"/>
<path class="st2" d="M340.1,535c-53.3,0-98.4-35.5-112.7-84.2c-5.6,2.1-11.3,4-17.2,5.5C225.7,514.8,279.1,558,342.6,558
	c63.1,0,116.3-42.7,132.2-100.8c-7.5-1.8-14.8-4.1-21.8-6.8C438.7,499.3,393.5,535,340.1,535z"/>
<path class="st2" d="M1034.7,534.8v23c-2.3-0.1-4.5-0.3-6.8-0.6c-1.8-0.2-3.6-0.4-5.4-0.7c-1.2-0.2-2.4-0.4-3.6-0.6
	c-3.4-0.6-6.8-1.3-10.1-2.2c-1.4-0.3-2.8-0.7-4.2-1.1c-1.5-0.4-3.1-0.9-4.6-1.4c-9.1-3-17.8-6.9-26-11.7c-1.4-0.8-2.8-1.7-4.2-2.5
	c-13.3-8.4-25-18.9-34.7-31.2c-1-1.3-2-2.5-2.9-3.8c-0.6-0.8-1.2-1.6-1.8-2.5c-1.2-1.6-2.3-3.3-3.4-5c-0.5-0.9-1.1-1.7-1.6-2.6
	c-0.4-0.7-0.8-1.4-1.2-2.1l0,0c-0.9-1.6-1.8-3.3-2.7-4.9c-0.4-0.8-0.9-1.7-1.3-2.5c-0.8-1.7-1.7-3.4-2.4-5.1
	c-0.4-0.9-0.8-1.7-1.1-2.6c-0.7-1.7-1.5-3.5-2.1-5.3c-0.6-1.6-1.2-3.3-1.8-5l0,0c-0.9-2.7-1.7-5.4-2.4-8.1c6.5-1.7,12.8-3.8,19-6.2
	C942.6,496.8,984.4,531.6,1034.7,534.8z"/>
<path class="st2" d="M692.1,543c-56.2,0-103.2-39.5-114.8-92.2c-6,2.2-12.1,4.2-18.3,5.8C572.9,517.5,627.4,563,692.6,563
	c64.8,0,119.1-45,133.4-105.5c-6.6-1.5-13-3.4-19.3-5.7C794.7,504,747.9,543,692.1,543z"/>
<path class="st0" d="M142.2,460.4c-6.5-0.9-12.8-2.1-19.1-3.6C109.9,514.4,60.3,558.1-0.1,562.6v16.1
	C69.1,574.9,126.3,525.7,142.2,460.4z"/>
<path class="st0" d="M1034.7,515.5v19.2c-50.3-3.1-92-38-105.5-84.7c7.9-3.1,15.6-6.7,22.9-10.9C959.4,479.9,993,511.4,1034.7,515.5
	z"/>
<path class="st0" d="M693.1,518c-46.4,0-84.9-33.8-92.2-78.2c-7.5,4.2-15.4,7.9-23.5,10.9c11.5,52.8,58.5,92.3,114.7,92.3
	c55.8,0,102.6-39,114.5-91.2c-7.5-2.7-14.8-5.9-21.7-9.5C776.6,485.4,738.6,518,693.1,518z"/>
<path class="st0" d="M340.1,516c-45.2,0-83-32.1-91.6-74.8c-6.8,3.6-13.8,6.8-21.1,9.6l0,0c14.3,48.7,59.4,84.2,112.7,84.2
	c53.5,0,98.6-35.7,112.8-84.6c-7.3-2.8-14.3-6-21.1-9.7C423.3,483.6,385.5,516,340.1,516z"/>
<path class="st2" d="M694.6,495c-38.9,0-70.8-30-73.8-68.2c-6.3,4.8-13,9.1-20,13c7.3,44.3,45.8,78.2,92.2,78.2
	c45.5,0,83.5-32.6,91.8-75.7c-5.9-3.1-11.6-6.5-17.1-10.2C762.4,467.7,731.7,495,694.6,495z"/>
<path class="st0" d="M676.7,355.5c-12.1,28.4-31.5,52.9-55.8,71.3c3,38.1,34.8,68.2,73.8,68.2c37.1,0,67.8-27.3,73.2-62.9
	c-27.9-18.8-50-45.5-63.3-76.8c-4.9,0.4-9.9,0.6-14.9,0.6C685.2,356,680.9,355.8,676.7,355.5z"/>
<path class="st2" d="M338.6,495c-37.5,0-68.5-27.9-73.3-64.1l0,0c-5.4,3.7-11,7.2-16.8,10.3l0,0c8.7,42.7,46.4,74.8,91.6,74.8
	c45.4,0,83.3-32.4,91.7-75.3c-6.8-3.7-13.4-7.9-19.6-12.5C408.6,465.7,377,495,338.6,495z"/>
<path class="st0" d="M326.7,355.4L326.7,355.4c-13,30.6-34.5,56.8-61.5,75.5C270,467.1,301,495,338.5,495c38.4,0,70-29.3,73.6-66.8
	c-25.2-18.5-45.3-43.6-57.7-72.7c-4.3,0.3-8.6,0.5-12.9,0.5C336.6,356,331.6,355.8,326.7,355.4z"/>
<path class="st2" d="M676.7,355.5c-12.1,28.4-31.5,52.9-55.8,71.3c-6.3,4.8-13,9.1-20,13c-7.5,4.2-15.4,7.9-23.5,10.9
	c-6,2.2-12.1,4.2-18.3,5.8c-6.5,1.7-13.2,3-20,3.9s-13.7,1.4-20.7,1.5c-0.9,0-1.8,0-2.7,0s-1.8,0-2.7,0c-6.7-0.1-13.3-0.6-19.8-1.4
	c-6.2-0.8-12.4-1.9-18.4-3.4c-7.5-1.8-14.8-4.1-21.8-6.8c-7.3-2.8-14.3-6-21.1-9.8c-6.8-3.7-13.4-7.9-19.6-12.5
	c-25.2-18.5-45.3-43.6-57.7-72.7c6.8-0.5,13.4-1.4,19.9-2.6c25.3,51.6,78.3,87.1,139.7,87.1c61.5,0,114.7-35.8,139.9-87.6
	C661.4,353.9,669,355,676.7,355.5z"/>
<path class="st2" d="M123.1,456.8c-6.7-1.7-13.1-3.7-19.5-6.1c-11.1,48.9-52.7,86.1-103.7,90.8v21.1
	C60.3,558.1,109.9,514.4,123.1,456.8z"/>
<path class="st0" d="M103.6,450.7c-7.9-3-15.5-6.5-22.7-10.5c-7.6,39.7-40.3,70.5-81,75.2v0.6v25.5
	C50.9,536.8,92.5,499.6,103.6,450.7z"/>
<path class="st0" d="M635.5,347.5c-23.1,43.1-68.6,72.5-120.9,72.5c-52.1,0-97.5-29.1-120.6-72c-6.4,2-12.9,3.6-19.6,4.9
	c25.3,51.6,78.3,87.1,139.7,87.1c61.5,0,114.7-35.8,139.9-87.6C647.7,351.1,641.5,349.4,635.5,347.5z"/>
<path class="st2" d="M1034.7,496.3v19.1c-41.6-4.2-75.2-35.6-82.6-76.3c5.7-3.2,11.2-6.7,16.4-10.5c0.8-0.5,1.5-1.1,2.2-1.7
	c0.2,3.7,0.6,7.3,1.3,10.8c0.1,0.4,0.2,0.8,0.3,1.2c0.2,0.8,0.4,1.6,0.6,2.4c0.1,0.4,0.2,0.8,0.3,1.2c0.2,0.8,0.4,1.6,0.7,2.4l0,0
	c3.4,11,9.3,20.9,17,29c0.5,0.5,1,1.1,1.6,1.6c1.3,1.3,2.7,2.6,4.2,3.8c0.5,0.4,1,0.9,1.6,1.3c0.9,0.8,1.9,1.5,2.9,2.2
	s2.1,1.5,3.1,2.2s2.1,1.4,3.2,2c1.1,0.6,2.2,1.2,3.3,1.8c0.6,0.3,1.1,0.6,1.7,0.8c2.9,1.4,6,2.7,9.1,3.7c0.6,0.2,1.1,0.4,1.7,0.5
	c0.4,0.1,0.9,0.2,1.3,0.4c0.9,0.2,1.7,0.5,2.6,0.7c0.4,0.1,0.9,0.2,1.3,0.3c0.6,0.1,1.2,0.2,1.8,0.4c1.2,0.2,2.3,0.4,3.5,0.6
	C1034,496.2,1034.3,496.3,1034.7,496.3z"/>
<path class="st0" d="M1034.7,352.9v143.4c-0.3,0-0.7-0.1-1-0.1c-1.2-0.2-2.4-0.4-3.5-0.6c-0.6-0.1-1.2-0.2-1.8-0.4
	c-0.4-0.1-0.9-0.2-1.3-0.3c-0.9-0.2-1.7-0.4-2.6-0.7c-0.4-0.1-0.9-0.2-1.3-0.4c-0.6-0.2-1.1-0.3-1.7-0.5c-3.1-1-6.2-2.2-9.1-3.7
	c-0.6-0.3-1.1-0.6-1.7-0.8c-1.1-0.6-2.2-1.2-3.3-1.8c-1.1-0.6-2.2-1.3-3.2-2c-1.1-0.7-2.1-1.4-3.1-2.2c-1-0.7-1.9-1.4-2.9-2.2
	c-0.5-0.4-1.1-0.9-1.6-1.3c-1.4-1.2-2.8-2.5-4.2-3.8c-0.5-0.5-1-1.1-1.6-1.6c-7.7-8.1-13.6-18-17-29l0,0c-0.2-0.8-0.5-1.6-0.7-2.4
	c-0.1-0.4-0.2-0.8-0.3-1.2c-0.2-0.8-0.4-1.6-0.6-2.4c-0.1-0.4-0.2-0.8-0.3-1.2c-0.7-3.5-1.1-7.1-1.3-10.8c0.6-0.4,1.2-0.9,1.8-1.4
	c12.4-9.5,23.4-20.7,32.8-33.1c0.6-0.8,1.2-1.7,1.9-2.5c0.7-0.9,1.3-1.8,2-2.8c0.2-0.3,0.4-0.6,0.6-0.9c0.2-0.3,0.4-0.6,0.6-0.9
	c0.4-0.6,0.8-1.2,1.2-1.8c0.9-1.3,1.7-2.6,2.5-4c0.3-0.4,0.5-0.8,0.8-1.3c0.1-0.1,0.2-0.2,0.2-0.4c0.3-0.4,0.5-0.9,0.8-1.3
	c0.4-0.7,0.9-1.4,1.3-2.2c0.1-0.1,0.2-0.3,0.2-0.4c1-1.7,1.9-3.5,2.9-5.2c0.3-0.6,0.6-1.2,1-1.9c0.2-0.4,0.5-0.9,0.7-1.3l0,0
	c0.1-0.1,0.1-0.2,0.2-0.3c0.7-1.4,1.4-2.7,2-4.1c0.3-0.7,0.6-1.4,0.9-2.1c0.2-0.5,0.5-1,0.7-1.6c0.7-1.6,1.4-3.3,2.1-4.9l0,0
	c0.2,0,0.4,0,0.7,0c0.2,0,0.4,0,0.7,0c0.5,0,1,0.1,1.5,0.1h0.1c0.4,0,0.8,0,1.2,0c0.6,0,1.1,0,1.7,0.1
	C1034,352.9,1034.3,352.9,1034.7,352.9z"/>
<path class="st2" d="M1027.9,352.6c-12,29.7-31.9,55.4-57.2,74.3c-5.9,4.5-12.2,8.5-18.6,12.2c-7.3,4.2-15,7.8-22.9,10.9
	c-6.2,2.4-12.5,4.5-19,6.2c-6.7,1.8-13.5,3.1-20.4,4.1c-6.8,0.9-13.8,1.5-20.8,1.6c-1.1,0-2.2,0-3.4,0c-1.6,0-3.1,0-4.7-0.1
	c-6.7-0.2-13.2-0.7-19.7-1.6c-5.2-0.7-10.2-1.6-15.2-2.8c-6.6-1.5-13-3.4-19.3-5.7c-7.5-2.7-14.8-5.9-21.7-9.5
	c-5.9-3.1-11.6-6.5-17.1-10.2c-27.9-18.8-50-45.5-63.3-76.8c6.7-0.6,13.3-1.5,19.8-2.8c25.2,51.8,78.4,87.4,139.8,87.4
	c62.6,0,116.6-37,141.2-90.4C1012.7,351.1,1020.2,352.1,1027.9,352.6z"/>
<path class="st2" d="M3185.7,227.8c2.1,1.3,4.3,2.5,6.6,3.5C3190,230.2,3187.8,229,3185.7,227.8z"/>
<path class="st0" d="M3185.7,227.8c2.1,1.3,4.3,2.5,6.6,3.5C3190,230.2,3187.8,229,3185.7,227.8z"/>
<path class="st0" d="M986.8,344.9c-22.6,44.6-68.9,75.1-122.2,75.1c-52.4,0-97.8-29.4-120.9-72.5c-6.3,2.1-12.8,3.8-19.4,5.1
	c25.2,51.8,78.4,87.4,139.8,87.4c62.6,0,116.6-37,141.2-90.4C999,348.4,992.9,346.8,986.8,344.9z"/>
<path class="st2" d="M3189.5,93c-0.2,0-0.5-0.1-0.7-0.1l0,0C3189,92.9,3189.3,93,3189.5,93z"/>
<path class="st2" d="M3210.2,95.8L3210.2,95.8C3210.2,95.8,3210.1,95.8,3210.2,95.8c-0.2,0-0.3,0-0.4,0
	C3209.9,95.7,3210.1,95.7,3210.2,95.8z"/>
<path class="st2" d="M80.9,440.2c-4.8-2.7-9.5-5.6-14.1-8.7C62,465.3,34.3,491.8,0,494.7h-0.1v20.6
	C40.6,510.7,73.3,479.9,80.9,440.2z"/>
<path class="st0" d="M66.8,431.5c-27.4-18.8-49.2-45.1-62.4-76c-1.3,0.1-2.6,0.2-3.8,0.3c-0.2,0-0.5,0-0.7,0v139H0
	C34.4,491.8,62,465.3,66.8,431.5z"/>
<path class="st2" d="M326.7,355.4C326.7,355.4,326.7,355.5,326.7,355.4c-13,30.7-34.5,56.8-61.5,75.5c-5.4,3.7-11,7.2-16.8,10.3
	c-3.4,1.8-6.8,3.5-10.3,5.1c-0.9,0.4-1.8,0.8-2.6,1.2c-1.3,0.6-2.6,1.1-4,1.7s-2.8,1.1-4.2,1.6c-5.6,2.1-11.3,4-17.2,5.5
	c-6.3,1.6-12.7,3-19.2,3.9l0,0c-6.8,1-13.7,1.6-20.6,1.8l0,0c-1.6,0-3.1,0.1-4.7,0.1h-3.7l0,0c-6.7-0.1-13.2-0.7-19.7-1.5l0,0l0,0
	c-6.5-0.9-12.8-2.1-19-3.6l0,0c-6.7-1.7-13.1-3.7-19.5-6.1l0,0c-7.9-3-15.5-6.5-22.7-10.5l0,0c-4.8-2.7-9.5-5.6-14.1-8.7l0,0
	c-27.4-18.8-49.2-45.1-62.4-76c0,0,0,0,0.1,0c4.6-0.5,9.1-1.1,13.5-1.8c1.6-0.3,3.3-0.6,4.9-0.9c1.1-0.2,2.2-0.4,3.3-0.7
	c0,0,0,0,0,0.1c25.2,51.9,78.4,87.5,139.9,87.5c40.4,0,77.1-15.4,104.8-40.7c3.9-3.6,7.6-7.3,11.2-11.3
	c9.5-10.6,17.6-22.5,23.9-35.5c0-0.1,0.1-0.1,0.1-0.2C312.8,353.8,319.7,354.8,326.7,355.4z"/>
<path class="st0" d="M164.6,420c-52.2,0-97.6-29.2-120.8-72.2c-5.8,1.8-11.7,3.4-17.7,4.6C51.3,404.3,104.5,440,166,440
	s114.7-35.8,139.9-87.6c-6.9-1.4-13.7-3.3-20.2-5.5C262.8,390.4,217.2,420,164.6,420z"/>
<path class="st2" d="M864.6,420c53.4,0,99.6-30.5,122.2-75.1c-5.6-1.8-11.1-3.8-16.5-6.1c-19.6,37.6-58.9,63.2-104.2,63.2
	c-44.8,0-83.7-25.1-103.5-61.9c-6.1,2.8-12.4,5.3-18.9,7.4C766.7,390.6,812.2,420,864.6,420z"/>
<path class="st2" d="M514.6,420c52.4,0,97.8-29.4,120.9-72.5c-6.2-2-12.2-4.3-18.1-7c-19.9,36.6-58.7,61.5-103.3,61.5
	c-44.2,0-82.7-24.4-102.7-60.5c-5.6,2.5-11.4,4.6-17.4,6.5C417.1,390.9,462.4,420,514.6,420z"/>
<path class="st2" d="M164.6,420c52.6,0,98.2-29.6,121.2-73.1c-6.2-2.1-12.1-4.5-18-7.2C248,376.8,209,402,164.1,402
	c-44.3,0-82.9-24.6-102.9-60.8c-5.3,2.3-10.7,4.4-16.3,6.2c-0.3,0.1-0.7,0.2-1,0.3l0,0C66.9,390.8,112.3,420,164.6,420z"/>
<path class="st0" d="M164.1,402c44.9,0,84-25.2,103.7-62.3c-6.6-3.1-13-6.6-19.1-10.4c-15,31.7-47.2,53.7-84.6,53.7
	c-36.6,0-68.4-21.1-83.7-51.8c-3.9,2.3-7.9,4.5-12,6.6c-2.4,1.2-4.8,2.3-7.2,3.4l0,0C81.1,377.4,119.7,402,164.1,402z"/>
<path class="st0" d="M514.1,402c44.6,0,83.4-24.9,103.3-61.5c-6.6-3-13-6.4-19.2-10.2C583,361.5,551.1,383,514,383
	c-36.5,0-68-20.9-83.5-51.3c-6.2,3.7-12.6,7-19.3,9.9C431.4,377.6,469.9,402,514.1,402z"/>
<path class="st0" d="M866.1,402c45.3,0,84.6-25.7,104.2-63.2c-7.3-3.1-14.3-6.7-21-10.8c-14.7,32.5-47.3,55-85.3,55
	c-36.8,0-68.7-21.3-83.9-52.2c-5.7,3.4-11.5,6.6-17.6,9.3C782.4,376.9,821.3,402,866.1,402z"/>
<path class="st2" d="M164.1,383c37.4,0,69.7-22,84.6-53.7c-6.1-3.8-12-8-17.5-12.6c-11,27.1-37.5,46.2-68.6,46.2
	c-29.5,0-54.9-17.2-66.8-42.1l0,0c-3.4,2.5-6.8,5-10.4,7.2c-1.7,1.1-3.3,2.1-5,3.1l0,0C95.7,361.9,127.4,383,164.1,383z"/>
<path class="st2" d="M514.1,383c37,0,69-21.5,84.2-52.7c-5.6-3.4-10.9-7.1-16.1-11.1C570.6,345,544.7,363,514.6,363
	c-29.7,0-55.3-17.5-67.1-42.7c-5.4,4.1-11,7.9-16.9,11.4C446,362.1,477.6,383,514.1,383z"/>
<path class="st2" d="M864.1,383c37.9,0,70.6-22.6,85.3-55c-6.5-3.9-12.6-8.2-18.5-12.9c-10.6,28-37.6,47.9-69.2,47.9
	c-29.5,0-54.9-17.2-66.8-42.1c-4.7,3.5-9.6,6.8-14.6,9.9C795.4,361.7,827.3,383,864.1,383z"/>
<path class="st2" d="M2978.2,63.2L2978.2,63.2C2978.1,63.2,2978.1,63.2,2978.2,63.2L2978.2,63.2L2978.2,63.2z"/>
<path class="st0" d="M2978.2,63.2L2978.2,63.2C2978.1,63.2,2978.1,63.2,2978.2,63.2L2978.2,63.2L2978.2,63.2z"/>
<path class="st0" d="M102.8,315.3c-2.3,1.9-4.6,3.8-7,5.5c11.9,24.9,37.3,42.1,66.8,42.1c31,0,57.6-19.1,68.6-46.2
	c-30.6-24.9-52.5-59.8-60.9-99.8c-1.6,0-3.1,0.1-4.7,0.1c-1.2,0-2.5,0-3.7,0c-6.9,33.3-23.4,63.1-46.3,86.5
	C111.5,307.7,107.2,311.6,102.8,315.3z"/>
<path class="st0" d="M447.5,320.3c11.8,25.2,37.4,42.7,67.1,42.7c30.1,0,56-18,67.6-43.9c-32.1-25-55.2-60.9-63.9-102.2
	c-0.9,0-1.8,0-2.7,0s-1.8,0-2.7,0C504.1,258.9,480.4,295.3,447.5,320.3z"/>
<path class="st0" d="M794.8,320.9c11.9,24.9,37.3,42.1,66.8,42.1c31.7,0,58.7-19.9,69.2-47.9c-30.6-24.3-52.9-58.7-61.9-98.1
	c-1.1,0-2.2,0-3.4,0c-1.6,0-3.1,0-4.7-0.1C852.1,259.2,828,295.8,794.8,320.9z"/>
<path class="st2" d="M344.3,6c-0.9,0-1.8,0-2.7,0c-1.6,0-3.1,0-4.7,0.1l0,0c1.2,5.6,2.1,11.2,2.7,16.9l0,0c0.7,0,1.4,0,2,0
	C342.2,17.3,343.1,11.6,344.3,6z"/>
<path class="st2" d="M231.2,316.8c5.6,4.5,11.4,8.7,17.5,12.6c6.1,3.8,12.5,7.3,19.1,10.4c5.8,2.7,11.8,5.1,18,7.2
	c6.6,2.2,13.3,4,20.2,5.5c6.8,1.4,13.7,2.4,20.7,3c4.9,0.4,9.8,0.6,14.9,0.6c4.3,0,8.7-0.2,12.9-0.5c6.7-0.5,13.4-1.4,19.9-2.6
	c6.7-1.3,13.2-2.9,19.6-4.9c5.9-1.9,11.7-4,17.4-6.5c6.7-2.9,13.1-6.2,19.3-9.9c5.9-3.5,11.5-7.3,16.9-11.4
	c32.9-25,56.6-61.4,65.4-103.3c-6.7-0.1-13.3-0.6-19.8-1.4c-16.6,68-77.9,118.4-151,118.4c-73.2,0-134.7-50.6-151.1-118.8l0,0
	c-4.3,0.6-8.7,1.1-13.1,1.4l0,0c-2.5,0.2-5,0.3-7.5,0.4l0,0C178.6,256.9,200.6,291.9,231.2,316.8z"/>
<path class="st0" d="M341.6,23c-0.7,0-1.4,0-2,0c0.5,4.8,0.8,9.6,1,14.5c0,0.5,0,1,0,1.4l0,0c0,0,0,0,0.1,0
	C340.7,33.6,341,28.3,341.6,23z"/>
<path class="st0" d="M342.1,334c73.1,0,134.4-50.4,151-118.4c-6.2-0.8-12.4-1.9-18.4-3.4c-15.8,58.1-69,100.8-132.1,100.8
	c-63.5,0-116.8-43.2-132.4-101.7l0,0c-6.3,1.6-12.7,3-19.2,3.9C207.4,283.4,268.8,334,342.1,334z"/>
<path class="st2" d="M691.6,23c0.6-5.7,1.5-11.4,2.7-17c-1.6,0-3.1-0.1-4.7-0.1c-0.9,0-1.8,0-2.7,0c1.2,5.6,2.1,11.2,2.7,17
	c0.2,0,0.4,0,0.5,0C690.6,23,691.1,23,691.6,23z"/>
<path class="st2" d="M582.2,319.1c5.1,4,10.5,7.7,16.1,11.1c6.2,3.8,12.6,7.2,19.2,10.2c5.9,2.7,11.9,5,18.1,7
	c6,2,12.2,3.6,18.5,4.9c7.4,1.5,14.9,2.6,22.6,3.1c4.3,0.3,8.6,0.5,12.9,0.5c5,0,10-0.2,14.9-0.6c6.7-0.6,13.3-1.5,19.8-2.8
	c6.6-1.3,13.1-3,19.4-5.1c6.5-2.1,12.8-4.6,18.9-7.4c6.1-2.8,11.9-5.9,17.6-9.3c5-3.1,9.9-6.4,14.6-9.9
	c33.3-25.1,57.3-61.7,66.1-103.9c-6.7-0.2-13.2-0.7-19.7-1.6C824.7,283.4,763.3,334,690.1,334S555.6,283.5,539,215.4
	c-6.8,0.9-13.7,1.4-20.7,1.5C526.9,258.2,550.1,294.2,582.2,319.1z"/>
<path class="st0" d="M691.6,23c-0.5,0-1,0-1.5,0c-0.2,0-0.4,0-0.5,0c0.7,6.2,1,12.6,1,19C690.6,35.6,690.9,29.3,691.6,23z"/>
<path class="st0" d="M690.6,42c0,0.7,0,1.4,0,2c0,0,0,0,0.1,0C690.6,43.3,690.6,42.7,690.6,42z"/>
<path class="st0" d="M690.1,334c73.2,0,134.6-50.6,151.1-118.7c-5.2-0.7-10.2-1.7-15.2-2.8C811.7,273,757.4,318,692.6,318
	c-65.2,0-119.7-45.5-133.6-106.4c-6.5,1.7-13.2,3-20,3.9C555.6,283.5,616.9,334,690.1,334z"/>
<path class="st2" d="M1034.7,330.9v22c-0.3,0-0.7,0-1,0c-0.6,0-1.1,0-1.7-0.1c-0.4,0-0.8,0-1.2,0h-0.1c-0.5,0-1-0.1-1.5-0.1
	c-0.2,0-0.4,0-0.7,0c-0.2,0-0.4,0-0.7,0h-0.1c-0.9-0.1-1.9-0.1-2.8-0.2s-1.9-0.2-2.9-0.3l0,0c-5.7-0.6-11.3-1.4-16.8-2.5l0,0
	c-1.6-0.3-3.1-0.6-4.7-1c-0.2,0-0.3-0.1-0.5-0.1c-0.1,0-0.2,0-0.4-0.1c-0.5-0.1-1-0.2-1.4-0.3c-0.2,0-0.4-0.1-0.6-0.1
	c-0.6-0.1-1.1-0.3-1.7-0.4c-0.9-0.2-1.8-0.5-2.7-0.7c-1.4-0.4-2.9-0.8-4.3-1.2c-0.8-0.2-1.5-0.5-2.3-0.7c-4.9-1.5-9.7-3.3-14.5-5.2
	c-0.7-0.3-1.4-0.6-2-0.9c-1.5-0.7-3.1-1.3-4.6-2c-0.5-0.2-0.9-0.4-1.4-0.7c-1.4-0.7-2.9-1.4-4.3-2.1c-0.3-0.1-0.6-0.3-0.9-0.5
	c-0.3-0.1-0.6-0.3-0.9-0.5c-0.2-0.1-0.3-0.2-0.5-0.2c-0.4-0.2-0.9-0.5-1.3-0.7l0,0c-0.7-0.4-1.4-0.8-2.1-1.1c-1.7-0.9-3.3-1.9-5-2.9
	c0,0,0,0-0.1,0c-6.4-3.9-12.5-8.2-18.4-12.8c0,0,0,0-0.1-0.1c-0.7-0.5-1.3-1.1-2-1.6c-0.1-0.1-0.2-0.2-0.3-0.2
	c-0.1-0.1-0.2-0.2-0.4-0.3c-0.7-0.6-1.4-1.1-2.1-1.7c0,0-0.1-0.1-0.2-0.1c-0.2-0.2-0.5-0.4-0.7-0.6s-0.5-0.4-0.7-0.6
	c-0.7-0.6-1.4-1.2-2.1-1.9c-0.8-0.8-1.7-1.5-2.5-2.3c-1-1-2.1-2-3.1-3c-0.8-0.8-1.5-1.5-2.3-2.3c-1.7-1.7-3.4-3.5-5-5.3
	s-3.2-3.7-4.8-5.5l0,0c-0.8-0.9-1.5-1.9-2.3-2.8c-0.3-0.4-0.7-0.8-1-1.3c-0.7-0.9-1.3-1.7-2-2.6c-0.3-0.4-0.6-0.9-1-1.3
	c-0.3-0.4-0.7-0.9-1-1.3c-0.6-0.9-1.3-1.8-1.9-2.7c-0.1-0.1-0.1-0.2-0.2-0.3c-0.5-0.8-1.1-1.6-1.6-2.4c-0.5-0.7-0.9-1.4-1.4-2.1
	c-0.2-0.4-0.5-0.8-0.7-1.1c-10.4-16.5-18.2-34.8-22.6-54.4c0-0.1,0-0.1,0-0.2c7-0.1,14-0.7,20.8-1.6v0.1v0.1
	c7.7,28.9,23.4,54.5,44.7,74.2c2.2,2,4.5,4,6.8,5.9c0.8,0.7,1.6,1.3,2.4,2c0.8,0.7,1.7,1.3,2.5,2c2.8,2.1,5.7,4.2,8.7,6.1
	c1,0.7,2.1,1.3,3.1,2l0,0c1.1,0.7,2.3,1.4,3.5,2.1c2.3,1.4,4.7,2.7,7.1,3.9l0,0c1.2,0.6,2.5,1.3,3.8,1.9l0,0
	c1.3,0.6,2.5,1.2,3.8,1.8c3.1,1.4,6.2,2.7,9.4,3.9l0,0c0.8,0.3,1.5,0.5,2.2,0.8c1.5,0.5,3,1,4.6,1.5c0.8,0.2,1.5,0.5,2.3,0.7
	C1007.5,328.1,1020.8,330.4,1034.7,330.9z"/>
<path class="st0" d="M1041,29.4v0.1h-0.9v-0.1H1041z"/>
<path class="st0" d="M1034.7,312.8v18.1c-13.8-0.5-27.2-2.8-39.9-6.6c-0.8-0.2-1.5-0.5-2.3-0.7c-1.5-0.5-3-1-4.6-1.5
	c-0.8-0.3-1.5-0.5-2.2-0.8l0,0c-3.2-1.2-6.3-2.5-9.4-3.9c-1.3-0.6-2.5-1.2-3.8-1.8l0,0c-1.3-0.6-2.5-1.2-3.8-1.9l0,0
	c-2.4-1.2-4.8-2.5-7.1-3.9c-1.2-0.7-2.3-1.4-3.5-2.1l0,0c-1-0.6-2.1-1.3-3.1-2c-3-1.9-5.9-4-8.7-6.1c-0.8-0.6-1.7-1.3-2.5-2
	c-0.8-0.6-1.6-1.3-2.4-2c-2.3-1.9-4.6-3.9-6.8-5.9c-21.3-19.7-37.1-45.3-44.7-74.2v-0.1l0,0c6.9-1,13.7-2.3,20.4-4.1v0.1
	c5.6,20.9,15.9,39.8,29.9,55.5c1,1.1,2,2.2,3,3.3c1,1.1,2.1,2.2,3.2,3.2c0.5,0.5,1.1,1.1,1.7,1.6
	C970.8,296.9,1001.1,310.9,1034.7,312.8z"/>
<path class="st2" d="M2978.2,63.2L2978.2,63.2C2978.1,63.2,2978.1,63.2,2978.2,63.2L2978.2,63.2L2978.2,63.2z"/>
<path class="st2" d="M3189.5,93c-0.2,0-0.5-0.1-0.7-0.1l0,0C3189,92.9,3189.3,93,3189.5,93z"/>
<path class="st2" d="M3210.2,95.8L3210.2,95.8C3210.2,95.8,3210.1,95.8,3210.2,95.8c-0.2,0-0.3,0-0.4,0
	C3209.9,95.7,3210.1,95.7,3210.2,95.8z"/>
<path class="st2" d="M4.5,355.5c6.2-0.5,12.4-1.3,18.4-2.5c1.1-0.2,2.2-0.4,3.3-0.7l0,0c6-1.2,11.9-2.8,17.7-4.6l0,0
	c0.3-0.1,0.7-0.2,1-0.3c5.6-1.8,11-3.9,16.3-6.2l0,0c2.4-1.1,4.8-2.2,7.2-3.4c4.1-2,8.1-4.2,12-6.6l0,0c1.7-1,3.4-2,5-3.1
	c3.5-2.3,7-4.7,10.4-7.2l0,0c2.4-1.8,4.7-3.6,7-5.5c4.5-3.7,8.7-7.7,12.8-11.8c23-23.4,39.4-53.2,46.3-86.5
	c-4.3-0.1-8.5-0.3-12.8-0.7l0,0c-2.3-0.2-4.6-0.5-6.9-0.8c-0.2,0.9-0.4,1.7-0.7,2.6c-7.2,27.5-21.8,52.1-41.5,71.4
	c-3.4,3.4-7,6.6-10.8,9.6c-0.8,0.6-1.6,1.3-2.4,1.9c-4.4,3.5-9.1,6.7-13.9,9.7c-1.6,1-3.3,2-5,2.9c-5,2.9-10.2,5.5-15.5,7.7
	c-1.3,0.6-2.7,1.1-4.1,1.7c-4.4,1.7-8.8,3.3-13.4,4.6c-5.6,1.6-11.3,3-17.2,4l0,0c-1.3,0.2-2.6,0.4-4,0.6c-4.3,0.6-8.7,1.1-13.2,1.4
	c-0.3,0-0.6,0-0.8,0v9.7v3.8v8.5c0.2,0,0.5,0,0.7,0C1.9,355.6,3.2,355.6,4.5,355.5z"/>
<path class="st2" d="M340.6,42c0,1.2,0,2.5,0,3.7l0,0h0.1C340.6,44.5,340.6,43.2,340.6,42z"/>
<path class="st2" d="M340.6,39c0,1,0,2,0,3C340.6,41,340.6,40,340.6,39L340.6,39z"/>
<path class="st2" d="M342.6,313c63.1,0,116.3-42.7,132.2-100.8c-7.5-1.8-14.8-4.1-21.8-6.8c-14.2,48.9-59.4,84.6-112.8,84.6
	c-53.3,0-98.4-35.5-112.7-84.2c-4.4,1.7-9,3.2-13.6,4.5c-1.2,0.3-2.4,0.7-3.6,1C225.7,269.8,279.1,313,342.6,313z"/>
<path class="st2" d="M3114.9-50.3C3114.8-50.3,3114.8-50.3,3114.9-50.3c-0.1,0-0.1-0.1-0.1-0.1L3114.9-50.3
	C3114.8-50.4,3114.8-50.3,3114.9-50.3z"/>
<path class="st2" d="M1034.7,289.8v23c-33.6-1.9-63.9-15.9-86.7-37.7c-0.6-0.5-1.1-1.1-1.7-1.6c-1.1-1.1-2.1-2.1-3.2-3.2
	c-1-1.1-2-2.2-3-3.3c-13.9-15.7-24.3-34.7-29.8-55.6c0,0,0,0,0-0.1c6.5-1.7,12.7-3.8,18.9-6.2h0.1l0,0c9.3,32.3,32.1,58.9,61.9,73.3
	c1,0.5,2,0.9,3,1.4c0.5,0.2,1,0.5,1.5,0.7s1,0.4,1.5,0.7c1,0.4,2.1,0.9,3.2,1.3c1.7,0.6,3.4,1.2,5.1,1.8c1.2,0.4,2.4,0.8,3.6,1.1
	c1.2,0.4,2.5,0.7,3.8,1c0.6,0.2,1.3,0.3,1.9,0.5c0.7,0.2,1.3,0.3,2,0.4l0,0c1.4,0.3,2.7,0.6,4.1,0.8c0.4,0.1,0.9,0.2,1.3,0.2
	c0.4,0.1,0.8,0.1,1.2,0.2c0.7,0.1,1.5,0.2,2.2,0.3c0.1,0,0.2,0,0.3,0c0.6,0.1,1.2,0.2,1.9,0.2c1.5,0.2,3.1,0.4,4.7,0.5
	C1033.1,289.7,1033.9,289.7,1034.7,289.8z"/>
<path class="st0" d="M3114.9-50.3C3114.8-50.3,3114.8-50.3,3114.9-50.3c-0.1,0-0.1-0.1-0.1-0.1L3114.9-50.3
	C3114.8-50.4,3114.8-50.3,3114.9-50.3z"/>
<path class="st2" d="M690.7,47.3h-0.2c0-1.1,0-2.2,0.1-3.3C690.6,45.1,690.6,46.2,690.7,47.3z"/>
<path class="st2" d="M692.6,318c64.8,0,119.1-45,133.4-105.5c-6.6-1.5-13-3.4-19.3-5.7c-12,52.2-58.8,91.2-114.6,91.2
	c-56.2,0-103.2-39.5-114.8-92.2c-6,2.2-12.1,4.2-18.3,5.8C572.9,272.5,627.4,318,692.6,318z"/>
<path class="st0" d="M13.9,332.3c1.3-0.2,2.6-0.4,4-0.6l0,0c5.8-1,11.6-2.4,17.2-4c4.6-1.3,9-2.9,13.4-4.6c1.4-0.6,2.7-1.1,4.1-1.7
	c5.3-2.3,10.5-4.9,15.5-7.7c1.7-0.9,3.3-1.9,5-2.9c4.8-3,9.5-6.2,13.9-9.7c0.8-0.6,1.6-1.3,2.4-1.9c3.7-3,7.3-6.3,10.8-9.6
	c19.7-19.3,34.3-43.9,41.5-71.4c0.2-0.9,0.4-1.7,0.7-2.6c-6.5-0.9-12.8-2.1-19.1-3.6c-1.5,6.4-3.4,12.6-5.7,18.6
	c-6.3,16.3-15.7,31.1-27.3,43.7c-1.5,1.6-3.1,3.2-4.7,4.8c-4.3,4.2-8.8,8.1-13.6,11.7c-0.4,0.3-0.8,0.6-1.2,0.9
	c-6.2,4.5-12.7,8.6-19.6,12c-0.9,0.4-1.8,0.9-2.7,1.3c-5.7,2.7-11.6,5-17.7,7c-1.4,0.5-2.9,0.9-4.3,1.3c-4.1,1.1-8.3,2.1-12.5,2.8
	c-4.2,0.8-8.6,1.3-12.9,1.7c-0.3,0-0.6,0.1-0.9,0.1v12v4.1c0.3,0,0.6,0,0.8,0C5.2,333.4,9.6,333,13.9,332.3z"/>
<path class="st0" d="M1034.7,270.5v19.2c-0.8,0-1.5-0.1-2.3-0.2c-1.6-0.1-3.1-0.3-4.7-0.5c-0.6-0.1-1.2-0.1-1.9-0.2
	c-0.1,0-0.2,0-0.3,0c-0.7-0.1-1.5-0.2-2.2-0.3c-0.4-0.1-0.8-0.1-1.2-0.2s-0.9-0.1-1.3-0.2c-1.4-0.2-2.7-0.5-4.1-0.8l0,0
	c-0.7-0.1-1.3-0.3-2-0.4c-0.6-0.2-1.3-0.3-1.9-0.5c-1.3-0.3-2.5-0.7-3.8-1c-1.2-0.4-2.4-0.7-3.6-1.1c-1.7-0.6-3.4-1.2-5.1-1.8
	c-1.1-0.4-2.1-0.8-3.2-1.3c-0.5-0.2-1-0.4-1.5-0.7c-0.5-0.2-1-0.4-1.5-0.7c-1-0.5-2-0.9-3-1.4c-29.8-14.3-52.7-40.9-62-73.2
	c0,0,0,0,0-0.1l0,0c7.9-3.1,15.6-6.7,22.9-10.9c0,0,0,0,0,0.1l0,0c6.2,34.9,31.8,63,65.3,72.9c0.1,0,0.2,0.1,0.3,0.1s0.2,0,0.3,0.1
	c1.1,0.3,2.3,0.7,3.4,0.9l0,0c0.3,0.1,0.7,0.2,1,0.2s0.7,0.2,1,0.2c0.5,0.1,1.1,0.2,1.6,0.3c0,0,0.1,0,0.2,0
	c0.4,0.1,0.9,0.2,1.3,0.3c0.4,0.1,0.8,0.2,1.3,0.2c0.4,0.1,0.8,0.2,1.3,0.2c0.4,0.1,0.9,0.1,1.3,0.2l0,0l1.3,0.2l0,0
	c0.5,0.1,1.1,0.1,1.7,0.2l0,0h0.1C1033.9,270.4,1034.3,270.5,1034.7,270.5z"/>
<path class="st0" d="M692.1,298c55.8,0,102.6-39,114.5-91.2c-7.5-2.7-14.8-5.9-21.7-9.5c-8.3,43.1-46.3,75.7-91.8,75.7
	c-46.4,0-84.9-33.8-92.2-78.2c-7.5,4.2-15.4,7.9-23.5,10.9C588.9,258.5,635.9,298,692.1,298z"/>
<path class="st0" d="M340.1,290c53.5,0,98.6-35.7,112.8-84.6c-7.3-2.8-14.3-6-21.1-9.7c-8.5,42.9-46.3,75.3-91.7,75.3
	c-45.2,0-83-32.1-91.6-74.8c-1.4,0.8-2.9,1.5-4.4,2.3c-5.4,2.7-11,5.2-16.7,7.3l0,0C241.7,254.5,286.7,290,340.1,290z"/>
<path class="st2" d="M784.9,197.3c-8.3,43.1-46.3,75.7-91.8,75.7c-18.9,0-36.4-5.6-51.1-15.2c-1.1-0.7-2.2-1.5-3.3-2.3
	c-0.5-0.4-1.1-0.8-1.6-1.2c-18.8-14.1-32.2-35.2-36.2-59.5l0,0l0,0c7-3.9,13.7-8.2,20-13v0.1c1.5,19.1,10.2,36.1,23.4,48.3
	c13.2,12.3,30.9,19.8,50.4,19.8c37.1,0,67.8-27.3,73.2-62.9C773.3,190.8,779,194.2,784.9,197.3z"/>
<path class="st0" d="M767.8,187.1c-5.4,35.6-36.1,62.9-73.2,62.9c-19.5,0-37.2-7.5-50.4-19.8s-21.9-29.3-23.3-48.4
	c5.7-4.3,11.2-9,16.3-13.9c1-1,2.1-2.1,3.1-3.1c0.7-0.7,1.3-1.3,1.9-2c0.1-0.1,0.2-0.2,0.2-0.2c0.1-0.1,0.2-0.2,0.3-0.3l0.1-0.1
	c0.3-0.4,0.7-0.7,1-1.1c0.5-0.6,1.1-1.2,1.6-1.8c0.9-1,1.7-1.9,2.6-2.9c0.8-1,1.7-2,2.5-3c7.4-9,14-18.8,19.5-29.1
	c0.6-1.1,1.2-2.3,1.8-3.5c1.2-2.3,2.3-4.6,3.3-7c0.8-1.8,1.6-3.7,2.4-5.6c0.2-0.6,0.5-1.1,0.7-1.7s0.5-1.1,0.7-1.7
	c3.1-8.1,5.6-16.4,7.5-25.1c2.3-10.5,3.7-21.3,4-32.4h0.2c0.2,5.6,0.6,11.1,1.3,16.5c0.3,2.7,0.7,5.4,1.2,8.1l0,0
	c0.4,2.6,1,5.2,1.5,7.8c6.8,31,21.8,59,42.8,81.4c0.5,0.5,0.9,1,1.3,1.4c1.1,1.2,2.2,2.3,3.3,3.4c5,5,10.3,9.7,15.8,14.1
	C761.1,182.5,764.4,184.8,767.8,187.1z"/>
<path class="st0" d="M637.2,167.8c1-1,2.1-2,3.1-3.1C639.3,165.8,638.3,166.9,637.2,167.8c-5.1,5-10.6,9.7-16.3,14l0,0
	C626.7,177.5,632.1,172.8,637.2,167.8z"/>
<path class="st2" d="M431.8,195.7c-0.1,0.7-0.3,1.3-0.4,2c-0.1,0.6-0.3,1.3-0.4,2c0,0,0,0,0,0.1c-0.3,1.3-0.7,2.6-1,3.9
	c-5.4,18.8-16.6,35.2-31.6,47.1c-1.5,1.2-3.1,2.4-4.8,3.5c-0.5,0.4-1.1,0.8-1.6,1.1c-1.6,1.1-3.3,2.1-5,3.1l-0.1,0.1
	c-1.7,1-3.4,1.9-5.2,2.8c0,0,0,0-0.1,0c-0.6,0.3-1.1,0.5-1.7,0.8s-1.2,0.6-1.9,0.9l0,0c-0.6,0.3-1.2,0.5-1.8,0.8
	c-1.2,0.5-2.5,1-3.7,1.5c-1.3,0.5-2.5,0.9-3.8,1.3s-2.6,0.8-3.9,1.1c-0.6,0.2-1.3,0.4-2,0.5c-1.3,0.3-2.6,0.6-4,0.9l0,0
	c-1.3,0.3-2.7,0.5-4,0.7c-1.4,0.2-2.7,0.4-4.1,0.5c-3.4,0.4-6.9,0.6-10.5,0.6c-0.8,0-1.6,0-2.4,0s-1.6,0-2.4-0.1
	c-0.6,0-1.2-0.1-1.8-0.1c-0.5,0-0.9-0.1-1.4-0.1c-0.3,0-0.7-0.1-1-0.1s-0.7,0-1-0.1c-0.4,0-0.8-0.1-1.2-0.1c-0.4,0-0.8-0.1-1.1-0.1
	c-0.3,0-0.5-0.1-0.8-0.1c-0.5-0.1-0.9-0.1-1.4-0.2c-0.2,0-0.4-0.1-0.6-0.1c-0.5-0.1-1-0.2-1.6-0.3c-0.7-0.1-1.3-0.2-2-0.4
	c-0.9-0.2-1.8-0.4-2.7-0.6c-0.2-0.1-0.5-0.1-0.7-0.2c-0.4-0.1-0.7-0.2-1-0.3l0,0c-0.3-0.1-0.6-0.2-0.9-0.2c-0.7-0.2-1.4-0.4-2.1-0.6
	c-0.2,0-0.4-0.1-0.5-0.2c-0.4-0.1-0.8-0.2-1.2-0.4c-0.3-0.1-0.7-0.2-1-0.3l0,0c-0.1,0-0.2,0-0.3-0.1c-0.2-0.1-0.5-0.2-0.7-0.2
	c-0.3-0.1-0.6-0.2-1-0.3c-0.2-0.1-0.5-0.2-0.7-0.2h-0.1c-0.9-0.3-1.7-0.6-2.6-1c-0.6-0.2-1.1-0.4-1.7-0.7c-0.6-0.2-1.2-0.5-1.8-0.8
	c0,0,0,0-0.1,0c-7.9-3.5-15.2-8-21.8-13.5c-5.5-4.6-10.6-9.8-14.9-15.6c-0.4-0.5-0.8-1-1.1-1.5c0-0.1-0.1-0.1-0.1-0.2
	c-0.3-0.5-0.7-0.9-1-1.4c-0.1-0.2-0.2-0.3-0.4-0.5l0,0c-0.5-0.7-0.9-1.4-1.4-2.1c0-0.1-0.1-0.1-0.1-0.2c-0.1-0.2-0.2-0.3-0.3-0.5
	c-0.3-0.5-0.6-1-1-1.5c0-0.1-0.1-0.2-0.2-0.2c-0.4-0.7-0.8-1.3-1.2-2c0-0.1-0.1-0.2-0.2-0.3c-0.4-0.7-0.8-1.3-1.1-2
	c0-0.1-0.1-0.2-0.1-0.3c-0.1-0.1-0.2-0.3-0.2-0.4c-0.3-0.6-0.7-1.3-1-1.9c-0.3-0.6-0.6-1.2-0.9-1.8c-0.6-1.2-1.1-2.4-1.6-3.6
	c-0.9-2.2-1.8-4.6-2.6-6.9c-0.1-0.4-0.3-0.8-0.4-1.2c-0.1-0.2-0.2-0.5-0.2-0.8c-0.1-0.4-0.3-0.9-0.4-1.3c-0.2-0.6-0.3-1.2-0.5-1.8
	c-0.1-0.4-0.2-0.9-0.3-1.3c-0.2-0.6-0.3-1.2-0.5-1.9s-0.3-1.5-0.5-2.2c5-2.7,9.8-5.6,14.4-8.7c0.8-0.5,1.5-1,2.3-1.5
	c0,0,0,0,0.1-0.1c1.5,11.6,5.8,22.4,12.1,31.7c0.4,0.6,0.8,1.2,1.3,1.8c0.7,0.9,1.3,1.8,2,2.6s1.4,1.7,2.1,2.5
	c0.4,0.4,0.7,0.8,1.1,1.2c0.7,0.8,1.5,1.6,2.2,2.3c2.5,2.5,5.1,4.8,7.9,6.9c0.7,0.5,1.4,1,2.1,1.5c0.9,0.6,1.8,1.2,2.7,1.8
	c1.4,0.9,2.8,1.7,4.2,2.5c1,0.5,1.9,1,2.9,1.5c3.4,1.7,7,3.1,10.8,4.3c1.1,0.3,2.1,0.6,3.2,0.9c6,1.5,12.2,2.4,18.7,2.4
	c38.4,0,70-29.3,73.6-66.8C418.4,187.8,425,192,431.8,195.7z"/>
<path class="st0" d="M412.2,183.2c-3.6,37.5-35.2,66.8-73.6,66.8c-6.5,0-12.7-0.8-18.7-2.4c-1.1-0.3-2.2-0.6-3.2-0.9
	c-3.7-1.2-7.3-2.6-10.8-4.3c-1-0.5-2-1-2.9-1.5c-1.4-0.8-2.8-1.6-4.2-2.5c-0.9-0.6-1.8-1.2-2.7-1.8c-0.7-0.5-1.4-1-2.1-1.5
	c-2.8-2.1-5.4-4.4-7.9-6.9c-0.8-0.8-1.5-1.5-2.2-2.3c-0.4-0.4-0.8-0.8-1.1-1.2c-0.7-0.8-1.4-1.6-2.1-2.5s-1.4-1.7-2-2.6
	c-0.4-0.6-0.9-1.2-1.3-1.8c-6.3-9.3-10.6-20.1-12.1-31.7c0,0-0.1,0-0.1,0.1c0-0.1,0-0.1,0-0.2c3.9-2.7,7.7-5.5,11.3-8.5
	c0.4-0.3,0.8-0.6,1.2-1c4.5-3.7,8.7-7.6,12.8-11.8l0.1-0.1c1.3-1.3,2.5-2.6,3.7-3.9l0,0l0.1-0.1c0.5-0.5,0.9-1,1.3-1.5
	c0.3-0.3,0.6-0.6,0.8-1l2-2.3c4.2-4.8,8-9.9,11.6-15.2l4.6-7.1c0,0,0-0.1,0.1-0.1c6-9.7,11-20,15-30.9c1.8-4.9,3.4-9.8,4.8-14.9
	c0.3-1.2,0.6-2.3,0.9-3.5c2.3-9.4,3.9-19.2,4.6-29.1c0.2-3.1,0.4-6.1,0.4-9.2c0,0.9,0,1.8,0.1,2.7c0.5,13.5,2.5,26.5,5.8,39.1
	c5.7,21.2,15.3,40.9,28,58.1c0.8,1.2,1.7,2.3,2.6,3.4c1,1.3,2.1,2.6,3.2,3.9c1.4,1.7,2.8,3.4,4.3,5c0.9,1,1.7,1.9,2.6,2.9
	c3.2,3.5,6.6,6.8,10.1,10C402,175.3,407,179.4,412.2,183.2z"/>
<path class="st0" d="M277.4,217.6c-6.3-9.2-10.6-20-12.2-31.7c0,0,0,0,0.1-0.1C266.9,197.5,271.1,208.3,277.4,217.6z"/>
<path class="st2" d="M1034.7,251.4v19.2c-0.4,0-0.8-0.1-1.1-0.2h-0.1h-0.2c-0.5-0.1-1-0.1-1.5-0.2l0,0c-0.5-0.1-0.9-0.2-1.3-0.2l0,0
	c-0.1,0-0.2,0-0.2,0c-0.3,0-0.7-0.1-1-0.2c-0.4-0.1-0.9-0.1-1.3-0.2s-0.8-0.2-1.3-0.2c-0.5-0.1-0.9-0.2-1.3-0.3c-0.1,0-0.1,0-0.2,0
	c-0.5-0.1-1.1-0.2-1.6-0.3c-0.4-0.1-0.7-0.2-1-0.2s-0.7-0.2-1-0.2l0,0c-0.2-0.1-0.5-0.2-0.7-0.2h-0.1c-0.6-0.2-1.2-0.3-1.8-0.5
	c-0.3-0.1-0.6-0.2-0.8-0.2c-0.1,0-0.2,0-0.3-0.1c-0.1,0-0.2-0.1-0.3-0.1c-0.2-0.1-0.4-0.1-0.6-0.2c-0.6-0.2-1.2-0.4-1.8-0.6
	c-0.5-0.1-0.9-0.3-1.3-0.4c-0.2-0.1-0.4-0.1-0.5-0.2c-0.5-0.2-1-0.4-1.6-0.6c-1.3-0.5-2.5-1-3.8-1.5c-1.2-0.5-2.5-1.1-3.7-1.7
	s-2.4-1.2-3.6-1.8c-1.2-0.6-2.4-1.3-3.5-2c-0.7-0.4-1.4-0.8-2.1-1.2c-0.6-0.3-1.1-0.7-1.7-1.1c-0.3-0.2-0.6-0.4-0.9-0.6
	c-0.6-0.4-1.1-0.8-1.7-1.2c-1.2-0.9-2.4-1.7-3.6-2.7c-0.3-0.2-0.5-0.4-0.8-0.6c-0.5-0.4-0.9-0.7-1.4-1.1c-0.1-0.1-0.2-0.2-0.3-0.2
	c-0.5-0.5-1.1-0.9-1.7-1.4l-0.1-0.1c-1.2-1.1-2.5-2.2-3.6-3.3c-1.2-1.2-2.4-2.3-3.5-3.6c-11.9-12.8-20.2-29-23.4-46.8v-0.1
	c2.4-1.4,4.8-2.8,7.1-4.2c1.6-1,3.1-2,4.7-3c0.6-0.4,1.2-0.8,1.8-1.3c0.6-0.4,1.2-0.8,1.8-1.3c0.3-0.2,0.7-0.5,1-0.7
	c0.1-0.1,0.2-0.1,0.3-0.2c0.3-0.2,0.6-0.4,0.8-0.6c0.4-0.3,0.6-0.5,1-0.7c0,0,0.1,0,0.1-0.1c0.9,17.2,7.6,32.8,18.2,44.9
	c0.3,0.4,0.7,0.8,1,1.2c1.5,1.7,3.1,3.2,4.8,4.8C1005.6,242.7,1019.4,249.4,1034.7,251.4z"/>
<path class="st0" d="M650.6,153.3c7.4-9,14-18.8,19.5-29.1C664.6,134.6,658.1,144.4,650.6,153.3z"/>
<path class="st0" d="M675.2,113.8c-1,2.3-2.2,4.7-3.3,7C673.1,118.4,674.2,116.1,675.2,113.8z"/>
<path class="st0" d="M340.1,55c0.2-3.1,0.4-6.2,0.5-9.2C340.6,48.8,340.4,51.8,340.1,55c-0.6,9.8-2.2,19.6-4.5,29
	c-0.3,1.2-0.6,2.3-0.9,3.5c-1.4,5.1-3,10-4.8,14.9c-4,10.8-9,21.2-15,30.9c0,0,0,0.1-0.1,0.1c6-9.7,11-20,15-30.9
	c1.9-4.9,3.4-9.9,4.8-15c0.3-1.1,0.6-2.3,0.9-3.4C337.8,74.7,339.4,65,340.1,55z"/>
<path class="st0" d="M374.6,145.6c-12.7-17.2-22.3-36.9-28-58.1c-3.4-12.5-5.4-25.6-5.8-39.1c0.5,13.5,2.5,26.5,5.9,39.1
	C352.3,108.8,361.9,128.4,374.6,145.6z"/>
<path class="st0" d="M334.7,87.5c-1.4,5.1-3,10-4.8,14.9c-4,10.8-9,21.2-15,30.9c0,0,0,0.1-0.1,0.1l-4.6,7.1
	c-3.6,5.3-7.5,10.3-11.6,15.2l-2,2.3c-0.3,0.3-0.6,0.6-0.8,1c-0.4,0.5-0.9,1-1.3,1.5l-0.1,0.1l0,0c-1.2,1.3-2.4,2.6-3.7,3.9
	l-0.1,0.1c-4.1,4.2-8.3,8.1-12.8,11.8c-0.4,0.3-0.8,0.7-1.2,1V87.5H334.7z"/>
<path class="st0" d="M397.3,87.5v83.4c-3.5-3.2-6.8-6.5-10.1-10c-0.9-1-1.8-1.9-2.6-2.9c-1.5-1.7-2.9-3.3-4.3-5
	c-1.1-1.3-2.1-2.6-3.2-3.9c-0.9-1.1-1.7-2.3-2.6-3.4c-12.7-17.2-22.3-36.9-28-58.1h50.8L397.3,87.5L397.3,87.5z"/>
<path class="st0" d="M686.5,79.7c-1.9,8.6-4.4,17-7.5,25.1c-0.2,0.6-0.4,1.2-0.7,1.7c-0.2,0.6-0.5,1.2-0.7,1.7
	c-0.8,1.9-1.6,3.7-2.4,5.6c-1,2.3-2.2,4.7-3.3,7c-0.6,1.2-1.2,2.3-1.8,3.5c-5.5,10.4-12,20.2-19.5,29.1c-0.8,1-1.7,2-2.5,3
	c-0.9,1-1.7,2-2.6,2.9c-0.5,0.6-1.1,1.2-1.6,1.8c-0.3,0.4-0.7,0.7-1,1.1l-0.1,0.1c-0.1,0.1-0.2,0.2-0.3,0.3s-0.2,0.2-0.2,0.2
	c-0.6,0.7-1.3,1.3-1.9,2c-1,1-2,2.1-3.1,3.1V79.7H686.5z"/>
<path class="st0" d="M758,79.7V180c-5.6-4.4-10.9-9.1-15.8-14.1c-1.1-1.1-2.2-2.2-3.3-3.4c-0.5-0.5-0.9-1-1.3-1.4
	c-21-22.4-36-50.4-42.8-81.4C694.8,79.7,758,79.7,758,79.7z"/>
<path class="st0" d="M1034.7,29.4V87c-1.7,6.3-3.7,12.6-6.1,18.6c-1.9,5-4.1,9.9-6.5,14.7c-0.8,1.5-1.5,3-2.3,4.5
	c-0.5,0.9-0.9,1.7-1.4,2.6c0,0,0,0.1-0.1,0.1c-1.3,2.3-2.6,4.5-4,6.8c-0.4,0.6-0.8,1.3-1.2,1.9c-0.4,0.7-0.8,1.3-1.2,1.9
	c-1.1,1.7-2.3,3.4-3.5,5.1c-0.1,0.2-0.3,0.3-0.4,0.5l-0.1,0.1c-0.2,0.3-0.5,0.7-0.7,1c-0.1,0.1-0.2,0.2-0.2,0.3
	c-0.1,0.2-0.2,0.3-0.3,0.5h-23.2V29.4H1034.7z"/>
<path class="st0" d="M1041.1,29.4v0.1h-1.1v-0.1H1041.1z"/>
<path class="st0" d="M1034.7,86.6v164.7c-15.2-2-29-8.7-39.9-18.5c-1.7-1.5-3.3-3.1-4.8-4.8c-0.3-0.4-0.7-0.8-1-1.2
	c-10.6-12.1-17.4-27.6-18.3-44.8v0v-0.1c3-2.2,5.8-4.5,8.6-7c0.6-0.5,1.2-1,1.8-1.6l5.7-5.2c0.6-0.6,1.3-1.2,1.9-1.9
	c1.9-1.9,3.7-3.8,5.5-5.7l0.1-0.1l0,0c0.6-0.6,1.2-1.3,1.7-1.9c1.8-2,3.5-4,5.2-6.1c0.6-0.7,1.2-1.5,1.8-2.2
	c0.6-0.8,1.2-1.6,1.8-2.4c0.6-0.8,1.2-1.6,1.8-2.4c0.6-0.8,1.1-1.6,1.7-2.4c1.2-1.7,2.3-3.4,3.5-5.1c0.4-0.6,0.8-1.3,1.2-1.9
	c0.4-0.6,0.8-1.3,1.2-1.9c5.6-9,10.4-18.6,14.3-28.6C1030.9,99.4,1033,93.1,1034.7,86.6z"/>
<path class="st0" d="M1001.2,152.6c-8.9,11-19.2,20.8-30.5,29.4l0,0C982,173.4,992.2,163.5,1001.2,152.6z"/>
<path class="st0" d="M1008.3,143.2c-0.6,0.8-1.1,1.6-1.7,2.4l0,0C1007.2,144.8,1007.8,144,1008.3,143.2z"/>
<path class="st3" d="M690.5,42.1v2c-0.1,1.1-0.1,2.2-0.1,3.3c-0.3,11-1.7,21.8-4,32.3c-1.9,8.6-4.4,17-7.5,25.1
	c-0.2,0.6-0.4,1.2-0.7,1.7c-0.2,0.6-0.5,1.2-0.7,1.7c-0.8,1.9-1.6,3.7-2.4,5.6c-1,2.3-2.2,4.7-3.3,7c-0.6,1.2-1.2,2.3-1.8,3.5
	c-5.5,10.4-12,20.2-19.5,29.1c-0.8,1-1.7,2-2.5,3c-0.9,1-1.7,2-2.6,2.9c-0.5,0.6-1.1,1.2-1.6,1.8c-0.3,0.4-0.7,0.7-1,1.1l-0.1,0.1
	c-0.1,0.1-0.2,0.2-0.3,0.3s-0.2,0.2-0.2,0.2c-0.6,0.7-1.3,1.3-1.9,2c-1,1-2,2.1-3.1,3.1c-5.1,5-10.6,9.7-16.3,13.9
	c0,0-0.1,0-0.1,0.1l0,0c-6.4,4.8-12.9,9-19.9,12.9h-0.1l0,0c-2.6,1.4-5.2,2.8-7.9,4.1c-0.6,0.3-1.2,0.6-1.8,0.8
	c-0.1,0-0.2,0.1-0.3,0.1c-0.9,0.4-1.8,0.8-2.7,1.3c-0.1,0-0.1,0.1-0.2,0.1c-0.1,0-0.1,0.1-0.2,0.1h-0.1c-0.9,0.4-1.9,0.8-2.8,1.2
	c-0.6,0.3-1.2,0.5-1.8,0.8c-1.9,0.8-3.7,1.5-5.6,2.3h-0.1c-5.9,2.3-12.1,4.2-18.3,5.8c-6.5,1.7-13.2,3-20,3.9l0,0l0,0
	c-6.8,0.9-13.7,1.4-20.7,1.5l0,0h-5.4l0,0c-0.8,0-1.6,0-2.4-0.1c-0.8,0-1.5,0-2.3-0.1c-0.1,0-0.2,0-0.2,0c-0.8,0-1.6-0.1-2.5-0.1
	c-0.8,0-1.6-0.1-2.5-0.2c-0.8-0.1-1.6-0.1-2.4-0.2l0,0c-1.6-0.1-3.3-0.3-4.9-0.5c-0.8-0.1-1.6-0.2-2.4-0.3h-0.1
	c-0.8-0.1-1.6-0.2-2.4-0.3s-1.6-0.2-2.3-0.4c-4.6-0.7-9.2-1.7-13.6-2.7h-0.1c-2.8-0.7-5.5-1.4-8.2-2.2c-0.9-0.3-1.8-0.5-2.7-0.8l0,0
	c-1.8-0.6-3.6-1.2-5.4-1.8l0,0c-1-0.4-2.1-0.7-3.1-1.1c-0.8-0.3-1.5-0.5-2.2-0.8h-0.1c-7.3-2.7-14.3-6-21.1-9.7
	c-6.8-3.8-13.4-7.9-19.6-12.5c-5.2-3.8-10.2-7.9-14.9-12.3c-3.5-3.2-6.8-6.5-10.1-10c-0.9-1-1.8-1.9-2.6-2.9c-1.5-1.7-2.9-3.3-4.3-5
	c-1.1-1.3-2.1-2.6-3.2-3.9c-0.9-1.1-1.7-2.3-2.6-3.4c-0.4-0.5-0.8-1.1-1.2-1.6c-12.1-16.9-21.3-35.9-26.9-56.5
	c-3.2-11.7-5.1-23.9-5.7-36.5c0-0.8-0.1-1.7-0.1-2.5c0-0.9-0.1-1.8-0.1-2.7v-6.8c0-2.7,0.1-5.3,0.3-8c0-0.5,0.1-1,0.1-1.4
	c0-0.2,0-0.5,0-0.7c0.1-1.3,0.2-2.6,0.3-3.8c0.1-0.7,0.1-1.3,0.2-2c0.6-5.7,1.5-11.4,2.7-17c0.4-2,0.9-4,1.4-6h18
	c-2.5,9.5-4.1,19.4-4.8,29.5c-0.1,0.8-0.1,1.6-0.1,2.4s-0.1,1.7-0.1,2.5s-0.1,1.7-0.1,2.5c0,0.9,0,1.7,0,2.6c0,0.8,0,1.7,0,2.5
	c0,1.1,0,2.1,0.1,3.2c0,0.6,0,1.2,0.1,1.9c0.1,2.5,0.3,5,0.5,7.5c0.1,1.1,0.2,2.3,0.4,3.4c0.1,0.5,0.1,0.9,0.2,1.4
	c0.1,0.6,0.2,1.2,0.2,1.9c0,0.4,0.1,0.7,0.2,1.1c0.1,0.4,0.1,0.9,0.2,1.3c0.1,0.5,0.2,1,0.2,1.6c0.1,0.6,0.2,1.3,0.3,1.9
	c0.2,1.3,0.5,2.6,0.7,3.8c0.1,0.6,0.2,1.2,0.4,1.8c0.2,0.7,0.3,1.3,0.5,2c0.3,1.2,0.6,2.5,0.9,3.7c0.2,0.6,0.3,1.2,0.5,1.9
	c0.3,1.2,0.7,2.5,1,3.7l0,0c0.3,1.2,0.7,2.4,1.1,3.6c6.6,20.4,17.3,39,31.1,54.7c28.5,32.4,70.2,52.9,116.7,52.9
	c28.9,0,56-7.9,79.1-21.6c0.5-0.3,1.1-0.6,1.6-1c1.1-0.6,2.1-1.3,3.2-2c0.5-0.3,1-0.7,1.6-1c0.5-0.3,1-0.7,1.6-1
	c1-0.7,2.1-1.4,3.1-2.1c1-0.7,2-1.4,3-2.2c0.5-0.3,1-0.7,1.5-1.1c0.5-0.4,1-0.8,1.5-1.2c0.3-0.2,0.6-0.5,0.9-0.7c0,0,0.1,0,0.1-0.1
	c0.8-0.6,1.6-1.2,2.3-1.9c5.6-4.6,10.8-9.6,15.6-15c2.8-3.1,5.5-6.4,8.1-9.7c12.4-16,21.7-34.6,27-54.8c3.4-12.8,5.2-26.2,5.2-40.1
	c0-3.4-0.1-6.8-0.3-10.1c-0.7-10.1-2.3-19.9-4.8-29.4h21c0.5,2,1,4,1.4,6c1.2,5.6,2.1,11.3,2.7,17c0.2,2.1,0.4,4.2,0.5,6.4
	C690.3,33.7,690.5,37.9,690.5,42.1z"/>
<path class="st4" d="M13.7,315.9c4.2-0.8,8.4-1.7,12.5-2.8c1.4-0.4,2.9-0.8,4.3-1.3c6.1-1.9,12-4.2,17.7-7c0.9-0.4,1.8-0.8,2.7-1.3
	c6.9-3.5,13.4-7.5,19.6-12c0.4-0.3,0.8-0.6,1.2-0.9c4.8-3.6,9.3-7.5,13.6-11.7c1.6-1.6,3.1-3.2,4.7-4.8c11.7-12.6,21-27.4,27.3-43.7
	c2.3-6,4.2-12.2,5.7-18.6c-2.6-0.7-5.2-1.4-7.8-2.1c-4-1.2-7.9-2.5-11.7-4c-1.4,6-3.2,11.8-5.4,17.4l0,0
	c-5.3,13.3-13,25.3-22.5,35.7c-3,3.3-6.2,6.4-9.5,9.3c-4.9,4.3-10.2,8.2-15.8,11.6c-1.2,0.8-2.5,1.5-3.8,2.2
	c-6,3.4-12.3,6.2-18.8,8.5c-2.2,0.8-4.5,1.5-6.8,2.1c-3.3,0.9-6.6,1.7-10,2.4c-3.3,0.6-6.6,1.1-10,1.4c-0.3,0-0.7,0.1-1,0.1v11v10.1
	c0.3,0,0.6,0,0.9-0.1C5.2,317.2,9.5,316.6,13.7,315.9z"/>
<path class="st0" d="M10.9,295c3.4-0.6,6.8-1.4,10-2.4c2.3-0.6,4.6-1.3,6.8-2.1c6.6-2.3,12.9-5.1,18.8-8.5c1.3-0.7,2.6-1.5,3.8-2.2
	c5.6-3.4,10.9-7.3,15.8-11.6c3.3-2.9,6.5-6,9.5-9.3c9.5-10.4,17.2-22.4,22.5-35.7l0,0c2.2-5.6,4.1-11.4,5.4-17.4
	c-6.3-2.4-12.5-5.2-18.5-8.3c-1.4-0.7-2.9-1.5-4.3-2.3c-0.5,2.8-1.2,5.7-2,8.4C74,219.8,65,234.3,53,245.6l0,0
	c-4.7,4.5-9.9,8.4-15.5,11.8c-2.7,1.7-5.6,3.2-8.5,4.6l0,0c-5.6,2.7-11.6,4.8-17.8,6.3c-1,0.2-1.9,0.5-2.9,0.7c-2.5,0.5-5,1-7.5,1.3
	c-0.4,0-0.8,0.1-1.1,0.1v19v7.1c0.3,0,0.7,0,1-0.1C4.3,296.1,7.6,295.6,10.9,295z"/>
<path class="st0" d="M358.6,39.5c0,85.9,69.6,155.5,155.5,155.5s155.5-69.6,155.5-155.5c0-13.6-1.8-26.9-5.1-39.5h-18.3
	c3.5,12.1,5.3,24.8,5.3,38c0,75.7-61.3,137-137,137s-137-61.3-137-137c0-13.2,1.9-25.9,5.3-38h-19.3
	C360.3,12.6,358.6,25.9,358.6,39.5z"/>
<path class="st2" d="M1034.7,0.7v86.2c-1.7,6.5-3.8,12.8-6.2,18.9c-2.6,6.5-5.5,12.8-8.7,18.9c-0.5,0.9-0.9,1.7-1.4,2.6
	c0,0,0,0.1-0.1,0.1c-1.3,2.3-2.6,4.6-4,6.8c-0.4,0.6-0.8,1.3-1.2,1.9c-0.4,0.7-0.8,1.3-1.2,1.9c-1.1,1.7-2.3,3.4-3.5,5.1
	c-0.6,0.8-1.1,1.6-1.7,2.4c-0.6,0.8-1.2,1.6-1.8,2.4c-0.6,0.8-1.2,1.6-1.8,2.4c-0.6,0.7-1.2,1.5-1.8,2.2c-2.2,2.7-4.5,5.3-6.8,7.9
	c-7.2,7.9-15.2,15-23.7,21.5c0,0-0.1,0-0.1,0.1l0,0c-0.3,0.2-0.7,0.5-1,0.7s-0.6,0.4-0.8,0.6c-0.1,0.1-0.2,0.2-0.3,0.2
	c-0.3,0.2-0.7,0.5-1,0.7c-0.6,0.4-1.2,0.9-1.8,1.3c-0.6,0.4-1.2,0.8-1.8,1.3c-1.5,1-3.1,2.1-4.7,3c-2.3,1.5-4.7,2.9-7.1,4.3l0,0
	c0,0-0.1,0-0.1,0.1l0,0l0,0c-7.3,4.1-14.9,7.8-22.8,10.9h-0.1l0,0c-6.2,2.4-12.4,4.5-18.9,6.2h-0.1l0,0c-6.6,1.8-13.4,3.1-20.3,4.1
	h-0.1c-6.8,0.9-13.7,1.5-20.7,1.6h-3.5c-1.6,0-3-0.1-4.6-0.1h-0.1l0,0h-0.1c-6.7-0.1-13-0.7-19.5-1.6h-0.1l0,0l0,0
	c-5.1-0.7-10.1-1.6-15.1-2.8H826l0,0c-2.1-0.5-4.2-1-6.3-1.6c-0.2,0-0.3-0.1-0.4-0.1c-0.5-0.2-1.1-0.3-1.6-0.5
	c-2.1-0.6-4.1-1.2-6.2-1.9c-0.2-0.1-0.5-0.2-0.7-0.2c-0.2-0.1-0.4-0.1-0.6-0.2c-0.1,0-0.2-0.1-0.3-0.1c-1-0.3-2-0.7-3-1h-0.1h-0.1
	h-0.1c-1.8-0.7-3.5-1.3-5.4-2c-0.7-0.3-1.4-0.6-2.1-0.8c-4.1-1.7-8.1-3.6-12.1-5.5c-0.7-0.3-1.3-0.7-2-1c0,0-0.1-0.1-0.2-0.1
	c-5.8-3.1-11.5-6.5-16.9-10.1l0,0c0,0-0.1,0-0.1-0.1c-3.1-2.1-6.1-4.3-9-6.6c0,0-0.1,0-0.1-0.1l0,0c-0.2-0.1-0.4-0.3-0.6-0.4
	c-1-0.8-2.1-1.7-3.1-2.5l-0.1-0.1c0,0,0,0-0.1-0.1c-4.4-3.6-8.6-7.3-12.5-11.3c-0.5-0.5-1.1-1.1-1.6-1.7c-0.6-0.6-1.1-1.1-1.7-1.7
	c-0.1-0.1-0.2-0.2-0.3-0.3c0,0,0,0-0.1-0.1c-0.3-0.3-0.6-0.7-0.9-1c0,0,0-0.1-0.1-0.1c-0.3-0.3-0.6-0.6-0.8-0.9
	c-7.5-8.2-14.2-17.1-20.1-26.6c-0.1-0.1-0.1-0.2-0.2-0.2c-1-1.5-1.9-3.1-2.8-4.7c-0.5-0.9-1-1.9-1.6-2.8c-0.5-0.8-0.9-1.7-1.4-2.6
	c-0.9-1.6-1.7-3.3-2.5-4.9c-1.7-3.5-3.3-7-4.8-10.6c-0.4-0.9-0.7-1.8-1.1-2.7c0-0.1-0.1-0.2-0.1-0.3c-0.4-1-0.8-2-1.1-3
	c-0.2-0.6-0.4-1.1-0.6-1.7v-0.1c-0.1-0.4-0.3-0.8-0.4-1.2v-0.1c0-0.1-0.1-0.2-0.1-0.3c-0.3-0.9-0.6-1.8-0.9-2.8c0-0.1,0-0.1-0.1-0.2
	c0-0.1-0.1-0.2-0.1-0.3c0-0.1-0.1-0.2-0.1-0.3c-0.2-0.5-0.3-1-0.5-1.5c-0.2-0.6-0.4-1.2-0.5-1.8c-1.2-3.9-2.2-7.9-3-11.9
	c0-0.1-0.1-0.2-0.1-0.3c-0.6-2.5-1-5-1.4-7.5c-0.5-2.7-0.9-5.4-1.2-8.1c-0.7-5.4-1.1-10.9-1.3-16.5c-0.1-1.1-0.1-2.2-0.1-3.3v-6.4
	c0-0.7,0-1.5,0.1-2.2c0-0.7,0.1-1.4,0.1-2.1c0.1-1.3,0.1-2.5,0.2-3.8c0-0.1,0-0.2,0-0.3c0-0.5,0.1-1,0.1-1.5
	c0.1-0.8,0.1-1.5,0.2-2.3s0.1-1.6,0.2-2.4c0.1-0.9,0.2-1.8,0.3-2.7c0.1-0.6,0.1-1.3,0.2-1.9c0.1-0.4,0.1-0.9,0.2-1.3
	c0.1-0.7,0.2-1.4,0.3-2.1c0.1-0.9,0.3-1.8,0.4-2.6c0.4-2.1,0.8-4.2,1.2-6.2c0.2-1,0.4-2,0.7-3c0.1-0.5,0.2-1,0.4-1.5
	c0.1-0.5,0.2-1,0.4-1.5h18c-2.5,9.3-4,19.1-4.8,29c0,0.2,0,0.3,0,0.5c-0.1,0.8-0.1,1.6-0.1,2.4c0,0.8-0.1,1.7-0.1,2.5
	s-0.1,1.7-0.1,2.5v5.1c0,1.1,0,2.1,0.1,3.2c0,0.6,0,1.2,0.1,1.9c0.1,2.5,0.3,5,0.5,7.5c0.1,1.1,0.2,2.3,0.4,3.4
	c0.1,0.5,0.1,0.9,0.2,1.4c0.1,0.6,0.2,1.2,0.2,1.9c0,0.1,0,0.1,0,0.1l0,0c0,0.2,0,0.3,0.1,0.5c0,0.2,0.1,0.3,0.1,0.5
	c0.1,0.4,0.1,0.9,0.2,1.3c0.1,0.4,0.2,0.9,0.2,1.4l0,0c0,0.1,0,0.1,0,0.2c0.1,0.6,0.2,1.3,0.3,1.9c0.2,1.3,0.5,2.6,0.7,3.8
	c0.1,0.6,0.2,1.2,0.4,1.8c0.2,0.7,0.3,1.3,0.5,2c0.3,1.2,0.6,2.5,0.9,3.7c0.1,0.2,0.1,0.5,0.2,0.7c0,0.2,0.1,0.4,0.1,0.6
	s0.1,0.4,0.1,0.5c0.3,1.2,0.7,2.5,1,3.7c0.2,0.6,0.4,1.2,0.6,1.8c0.2,0.6,0.4,1.2,0.6,1.8c0.4,1.2,0.8,2.4,1.2,3.6
	c0.2,0.6,0.4,1.2,0.6,1.8c0.2,0.6,0.4,1.2,0.7,1.8c0.2,0.6,0.4,1.2,0.7,1.8c0.2,0.6,0.5,1.2,0.7,1.8c8.5,21,21.6,39.7,37.9,55
	c2.4,2.3,4.9,4.5,7.5,6.6c26.8,22.1,61.1,35.2,98.5,35.2c28.9,0,56-7.9,79.1-21.6c0.5-0.3,1.1-0.6,1.6-1c1.1-0.6,2.1-1.3,3.2-2
	c0.5-0.3,1-0.7,1.6-1c0.5-0.3,1-0.7,1.6-1c1-0.7,2.1-1.4,3.1-2.1s2-1.4,3-2.2c0.5-0.3,1-0.7,1.5-1.1s1-0.8,1.5-1.2
	c0.3-0.2,0.6-0.5,0.9-0.7c0,0,0.1,0,0.1-0.1c0.5-0.4,1-0.8,1.5-1.2c0.3-0.2,0.5-0.4,0.8-0.7c5.6-4.6,10.8-9.6,15.6-15
	c1.5-1.6,2.9-3.2,4.3-4.9l0.1-0.1c16.6-20,28.4-44.2,33.3-70.8c0.1-0.6,0.2-1.3,0.3-1.9s0.2-1.3,0.3-1.9c0.1-0.4,0.1-0.8,0.2-1.3
	c0-0.3,0.1-0.5,0.1-0.8c0.1-0.7,0.2-1.4,0.3-2.1c0.9-6.8,1.4-13.7,1.4-20.7c0-3.4-0.1-6.8-0.3-10.1v0c0-0.2,0-0.3,0-0.5v-0.1
	c-0.7-9.9-2.3-19.5-4.8-28.7C1014.2,0.7,1034.7,0.7,1034.7,0.7z"/>
<path class="st2" d="M3214.3-161.2v7.1c-0.4,0.1-0.8,0.1-1.2,0.2c-0.3,0-0.6,0.1-0.9,0.1c-0.1,0-0.2,0-0.3,0
	C3212.7-156.2,3213.5-158.8,3214.3-161.2z"/>
<path class="st2" d="M3185.7-17.2c2.1,1.3,4.3,2.5,6.6,3.5C3190-14.8,3187.8-16,3185.7-17.2z"/>
<path class="st0" d="M3185.7-17.2c2.1,1.3,4.3,2.5,6.6,3.5C3190-14.8,3187.8-16,3185.7-17.2z"/>
<path class="st5" d="M708.6,39.5c0,85.9,69.6,155.5,155.5,155.5s155.5-69.6,155.5-155.5c0-13.6-1.8-26.9-5.1-39.5h-18.3
	c3.5,12.1,5.3,24.8,5.3,38c0,75.7-61.3,137-137,137s-137-61.3-137-137c0-13.2,1.9-25.9,5.3-38h-19.3
	C710.3,12.6,708.6,25.9,708.6,39.5z"/>
<path class="st2" d="M3114.9-50.3C3114.8-50.3,3114.8-50.3,3114.9-50.3c-0.1,0-0.1-0.1-0.1-0.1L3114.9-50.3
	C3114.8-50.4,3114.8-50.3,3114.9-50.3z"/>
<path class="st2" d="M3214.3-161.2v0.9c-0.6,2.2-1.3,4.4-2.1,6.5c-0.1,0-0.2,0-0.3,0C3212.7-156.2,3213.5-158.8,3214.3-161.2z"/>
<path class="st3" d="M8.5,269c1-0.2,1.9-0.4,2.9-0.7c6.2-1.5,12.1-3.6,17.8-6.3l0,0c2.9-1.4,5.7-2.9,8.5-4.6
	c5.6-3.4,10.8-7.4,15.5-11.8l0,0c12-11.3,21-25.7,25.7-42c0.8-2.8,1.5-5.6,2-8.4c-4.7-2.6-9.3-5.5-13.8-8.5
	c-0.1-0.1-0.2-0.1-0.3-0.2c0,0.2-0.1,0.4-0.1,0.6l0,0c-3.1,20.7-14.8,38.5-31.2,49.9c-6.2,4.2-13,7.6-20.3,9.8
	c-4.5,1.4-9.2,2.3-14.1,2.8c-0.4,0-0.8,0.1-1.2,0.1v1.5v17v2.1c0.4,0,0.8-0.1,1.1-0.1C3.6,269.9,6.1,269.5,8.5,269z"/>
<path class="st0" d="M15.2,246.8c7.3-2.2,14.2-5.6,20.3-9.8c16.5-11.3,28.1-29.2,31.2-49.9l0,0c0-0.2,0.1-0.4,0.1-0.6
	c-4.5-3-8.8-6.3-12.9-9.7c-4.6-3.9-9.1-8-13.3-12.3c-16.8-17.2-13.4-35.5-22-58.4c-0.2-0.4-14.7-5-14.9-5.5
	c-0.5-0.1-3.3-1.8-3.8-1.8L0,230.5v19.2c0.4,0,0.8-0.1,1.2-0.1C6,249.1,10.7,248.2,15.2,246.8z"/>
<path class="st2" d="M340.6,37.5v8.2c0,3.1-0.2,6.1-0.4,9.2c-0.7,9.9-2.3,19.7-4.6,29.1c-0.3,1.2-0.6,2.3-0.9,3.5
	c-1.4,5.1-3,10-4.8,14.9c-4,10.8-9,21.2-15,30.9c0,0,0,0.1-0.1,0.1l-4.6,7.1c-3.6,5.3-7.5,10.3-11.6,15.2l-2,2.3
	c-0.3,0.3-0.6,0.6-0.8,1c-0.4,0.5-0.9,1-1.3,1.5l-0.1,0.1l0,0c-1.2,1.3-2.4,2.6-3.7,3.9l-0.1,0.1c-4.1,4.1-8.2,8-12.7,11.7
	c-0.4,0.3-0.8,0.7-1.3,1c-3.6,3-7.4,5.8-11.2,8.5c-0.8,0.5-1.6,1.1-2.4,1.6c-4.7,3.1-9.5,6-14.4,8.7c-1.5,0.8-2.9,1.6-4.4,2.3
	c-5.4,2.7-11,5.1-16.7,7.3c-4.4,1.7-9,3.2-13.6,4.5c-1.2,0.4-2.4,0.7-3.6,1c-6.2,1.7-12.7,3-19.2,3.9c-4.3,0.6-8.7,1.1-13.1,1.4
	c-2.5,0.2-5,0.3-7.5,0.4c-1.6,0.1-3.1,0.1-4.7,0.1h-3.7c-4.3-0.1-8.6-0.3-12.8-0.7c-2.3-0.2-4.6-0.5-6.9-0.8
	c-6.5-0.8-12.9-2.1-19.1-3.6c-0.5-0.1-1-0.2-1.5-0.3h-0.1c-1.4-0.3-2.8-0.7-4.2-1.1h-0.1c-0.6-0.2-1.2-0.3-1.8-0.5
	c-4-1.2-7.9-2.5-11.7-4c-6.4-2.4-12.5-5.2-18.5-8.3c-1.5-0.8-2.9-1.5-4.3-2.3c-4.8-2.6-9.4-5.5-13.8-8.5c-0.1,0-0.2-0.1-0.3-0.2
	c-4.4-3-8.8-6.3-12.9-9.7c-4.6-3.9-9.1-8-13.3-12.3C24,147.6,10.6,126.9,2,104c-0.2-0.5-0.3-0.9-0.5-1.4c-0.5-1.3-1-2.6-1.4-3.9V0
	h15.8c-2.7,10.3-4.4,21.2-4.9,32.2c-0.1,2.4-0.2,4.9-0.2,7.3c0,85.9,69.6,155.5,155.5,155.5c1.4,0,2.8,0,4.2-0.1
	c1.1,0,2.3-0.1,3.4-0.1c1.7-0.1,3.4-0.2,5.1-0.3c0.9-0.1,1.9-0.2,2.8-0.2c0.1,0,0.3,0,0.4,0c1.1-0.1,2.2-0.2,3.3-0.4
	c4.1-0.5,8.1-1.2,12-2c0.6-0.1,1.3-0.3,1.9-0.4c9.5-2,18.6-5,27.3-8.7c1.2-0.5,2.3-1,3.5-1.5c7.1-3.2,14-7,20.5-11.2
	c1-0.6,1.9-1.3,2.9-1.9c0.5-0.4,1.1-0.7,1.6-1.1c0.5-0.4,1-0.7,1.4-1c0.5-0.4,1-0.7,1.5-1.1c1-0.7,2-1.5,3-2.3s2-1.5,3-2.3
	c0.5-0.4,1-0.8,1.5-1.2s1-0.8,1.5-1.2s0.9-0.8,1.4-1.2s0.9-0.8,1.4-1.2s0.9-0.8,1.4-1.3c0.5-0.4,0.9-0.8,1.4-1.3
	c0.5-0.4,0.9-0.9,1.4-1.3c0.5-0.4,0.9-0.9,1.3-1.3c0.5-0.4,0.9-0.9,1.3-1.3c0.5-0.5,1-1.1,1.6-1.6c0.5-0.5,0.9-1,1.4-1.5
	c0.6-0.6,1.1-1.2,1.7-1.8c0.5-0.5,1-1.1,1.5-1.7c0.5-0.6,1-1.1,1.5-1.7c0.5-0.6,1-1.2,1.5-1.8s0.9-1.1,1.4-1.7
	c0.5-0.6,0.9-1.1,1.4-1.7c2.9-3.7,5.6-7.5,8.2-11.4c0.3-0.5,0.7-1,1-1.5c1.9-3,3.7-6.1,5.4-9.2c0.2-0.4,0.5-0.9,0.7-1.3
	c1-1.8,1.9-3.6,2.8-5.5c0.3-0.6,0.6-1.3,0.9-1.9c0.3-0.7,0.6-1.4,0.9-2c0.1-0.2,0.2-0.5,0.3-0.8c0.5-1.2,1-2.3,1.5-3.5
	c1.4-3.5,2.8-7.1,3.9-10.8c0.6-1.9,1.2-3.8,1.7-5.7c0.3-1,0.5-1.9,0.8-2.9c0.2-0.8,0.4-1.6,0.6-2.4c0.1-0.3,0.2-0.7,0.2-1
	c0.2-0.8,0.4-1.6,0.6-2.5c0.2-1,0.4-2,0.6-3s0.4-2,0.6-3s0.3-2,0.5-3c0.1-1,0.3-1.9,0.4-2.9c0-0.1,0-0.1,0-0.2c0.1-1,0.3-2,0.4-3
	c0.1-0.9,0.2-1.8,0.3-2.7c0.1-1.2,0.2-2.3,0.3-3.5c0.1-0.8,0.1-1.6,0.2-2.4c0-0.3,0-0.6,0-0.9c0.1-0.9,0.1-1.8,0.1-2.7
	c0-0.1,0-0.2,0-0.4c0-0.9,0.1-1.7,0.1-2.6c0-0.2,0-0.3,0-0.5c0-1,0-1.9,0-2.9c0-1.9,0-3.9-0.1-5.8c0-0.6-0.1-1.2-0.1-1.8
	c0-0.8-0.1-1.6-0.1-2.4v-0.1c-0.1-1.7-0.2-3.3-0.4-4.9v-0.1c-0.1-1.4-0.3-2.8-0.5-4.2c0-0.3-0.1-0.6-0.1-0.8
	c-0.1-0.8-0.2-1.6-0.3-2.3l0,0c-0.4-2.5-0.8-4.9-1.3-7.3c-0.1-0.8-0.3-1.6-0.5-2.4c-0.3-1.6-0.7-3.2-1.1-4.8
	c-0.2-0.8-0.4-1.6-0.6-2.4h19l0.4,1.5c0.4,1.5,0.7,3.1,1,4.6c0.2,0.7,0.3,1.4,0.4,2.1s0.3,1.4,0.4,2.1c0.3,1.4,0.5,2.8,0.7,4.2v0.2
	l1.1,8.3c0.3,2.2,0.5,4.3,0.6,6.5C340.4,32.2,340.6,34.8,340.6,37.5z"/>
<path class="st0" d="M10.6,39.5c0,85.9,69.6,155.5,155.5,155.5s155.5-69.6,155.5-155.5c0-13.6-1.8-26.9-5.1-39.5h-20.3
	c3.5,12.1,5.3,24.8,5.3,38c0,75.7-61.3,137-137,137s-137-61.3-137-137c0-13.2,1.9-25.9,5.3-38H15.6C12.3,12.6,10.6,25.9,10.6,39.5z"
	/>
<path class="st2" d="M727.6,38c0,75.7,61.3,137,137,137s137-61.3,137-137c0-13.2-1.9-25.9-5.3-38h-19.5c4.4,12.3,6.8,25.6,6.8,39.5
	c0,64.9-52.6,117.5-117.5,117.5S748.6,104.4,748.6,39.5c0-13.9,2.4-27.2,6.8-39.5h-22.5C729.4,12.1,727.6,24.8,727.6,38z"/>
<path class="st2" d="M377.6,38c0,75.7,61.3,137,137,137s137-61.3,137-137c0-13.2-1.9-25.9-5.3-38h-21.5c4.4,12.3,6.8,25.6,6.8,39.5
	c0,64.9-52.6,117.5-117.5,117.5S396.6,104.4,396.6,39.5c0-13.9,2.4-27.2,6.8-39.5h-20.5C379.4,12.1,377.6,24.8,377.6,38z"/>
<path class="st2" d="M27.6,38c0,75.7,61.3,137,137,137s137-61.3,137-137c0-13.2-1.9-25.9-5.3-38h-21.5c4.4,12.3,6.8,25.6,6.8,39.5
	c0,64.9-52.6,117.5-117.5,117.5S46.6,104.4,46.6,39.5c0-13.9,2.4-27.2,6.8-39.5H32.9C29.4,12.1,27.6,24.8,27.6,38z"/>
<path class="st0" d="M46.6,39.5c0,64.9,52.6,117.5,117.5,117.5s117.5-52.6,117.5-117.5c0-13.9-2.4-27.2-6.8-39.5h-28.4
	c7.2,13.2,11.2,28.4,11.2,44.5c0,51.6-41.9,93.5-93.5,93.5S70.6,96.1,70.6,44.5c0-16.1,4.1-31.3,11.2-44.5H53.4
	C49,12.3,46.6,25.6,46.6,39.5z"/>
<path class="st0" d="M396.6,39.5c0,64.9,52.6,117.5,117.5,117.5s117.5-52.6,117.5-117.5c0-13.9-2.4-27.2-6.8-39.5h-28.4
	c7.2,13.2,11.2,28.4,11.2,44.5c0,51.6-41.9,93.5-93.5,93.5s-93.5-41.9-93.5-93.5c0-16.1,4.1-31.3,11.2-44.5h-28.4
	C399,12.3,396.6,25.6,396.6,39.5z"/>
<path class="st0" d="M748.6,39.5c0,64.9,52.6,117.5,117.5,117.5s117.5-52.6,117.5-117.5c0-13.9-2.4-27.2-6.8-39.5h-30.4
	c7.2,13.2,11.2,28.4,11.2,44.5c0,51.6-41.9,93.5-93.5,93.5s-93.5-41.9-93.5-93.5c0-16.1,4.1-31.3,11.2-44.5h-26.4
	C751,12.3,748.6,25.6,748.6,39.5z"/>
<path class="st2" d="M70.6,44.5c0,51.6,41.9,93.5,93.5,93.5s93.5-41.9,93.5-93.5c0-16.1-4.1-31.3-11.2-44.5h-24.3
	c9.1,12.3,14.5,27.5,14.5,44c0,40.9-33.1,74-74,74s-74-33.1-74-74c0-16.5,5.4-31.7,14.5-44H81.8C74.7,13.2,70.6,28.4,70.6,44.5z"/>
<path class="st2" d="M420.6,44.5c0,51.6,41.9,93.5,93.5,93.5s93.5-41.9,93.5-93.5c0-16.1-4.1-31.3-11.2-44.5h-22.3
	c9.1,12.3,14.5,27.5,14.5,44c0,40.9-33.1,74-74,74s-74-33.1-74-74c0-16.5,5.4-31.7,14.5-44h-23.3C424.7,13.2,420.6,28.4,420.6,44.5z
	"/>
<path class="st2" d="M770.6,44.5c0,51.6,41.9,93.5,93.5,93.5s93.5-41.9,93.5-93.5c0-16.1-4.1-31.3-11.2-44.5h-25.3
	c9.1,12.3,14.5,27.5,14.5,44c0,40.9-33.1,74-74,74s-74-33.1-74-74c0-16.5,5.4-31.7,14.5-44h-20.3C774.7,13.2,770.6,28.4,770.6,44.5z
	"/>
<path class="st0" d="M88.6,44c0,40.9,33.1,74,74,74s74-33.1,74-74c0-16.5-5.4-31.7-14.5-44h-119C94,12.3,88.6,27.5,88.6,44z"/>
<path class="st0" d="M440.6,44c0,40.9,33.1,74,74,74s74-33.1,74-74c0-16.5-5.4-31.7-14.5-44h-119C446,12.3,440.6,27.5,440.6,44z"/>
<path class="st0" d="M787.6,44c0,40.9,33.1,74,74,74s74-33.1,74-74c0-16.5-5.4-31.7-14.5-44h-119C793,12.3,787.6,27.5,787.6,44z"/>
<path class="st6" d="M0,248.6c-0.1,0-0.1,0-0.2,0v1.5c0.1,0,0.1,0,0.2,0V248.6z"/>
<path class="st6" d="M0,332.7c-0.1,0-0.1,0-0.2,0v9.1c0.1,0.2,0.1,0.4,0.2,0.6V332.7z"/>
<path class="st7" d="M2978.2,63.2L2978.2,63.2C2978.1,63.2,2978.1,63.2,2978.2,63.2L2978.2,63.2L2978.2,63.2z"/>
<path class="st7" d="M3114.9-50.3C3114.8-50.3,3114.8-50.3,3114.9-50.3c-0.1,0-0.1-0.1-0.1-0.1L3114.9-50.3
	C3114.8-50.4,3114.8-50.3,3114.9-50.3z"/>
<path class="st7" d="M3183.7,314.2c2,0.5,3.9,1,5.9,1.4C3187.6,315.1,3185.7,314.7,3183.7,314.2z"/>
<path class="st7" d="M3185.7,227.8c2.1,1.3,4.3,2.5,6.6,3.5C3190,230.2,3187.8,229,3185.7,227.8z"/>
<path class="st7" d="M3185.7-17.2c2.1,1.3,4.3,2.5,6.6,3.5C3190-14.8,3187.8-16,3185.7-17.2z"/>
<path class="st7" d="M3189.5,93c-0.2,0-0.5-0.1-0.7-0.1l0,0C3189,92.9,3189.3,93,3189.5,93z"/>
<path class="st7" d="M3210.2,95.8L3210.2,95.8C3210.2,95.8,3210.1,95.8,3210.2,95.8c-0.2,0-0.3,0-0.4,0
	C3209.9,95.7,3210.1,95.7,3210.2,95.8z"/>
<path class="st7" d="M3214.3,302.8V319h-0.1v-16.2C3214.2,302.7,3214.3,302.8,3214.3,302.8z"/>
<path class="st7" d="M3214.3-161.2v7.1c-0.4,0.1-0.8,0.1-1.2,0.2c-0.3,0-0.6,0.1-0.9,0.1c-0.1,0-0.2,0-0.3,0
	C3212.7-156.2,3213.5-158.8,3214.3-161.2z"/>
<path class="st0" d="M2978.2,63.2L2978.2,63.2C2978.1,63.2,2978.1,63.2,2978.2,63.2L2978.2,63.2L2978.2,63.2z"/>
<path class="st0" d="M3114.9-50.3C3114.8-50.3,3114.8-50.3,3114.9-50.3c-0.1,0-0.1-0.1-0.1-0.1L3114.9-50.3
	C3114.8-50.4,3114.8-50.3,3114.9-50.3z"/>
<path class="st0" d="M3189.5,93c-0.2,0-0.5-0.1-0.7-0.1l0,0C3189,92.9,3189.3,93,3189.5,93z"/>
<path class="st0" d="M3210.2,95.8L3210.2,95.8C3210.2,95.8,3210.1,95.8,3210.2,95.8c-0.2,0-0.3,0-0.4,0
	C3209.9,95.7,3210.1,95.7,3210.2,95.8z"/>
<path class="st0" d="M3214.3-161.2v7.1c-0.4,0.1-0.8,0.1-1.2,0.2c-0.3,0-0.6,0.1-0.9,0.1c-0.1,0-0.2,0-0.3,0
	C3212.7-156.2,3213.5-158.8,3214.3-161.2z"/>
<path class="st0" d="M3214.3,302.8V319h-0.1v-16.2C3214.2,302.7,3214.3,302.8,3214.3,302.8z"/>
<path class="st0" d="M1035.4,251.4L1035.4,251.4c-0.2,0.1-0.5,0-0.7,0v-0.1C1034.9,251.4,1035.2,251.4,1035.4,251.4z"/>
<path class="st0" d="M1035.4,515.5L1035.4,515.5c-0.2,0.1-0.5,0.1-0.7,0v-0.1C1034.9,515.4,1035.2,515.5,1035.4,515.5z"/>
<path class="st0" d="M1049.1,289.8c0.7,0,1.4-0.1,2.1-0.1c-0.3,0-0.6,0-0.9,0.1C1049.9,289.7,1049.5,289.8,1049.1,289.8z"/>
<path class="st0" d="M1041.1,29.4v0.1h-1.1v-0.1H1041.1z"/>
<path class="st8" d="M154.8,719.7c-18.1,0-34.1-2.2-48-6.7c-13.9-4.5-25.7-11.4-35.2-20.9c-9.6-9.4-16.8-21.5-21.6-36.3
	c-4.9-14.7-7.3-32.3-7.3-52.6c0-20.3,2.4-37.9,7.3-52.6c4.9-14.7,12.1-26.9,21.6-36.4c9.5-9.5,21.3-16.6,35.2-21.2
	c13.9-4.6,29.9-6.9,48-6.9c5.8,0,11.7,0.3,17.8,0.8c6,0.5,12,1.2,18.1,2c6,0.8,11.9,1.9,17.8,3.1v11.2c-7.1-1.2-14.3-2.2-21.8-3
	c-7.5-0.7-14.8-1.1-22.1-1.1c-16,0-29.5,1.8-40.5,5.5c-11,3.6-19.8,9.5-26.3,17.6c-6.5,8.1-11.3,18.7-14.2,31.9
	c-2.9,13.2-4.4,29.3-4.4,48.4c0,19.1,1.5,35.3,4.4,48.6c2.9,13.3,7.6,24,14.2,32.1c6.5,8.1,15.3,14,26.3,17.8
	c11,3.7,24.5,5.6,40.5,5.6c7.9,0,15.4-0.4,22.4-1.2c7.1-0.8,14.2-1.8,21.5-2.8v11.2c-6,1.2-12,2.3-17.9,3.1
	c-5.9,0.8-11.8,1.5-17.8,2C166.8,719.4,160.8,719.7,154.8,719.7z"/>
<path class="st8" d="M295.3,720c-11.8,0-22.4-1.8-31.6-5.3c-9.2-3.5-17-8.6-23.4-15.3c-6.3-6.6-11.2-14.7-14.5-24.1
	c-3.3-9.4-5-20.1-5-31.9c0-11.6,1.7-22.2,5-31.6c3.3-9.4,8.1-17.5,14.5-24.3c6.3-6.7,14.1-11.9,23.4-15.6c9.2-3.6,19.8-5.5,31.6-5.5
	s22.3,1.8,31.5,5.5c9.1,3.6,16.9,8.8,23.4,15.6c6.4,6.8,11.3,14.8,14.6,24.3c3.3,9.5,5,20,5,31.6c0,11.8-1.7,22.4-5,31.8
	c-3.3,9.3-8.2,17.4-14.5,24.1c-6.3,6.8-14.1,11.9-23.4,15.4C317.7,718.2,307.1,720,295.3,720z M295.3,708.5c7.3,0,13.4-1.4,18.4-4.2
	s9.1-7,12.3-12.5c3.2-5.5,5.6-12.3,7-20.4c1.5-8.1,2.2-17.4,2.2-28c0-10.8-0.7-20.2-2.2-28.3c-1.5-8.1-3.8-14.9-7-20.4
	c-3.2-5.5-7.3-9.6-12.3-12.3c-5-2.7-11.1-4-18.4-4c-7.1,0-13.1,1.4-18.2,4c-5.1,2.7-9.2,6.8-12.5,12.3c-3.2,5.5-5.6,12.3-7,20.4
	c-1.5,8.1-2.2,17.6-2.2,28.3c0,10.6,0.7,19.9,2.2,28c1.5,8.1,3.8,14.9,7,20.4c3.2,5.5,7.4,9.7,12.5,12.5
	C282.2,707.1,288.2,708.5,295.3,708.5z"/>
<path class="st8" d="M399,717.8V568.6h32.4v11.2c3.7-2.5,8.1-4.8,13.2-6.9c5.1-2.1,10.6-3.7,16.7-4.8c6-1.1,12.3-1.7,18.7-1.7
	c8.7,0,16.6,1,23.5,3c7,2,12.9,5.1,17.9,9.3c5,4.3,8.8,9.9,11.4,17c2.6,7.1,3.9,15.6,3.9,25.5v96.6h-33.6v-96.6
	c0-9.8-1.2-17.5-3.7-23.4c-2.5-5.8-6.5-10-12-12.6c-5.5-2.6-13-3.9-22.6-3.9c-6.2,0-11.9,0.5-17,1.6c-5.1,1-10.1,2.4-15.1,4v130.8
	H399z"/>
<path class="st8" d="M633.6,720c-10.2,0-19.4-1.6-27.7-4.8c-8.3-3.2-15.5-8-21.6-14.5c-6.1-6.4-10.9-14.4-14.2-24
	c-3.3-9.5-5-20.7-5-33.3c0-12.9,1.7-24.1,5-33.6c3.3-9.5,8.1-17.5,14.3-24c6.2-6.4,13.5-11.3,21.8-14.5c8.3-3.2,17.4-4.8,27.4-4.8
	c6.2,0,12.3,0.5,18.1,1.6c5.8,1,11.4,2.6,16.7,4.8c5.3,2.2,10.2,5.2,14.8,9.2v122.7c-4.6,3.7-9.5,6.7-14.8,8.9
	c-5.3,2.2-10.9,3.8-16.7,4.8C645.8,719.5,639.8,720,633.6,720z M646.7,706.6c3.3,0,6.6-0.2,9.8-0.6c3.2-0.4,6.4-1,9.7-1.7
	c3.2-0.7,6.3-1.6,9.2-2.6V585.1c-4.6-1.7-9.3-2.9-14.2-3.7c-4.9-0.8-9.7-1.2-14.5-1.2c-7.7,0-14.5,1.1-20.4,3.3
	c-5.9,2.2-10.9,5.7-14.8,10.6c-3.9,4.9-6.9,11.3-8.9,19.3c-2,8-3,17.9-3,29.7s1,21.9,3,30.1c2,8.2,4.9,14.7,8.9,19.6
	c3.9,4.9,8.9,8.4,14.8,10.6C632.2,705.5,639,706.6,646.7,706.6z M676.6,717.8V706h-1.2v-218H709v229.9H676.6z"/>
<path class="st8" d="M812.7,720c-11.8,0-22.4-1.8-31.6-5.3c-9.2-3.5-17-8.6-23.4-15.3c-6.3-6.6-11.2-14.7-14.5-24.1
	c-3.3-9.4-5-20.1-5-31.9c0-11.6,1.7-22.2,5-31.6c3.3-9.4,8.1-17.5,14.5-24.3c6.3-6.7,14.1-11.9,23.4-15.6c9.2-3.6,19.8-5.5,31.6-5.5
	s22.3,1.8,31.5,5.5c9.1,3.6,16.9,8.8,23.4,15.6c6.4,6.8,11.3,14.8,14.6,24.3c3.3,9.5,5,20,5,31.6c0,11.8-1.7,22.4-5,31.8
	c-3.3,9.3-8.2,17.4-14.5,24.1c-6.3,6.8-14.1,11.9-23.4,15.4C835.1,718.2,824.5,720,812.7,720z M812.7,708.5c7.3,0,13.4-1.4,18.4-4.2
	s9.1-7,12.3-12.5c3.2-5.5,5.6-12.3,7-20.4c1.5-8.1,2.2-17.4,2.2-28c0-10.8-0.7-20.2-2.2-28.3c-1.5-8.1-3.8-14.9-7-20.4
	c-3.2-5.5-7.3-9.6-12.3-12.3c-5-2.7-11.1-4-18.4-4c-7.1,0-13.1,1.4-18.2,4c-5.1,2.7-9.2,6.8-12.5,12.3c-3.2,5.5-5.6,12.3-7,20.4
	c-1.5,8.1-2.2,17.6-2.2,28.3c0,10.6,0.7,19.9,2.2,28c1.5,8.1,3.8,14.9,7,20.4c3.2,5.5,7.4,9.7,12.5,12.5
	C799.6,707.1,805.6,708.5,812.7,708.5z"/>
<path class="st8" d="M916.4,717.8V568.6h31.5v11.2c6-4.2,12.6-7.1,19.8-8.9c7.2-1.8,14.9-2.6,23.2-2.6c2.5,0,5.2,0.2,8.3,0.5
	c3,0.3,5.9,0.7,8.6,1.1v11.5c-1.2,0-2.5,0-3.9-0.2c-1.4-0.1-2.6-0.2-3.9-0.2s-2.5,0-3.9,0c-1.4,0-2.6,0-3.9,0
	c-6.9,0-13.8,0.5-20.7,1.4c-7,0.9-14.1,2.5-21.3,4.8v130.5H916.4z"/>
</svg>
