<svg width="1728" height="1117" viewBox="0 0 1728 1117" fill="none" xmlns="http://www.w3.org/2000/svg">
<g clip-path="url(#clip0_90_2)">
<rect width="1728" height="1117" fill="white"/>
<path d="M1804 1133L-41 1133L-41 -28L1804 -28L1804 1133Z" fill="#BC6666"/>
<path d="M555.6 437L396 267.4C389.6 260.467 384.533 253.8 380.8 247.4C377.067 241 374.4 234.867 372.8 229C371.467 223.133 370.667 217.667 370.4 212.6C369.867 197.133 374.4 183.933 384 173C393.867 162.067 408.667 153.667 428.4 147.8C448.4 141.667 473.067 138.6 502.4 138.6C514.133 138.6 525.6 139.133 536.8 140.2C548 141 558.8 142.067 569.2 143.4C579.6 144.733 589.467 146.333 598.8 148.2V176.6C586.267 174.733 574.267 173.4 562.8 172.6C551.6 171.8 540.667 171.4 530 171.4C520.667 171.4 512.933 172.067 506.8 173.4C500.667 174.467 495.867 176.2 492.4 178.6C488.933 181 486.4 183.933 484.8 187.4C483.467 190.6 482.8 194.467 482.8 199C482.8 204.867 484 210.333 486.4 215.4C488.8 220.467 492.267 225.8 496.8 231.4C501.6 237 507.467 243.4 514.4 250.6L690 437H555.6ZM429.2 441.4C412.4 441.4 397.067 439.933 383.2 437C369.6 433.8 357.867 429 348 422.6C338.4 416.2 330.933 408.2 325.6 398.6C320.533 388.733 318 377.133 318 363.8C318 355 319.6 346.333 322.8 337.8C326.267 329.267 331.467 321.133 338.4 313.4C345.333 305.667 354.267 298.467 365.2 291.8C376.4 285.133 389.733 279.533 405.2 275L424 287.4C419.467 290.333 415.733 293.533 412.8 297C409.867 300.467 407.467 304.2 405.6 308.2C403.733 312.2 402.4 316.6 401.6 321.4C400.8 325.933 400.4 330.867 400.4 336.2C400.4 349.8 402.667 361.667 407.2 371.8C411.733 381.667 418.667 389.4 428 395C437.333 400.333 449.067 403 463.2 403C470.933 403 478 402.467 484.4 401.4C491.067 400.333 497.467 398.333 503.6 395.4C510 392.467 516.4 388.467 522.8 383.4C529.467 378.333 536.4 371.933 543.6 364.2L631.6 256.6H670L565.6 383C553.333 397.933 540.267 409.667 526.4 418.2C512.533 426.467 497.6 432.467 481.6 436.2C465.6 439.667 448.133 441.4 429.2 441.4Z" fill="#33476E"/>
<path d="M404.8 752.8C389.867 752.8 376.933 750.8 366 746.8C355.333 742.8 346.533 737.2 339.6 730C332.667 722.8 327.467 714.667 324 705.6C320.8 696.267 319.2 686.4 319.2 676C319.2 665.6 320.8 655.733 324 646.4C327.467 637.067 332.667 628.933 339.6 622C346.533 614.8 355.333 609.2 366 605.2C376.933 601.2 389.867 599.2 404.8 599.2C419.733 599.2 432.533 601.2 443.2 605.2C453.867 609.2 462.533 614.8 469.2 622C476.133 628.933 481.2 637.067 484.4 646.4C487.867 655.733 489.6 665.6 489.6 676C489.6 686.4 487.867 696.267 484.4 705.6C481.2 714.667 476.133 722.8 469.2 730C462.533 737.2 453.867 742.8 443.2 746.8C432.533 750.8 419.733 752.8 404.8 752.8ZM404.8 725.2C409.067 725.2 412.4 724 414.8 721.6C417.467 718.933 419.333 714.133 420.4 707.2C421.467 700 422 689.733 422 676.4C422 661.733 421.467 650.933 420.4 644C419.333 637.067 417.467 632.533 414.8 630.4C412.4 628 409.067 626.8 404.8 626.8C400.267 626.8 396.667 628 394 630.4C391.6 632.533 389.867 637.067 388.8 644C387.733 650.933 387.2 661.733 387.2 676.4C387.2 689.733 387.733 700 388.8 707.2C389.867 714.133 391.6 718.933 394 721.6C396.667 724 400.267 725.2 404.8 725.2ZM418 898L562 602.8H602.4L458.8 898H418ZM617.6 899.2C602.667 899.2 589.733 897.2 578.8 893.2C568.133 889.2 559.333 883.6 552.4 876.4C545.467 869.2 540.267 861.067 536.8 852C533.6 842.667 532 832.8 532 822.4C532 812 533.6 802.133 536.8 792.8C540.267 783.467 545.467 775.333 552.4 768.4C559.333 761.2 568.133 755.6 578.8 751.6C589.733 747.6 602.667 745.6 617.6 745.6C632.533 745.6 645.333 747.6 656 751.6C666.667 755.6 675.467 761.2 682.4 768.4C689.333 775.333 694.4 783.467 697.6 792.8C700.8 802.133 702.4 812 702.4 822.4C702.4 832.8 700.8 842.667 697.6 852C694.4 861.067 689.333 869.2 682.4 876.4C675.467 883.6 666.667 889.2 656 893.2C645.333 897.2 632.533 899.2 617.6 899.2ZM617.6 871.6C621.867 871.6 625.2 870.4 627.6 868C630.267 865.333 632.133 860.533 633.2 853.6C634.267 846.4 634.8 836.133 634.8 822.8C634.8 808.133 634.267 797.333 633.2 790.4C632.133 783.467 630.267 778.933 627.6 776.8C625.2 774.4 621.867 773.2 617.6 773.2C613.067 773.2 609.467 774.4 606.8 776.8C604.4 778.933 602.667 783.467 601.6 790.4C600.533 797.333 600 808.133 600 822.8C600 836.133 600.533 846.4 601.6 853.6C602.667 860.533 604.4 865.333 606.8 868C609.467 870.4 613.067 871.6 617.6 871.6Z" fill="#33476E"/>
<path d="M1081.4 429.8H1117.8V477.4H1081.4V429.8ZM1079.8 116.6H1116.2V164.2H1079.8V116.6ZM1084.2 447.8C1066.33 447.8 1047.67 447 1028.2 445.4C1009 443.8 990.6 441.667 973 439V410.6C990.333 412.2 1006.33 413.533 1021 414.6C1035.93 415.4 1050.07 415.8 1063.4 415.8C1075.93 415.8 1086.47 415.133 1095 413.8C1103.8 412.467 1110.87 410.467 1116.2 407.8C1121.53 404.867 1125.4 401.133 1127.8 396.6C1130.47 392.067 1131.8 386.6 1131.8 380.2C1131.8 373 1130.33 367.267 1127.4 363C1124.47 358.467 1120.07 354.6 1114.2 351.4C1110.47 349.267 1106.07 347.4 1101 345.8C1096.2 343.933 1090.6 342.2 1084.2 340.6C1077.8 338.733 1070.6 336.733 1062.6 334.6C1053.27 331.933 1044.47 329.133 1036.2 326.2C1028.2 323 1020.87 319.533 1014.2 315.8C1007.8 311.8 1002.07 307.4 997 302.6C989.533 295.4 983.8 286.867 979.8 277C976.067 266.867 974.2 254.867 974.2 241C974.2 221.267 977.8 205.267 985 193C992.467 180.733 1002.47 171.267 1015 164.6C1027.53 157.933 1041.67 153.4 1057.4 151C1073.13 148.333 1089.4 147 1106.2 147C1113.67 147 1121.4 147.267 1129.4 147.8C1137.67 148.067 1145.93 148.6 1154.2 149.4C1162.47 149.933 1170.6 150.733 1178.6 151.8C1186.87 152.867 1194.6 154.067 1201.8 155.4V183.8C1193 182.733 1184.07 181.933 1175 181.4C1166.2 180.6 1157.67 180.067 1149.4 179.8C1141.4 179.267 1133.93 179 1127 179C1116.87 179 1107.93 179.533 1100.2 180.6C1092.47 181.667 1085.93 183.533 1080.6 186.2C1075.27 188.867 1071.27 192.467 1068.6 197C1065.93 201.267 1064.6 206.733 1064.6 213.4C1064.6 220.6 1065.93 226.333 1068.6 230.6C1071.53 234.867 1075.53 238.467 1080.6 241.4C1084.07 243.267 1088.07 245.133 1092.6 247C1097.13 248.6 1102.2 250.2 1107.8 251.8C1113.67 253.133 1119.8 254.733 1126.2 256.6C1136.87 259.533 1146.6 262.6 1155.4 265.8C1164.47 268.733 1172.6 271.933 1179.8 275.4C1187 278.867 1193.13 283 1198.2 287.8C1206.2 295 1212.07 303.4 1215.8 313C1219.8 322.6 1221.8 334.2 1221.8 347.8C1221.8 367.8 1217.67 384.333 1209.4 397.4C1201.4 410.2 1190.6 420.333 1177 427.8C1163.67 435 1148.87 440.2 1132.6 443.4C1116.6 446.333 1100.47 447.8 1084.2 447.8Z" fill="#33476E"/>
<path d="M1046.4 910L1078 614.8H1112L1080.8 910H1046.4ZM1232.4 910L1263.6 614.8H1297.6L1266.4 910H1232.4ZM985.2 828.8L986.8 815.2H1352.4L1350.8 828.8H985.2ZM996.4 709.6L998 695.6H1363.6L1362 709.6H996.4Z" fill="#33476E"/>
<path d="M360.484 516.196C359.233 516.196 357.927 516.14 356.564 516.028C355.22 515.916 353.932 515.767 352.7 515.58V513.592C353.913 513.704 355.033 513.797 356.06 513.872C357.105 513.928 358.095 513.956 359.028 513.956C359.905 513.956 360.643 513.909 361.24 513.816C361.856 513.723 362.351 513.583 362.724 513.396C363.097 513.191 363.368 512.929 363.536 512.612C363.723 512.295 363.816 511.912 363.816 511.464C363.816 510.96 363.713 510.559 363.508 510.26C363.303 509.943 362.995 509.672 362.584 509.448C362.323 509.299 362.015 509.168 361.66 509.056C361.324 508.925 360.932 508.804 360.484 508.692C360.036 508.561 359.532 508.421 358.972 508.272C358.319 508.085 357.703 507.889 357.124 507.684C356.564 507.46 356.051 507.217 355.584 506.956C355.136 506.676 354.735 506.368 354.38 506.032C353.857 505.528 353.456 504.931 353.176 504.24C352.915 503.531 352.784 502.691 352.784 501.72C352.784 500.339 353.036 499.219 353.54 498.36C354.063 497.501 354.763 496.839 355.64 496.372C356.517 495.905 357.507 495.588 358.608 495.42C359.709 495.233 360.848 495.14 362.024 495.14C362.547 495.14 363.088 495.159 363.648 495.196C364.227 495.215 364.805 495.252 365.384 495.308C365.963 495.345 366.532 495.401 367.092 495.476C367.671 495.551 368.212 495.635 368.716 495.728V497.716C368.1 497.641 367.475 497.585 366.84 497.548C366.224 497.492 365.627 497.455 365.048 497.436C364.488 497.399 363.965 497.38 363.48 497.38C362.771 497.38 362.145 497.417 361.604 497.492C361.063 497.567 360.605 497.697 360.232 497.884C359.859 498.071 359.579 498.323 359.392 498.64C359.205 498.939 359.112 499.321 359.112 499.788C359.112 500.292 359.205 500.693 359.392 500.992C359.597 501.291 359.877 501.543 360.232 501.748C360.475 501.879 360.755 502.009 361.072 502.14C361.389 502.252 361.744 502.364 362.136 502.476C362.547 502.569 362.976 502.681 363.424 502.812C364.171 503.017 364.852 503.232 365.468 503.456C366.103 503.661 366.672 503.885 367.176 504.128C367.68 504.371 368.109 504.66 368.464 504.996C369.024 505.5 369.435 506.088 369.696 506.76C369.976 507.432 370.116 508.244 370.116 509.196C370.116 510.596 369.827 511.753 369.248 512.668C368.688 513.564 367.932 514.273 366.98 514.796C366.047 515.3 365.011 515.664 363.872 515.888C362.752 516.093 361.623 516.196 360.484 516.196ZM372.043 521.6V502H378.399V514.432H378.623V521.6H372.043ZM382.235 516.28C381.544 516.28 380.9 516.196 380.303 516.028C379.724 515.879 379.201 515.655 378.735 515.356C378.287 515.057 377.895 514.703 377.559 514.292V503.792C377.895 503.344 378.287 502.971 378.735 502.672C379.183 502.355 379.696 502.121 380.275 501.972C380.872 501.804 381.525 501.72 382.235 501.72C383.56 501.72 384.661 502.028 385.539 502.644C386.435 503.241 387.107 504.091 387.555 505.192C388.003 506.275 388.227 507.544 388.227 509C388.227 510.045 388.105 511.016 387.863 511.912C387.62 512.789 387.256 513.555 386.771 514.208C386.285 514.861 385.66 515.375 384.895 515.748C384.148 516.103 383.261 516.28 382.235 516.28ZM379.603 513.872C379.939 513.872 380.228 513.807 380.471 513.676C380.732 513.527 380.947 513.275 381.115 512.92C381.283 512.565 381.404 512.08 381.479 511.464C381.572 510.829 381.619 510.027 381.619 509.056C381.619 508.123 381.572 507.348 381.479 506.732C381.404 506.116 381.283 505.631 381.115 505.276C380.965 504.903 380.76 504.641 380.499 504.492C380.237 504.324 379.929 504.24 379.575 504.24C379.407 504.24 379.239 504.259 379.071 504.296C378.903 504.315 378.753 504.343 378.623 504.38V513.732C378.716 513.751 378.809 513.779 378.903 513.816C379.015 513.835 379.127 513.853 379.239 513.872C379.369 513.872 379.491 513.872 379.603 513.872ZM390.144 516V502H396.78V516H390.144ZM390.144 500.404V495.616H396.78V500.404H390.144ZM399.086 516V502H405.442V503.54C405.722 503.167 406.086 502.849 406.534 502.588C407 502.308 407.523 502.093 408.102 501.944C408.68 501.795 409.287 501.72 409.922 501.72C410.65 501.72 411.331 501.813 411.966 502C412.619 502.168 413.179 502.448 413.646 502.84C414.131 503.213 414.504 503.717 414.766 504.352C415.046 504.987 415.186 505.752 415.186 506.648V516H408.55V506.564C408.55 506.153 408.512 505.808 408.438 505.528C408.363 505.229 408.204 504.996 407.962 504.828C407.719 504.66 407.355 504.576 406.87 504.576C406.683 504.576 406.496 504.595 406.31 504.632C406.123 504.651 405.927 504.679 405.722 504.716V516H399.086ZM417.433 516V502H423.789V503.54C424.069 503.167 424.433 502.849 424.881 502.588C425.348 502.308 425.87 502.093 426.449 501.944C427.028 501.795 427.634 501.72 428.269 501.72C428.997 501.72 429.678 501.813 430.313 502C430.966 502.168 431.526 502.448 431.993 502.84C432.478 503.213 432.852 503.717 433.113 504.352C433.393 504.987 433.533 505.752 433.533 506.648V516H426.897V506.564C426.897 506.153 426.86 505.808 426.785 505.528C426.71 505.229 426.552 504.996 426.309 504.828C426.066 504.66 425.702 504.576 425.217 504.576C425.03 504.576 424.844 504.595 424.657 504.632C424.47 504.651 424.274 504.679 424.069 504.716V516H417.433ZM435.781 516V502H442.417V516H435.781ZM435.781 500.404V495.616H442.417V500.404H435.781ZM444.722 516V502H451.078V503.54C451.358 503.167 451.722 502.849 452.17 502.588C452.637 502.308 453.16 502.093 453.738 501.944C454.317 501.795 454.924 501.72 455.558 501.72C456.286 501.72 456.968 501.813 457.602 502C458.256 502.168 458.816 502.448 459.282 502.84C459.768 503.213 460.141 503.717 460.402 504.352C460.682 504.987 460.822 505.752 460.822 506.648V516H454.186V506.564C454.186 506.153 454.149 505.808 454.074 505.528C454 505.229 453.841 504.996 453.598 504.828C453.356 504.66 452.992 504.576 452.506 504.576C452.32 504.576 452.133 504.595 451.946 504.632C451.76 504.651 451.564 504.679 451.358 504.716V516H444.722ZM468.614 515.972C467.587 515.972 466.691 515.804 465.926 515.468C465.179 515.113 464.563 514.619 464.078 513.984C463.611 513.349 463.257 512.593 463.014 511.716C462.79 510.839 462.678 509.877 462.678 508.832C462.678 507.749 462.799 506.779 463.042 505.92C463.303 505.043 463.677 504.296 464.162 503.68C464.666 503.045 465.282 502.56 466.01 502.224C466.757 501.888 467.625 501.72 468.614 501.72C469.323 501.72 469.967 501.804 470.546 501.972C471.125 502.121 471.638 502.355 472.086 502.672C472.553 502.971 472.954 503.344 473.29 503.792V513.984C472.954 514.395 472.553 514.749 472.086 515.048C471.638 515.347 471.125 515.58 470.546 515.748C469.967 515.897 469.323 515.972 468.614 515.972ZM471.246 513.564C471.358 513.564 471.479 513.564 471.61 513.564C471.741 513.545 471.862 513.527 471.974 513.508C472.105 513.471 472.207 513.443 472.282 513.424V504.38C472.151 504.343 471.993 504.315 471.806 504.296C471.619 504.259 471.442 504.24 471.274 504.24C470.919 504.24 470.611 504.305 470.35 504.436C470.107 504.548 469.902 504.772 469.734 505.108C469.585 505.425 469.473 505.883 469.398 506.48C469.323 507.059 469.286 507.815 469.286 508.748C469.286 509.719 469.323 510.521 469.398 511.156C469.473 511.772 469.594 512.257 469.762 512.612C469.93 512.967 470.135 513.219 470.378 513.368C470.621 513.499 470.91 513.564 471.246 513.564ZM468.978 519.696C469.557 519.696 470.051 519.649 470.462 519.556C470.891 519.481 471.237 519.341 471.498 519.136C471.759 518.931 471.955 518.632 472.086 518.24C472.217 517.867 472.282 517.381 472.282 516.784V513.844H472.562V502H478.666V515.888C478.666 517.008 478.442 517.951 477.994 518.716C477.546 519.481 476.911 520.088 476.09 520.536C475.269 520.984 474.279 521.301 473.122 521.488C471.983 521.693 470.714 521.796 469.314 521.796C468.847 521.796 468.371 521.777 467.886 521.74C467.401 521.721 466.915 521.675 466.43 521.6C465.945 521.544 465.469 521.469 465.002 521.376V519.5C465.655 519.575 466.318 519.621 466.99 519.64C467.681 519.677 468.343 519.696 468.978 519.696ZM498.862 516.224C497.425 516.224 496.09 516.112 494.858 515.888C493.645 515.664 492.553 515.3 491.582 514.796C490.63 514.292 489.818 513.629 489.146 512.808C488.474 511.987 487.961 510.988 487.606 509.812C487.252 508.636 487.074 507.255 487.074 505.668C487.074 504.212 487.252 502.915 487.606 501.776C487.961 500.637 488.474 499.648 489.146 498.808C489.818 497.968 490.63 497.277 491.582 496.736C492.553 496.195 493.636 495.793 494.83 495.532C496.044 495.271 497.36 495.14 498.778 495.14C499.898 495.14 501.065 495.196 502.278 495.308C503.51 495.401 504.677 495.532 505.778 495.7V497.688C504.733 497.595 503.753 497.52 502.838 497.464C501.924 497.408 501.056 497.38 500.234 497.38C499.226 497.38 498.368 497.464 497.658 497.632C496.949 497.781 496.361 498.052 495.894 498.444C495.446 498.817 495.092 499.321 494.83 499.956C494.588 500.591 494.41 501.375 494.298 502.308C494.205 503.241 494.158 504.361 494.158 505.668C494.158 506.975 494.214 508.104 494.326 509.056C494.457 509.989 494.644 510.773 494.886 511.408C495.129 512.024 495.446 512.519 495.838 512.892C496.23 513.247 496.697 513.508 497.238 513.676C497.78 513.825 498.405 513.9 499.114 513.9C499.208 513.9 499.301 513.9 499.394 513.9C499.488 513.9 499.581 513.9 499.674 513.9C499.786 513.9 499.889 513.9 499.982 513.9V506.48H497.294V504.352H506.534V515.72C505.769 515.851 504.966 515.953 504.126 516.028C503.286 516.103 502.428 516.149 501.55 516.168C500.673 516.205 499.777 516.224 498.862 516.224ZM509.226 516V495.336H515.862V516H509.226ZM524.636 516.868L517.132 502H524.356L528.864 511.016L524.636 516.868ZM522.508 521.6L531.244 502H533.764L525.056 521.6H522.508ZM535.011 521.6V502H541.367V514.432H541.591V521.6H535.011ZM545.203 516.28C544.513 516.28 543.869 516.196 543.271 516.028C542.693 515.879 542.17 515.655 541.703 515.356C541.255 515.057 540.863 514.703 540.527 514.292V503.792C540.863 503.344 541.255 502.971 541.703 502.672C542.151 502.355 542.665 502.121 543.243 501.972C543.841 501.804 544.494 501.72 545.203 501.72C546.529 501.72 547.63 502.028 548.507 502.644C549.403 503.241 550.075 504.091 550.523 505.192C550.971 506.275 551.195 507.544 551.195 509C551.195 510.045 551.074 511.016 550.831 511.912C550.589 512.789 550.225 513.555 549.739 514.208C549.254 514.861 548.629 515.375 547.863 515.748C547.117 516.103 546.23 516.28 545.203 516.28ZM542.571 513.872C542.907 513.872 543.197 513.807 543.439 513.676C543.701 513.527 543.915 513.275 544.083 512.92C544.251 512.565 544.373 512.08 544.447 511.464C544.541 510.829 544.587 510.027 544.587 509.056C544.587 508.123 544.541 507.348 544.447 506.732C544.373 506.116 544.251 505.631 544.083 505.276C543.934 504.903 543.729 504.641 543.467 504.492C543.206 504.324 542.898 504.24 542.543 504.24C542.375 504.24 542.207 504.259 542.039 504.296C541.871 504.315 541.722 504.343 541.591 504.38V513.732C541.685 513.751 541.778 513.779 541.871 513.816C541.983 513.835 542.095 513.853 542.207 513.872C542.338 513.872 542.459 513.872 542.571 513.872ZM553.113 516V495.336H559.749V503.54C560.01 503.167 560.356 502.849 560.785 502.588C561.214 502.308 561.7 502.093 562.241 501.944C562.782 501.795 563.352 501.72 563.949 501.72C564.677 501.72 565.358 501.813 565.993 502C566.646 502.168 567.206 502.448 567.673 502.84C568.158 503.213 568.532 503.717 568.793 504.352C569.073 504.987 569.213 505.752 569.213 506.648V516H562.577V506.564C562.577 506.153 562.54 505.808 562.465 505.528C562.39 505.229 562.232 504.996 561.989 504.828C561.746 504.66 561.382 504.576 560.897 504.576C560.766 504.576 560.636 504.585 560.505 504.604C560.374 504.604 560.244 504.613 560.113 504.632C560.001 504.651 559.88 504.679 559.749 504.716V516H553.113Z" fill="#BE9961"/>
<path d="M364.376 982.196C362.733 982.196 361.212 982.019 359.812 981.664C358.431 981.309 357.227 980.731 356.2 979.928C355.192 979.125 354.408 978.052 353.848 976.708C353.288 975.364 353.008 973.693 353.008 971.696C353.008 969.699 353.288 968.028 353.848 966.684C354.408 965.321 355.192 964.239 356.2 963.436C357.227 962.615 358.431 962.027 359.812 961.672C361.193 961.317 362.715 961.14 364.376 961.14C364.992 961.14 365.608 961.168 366.224 961.224C366.859 961.261 367.493 961.327 368.128 961.42C368.763 961.495 369.379 961.588 369.976 961.7V963.688C369.211 963.576 368.473 963.501 367.764 963.464C367.073 963.408 366.429 963.38 365.832 963.38C364.917 963.38 364.105 963.483 363.396 963.688C362.687 963.893 362.08 964.285 361.576 964.864C361.091 965.424 360.717 966.255 360.456 967.356C360.213 968.439 360.092 969.867 360.092 971.64C360.092 973.432 360.213 974.879 360.456 975.98C360.717 977.081 361.091 977.921 361.576 978.5C362.08 979.06 362.687 979.443 363.396 979.648C364.105 979.853 364.917 979.956 365.832 979.956C366.429 979.956 367.083 979.937 367.792 979.9C368.501 979.844 369.229 979.76 369.976 979.648V981.636C369.416 981.767 368.819 981.869 368.184 981.944C367.549 982.019 366.905 982.075 366.252 982.112C365.617 982.168 364.992 982.196 364.376 982.196ZM378.814 982.28C377.414 982.28 376.2 982.121 375.174 981.804C374.166 981.468 373.326 980.983 372.654 980.348C371.982 979.713 371.487 978.948 371.17 978.052C370.852 977.156 370.694 976.139 370.694 975C370.694 973.899 370.852 972.9 371.17 972.004C371.506 971.108 372.01 970.343 372.682 969.708C373.354 969.073 374.194 968.588 375.202 968.252C376.228 967.897 377.432 967.72 378.814 967.72C380.195 967.72 381.399 967.897 382.426 968.252C383.452 968.588 384.302 969.073 384.974 969.708C385.646 970.343 386.15 971.108 386.486 972.004C386.822 972.9 386.99 973.899 386.99 975C386.99 976.12 386.822 977.128 386.486 978.024C386.168 978.92 385.674 979.685 385.002 980.32C384.33 980.955 383.48 981.44 382.454 981.776C381.427 982.112 380.214 982.28 378.814 982.28ZM378.842 980.32C379.178 980.32 379.448 980.245 379.654 980.096C379.859 979.928 380.008 979.648 380.102 979.256C380.214 978.864 380.288 978.332 380.326 977.66C380.363 976.969 380.382 976.111 380.382 975.084C380.382 974.039 380.363 973.18 380.326 972.508C380.288 971.817 380.214 971.276 380.102 970.884C380.008 970.492 379.859 970.212 379.654 970.044C379.448 969.876 379.178 969.792 378.842 969.792C378.506 969.792 378.235 969.876 378.03 970.044C377.824 970.212 377.666 970.492 377.554 970.884C377.46 971.276 377.395 971.817 377.358 972.508C377.32 973.18 377.302 974.039 377.302 975.084C377.302 976.111 377.32 976.969 377.358 977.66C377.395 978.332 377.46 978.864 377.554 979.256C377.666 979.648 377.824 979.928 378.03 980.096C378.235 980.245 378.506 980.32 378.842 980.32ZM388.886 982V961.336H395.522V982H388.886ZM405.556 982.28C404.156 982.28 402.942 982.121 401.916 981.804C400.908 981.468 400.068 980.983 399.396 980.348C398.724 979.713 398.229 978.948 397.912 978.052C397.594 977.156 397.436 976.139 397.436 975C397.436 973.899 397.594 972.9 397.912 972.004C398.248 971.108 398.752 970.343 399.424 969.708C400.096 969.073 400.936 968.588 401.944 968.252C402.97 967.897 404.174 967.72 405.556 967.72C406.937 967.72 408.141 967.897 409.168 968.252C410.194 968.588 411.044 969.073 411.716 969.708C412.388 970.343 412.892 971.108 413.228 972.004C413.564 972.9 413.732 973.899 413.732 975C413.732 976.12 413.564 977.128 413.228 978.024C412.91 978.92 412.416 979.685 411.744 980.32C411.072 980.955 410.222 981.44 409.196 981.776C408.169 982.112 406.956 982.28 405.556 982.28ZM405.584 980.32C405.92 980.32 406.19 980.245 406.396 980.096C406.601 979.928 406.75 979.648 406.844 979.256C406.956 978.864 407.03 978.332 407.068 977.66C407.105 976.969 407.124 976.111 407.124 975.084C407.124 974.039 407.105 973.18 407.068 972.508C407.03 971.817 406.956 971.276 406.844 970.884C406.75 970.492 406.601 970.212 406.396 970.044C406.19 969.876 405.92 969.792 405.584 969.792C405.248 969.792 404.977 969.876 404.772 970.044C404.566 970.212 404.408 970.492 404.296 970.884C404.202 971.276 404.137 971.817 404.1 972.508C404.062 973.18 404.044 974.039 404.044 975.084C404.044 976.111 404.062 976.969 404.1 977.66C404.137 978.332 404.202 978.864 404.296 979.256C404.408 979.648 404.566 979.928 404.772 980.096C404.977 980.245 405.248 980.32 405.584 980.32ZM415.628 982V968H421.732V969.232C422.031 968.784 422.451 968.457 422.992 968.252C423.552 968.028 424.215 967.916 424.98 967.916C425.242 967.916 425.55 967.944 425.904 968C426.278 968.056 426.595 968.131 426.856 968.224V970.184C426.726 970.165 426.586 970.156 426.436 970.156C426.306 970.137 426.166 970.128 426.016 970.128C425.886 970.128 425.746 970.128 425.596 970.128C425.466 970.128 425.326 970.128 425.176 970.128C424.71 970.128 424.224 970.156 423.72 970.212C423.235 970.268 422.75 970.361 422.264 970.492V982H415.628ZM442.399 982.14C440.663 982.14 439.151 981.907 437.863 981.44C436.575 980.955 435.576 980.189 434.867 979.144C434.158 978.08 433.803 976.699 433.803 975C433.803 973.712 433.999 972.62 434.391 971.724C434.802 970.809 435.38 970.072 436.127 969.512C436.892 968.933 437.798 968.513 438.843 968.252C439.907 967.991 441.092 967.86 442.399 967.86C443.108 967.86 443.827 967.897 444.555 967.972C445.302 968.028 446.02 968.121 446.711 968.252V970.128C446.282 970.053 445.852 969.997 445.423 969.96C444.994 969.923 444.564 969.904 444.135 969.904C443.575 969.904 443.062 969.969 442.595 970.1C442.147 970.212 441.755 970.445 441.419 970.8C441.102 971.136 440.85 971.64 440.663 972.312C440.495 972.984 440.411 973.88 440.411 975C440.411 976.12 440.495 977.016 440.663 977.688C440.85 978.36 441.102 978.873 441.419 979.228C441.755 979.564 442.147 979.797 442.595 979.928C443.062 980.04 443.575 980.096 444.135 980.096C444.564 980.096 444.994 980.077 445.423 980.04C445.852 980.003 446.282 979.947 446.711 979.872V981.748C446.02 981.879 445.302 981.972 444.555 982.028C443.827 982.103 443.108 982.14 442.399 982.14ZM448.468 982V961.336H455.104V969.54C455.366 969.167 455.711 968.849 456.14 968.588C456.57 968.308 457.055 968.093 457.596 967.944C458.138 967.795 458.707 967.72 459.304 967.72C460.032 967.72 460.714 967.813 461.348 968C462.002 968.168 462.562 968.448 463.028 968.84C463.514 969.213 463.887 969.717 464.148 970.352C464.428 970.987 464.568 971.752 464.568 972.648V982H457.932V972.564C457.932 972.153 457.895 971.808 457.82 971.528C457.746 971.229 457.587 970.996 457.344 970.828C457.102 970.66 456.738 970.576 456.252 970.576C456.122 970.576 455.991 970.585 455.86 970.604C455.73 970.604 455.599 970.613 455.468 970.632C455.356 970.651 455.235 970.679 455.104 970.716V982H448.468ZM475.048 982V974.664V974.356V972.004C475.048 971.575 474.992 971.229 474.88 970.968C474.768 970.707 474.591 970.501 474.348 970.352C474.124 970.203 473.825 970.1 473.452 970.044C473.079 969.988 472.64 969.96 472.136 969.96C471.707 969.96 471.249 969.969 470.764 969.988C470.297 970.007 469.849 970.035 469.42 970.072C468.991 970.091 468.627 970.119 468.328 970.156V968.28C469.112 968.149 469.98 968.047 470.932 967.972C471.903 967.897 472.761 967.86 473.508 967.86C474.945 967.86 476.159 967.963 477.148 968.168C478.137 968.355 478.931 968.644 479.528 969.036C480.125 969.428 480.555 969.923 480.816 970.52C481.096 971.117 481.236 971.827 481.236 972.648V982H475.048ZM471.548 982.28C470.447 982.28 469.523 982.093 468.776 981.72C468.029 981.347 467.469 980.843 467.096 980.208C466.723 979.555 466.536 978.808 466.536 977.968C466.536 976.904 466.732 976.036 467.124 975.364C467.535 974.692 468.141 974.207 468.944 973.908C469.765 973.591 470.783 973.432 471.996 973.432H475.72V980.684C475.44 981.001 475.085 981.281 474.656 981.524C474.227 981.767 473.751 981.953 473.228 982.084C472.705 982.215 472.145 982.28 471.548 982.28ZM474.236 980.18C474.348 980.18 474.451 980.18 474.544 980.18C474.637 980.161 474.721 980.152 474.796 980.152C474.889 980.133 474.973 980.115 475.048 980.096V975.084H474.236C474.012 975.084 473.816 975.131 473.648 975.224C473.48 975.299 473.34 975.439 473.228 975.644C473.116 975.831 473.032 976.092 472.976 976.428C472.92 976.745 472.892 977.137 472.892 977.604C472.892 978.257 472.939 978.771 473.032 979.144C473.144 979.517 473.293 979.788 473.48 979.956C473.685 980.105 473.937 980.18 474.236 980.18ZM483.468 982V968H489.824V969.54C490.104 969.167 490.468 968.849 490.916 968.588C491.383 968.308 491.906 968.093 492.484 967.944C493.063 967.795 493.67 967.72 494.304 967.72C495.032 967.72 495.714 967.813 496.348 968C497.002 968.168 497.562 968.448 498.028 968.84C498.514 969.213 498.887 969.717 499.148 970.352C499.428 970.987 499.568 971.752 499.568 972.648V982H492.932V972.564C492.932 972.153 492.895 971.808 492.82 971.528C492.746 971.229 492.587 970.996 492.344 970.828C492.102 970.66 491.738 970.576 491.252 970.576C491.066 970.576 490.879 970.595 490.692 970.632C490.506 970.651 490.31 970.679 490.104 970.716V982H483.468ZM507.36 981.972C506.333 981.972 505.437 981.804 504.672 981.468C503.925 981.113 503.309 980.619 502.824 979.984C502.357 979.349 502.003 978.593 501.76 977.716C501.536 976.839 501.424 975.877 501.424 974.832C501.424 973.749 501.545 972.779 501.788 971.92C502.049 971.043 502.423 970.296 502.908 969.68C503.412 969.045 504.028 968.56 504.756 968.224C505.503 967.888 506.371 967.72 507.36 967.72C508.069 967.72 508.713 967.804 509.292 967.972C509.871 968.121 510.384 968.355 510.832 968.672C511.299 968.971 511.7 969.344 512.036 969.792V979.984C511.7 980.395 511.299 980.749 510.832 981.048C510.384 981.347 509.871 981.58 509.292 981.748C508.713 981.897 508.069 981.972 507.36 981.972ZM509.992 979.564C510.104 979.564 510.225 979.564 510.356 979.564C510.487 979.545 510.608 979.527 510.72 979.508C510.851 979.471 510.953 979.443 511.028 979.424V970.38C510.897 970.343 510.739 970.315 510.552 970.296C510.365 970.259 510.188 970.24 510.02 970.24C509.665 970.24 509.357 970.305 509.096 970.436C508.853 970.548 508.648 970.772 508.48 971.108C508.331 971.425 508.219 971.883 508.144 972.48C508.069 973.059 508.032 973.815 508.032 974.748C508.032 975.719 508.069 976.521 508.144 977.156C508.219 977.772 508.34 978.257 508.508 978.612C508.676 978.967 508.881 979.219 509.124 979.368C509.367 979.499 509.656 979.564 509.992 979.564ZM507.724 985.696C508.303 985.696 508.797 985.649 509.208 985.556C509.637 985.481 509.983 985.341 510.244 985.136C510.505 984.931 510.701 984.632 510.832 984.24C510.963 983.867 511.028 983.381 511.028 982.784V979.844H511.308V968H517.412V981.888C517.412 983.008 517.188 983.951 516.74 984.716C516.292 985.481 515.657 986.088 514.836 986.536C514.015 986.984 513.025 987.301 511.868 987.488C510.729 987.693 509.46 987.796 508.06 987.796C507.593 987.796 507.117 987.777 506.632 987.74C506.147 987.721 505.661 987.675 505.176 987.6C504.691 987.544 504.215 987.469 503.748 987.376V985.5C504.401 985.575 505.064 985.621 505.736 985.64C506.427 985.677 507.089 985.696 507.724 985.696ZM519.699 982V968H526.335V982H519.699ZM519.699 966.404V961.616H526.335V966.404H519.699ZM528.64 982V968H534.996V969.54C535.276 969.167 535.64 968.849 536.088 968.588C536.555 968.308 537.078 968.093 537.656 967.944C538.235 967.795 538.842 967.72 539.476 967.72C540.204 967.72 540.886 967.813 541.52 968C542.174 968.168 542.734 968.448 543.2 968.84C543.686 969.213 544.059 969.717 544.32 970.352C544.6 970.987 544.74 971.752 544.74 972.648V982H538.104V972.564C538.104 972.153 538.067 971.808 537.992 971.528C537.918 971.229 537.759 970.996 537.516 970.828C537.274 970.66 536.91 970.576 536.424 970.576C536.238 970.576 536.051 970.595 535.864 970.632C535.678 970.651 535.482 970.679 535.276 970.716V982H528.64ZM552.532 981.972C551.505 981.972 550.609 981.804 549.844 981.468C549.097 981.113 548.481 980.619 547.996 979.984C547.529 979.349 547.175 978.593 546.932 977.716C546.708 976.839 546.596 975.877 546.596 974.832C546.596 973.749 546.717 972.779 546.96 971.92C547.221 971.043 547.595 970.296 548.08 969.68C548.584 969.045 549.2 968.56 549.928 968.224C550.675 967.888 551.543 967.72 552.532 967.72C553.241 967.72 553.885 967.804 554.464 967.972C555.043 968.121 555.556 968.355 556.004 968.672C556.471 968.971 556.872 969.344 557.208 969.792V979.984C556.872 980.395 556.471 980.749 556.004 981.048C555.556 981.347 555.043 981.58 554.464 981.748C553.885 981.897 553.241 981.972 552.532 981.972ZM555.164 979.564C555.276 979.564 555.397 979.564 555.528 979.564C555.659 979.545 555.78 979.527 555.892 979.508C556.023 979.471 556.125 979.443 556.2 979.424V970.38C556.069 970.343 555.911 970.315 555.724 970.296C555.537 970.259 555.36 970.24 555.192 970.24C554.837 970.24 554.529 970.305 554.268 970.436C554.025 970.548 553.82 970.772 553.652 971.108C553.503 971.425 553.391 971.883 553.316 972.48C553.241 973.059 553.204 973.815 553.204 974.748C553.204 975.719 553.241 976.521 553.316 977.156C553.391 977.772 553.512 978.257 553.68 978.612C553.848 978.967 554.053 979.219 554.296 979.368C554.539 979.499 554.828 979.564 555.164 979.564ZM552.896 985.696C553.475 985.696 553.969 985.649 554.38 985.556C554.809 985.481 555.155 985.341 555.416 985.136C555.677 984.931 555.873 984.632 556.004 984.24C556.135 983.867 556.2 983.381 556.2 982.784V979.844H556.48V968H562.584V981.888C562.584 983.008 562.36 983.951 561.912 984.716C561.464 985.481 560.829 986.088 560.008 986.536C559.187 986.984 558.197 987.301 557.04 987.488C555.901 987.693 554.632 987.796 553.232 987.796C552.765 987.796 552.289 987.777 551.804 987.74C551.319 987.721 550.833 987.675 550.348 987.6C549.863 987.544 549.387 987.469 548.92 987.376V985.5C549.573 985.575 550.236 985.621 550.908 985.64C551.599 985.677 552.261 985.696 552.896 985.696ZM582.78 982.224C581.343 982.224 580.008 982.112 578.776 981.888C577.563 981.664 576.471 981.3 575.5 980.796C574.548 980.292 573.736 979.629 573.064 978.808C572.392 977.987 571.879 976.988 571.524 975.812C571.17 974.636 570.992 973.255 570.992 971.668C570.992 970.212 571.17 968.915 571.524 967.776C571.879 966.637 572.392 965.648 573.064 964.808C573.736 963.968 574.548 963.277 575.5 962.736C576.471 962.195 577.554 961.793 578.748 961.532C579.962 961.271 581.278 961.14 582.696 961.14C583.816 961.14 584.983 961.196 586.196 961.308C587.428 961.401 588.595 961.532 589.696 961.7V963.688C588.651 963.595 587.671 963.52 586.756 963.464C585.842 963.408 584.974 963.38 584.152 963.38C583.144 963.38 582.286 963.464 581.576 963.632C580.867 963.781 580.279 964.052 579.812 964.444C579.364 964.817 579.01 965.321 578.748 965.956C578.506 966.591 578.328 967.375 578.216 968.308C578.123 969.241 578.076 970.361 578.076 971.668C578.076 972.975 578.132 974.104 578.244 975.056C578.375 975.989 578.562 976.773 578.804 977.408C579.047 978.024 579.364 978.519 579.756 978.892C580.148 979.247 580.615 979.508 581.156 979.676C581.698 979.825 582.323 979.9 583.032 979.9C583.126 979.9 583.219 979.9 583.312 979.9C583.406 979.9 583.499 979.9 583.592 979.9C583.704 979.9 583.807 979.9 583.9 979.9V972.48H581.212V970.352H590.452V981.72C589.687 981.851 588.884 981.953 588.044 982.028C587.204 982.103 586.346 982.149 585.468 982.168C584.591 982.205 583.695 982.224 582.78 982.224ZM593.144 982V961.336H599.78V982H593.144ZM608.554 982.868L601.05 968H608.274L612.782 977.016L608.554 982.868ZM606.426 987.6L615.162 968H617.682L608.974 987.6H606.426ZM618.929 987.6V968H625.285V980.432H625.509V987.6H618.929ZM629.121 982.28C628.431 982.28 627.787 982.196 627.189 982.028C626.611 981.879 626.088 981.655 625.621 981.356C625.173 981.057 624.781 980.703 624.445 980.292V969.792C624.781 969.344 625.173 968.971 625.621 968.672C626.069 968.355 626.583 968.121 627.161 967.972C627.759 967.804 628.412 967.72 629.121 967.72C630.447 967.72 631.548 968.028 632.425 968.644C633.321 969.241 633.993 970.091 634.441 971.192C634.889 972.275 635.113 973.544 635.113 975C635.113 976.045 634.992 977.016 634.749 977.912C634.507 978.789 634.143 979.555 633.657 980.208C633.172 980.861 632.547 981.375 631.781 981.748C631.035 982.103 630.148 982.28 629.121 982.28ZM626.489 979.872C626.825 979.872 627.115 979.807 627.357 979.676C627.619 979.527 627.833 979.275 628.001 978.92C628.169 978.565 628.291 978.08 628.365 977.464C628.459 976.829 628.505 976.027 628.505 975.056C628.505 974.123 628.459 973.348 628.365 972.732C628.291 972.116 628.169 971.631 628.001 971.276C627.852 970.903 627.647 970.641 627.385 970.492C627.124 970.324 626.816 970.24 626.461 970.24C626.293 970.24 626.125 970.259 625.957 970.296C625.789 970.315 625.64 970.343 625.509 970.38V979.732C625.603 979.751 625.696 979.779 625.789 979.816C625.901 979.835 626.013 979.853 626.125 979.872C626.256 979.872 626.377 979.872 626.489 979.872ZM637.031 982V961.336H643.667V969.54C643.928 969.167 644.273 968.849 644.703 968.588C645.132 968.308 645.617 968.093 646.159 967.944C646.7 967.795 647.269 967.72 647.867 967.72C648.595 967.72 649.276 967.813 649.911 968C650.564 968.168 651.124 968.448 651.591 968.84C652.076 969.213 652.449 969.717 652.711 970.352C652.991 970.987 653.131 971.752 653.131 972.648V982H646.495V972.564C646.495 972.153 646.457 971.808 646.383 971.528C646.308 971.229 646.149 970.996 645.907 970.828C645.664 970.66 645.3 970.576 644.815 970.576C644.684 970.576 644.553 970.585 644.423 970.604C644.292 970.604 644.161 970.613 644.031 970.632C643.919 970.651 643.797 970.679 643.667 970.716V982H637.031Z" fill="#BE9961"/>
<path d="M973.568 970V949.336H975.976V970H973.568ZM981.436 970L974.884 953.116V949.336H980.624L986.672 965.268L985.552 965.38L991.488 949.336H993.952L986.196 970H981.436ZM991.488 970V949.336H998.236V970H991.488ZM1008.68 970.28C1007.28 970.28 1006.07 970.121 1005.04 969.804C1004.04 969.468 1003.2 968.983 1002.52 968.348C1001.85 967.713 1001.36 966.948 1001.04 966.052C1000.72 965.156 1000.56 964.139 1000.56 963C1000.56 961.899 1000.72 960.9 1001.04 960.004C1001.38 959.108 1001.88 958.343 1002.55 957.708C1003.22 957.073 1004.06 956.588 1005.07 956.252C1006.1 955.897 1007.3 955.72 1008.68 955.72C1010.07 955.72 1011.27 955.897 1012.3 956.252C1013.32 956.588 1014.17 957.073 1014.84 957.708C1015.52 958.343 1016.02 959.108 1016.36 960.004C1016.69 960.9 1016.86 961.899 1016.86 963C1016.86 964.12 1016.69 965.128 1016.36 966.024C1016.04 966.92 1015.54 967.685 1014.87 968.32C1014.2 968.955 1013.35 969.44 1012.32 969.776C1011.3 970.112 1010.08 970.28 1008.68 970.28ZM1008.71 968.32C1009.05 968.32 1009.32 968.245 1009.52 968.096C1009.73 967.928 1009.88 967.648 1009.97 967.256C1010.08 966.864 1010.16 966.332 1010.2 965.66C1010.23 964.969 1010.25 964.111 1010.25 963.084C1010.25 962.039 1010.23 961.18 1010.2 960.508C1010.16 959.817 1010.08 959.276 1009.97 958.884C1009.88 958.492 1009.73 958.212 1009.52 958.044C1009.32 957.876 1009.05 957.792 1008.71 957.792C1008.38 957.792 1008.11 957.876 1007.9 958.044C1007.7 958.212 1007.54 958.492 1007.42 958.884C1007.33 959.276 1007.27 959.817 1007.23 960.508C1007.19 961.18 1007.17 962.039 1007.17 963.084C1007.17 964.111 1007.19 964.969 1007.23 965.66C1007.27 966.332 1007.33 966.864 1007.42 967.256C1007.54 967.648 1007.7 967.928 1007.9 968.096C1008.11 968.245 1008.38 968.32 1008.71 968.32ZM1022.36 970L1017.04 956H1023.95L1028.52 968.096H1026.61L1031.18 956H1033.7L1028.41 970H1022.36ZM1034.94 970V956H1041.58V970H1034.94ZM1034.94 954.404V949.616H1041.58V954.404H1034.94ZM1043.89 970V956H1050.24V957.54C1050.52 957.167 1050.89 956.849 1051.33 956.588C1051.8 956.308 1052.32 956.093 1052.9 955.944C1053.48 955.795 1054.09 955.72 1054.72 955.72C1055.45 955.72 1056.13 955.813 1056.77 956C1057.42 956.168 1057.98 956.448 1058.45 956.84C1058.93 957.213 1059.3 957.717 1059.57 958.352C1059.85 958.987 1059.99 959.752 1059.99 960.648V970H1053.35V960.564C1053.35 960.153 1053.31 959.808 1053.24 959.528C1053.16 959.229 1053 958.996 1052.76 958.828C1052.52 958.66 1052.16 958.576 1051.67 958.576C1051.48 958.576 1051.3 958.595 1051.11 958.632C1050.92 958.651 1050.73 958.679 1050.52 958.716V970H1043.89ZM1067.78 969.972C1066.75 969.972 1065.86 969.804 1065.09 969.468C1064.34 969.113 1063.73 968.619 1063.24 967.984C1062.78 967.349 1062.42 966.593 1062.18 965.716C1061.95 964.839 1061.84 963.877 1061.84 962.832C1061.84 961.749 1061.96 960.779 1062.21 959.92C1062.47 959.043 1062.84 958.296 1063.33 957.68C1063.83 957.045 1064.45 956.56 1065.17 956.224C1065.92 955.888 1066.79 955.72 1067.78 955.72C1068.49 955.72 1069.13 955.804 1069.71 955.972C1070.29 956.121 1070.8 956.355 1071.25 956.672C1071.72 956.971 1072.12 957.344 1072.45 957.792V967.984C1072.12 968.395 1071.72 968.749 1071.25 969.048C1070.8 969.347 1070.29 969.58 1069.71 969.748C1069.13 969.897 1068.49 969.972 1067.78 969.972ZM1070.41 967.564C1070.52 967.564 1070.64 967.564 1070.77 967.564C1070.9 967.545 1071.03 967.527 1071.14 967.508C1071.27 967.471 1071.37 967.443 1071.45 967.424V958.38C1071.32 958.343 1071.16 958.315 1070.97 958.296C1070.78 958.259 1070.61 958.24 1070.44 958.24C1070.08 958.24 1069.78 958.305 1069.51 958.436C1069.27 958.548 1069.07 958.772 1068.9 959.108C1068.75 959.425 1068.64 959.883 1068.56 960.48C1068.49 961.059 1068.45 961.815 1068.45 962.748C1068.45 963.719 1068.49 964.521 1068.56 965.156C1068.64 965.772 1068.76 966.257 1068.93 966.612C1069.09 966.967 1069.3 967.219 1069.54 967.368C1069.78 967.499 1070.07 967.564 1070.41 967.564ZM1068.14 973.696C1068.72 973.696 1069.22 973.649 1069.63 973.556C1070.06 973.481 1070.4 973.341 1070.66 973.136C1070.92 972.931 1071.12 972.632 1071.25 972.24C1071.38 971.867 1071.45 971.381 1071.45 970.784V967.844H1071.73V956H1077.83V969.888C1077.83 971.008 1077.61 971.951 1077.16 972.716C1076.71 973.481 1076.08 974.088 1075.25 974.536C1074.43 974.984 1073.44 975.301 1072.29 975.488C1071.15 975.693 1069.88 975.796 1068.48 975.796C1068.01 975.796 1067.54 975.777 1067.05 975.74C1066.56 975.721 1066.08 975.675 1065.59 975.6C1065.11 975.544 1064.63 975.469 1064.17 975.376V973.5C1064.82 973.575 1065.48 973.621 1066.15 973.64C1066.84 973.677 1067.51 973.696 1068.14 973.696ZM1098.03 970.224C1096.59 970.224 1095.25 970.112 1094.02 969.888C1092.81 969.664 1091.72 969.3 1090.75 968.796C1089.79 968.292 1088.98 967.629 1088.31 966.808C1087.64 965.987 1087.13 964.988 1086.77 963.812C1086.42 962.636 1086.24 961.255 1086.24 959.668C1086.24 958.212 1086.42 956.915 1086.77 955.776C1087.13 954.637 1087.64 953.648 1088.31 952.808C1088.98 951.968 1089.79 951.277 1090.75 950.736C1091.72 950.195 1092.8 949.793 1093.99 949.532C1095.21 949.271 1096.52 949.14 1097.94 949.14C1099.06 949.14 1100.23 949.196 1101.44 949.308C1102.67 949.401 1103.84 949.532 1104.94 949.7V951.688C1103.9 951.595 1102.92 951.52 1102 951.464C1101.09 951.408 1100.22 951.38 1099.4 951.38C1098.39 951.38 1097.53 951.464 1096.82 951.632C1096.11 951.781 1095.53 952.052 1095.06 952.444C1094.61 952.817 1094.26 953.321 1093.99 953.956C1093.75 954.591 1093.57 955.375 1093.46 956.308C1093.37 957.241 1093.32 958.361 1093.32 959.668C1093.32 960.975 1093.38 962.104 1093.49 963.056C1093.62 963.989 1093.81 964.773 1094.05 965.408C1094.29 966.024 1094.61 966.519 1095 966.892C1095.39 967.247 1095.86 967.508 1096.4 967.676C1096.94 967.825 1097.57 967.9 1098.28 967.9C1098.37 967.9 1098.47 967.9 1098.56 967.9C1098.65 967.9 1098.75 967.9 1098.84 967.9C1098.95 967.9 1099.05 967.9 1099.15 967.9V960.48H1096.46V958.352H1105.7V969.72C1104.93 969.851 1104.13 969.953 1103.29 970.028C1102.45 970.103 1101.59 970.149 1100.71 970.168C1099.84 970.205 1098.94 970.224 1098.03 970.224ZM1108.39 970V949.336H1115.03V970H1108.39ZM1123.8 970.868L1116.3 956H1123.52L1128.03 965.016L1123.8 970.868ZM1121.67 975.6L1130.41 956H1132.93L1124.22 975.6H1121.67ZM1134.18 975.6V956H1140.53V968.432H1140.76V975.6H1134.18ZM1144.37 970.28C1143.68 970.28 1143.03 970.196 1142.44 970.028C1141.86 969.879 1141.33 969.655 1140.87 969.356C1140.42 969.057 1140.03 968.703 1139.69 968.292V957.792C1140.03 957.344 1140.42 956.971 1140.87 956.672C1141.32 956.355 1141.83 956.121 1142.41 955.972C1143 955.804 1143.66 955.72 1144.37 955.72C1145.69 955.72 1146.79 956.028 1147.67 956.644C1148.57 957.241 1149.24 958.091 1149.69 959.192C1150.14 960.275 1150.36 961.544 1150.36 963C1150.36 964.045 1150.24 965.016 1150 965.912C1149.75 966.789 1149.39 967.555 1148.9 968.208C1148.42 968.861 1147.79 969.375 1147.03 969.748C1146.28 970.103 1145.39 970.28 1144.37 970.28ZM1141.74 967.872C1142.07 967.872 1142.36 967.807 1142.6 967.676C1142.86 967.527 1143.08 967.275 1143.25 966.92C1143.42 966.565 1143.54 966.08 1143.61 965.464C1143.7 964.829 1143.75 964.027 1143.75 963.056C1143.75 962.123 1143.7 961.348 1143.61 960.732C1143.54 960.116 1143.42 959.631 1143.25 959.276C1143.1 958.903 1142.89 958.641 1142.63 958.492C1142.37 958.324 1142.06 958.24 1141.71 958.24C1141.54 958.24 1141.37 958.259 1141.2 958.296C1141.04 958.315 1140.89 958.343 1140.76 958.38V967.732C1140.85 967.751 1140.94 967.779 1141.04 967.816C1141.15 967.835 1141.26 967.853 1141.37 967.872C1141.5 967.872 1141.62 967.872 1141.74 967.872ZM1152.28 970V949.336H1158.91V957.54C1159.17 957.167 1159.52 956.849 1159.95 956.588C1160.38 956.308 1160.86 956.093 1161.4 955.944C1161.95 955.795 1162.52 955.72 1163.11 955.72C1163.84 955.72 1164.52 955.813 1165.16 956C1165.81 956.168 1166.37 956.448 1166.84 956.84C1167.32 957.213 1167.7 957.717 1167.96 958.352C1168.24 958.987 1168.38 959.752 1168.38 960.648V970H1161.74V960.564C1161.74 960.153 1161.7 959.808 1161.63 959.528C1161.55 959.229 1161.4 958.996 1161.15 958.828C1160.91 958.66 1160.55 958.576 1160.06 958.576C1159.93 958.576 1159.8 958.585 1159.67 958.604C1159.54 958.604 1159.41 958.613 1159.28 958.632C1159.16 958.651 1159.04 958.679 1158.91 958.716V970H1152.28Z" fill="#BE9961"/>
<path d="M955.568 504V483.336H962.456V504H955.568ZM955.848 485.492V483.336H971.724V485.492H955.848ZM955.848 494.76V492.632H970.52V494.76H955.848ZM979.732 504V496.664V496.356V494.004C979.732 493.575 979.676 493.229 979.564 492.968C979.452 492.707 979.274 492.501 979.032 492.352C978.808 492.203 978.509 492.1 978.136 492.044C977.762 491.988 977.324 491.96 976.82 491.96C976.39 491.96 975.933 491.969 975.448 491.988C974.981 492.007 974.533 492.035 974.104 492.072C973.674 492.091 973.31 492.119 973.012 492.156V490.28C973.796 490.149 974.664 490.047 975.616 489.972C976.586 489.897 977.445 489.86 978.192 489.86C979.629 489.86 980.842 489.963 981.832 490.168C982.821 490.355 983.614 490.644 984.212 491.036C984.809 491.428 985.238 491.923 985.5 492.52C985.78 493.117 985.92 493.827 985.92 494.648V504H979.732ZM976.232 504.28C975.13 504.28 974.206 504.093 973.46 503.72C972.713 503.347 972.153 502.843 971.78 502.208C971.406 501.555 971.22 500.808 971.22 499.968C971.22 498.904 971.416 498.036 971.808 497.364C972.218 496.692 972.825 496.207 973.628 495.908C974.449 495.591 975.466 495.432 976.68 495.432H980.404V502.684C980.124 503.001 979.769 503.281 979.34 503.524C978.91 503.767 978.434 503.953 977.912 504.084C977.389 504.215 976.829 504.28 976.232 504.28ZM978.92 502.18C979.032 502.18 979.134 502.18 979.228 502.18C979.321 502.161 979.405 502.152 979.48 502.152C979.573 502.133 979.657 502.115 979.732 502.096V497.084H978.92C978.696 497.084 978.5 497.131 978.332 497.224C978.164 497.299 978.024 497.439 977.912 497.644C977.8 497.831 977.716 498.092 977.66 498.428C977.604 498.745 977.576 499.137 977.576 499.604C977.576 500.257 977.622 500.771 977.716 501.144C977.828 501.517 977.977 501.788 978.164 501.956C978.369 502.105 978.621 502.18 978.92 502.18ZM997.588 504V502.544H997.364V483.336H1003.94V504H997.588ZM993.752 504.28C992.725 504.28 991.829 504.103 991.064 503.748C990.317 503.375 989.701 502.861 989.216 502.208C988.731 501.555 988.367 500.789 988.124 499.912C987.881 499.016 987.76 498.045 987.76 497C987.76 495.917 987.881 494.928 988.124 494.032C988.385 493.136 988.768 492.371 989.272 491.736C989.776 491.083 990.401 490.588 991.148 490.252C991.895 489.897 992.763 489.72 993.752 489.72C994.461 489.72 995.105 489.804 995.684 489.972C996.281 490.121 996.804 490.355 997.252 490.672C997.719 490.971 998.111 491.344 998.428 491.792V502.292C998.111 502.703 997.719 503.057 997.252 503.356C996.785 503.655 996.263 503.879 995.684 504.028C995.105 504.196 994.461 504.28 993.752 504.28ZM996.384 501.872C996.496 501.872 996.608 501.872 996.72 501.872C996.851 501.853 996.972 501.835 997.084 501.816C997.196 501.779 997.289 501.751 997.364 501.732V492.38C997.233 492.343 997.084 492.315 996.916 492.296C996.748 492.259 996.58 492.24 996.412 492.24C996.057 492.24 995.749 492.324 995.488 492.492C995.227 492.641 995.012 492.903 994.844 493.276C994.695 493.631 994.573 494.116 994.48 494.732C994.405 495.348 994.368 496.123 994.368 497.056C994.368 498.027 994.405 498.829 994.48 499.464C994.573 500.08 994.704 500.565 994.872 500.92C995.04 501.275 995.245 501.527 995.488 501.676C995.749 501.807 996.048 501.872 996.384 501.872ZM1006.25 504V490H1012.89V504H1006.25ZM1006.25 488.404V483.616H1012.89V488.404H1006.25ZM1015.19 504V490H1021.55V491.54C1021.83 491.167 1022.19 490.849 1022.64 490.588C1023.11 490.308 1023.63 490.093 1024.21 489.944C1024.79 489.795 1025.4 489.72 1026.03 489.72C1026.76 489.72 1027.44 489.813 1028.07 490C1028.73 490.168 1029.29 490.448 1029.75 490.84C1030.24 491.213 1030.61 491.717 1030.87 492.352C1031.15 492.987 1031.29 493.752 1031.29 494.648V504H1024.66V494.564C1024.66 494.153 1024.62 493.808 1024.55 493.528C1024.47 493.229 1024.31 492.996 1024.07 492.828C1023.83 492.66 1023.46 492.576 1022.98 492.576C1022.79 492.576 1022.61 492.595 1022.42 492.632C1022.23 492.651 1022.04 492.679 1021.83 492.716V504H1015.19ZM1039.09 503.972C1038.06 503.972 1037.16 503.804 1036.4 503.468C1035.65 503.113 1035.04 502.619 1034.55 501.984C1034.08 501.349 1033.73 500.593 1033.49 499.716C1033.26 498.839 1033.15 497.877 1033.15 496.832C1033.15 495.749 1033.27 494.779 1033.51 493.92C1033.78 493.043 1034.15 492.296 1034.63 491.68C1035.14 491.045 1035.75 490.56 1036.48 490.224C1037.23 489.888 1038.1 489.72 1039.09 489.72C1039.8 489.72 1040.44 489.804 1041.02 489.972C1041.6 490.121 1042.11 490.355 1042.56 490.672C1043.03 490.971 1043.43 491.344 1043.76 491.792V501.984C1043.43 502.395 1043.03 502.749 1042.56 503.048C1042.11 503.347 1041.6 503.58 1041.02 503.748C1040.44 503.897 1039.8 503.972 1039.09 503.972ZM1041.72 501.564C1041.83 501.564 1041.95 501.564 1042.08 501.564C1042.21 501.545 1042.33 501.527 1042.45 501.508C1042.58 501.471 1042.68 501.443 1042.75 501.424V492.38C1042.62 492.343 1042.47 492.315 1042.28 492.296C1042.09 492.259 1041.91 492.24 1041.75 492.24C1041.39 492.24 1041.08 492.305 1040.82 492.436C1040.58 492.548 1040.37 492.772 1040.21 493.108C1040.06 493.425 1039.95 493.883 1039.87 494.48C1039.8 495.059 1039.76 495.815 1039.76 496.748C1039.76 497.719 1039.8 498.521 1039.87 499.156C1039.95 499.772 1040.07 500.257 1040.23 500.612C1040.4 500.967 1040.61 501.219 1040.85 501.368C1041.09 501.499 1041.38 501.564 1041.72 501.564ZM1039.45 507.696C1040.03 507.696 1040.52 507.649 1040.93 507.556C1041.36 507.481 1041.71 507.341 1041.97 507.136C1042.23 506.931 1042.43 506.632 1042.56 506.24C1042.69 505.867 1042.75 505.381 1042.75 504.784V501.844H1043.03V490H1049.14V503.888C1049.14 505.008 1048.91 505.951 1048.47 506.716C1048.02 507.481 1047.38 508.088 1046.56 508.536C1045.74 508.984 1044.75 509.301 1043.59 509.488C1042.46 509.693 1041.19 509.796 1039.79 509.796C1039.32 509.796 1038.84 509.777 1038.36 509.74C1037.87 509.721 1037.39 509.675 1036.9 509.6C1036.42 509.544 1035.94 509.469 1035.47 509.376V507.5C1036.13 507.575 1036.79 507.621 1037.46 507.64C1038.15 507.677 1038.82 507.696 1039.45 507.696ZM1057.69 504V490H1064.32V504H1057.69ZM1057.69 488.404V483.616H1064.32V488.404H1057.69ZM1066.63 504V490H1072.98V491.54C1073.26 491.167 1073.63 490.849 1074.08 490.588C1074.54 490.308 1075.07 490.093 1075.64 489.944C1076.22 489.795 1076.83 489.72 1077.46 489.72C1078.19 489.72 1078.87 489.813 1079.51 490C1080.16 490.168 1080.72 490.448 1081.19 490.84C1081.67 491.213 1082.05 491.717 1082.31 492.352C1082.59 492.987 1082.73 493.752 1082.73 494.648V504H1076.09V494.564C1076.09 494.153 1076.06 493.808 1075.98 493.528C1075.91 493.229 1075.75 492.996 1075.5 492.828C1075.26 492.66 1074.9 492.576 1074.41 492.576C1074.23 492.576 1074.04 492.595 1073.85 492.632C1073.67 492.651 1073.47 492.679 1073.26 492.716V504H1066.63ZM1099.47 504V496.664V496.356V494.004C1099.47 493.575 1099.41 493.229 1099.3 492.968C1099.19 492.707 1099.01 492.501 1098.77 492.352C1098.55 492.203 1098.25 492.1 1097.87 492.044C1097.5 491.988 1097.06 491.96 1096.56 491.96C1096.13 491.96 1095.67 491.969 1095.19 491.988C1094.72 492.007 1094.27 492.035 1093.84 492.072C1093.41 492.091 1093.05 492.119 1092.75 492.156V490.28C1093.53 490.149 1094.4 490.047 1095.35 489.972C1096.32 489.897 1097.18 489.86 1097.93 489.86C1099.37 489.86 1100.58 489.963 1101.57 490.168C1102.56 490.355 1103.35 490.644 1103.95 491.036C1104.55 491.428 1104.98 491.923 1105.24 492.52C1105.52 493.117 1105.66 493.827 1105.66 494.648V504H1099.47ZM1095.97 504.28C1094.87 504.28 1093.94 504.093 1093.2 503.72C1092.45 503.347 1091.89 502.843 1091.52 502.208C1091.14 501.555 1090.96 500.808 1090.96 499.968C1090.96 498.904 1091.15 498.036 1091.55 497.364C1091.96 496.692 1092.56 496.207 1093.37 495.908C1094.19 495.591 1095.2 495.432 1096.42 495.432H1100.14V502.684C1099.86 503.001 1099.51 503.281 1099.08 503.524C1098.65 503.767 1098.17 503.953 1097.65 504.084C1097.13 504.215 1096.57 504.28 1095.97 504.28ZM1098.66 502.18C1098.77 502.18 1098.87 502.18 1098.97 502.18C1099.06 502.161 1099.14 502.152 1099.22 502.152C1099.31 502.133 1099.4 502.115 1099.47 502.096V497.084H1098.66C1098.43 497.084 1098.24 497.131 1098.07 497.224C1097.9 497.299 1097.76 497.439 1097.65 497.644C1097.54 497.831 1097.45 498.092 1097.4 498.428C1097.34 498.745 1097.31 499.137 1097.31 499.604C1097.31 500.257 1097.36 500.771 1097.45 501.144C1097.57 501.517 1097.72 501.788 1097.9 501.956C1098.11 502.105 1098.36 502.18 1098.66 502.18ZM1107.89 504V490H1114.25V491.54C1114.53 491.167 1114.89 490.849 1115.34 490.588C1115.8 490.308 1116.33 490.093 1116.91 489.944C1117.48 489.795 1118.09 489.72 1118.73 489.72C1119.45 489.72 1120.14 489.813 1120.77 490C1121.42 490.168 1121.98 490.448 1122.45 490.84C1122.94 491.213 1123.31 491.717 1123.57 492.352C1123.85 492.987 1123.99 493.752 1123.99 494.648V504H1117.35V494.564C1117.35 494.153 1117.32 493.808 1117.24 493.528C1117.17 493.229 1117.01 492.996 1116.77 492.828C1116.52 492.66 1116.16 492.576 1115.67 492.576C1115.49 492.576 1115.3 492.595 1115.11 492.632C1114.93 492.651 1114.73 492.679 1114.53 492.716V504H1107.89ZM1135.67 504V502.544H1135.45V483.336H1142.03V504H1135.67ZM1131.84 504.28C1130.81 504.28 1129.92 504.103 1129.15 503.748C1128.4 503.375 1127.79 502.861 1127.3 502.208C1126.82 501.555 1126.45 500.789 1126.21 499.912C1125.97 499.016 1125.85 498.045 1125.85 497C1125.85 495.917 1125.97 494.928 1126.21 494.032C1126.47 493.136 1126.85 492.371 1127.36 491.736C1127.86 491.083 1128.49 490.588 1129.23 490.252C1129.98 489.897 1130.85 489.72 1131.84 489.72C1132.55 489.72 1133.19 489.804 1133.77 489.972C1134.37 490.121 1134.89 490.355 1135.34 490.672C1135.8 490.971 1136.2 491.344 1136.51 491.792V502.292C1136.2 502.703 1135.8 503.057 1135.34 503.356C1134.87 503.655 1134.35 503.879 1133.77 504.028C1133.19 504.196 1132.55 504.28 1131.84 504.28ZM1134.47 501.872C1134.58 501.872 1134.69 501.872 1134.81 501.872C1134.94 501.853 1135.06 501.835 1135.17 501.816C1135.28 501.779 1135.38 501.751 1135.45 501.732V492.38C1135.32 492.343 1135.17 492.315 1135 492.296C1134.83 492.259 1134.67 492.24 1134.5 492.24C1134.14 492.24 1133.84 492.324 1133.57 492.492C1133.31 492.641 1133.1 492.903 1132.93 493.276C1132.78 493.631 1132.66 494.116 1132.57 494.732C1132.49 495.348 1132.45 496.123 1132.45 497.056C1132.45 498.027 1132.49 498.829 1132.57 499.464C1132.66 500.08 1132.79 500.565 1132.96 500.92C1133.13 501.275 1133.33 501.527 1133.57 501.676C1133.84 501.807 1134.13 501.872 1134.47 501.872ZM1158.33 504.28C1156.93 504.28 1155.72 504.121 1154.69 503.804C1153.68 503.468 1152.84 502.983 1152.17 502.348C1151.5 501.713 1151 500.948 1150.69 500.052C1150.37 499.156 1150.21 498.139 1150.21 497C1150.21 495.899 1150.37 494.9 1150.69 494.004C1151.02 493.108 1151.53 492.343 1152.2 491.708C1152.87 491.073 1153.71 490.588 1154.72 490.252C1155.74 489.897 1156.95 489.72 1158.33 489.72C1159.71 489.72 1160.91 489.897 1161.94 490.252C1162.97 490.588 1163.82 491.073 1164.49 491.708C1165.16 492.343 1165.67 493.108 1166 494.004C1166.34 494.9 1166.51 495.899 1166.51 497C1166.51 498.12 1166.34 499.128 1166 500.024C1165.68 500.92 1165.19 501.685 1164.52 502.32C1163.85 502.955 1163 503.44 1161.97 503.776C1160.94 504.112 1159.73 504.28 1158.33 504.28ZM1158.36 502.32C1158.69 502.32 1158.96 502.245 1159.17 502.096C1159.37 501.928 1159.52 501.648 1159.62 501.256C1159.73 500.864 1159.8 500.332 1159.84 499.66C1159.88 498.969 1159.9 498.111 1159.9 497.084C1159.9 496.039 1159.88 495.18 1159.84 494.508C1159.8 493.817 1159.73 493.276 1159.62 492.884C1159.52 492.492 1159.37 492.212 1159.17 492.044C1158.96 491.876 1158.69 491.792 1158.36 491.792C1158.02 491.792 1157.75 491.876 1157.55 492.044C1157.34 492.212 1157.18 492.492 1157.07 492.884C1156.98 493.276 1156.91 493.817 1156.87 494.508C1156.84 495.18 1156.82 496.039 1156.82 497.084C1156.82 498.111 1156.84 498.969 1156.87 499.66C1156.91 500.332 1156.98 500.864 1157.07 501.256C1157.18 501.648 1157.34 501.928 1157.55 502.096C1157.75 502.245 1158.02 502.32 1158.36 502.32ZM1173.61 504.28C1172.88 504.28 1172.19 504.187 1171.54 504C1170.9 503.832 1170.34 503.561 1169.86 503.188C1169.39 502.796 1169.02 502.283 1168.74 501.648C1168.48 501.013 1168.35 500.248 1168.35 499.352V490H1174.98V499.436C1174.98 499.828 1175.02 500.173 1175.09 500.472C1175.17 500.771 1175.33 501.004 1175.57 501.172C1175.81 501.34 1176.18 501.424 1176.66 501.424C1176.87 501.424 1177.06 501.415 1177.25 501.396C1177.44 501.359 1177.62 501.321 1177.81 501.284V490H1184.45V504H1178.09V502.46C1177.83 502.833 1177.46 503.16 1177 503.44C1176.53 503.701 1176.01 503.907 1175.43 504.056C1174.85 504.205 1174.24 504.28 1173.61 504.28ZM1192.97 504.112C1191.94 504.112 1191.02 504 1190.22 503.776C1189.42 503.552 1188.78 503.132 1188.32 502.516C1187.87 501.881 1187.65 500.985 1187.65 499.828V486.108H1194.28V500.556C1194.28 500.967 1194.33 501.284 1194.42 501.508C1194.51 501.732 1194.67 501.881 1194.9 501.956C1195.14 502.031 1195.46 502.068 1195.85 502.068C1196.05 502.068 1196.25 502.059 1196.44 502.04C1196.64 502.003 1196.81 501.975 1196.94 501.956V503.832C1196.29 503.925 1195.63 503.991 1194.95 504.028C1194.3 504.084 1193.64 504.112 1192.97 504.112ZM1185.99 491.988V490H1196.94V491.988H1185.99ZM1216.44 504.224C1215.01 504.224 1213.67 504.112 1212.44 503.888C1211.23 503.664 1210.14 503.3 1209.16 502.796C1208.21 502.292 1207.4 501.629 1206.73 500.808C1206.06 499.987 1205.54 498.988 1205.19 497.812C1204.83 496.636 1204.66 495.255 1204.66 493.668C1204.66 492.212 1204.83 490.915 1205.19 489.776C1205.54 488.637 1206.06 487.648 1206.73 486.808C1207.4 485.968 1208.21 485.277 1209.16 484.736C1210.14 484.195 1211.22 483.793 1212.41 483.532C1213.63 483.271 1214.94 483.14 1216.36 483.14C1217.48 483.14 1218.65 483.196 1219.86 483.308C1221.09 483.401 1222.26 483.532 1223.36 483.7V485.688C1222.32 485.595 1221.34 485.52 1220.42 485.464C1219.51 485.408 1218.64 485.38 1217.82 485.38C1216.81 485.38 1215.95 485.464 1215.24 485.632C1214.53 485.781 1213.94 486.052 1213.48 486.444C1213.03 486.817 1212.67 487.321 1212.41 487.956C1212.17 488.591 1211.99 489.375 1211.88 490.308C1211.79 491.241 1211.74 492.361 1211.74 493.668C1211.74 494.975 1211.8 496.104 1211.91 497.056C1212.04 497.989 1212.23 498.773 1212.47 499.408C1212.71 500.024 1213.03 500.519 1213.42 500.892C1213.81 501.247 1214.28 501.508 1214.82 501.676C1215.36 501.825 1215.99 501.9 1216.7 501.9C1216.79 501.9 1216.88 501.9 1216.98 501.9C1217.07 501.9 1217.16 501.9 1217.26 501.9C1217.37 501.9 1217.47 501.9 1217.56 501.9V494.48H1214.88V492.352H1224.12V503.72C1223.35 503.851 1222.55 503.953 1221.71 504.028C1220.87 504.103 1220.01 504.149 1219.13 504.168C1218.26 504.205 1217.36 504.224 1216.44 504.224ZM1226.81 504V483.336H1233.44V504H1226.81ZM1242.22 504.868L1234.71 490H1241.94L1246.45 499.016L1242.22 504.868ZM1240.09 509.6L1248.83 490H1251.35L1242.64 509.6H1240.09ZM1252.59 509.6V490H1258.95V502.432H1259.17V509.6H1252.59ZM1262.79 504.28C1262.09 504.28 1261.45 504.196 1260.85 504.028C1260.27 503.879 1259.75 503.655 1259.29 503.356C1258.84 503.057 1258.45 502.703 1258.11 502.292V491.792C1258.45 491.344 1258.84 490.971 1259.29 490.672C1259.73 490.355 1260.25 490.121 1260.83 489.972C1261.42 489.804 1262.08 489.72 1262.79 489.72C1264.11 489.72 1265.21 490.028 1266.09 490.644C1266.99 491.241 1267.66 492.091 1268.11 493.192C1268.55 494.275 1268.78 495.544 1268.78 497C1268.78 498.045 1268.66 499.016 1268.41 499.912C1268.17 500.789 1267.81 501.555 1267.32 502.208C1266.84 502.861 1266.21 503.375 1265.45 503.748C1264.7 504.103 1263.81 504.28 1262.79 504.28ZM1260.15 501.872C1260.49 501.872 1260.78 501.807 1261.02 501.676C1261.28 501.527 1261.5 501.275 1261.67 500.92C1261.83 500.565 1261.95 500.08 1262.03 499.464C1262.12 498.829 1262.17 498.027 1262.17 497.056C1262.17 496.123 1262.12 495.348 1262.03 494.732C1261.95 494.116 1261.83 493.631 1261.67 493.276C1261.52 492.903 1261.31 492.641 1261.05 492.492C1260.79 492.324 1260.48 492.24 1260.13 492.24C1259.96 492.24 1259.79 492.259 1259.62 492.296C1259.45 492.315 1259.3 492.343 1259.17 492.38V501.732C1259.27 501.751 1259.36 501.779 1259.45 501.816C1259.57 501.835 1259.68 501.853 1259.79 501.872C1259.92 501.872 1260.04 501.872 1260.15 501.872ZM1270.69 504V483.336H1277.33V491.54C1277.59 491.167 1277.94 490.849 1278.37 490.588C1278.8 490.308 1279.28 490.093 1279.82 489.944C1280.36 489.795 1280.93 489.72 1281.53 489.72C1282.26 489.72 1282.94 489.813 1283.57 490C1284.23 490.168 1284.79 490.448 1285.25 490.84C1285.74 491.213 1286.11 491.717 1286.37 492.352C1286.65 492.987 1286.79 493.752 1286.79 494.648V504H1280.16V494.564C1280.16 494.153 1280.12 493.808 1280.05 493.528C1279.97 493.229 1279.81 492.996 1279.57 492.828C1279.33 492.66 1278.96 492.576 1278.48 492.576C1278.35 492.576 1278.22 492.585 1278.09 492.604C1277.96 492.604 1277.83 492.613 1277.69 492.632C1277.58 492.651 1277.46 492.679 1277.33 492.716V504H1270.69Z" fill="#BE9961"/>
<ellipse cx="1660.5" cy="1124" rx="43" ry="42.5" transform="rotate(-90 1660.5 1124)" fill="#BE9961"/>
<ellipse cx="1660.5" cy="1124" rx="33" ry="33.5" transform="rotate(-90 1660.5 1124)" fill="#BC6666"/>
<circle cx="1634.5" cy="83.5" r="79.5" transform="rotate(-90 1634.5 83.5)" fill="#BE9961"/>
<circle cx="1634.5" cy="875.5" r="79.5" transform="rotate(-90 1634.5 875.5)" fill="#BE9961"/>
<ellipse cx="1636.5" cy="82.5" rx="71.5" ry="69.5" transform="rotate(-90 1636.5 82.5)" fill="#BC6666"/>
<circle cx="1634.5" cy="716.5" r="79.5" transform="rotate(-90 1634.5 716.5)" fill="#BE9961"/>
<ellipse cx="1635.5" cy="716.5" rx="70.5" ry="71.5" transform="rotate(-90 1635.5 716.5)" fill="#BC6666"/>
<circle cx="1635.5" cy="240.5" r="79.5" transform="rotate(-90 1635.5 240.5)" fill="#BE9961"/>
<ellipse cx="1636.5" cy="875.5" rx="70.5" ry="71.5" transform="rotate(-90 1636.5 875.5)" fill="#BC6666"/>
<ellipse cx="1637.5" cy="241.5" rx="71.5" ry="69.5" transform="rotate(-90 1637.5 241.5)" fill="#BC6666"/>
<ellipse cx="1638" cy="399.5" rx="79.5" ry="79" transform="rotate(-90 1638 399.5)" fill="#BE9961"/>
<ellipse cx="1638.5" cy="1033.5" rx="78.5" ry="79.5" transform="rotate(-90 1638.5 1033.5)" fill="#BE9961"/>
<ellipse cx="1639" cy="399" rx="70" ry="71" transform="rotate(-90 1639 399)" fill="#BC6666"/>
<ellipse cx="1638" cy="1033" rx="71" ry="70" transform="rotate(-90 1638 1033)" fill="#BC6666"/>
<ellipse cx="1638.5" cy="558" rx="79" ry="79.5" transform="rotate(-90 1638.5 558)" fill="#BE9961"/>
<circle cx="1638.5" cy="1192.5" r="79.5" transform="rotate(-90 1638.5 1192.5)" fill="#BE9961"/>
<ellipse cx="1640" cy="558" rx="70" ry="71" transform="rotate(-90 1640 558)" fill="#BC6666"/>
<ellipse cx="1636.5" cy="84" rx="63" ry="62.5" transform="rotate(-90 1636.5 84)" fill="#BE9961"/>
<ellipse cx="1636.5" cy="717" rx="63" ry="62.5" transform="rotate(-90 1636.5 717)" fill="#BE9961"/>
<ellipse cx="1638" cy="400.5" rx="61.5" ry="63" transform="rotate(-90 1638 400.5)" fill="#BE9961"/>
<ellipse cx="1637.5" cy="1035.5" rx="61.5" ry="62.5" transform="rotate(-90 1637.5 1035.5)" fill="#BE9961"/>
<ellipse cx="1638.5" cy="559.5" rx="61.5" ry="62.5" transform="rotate(-90 1638.5 559.5)" fill="#BE9961"/>
<circle cx="1635.5" cy="241.5" r="61.5" transform="rotate(-90 1635.5 241.5)" fill="#BE9961"/>
<circle cx="1641" cy="558" r="53" transform="rotate(-90 1641 558)" fill="#BC6666"/>
<ellipse cx="1640.5" cy="400.5" rx="54.5" ry="53.5" transform="rotate(-90 1640.5 400.5)" fill="#BC6666"/>
<ellipse cx="1639" cy="1034.5" rx="53.5" ry="55" transform="rotate(-90 1639 1034.5)" fill="#BC6666"/>
<ellipse cx="1640" cy="242.5" rx="53.5" ry="53" transform="rotate(-90 1640 242.5)" fill="#BC6666"/>
<ellipse cx="1635.5" cy="875" rx="63" ry="62.5" transform="rotate(-90 1635.5 875)" fill="#BE9961"/>
<ellipse cx="1638.5" cy="875" rx="53" ry="54.5" transform="rotate(-90 1638.5 875)" fill="#BC6666"/>
<circle cx="1639.5" cy="81.5" r="53.5" transform="rotate(-90 1639.5 81.5)" fill="#BC6666"/>
<ellipse cx="1637.5" cy="717" rx="53" ry="54.5" transform="rotate(-90 1637.5 717)" fill="#BC6666"/>
<circle cx="1638.5" cy="241.5" r="42.5" transform="rotate(-90 1638.5 241.5)" fill="#BE9961"/>
<ellipse cx="1636" cy="876.5" rx="42.5" ry="43" transform="rotate(-90 1636 876.5)" fill="#BE9961"/>
<ellipse cx="1637.5" cy="244" rx="33" ry="34.5" transform="rotate(-90 1637.5 244)" fill="#BC6666"/>
<ellipse cx="1637" cy="876.5" rx="33.5" ry="34" transform="rotate(-90 1637 876.5)" fill="#BC6666"/>
<ellipse cx="1636.5" cy="82.5" rx="42.5" ry="41.5" transform="rotate(-90 1636.5 82.5)" fill="#BE9961"/>
<ellipse cx="1636" cy="715.5" rx="42.5" ry="43" transform="rotate(-90 1636 715.5)" fill="#BE9961"/>
<circle cx="1636.5" cy="81.5" r="34.5" transform="rotate(-90 1636.5 81.5)" fill="#BC6666"/>
<ellipse cx="1636.5" cy="716" rx="33" ry="34.5" transform="rotate(-90 1636.5 716)" fill="#BC6666"/>
<circle cx="1698.5" cy="161.5" r="79.5" transform="rotate(-90 1698.5 161.5)" fill="#BE9961"/>
<circle cx="1698.5" cy="794.5" r="79.5" transform="rotate(-90 1698.5 794.5)" fill="#BE9961"/>
<ellipse cx="1699" cy="160.5" rx="71.5" ry="70" transform="rotate(-90 1699 160.5)" fill="#BC6666"/>
<circle cx="1699" cy="795" r="70" transform="rotate(-90 1699 795)" fill="#BC6666"/>
<ellipse cx="1638" cy="401.5" rx="41.5" ry="41" transform="rotate(-90 1638 401.5)" fill="#BE9961"/>
<ellipse cx="1637" cy="1035.5" rx="42.5" ry="43" transform="rotate(-90 1637 1035.5)" fill="#BE9961"/>
<ellipse cx="1638.5" cy="558" rx="41" ry="41.5" transform="rotate(-90 1638.5 558)" fill="#BE9961"/>
<circle cx="1637.5" cy="401.5" r="34.5" transform="rotate(-90 1637.5 401.5)" fill="#BC6666"/>
<circle cx="1636.5" cy="1035.5" r="33.5" transform="rotate(-90 1636.5 1035.5)" fill="#BC6666"/>
<circle cx="1699.5" cy="320.5" r="79.5" transform="rotate(-90 1699.5 320.5)" fill="#BE9961"/>
<ellipse cx="1699.5" cy="953" rx="79" ry="79.5" transform="rotate(-90 1699.5 953)" fill="#BE9961"/>
<ellipse cx="1637" cy="558" rx="34" ry="33" transform="rotate(-90 1637 558)" fill="#BC6666"/>
<circle cx="1700.5" cy="479.5" r="79.5" transform="rotate(-90 1700.5 479.5)" fill="#BE9961"/>
<circle cx="1699.5" cy="1111.5" r="79.5" transform="rotate(-90 1699.5 1111.5)" fill="#BE9961"/>
<ellipse cx="1699.5" cy="319" rx="71" ry="70.5" transform="rotate(-90 1699.5 319)" fill="#BC6666"/>
<ellipse cx="1699" cy="953.5" rx="69.5" ry="70" transform="rotate(-90 1699 953.5)" fill="#BC6666"/>
<ellipse cx="1700" cy="478" rx="71" ry="70" transform="rotate(-90 1700 478)" fill="#BC6666"/>
<circle cx="1700" cy="1112" r="70" transform="rotate(-90 1700 1112)" fill="#BC6666"/>
<circle cx="1698.5" cy="2.5" r="79.5" transform="rotate(-90 1698.5 2.5)" fill="#BE9961"/>
<ellipse cx="1698.5" cy="637" rx="78" ry="79.5" transform="rotate(-90 1698.5 637)" fill="#BE9961"/>
<circle cx="1698" cy="3" r="70" transform="rotate(-90 1698 3)" fill="#BC6666"/>
<ellipse cx="1698" cy="637" rx="71" ry="70" transform="rotate(-90 1698 637)" fill="#BC6666"/>
<circle cx="1700.5" cy="478.5" r="61.5" transform="rotate(-90 1700.5 478.5)" fill="#BE9961"/>
<circle cx="1701" cy="1113" r="62" transform="rotate(-90 1701 1113)" fill="#BE9961"/>
<circle cx="1700.5" cy="319.5" r="61.5" transform="rotate(-90 1700.5 319.5)" fill="#BE9961"/>
<ellipse cx="1700.5" cy="953.5" rx="62.5" ry="61.5" transform="rotate(-90 1700.5 953.5)" fill="#BE9961"/>
<ellipse cx="1699.5" cy="161" rx="62" ry="61.5" transform="rotate(-90 1699.5 161)" fill="#BE9961"/>
<ellipse cx="1700" cy="794" rx="63" ry="62" transform="rotate(-90 1700 794)" fill="#BE9961"/>
<ellipse cx="1699.5" cy="3.5" rx="62.5" ry="61.5" transform="rotate(-90 1699.5 3.5)" fill="#BE9961"/>
<ellipse cx="1699" cy="636" rx="63" ry="62" transform="rotate(-90 1699 636)" fill="#BE9961"/>
<ellipse cx="1699" cy="3.5" rx="53.5" ry="52" transform="rotate(-90 1699 3.5)" fill="#BC6666"/>
<ellipse cx="1698" cy="636" rx="53" ry="54" transform="rotate(-90 1698 636)" fill="#BC6666"/>
<ellipse cx="1700" cy="161.5" rx="53.5" ry="52" transform="rotate(-90 1700 161.5)" fill="#BC6666"/>
<circle cx="1698.5" cy="794.5" r="53.5" transform="rotate(-90 1698.5 794.5)" fill="#BC6666"/>
<ellipse cx="1700" cy="320.5" rx="53.5" ry="52" transform="rotate(-90 1700 320.5)" fill="#BC6666"/>
<circle cx="1699.5" cy="953.5" r="53.5" transform="rotate(-90 1699.5 953.5)" fill="#BC6666"/>
<ellipse cx="1701" cy="479.5" rx="53.5" ry="52" transform="rotate(-90 1701 479.5)" fill="#BC6666"/>
<ellipse cx="1700" cy="1112.5" rx="53.5" ry="54" transform="rotate(-90 1700 1112.5)" fill="#BC6666"/>
<ellipse cx="1696.5" cy="2" rx="43" ry="42.5" transform="rotate(-90 1696.5 2)" fill="#BE9961"/>
<ellipse cx="1697" cy="637.5" rx="42.5" ry="43" transform="rotate(-90 1697 637.5)" fill="#BE9961"/>
<ellipse cx="1697.5" cy="161" rx="43" ry="42.5" transform="rotate(-90 1697.5 161)" fill="#BE9961"/>
<ellipse cx="1697" cy="795.5" rx="42.5" ry="43" transform="rotate(-90 1697 795.5)" fill="#BE9961"/>
<circle cx="1697.5" cy="319.5" r="42.5" transform="rotate(-90 1697.5 319.5)" fill="#BE9961"/>
<ellipse cx="1698" cy="954.5" rx="42.5" ry="43" transform="rotate(-90 1698 954.5)" fill="#BE9961"/>
<circle cx="1698.5" cy="478.5" r="42.5" transform="rotate(-90 1698.5 478.5)" fill="#BE9961"/>
<ellipse cx="1699" cy="1113.5" rx="42.5" ry="43" transform="rotate(-90 1699 1113.5)" fill="#BE9961"/>
<circle cx="1698" cy="478" r="33" transform="rotate(-90 1698 478)" fill="#BC6666"/>
<circle cx="1697.5" cy="1112.5" r="34.5" transform="rotate(-90 1697.5 1112.5)" fill="#BC6666"/>
<ellipse cx="1696.5" cy="2" rx="33" ry="33.5" transform="rotate(-90 1696.5 2)" fill="#BC6666"/>
<circle cx="1696" cy="636" r="34" transform="rotate(-90 1696 636)" fill="#BC6666"/>
<ellipse cx="1697" cy="160.5" rx="33.5" ry="33" transform="rotate(-90 1697 160.5)" fill="#BC6666"/>
<ellipse cx="1696.5" cy="795.5" rx="33.5" ry="34.5" transform="rotate(-90 1696.5 795.5)" fill="#BC6666"/>
<ellipse cx="1698" cy="318" rx="34" ry="33" transform="rotate(-90 1698 318)" fill="#BC6666"/>
<ellipse cx="1697.5" cy="952" rx="33" ry="34.5" transform="rotate(-90 1697.5 952)" fill="#BC6666"/>
</g>
<defs>
<clipPath id="clip0_90_2">
<rect width="1728" height="1117" fill="white"/>
</clipPath>
</defs>
</svg>
