<?xml version="1.0" encoding="UTF-8"?>
<svg id="Layer_1" data-name="Layer 1" xmlns="http://www.w3.org/2000/svg" viewBox="0 0 1034.67 1034.6">
  <defs>
    <style>
      .cls-1 {
        fill: none;
      }

      .cls-1, .cls-2, .cls-3 {
        stroke-width: 0px;
      }

      .cls-2 {
        fill: #4c4c4c;
      }

      .cls-3 {
        fill: #be9961;
      }
    </style>
  </defs>
  <rect class="cls-2" x="-.3" y="403.05" width="1034.97" height="631.56"/>
  <rect class="cls-2" x="150.5" y="1.05" width="884.17" height="29.5"/>
  <path class="cls-1" d="m689.6,7.05c1.6,0,3.1,0,4.7.1.4-2,.9-4.1,1.4-6.1h-10.2c.5,2,1,4,1.4,6h2.7Z"/>
  <path class="cls-1" d="m341.6,7.05h2.7c.4-2,.9-4,1.4-6h-10.2c.5,2,1,4,1.4,6.1,1.5-.1,3.1-.1,4.7-.1Z"/>
  <path class="cls-2" d="m170.3,462.95s0,.07.02.1h-.02c-1.6,0-3.1.1-4.7.1h-3.72s.01-.07.02-.1h3.7c1.6,0,3.1,0,4.7-.1Z"/>
  <path class="cls-2" d="m170.32,463.05c7.02,33.46,23.55,63.43,46.66,86.86-23.14-23.43-39.73-53.4-46.66-86.86Z"/>
  <path class="cls-2" d="m239.21,568.96c24.81,17.91,54.51,29.53,86.74,32.4-32.22-2.85-61.88-14.43-86.74-32.4Z"/>
  <path class="cls-3" d="m512.9,463.05c-16.6,79.4-87,139-171.3,139-5.28,0-10.49-.23-15.65-.69-32.22-2.85-61.88-14.43-86.74-32.4-2.98-2.14-5.88-4.38-8.71-6.71-4.72-3.88-9.23-7.99-13.52-12.34-23.14-23.43-39.73-53.4-46.66-86.86-.01-.03-.01-.07-.02-.1,7-.2,13.9-.8,20.6-1.8.01.03.02.07.02.1,3.1,12.75,7.76,24.89,13.78,36.2.02.03.04.06.05.09.91,1.71,1.86,3.41,2.84,5.09.63,1.09,1.27,2.17,1.93,3.25.62,1,1.25,2,1.89,2.99.49.75.98,1.5,1.48,2.24.14.21.28.41.41.62.59.87,1.19,1.74,1.8,2.6.01.02.02.03.03.05,8.48,11.95,18.61,22.66,30.05,31.79,14.94,11.91,32.11,21.13,50.79,26.93.06.02.13.04.19.06,1.4.43,2.8.84,4.22,1.23.26.07.51.14.77.21,1.24.34,2.49.66,3.74.97.34.08.67.17,1.01.25,1.23.29,2.46.57,3.69.83.33.07.65.14.98.21,1.54.32,3.09.62,4.65.89,2.18.38,4.37.71,6.59,1,1.1.15,2.21.28,3.32.4,2.23.24,4.47.43,6.72.58,3.38.22,6.79.33,10.23.33,11.42,0,22.56-1.23,33.28-3.57,53.6-11.7,96.86-51.06,114.09-102.31,1.38-4.1,2.59-8.28,3.63-12.52,6.5.8,13.1,1.3,19.8,1.4Z"/>
  <path class="cls-2" d="m342.6,559.05c-63.5,0-116.8-43.2-132.4-101.7h0c-6.3,1.6-12.7,3-19.2,3.9,16.4,68.2,77.8,118.8,151.1,118.8s134.4-50.4,151-118.4c-6.2-.8-12.4-1.9-18.4-3.4-15.8,58.1-69,100.8-132.1,100.8Z"/>
  <path class="cls-3" d="m860.9,462.95c-16.6,79.4-87,139.1-171.3,139.1s-154.7-59.6-171.3-139c7-.1,13.9-.6,20.7-1.5,16.6,68,77.9,118.5,151.1,118.5s134.6-50.6,151.1-118.7c6.5.9,13,1.5,19.7,1.6Z"/>
  <path class="cls-2" d="m692.6,564.05c-65.2,0-119.7-45.5-133.6-106.4-6.5,1.7-13.2,3-20,3.9,16.6,68,77.9,118.5,151.1,118.5s134.6-50.6,151.1-118.7c-5.2-.7-10.2-1.7-15.2-2.8-14.3,60.5-68.6,105.5-133.4,105.5Z"/>
  <path class="cls-3" d="m1034.67,577.05v21.93c-2.29-.06-4.56-.17-6.83-.32-1.13-.07-2.25-.16-3.37-.25-16.68-1.43-32.69-5.2-47.71-10.99-1.1-.42-2.2-.86-3.3-1.3-7.95-3.25-15.61-7.07-22.93-11.41-1.03-.61-2.05-1.23-3.06-1.86-.53-.33-1.06-.66-1.59-.99-1.01-.64-2-1.29-2.99-1.95-.02,0-.03-.02-.05-.03-.93-.62-1.84-1.24-2.75-1.87-4.79-3.32-9.4-6.87-13.82-10.63-1.62-1.37-3.2-2.77-4.76-4.2-.01-.01-.02-.02-.03-.03-1.77-1.62-3.5-3.28-5.2-4.96-.87-.87-1.73-1.74-2.57-2.61-5.86-6.07-11.28-12.57-16.22-19.43-6.34-8.82-11.89-18.25-16.53-28.18-.51-1.12-1.02-2.24-1.52-3.37-1.97-4.47-3.76-9.04-5.36-13.69-2-5.82-3.7-11.78-5.08-17.86,7-.1,14-.7,20.8-1.6,17.16,64.92,75.17,113.21,144.87,115.6Z"/>
  <path class="cls-2" d="m1034.67,558.83v18.22c-69.7-2.39-127.71-50.68-144.87-115.6,6.9-1,13.7-2.3,20.4-4.1.73,2.74,1.54,5.45,2.43,8.12,0,0,.01.01.01.02.56,1.67,1.14,3.32,1.76,4.96.67,1.78,1.38,3.54,2.12,5.28.37.87.75,1.74,1.14,2.6.77,1.72,1.58,3.42,2.43,5.11.42.84.85,1.68,1.29,2.51.88,1.66,1.79,3.3,2.73,4.92.02.01.02.02.03.04.41.7.82,1.4,1.24,2.09.52.86,1.06,1.72,1.6,2.57,1.08,1.71,2.2,3.38,3.36,5.03.58.83,1.16,1.65,1.76,2.46.96,1.3,1.93,2.58,2.93,3.84,9.69,12.28,21.43,22.85,34.72,31.21,1.38.87,2.79,1.72,4.21,2.53,8.18,4.76,16.89,8.68,26.03,11.66,1.52.5,3.06.97,4.61,1.41,1.39.41,2.8.79,4.22,1.14,3.3.85,6.66,1.56,10.06,2.15,1.2.22,2.41.41,3.63.59,1.79.26,3.59.49,5.41.68,2.23.24,4.48.43,6.75.56Z"/>
  <path class="cls-3" d="m161.9,463.05s-.01.07-.02.1c-1,4.75-2.19,9.42-3.56,14.02-20.38,68.19-81.26,118.93-154.68,124.44-1.24.09-2.49.17-3.74.24v-22c69.16-3.9,126.34-52.95,142.28-118.2,0-.03,0-.07.02-.1,6.4.8,13,1.3,19.7,1.5Z"/>
  <path class="cls-3" d="m340.1,536.05c-53.3,0-98.4-35.5-112.7-84.2-5.6,2.1-11.3,4-17.2,5.5,15.5,58.5,68.9,101.7,132.4,101.7s116.3-42.7,132.2-100.8c-7.5-1.8-14.8-4.1-21.8-6.8-14.3,48.9-59.5,84.6-112.9,84.6Z"/>
  <path class="cls-3" d="m1034.67,535.82v23.01c-2.27-.13-4.52-.32-6.75-.56-1.82-.19-3.62-.42-5.41-.68-1.22-.18-2.43-.37-3.63-.59-3.4-.59-6.76-1.3-10.06-2.15-1.42-.35-2.83-.73-4.22-1.14-1.55-.44-3.08-.92-4.61-1.41-9.14-2.98-17.85-6.9-26.03-11.66-1.42-.81-2.83-1.66-4.21-2.53-13.29-8.36-25.03-18.93-34.72-31.21-1-1.26-1.97-2.54-2.93-3.84-.6-.81-1.18-1.63-1.76-2.46-1.15-1.65-2.27-3.32-3.36-5.03-.54-.85-1.08-1.71-1.6-2.57-.42-.69-.83-1.39-1.24-2.09-.01-.02-.01-.03-.03-.04-.94-1.62-1.85-3.26-2.73-4.92-.44-.83-.87-1.67-1.29-2.51-.84-1.69-1.65-3.39-2.43-5.11-.39-.86-.77-1.73-1.14-2.6-.74-1.74-1.45-3.5-2.12-5.28-.62-1.64-1.2-3.29-1.76-4.96,0-.01-.01-.02-.01-.02-.89-2.67-1.7-5.38-2.43-8.12,6.5-1.7,12.8-3.8,19-6.2,13.44,46.72,55.16,81.53,105.47,84.67Z"/>
  <path class="cls-3" d="m692.1,544.05c-56.2,0-103.2-39.5-114.8-92.2-6,2.2-12.1,4.2-18.3,5.8,13.9,60.9,68.4,106.4,133.6,106.4s119.1-45,133.4-105.5c-6.6-1.5-13-3.4-19.3-5.7-12,52.2-58.8,91.2-114.6,91.2Z"/>
  <path class="cls-2" d="m142.2,461.45c-6.5-.9-12.8-2.1-19.1-3.6-13.2,57.6-62.8,101.3-123.2,105.8v16.1c69.2-3.8,126.4-53,142.3-118.3Z"/>
  <path class="cls-2" d="m1034.67,516.58v19.24c-50.31-3.14-92.03-37.95-105.47-84.67,7.9-3.1,15.6-6.7,22.9-10.9,7.26,40.68,40.86,72.17,82.57,76.33Z"/>
  <path class="cls-2" d="m693.1,519.05c-46.4,0-84.9-33.8-92.2-78.2-7.5,4.2-15.4,7.9-23.5,10.9,11.5,52.8,58.5,92.3,114.7,92.3s102.6-39,114.5-91.2c-7.5-2.7-14.8-5.9-21.7-9.5-8.3,43.1-46.3,75.7-91.8,75.7Z"/>
  <path class="cls-2" d="m340.1,517.05c-45.2,0-83-32.1-91.6-74.8-6.8,3.6-13.8,6.8-21.1,9.6h0c14.3,48.7,59.4,84.2,112.7,84.2s98.6-35.7,112.8-84.6c-7.3-2.8-14.3-6-21.1-9.7-8.5,42.9-46.3,75.3-91.7,75.3Z"/>
  <path class="cls-3" d="m694.6,496.05c-38.9,0-70.8-30-73.8-68.2-6.3,4.8-13,9.1-20,13,7.3,44.3,45.8,78.2,92.2,78.2s83.5-32.6,91.8-75.7c-5.9-3.1-11.6-6.5-17.1-10.2-5.3,35.6-36,62.9-73.1,62.9Z"/>
  <path class="cls-2" d="m676.7,356.55c-12.1,28.4-31.5,52.9-55.8,71.3,3,38.1,34.8,68.2,73.8,68.2s67.8-27.3,73.2-62.9c-27.9-18.8-50-45.5-63.3-76.8-4.9.4-9.9.6-14.9.6-4.5.1-8.8-.1-13-.4Z"/>
  <path class="cls-3" d="m338.6,496.05c-37.5,0-68.5-27.9-73.3-64.1h0c-5.4,3.7-11,7.2-16.8,10.3h0c8.7,42.7,46.4,74.8,91.6,74.8s83.3-32.4,91.7-75.3c-6.8-3.7-13.4-7.9-19.6-12.5-3.6,37.5-35.2,66.8-73.6,66.8Z"/>
  <path class="cls-2" d="m326.7,356.45h0c-13,30.6-34.5,56.8-61.5,75.5,4.8,36.2,35.8,64.1,73.3,64.1s70-29.3,73.6-66.8c-25.2-18.5-45.3-43.6-57.7-72.7-4.3.3-8.6.5-12.9.5-4.9,0-9.9-.2-14.8-.6Z"/>
  <path class="cls-3" d="m676.7,356.55c-12.1,28.4-31.5,52.9-55.8,71.3-6.3,4.8-13,9.1-20,13-7.5,4.2-15.4,7.9-23.5,10.9-6,2.2-12.1,4.2-18.3,5.8-6.5,1.7-13.2,3-20,3.9s-13.7,1.4-20.7,1.5h-5.4c-6.7-.1-13.3-.6-19.8-1.4-6.2-.8-12.4-1.9-18.4-3.4-7.5-1.8-14.8-4.1-21.8-6.8-7.3-2.8-14.3-6-21.1-9.8-6.8-3.7-13.4-7.9-19.6-12.5-25.2-18.5-45.3-43.6-57.7-72.7,6.8-.5,13.4-1.4,19.9-2.6,25.3,51.6,78.3,87.1,139.7,87.1s114.7-35.8,139.9-87.6c7.3,1.7,14.9,2.8,22.6,3.3Z"/>
  <path class="cls-3" d="m123.1,457.85c-6.7-1.7-13.1-3.7-19.5-6.1-11.1,48.9-52.7,86.1-103.7,90.8v21.1c60.4-4.5,110-48.2,123.2-105.8Z"/>
  <path class="cls-2" d="m103.6,451.75c-7.9-3-15.5-6.5-22.7-10.5-7.6,39.7-40.3,70.5-81,75.2v26.1c51-4.7,92.6-41.9,103.7-90.8Z"/>
  <path class="cls-2" d="m635.5,348.55c-23.1,43.1-68.6,72.5-120.9,72.5s-97.5-29.1-120.6-72c-6.4,2-12.9,3.6-19.6,4.9,25.3,51.6,78.3,87.1,139.7,87.1s114.7-35.8,139.9-87.6c-6.3-1.3-12.5-3-18.5-4.9Z"/>
  <path class="cls-3" d="m1034.67,497.38v19.09c-41.62-4.16-75.22-35.65-82.57-76.32,5.69-3.24,11.15-6.7,16.37-10.54.75-.54,1.49-1.1,2.23-1.66.19,3.66.64,7.26,1.34,10.76.08.41.17.82.26,1.23.17.81.36,1.62.57,2.42.11.41.21.81.32,1.22.21.79.44,1.58.69,2.37.01,0,.01.01,0,.02,3.38,10.97,9.26,20.85,16.99,28.98.52.55,1.04,1.08,1.57,1.61,1.34,1.33,2.73,2.61,4.17,3.84.52.44,1.04.88,1.58,1.3.94.77,1.89,1.5,2.87,2.21,1.02.74,2.06,1.46,3.12,2.15,1.05.69,2.13,1.36,3.23,1.99,1.09.64,2.2,1.25,3.33,1.83.57.29,1.14.57,1.71.85,2.93,1.42,5.97,2.65,9.11,3.67.56.18,1.12.36,1.68.53.42.13.85.25,1.27.37.86.24,1.71.46,2.58.67.43.1.87.2,1.3.3.58.13,1.16.25,1.75.37,1.17.23,2.35.44,3.53.61.34.05.67.1,1,.13Z"/>
  <path class="cls-2" d="m1034.67,353.98v143.4c-.33-.03-.66-.08-1-.13-1.18-.18-2.36-.38-3.53-.61-.59-.12-1.17-.24-1.75-.37-.43-.1-.87-.2-1.3-.3-.87-.21-1.72-.44-2.58-.67-.42-.12-.85-.24-1.27-.37-.56-.17-1.12-.35-1.68-.53-3.14-1.02-6.18-2.25-9.11-3.67-.57-.28-1.14-.56-1.71-.85-1.13-.58-2.24-1.19-3.33-1.83-1.1-.64-2.18-1.3-3.23-1.99-1.06-.69-2.1-1.41-3.12-2.15-.98-.71-1.93-1.45-2.87-2.21-.54-.42-1.06-.86-1.58-1.3-1.44-1.23-2.83-2.51-4.17-3.84-.53-.53-1.05-1.06-1.57-1.61-7.71-8.13-13.59-18.01-16.99-28.98.01,0,.01-.02,0-.02-.24-.79-.47-1.58-.69-2.37-.11-.41-.21-.81-.32-1.22-.2-.8-.39-1.61-.57-2.42-.09-.41-.18-.82-.26-1.23-.7-3.5-1.15-7.1-1.34-10.76.59-.44,1.18-.89,1.77-1.35,12.37-9.53,23.4-20.67,32.82-33.08.63-.83,1.25-1.66,1.86-2.5.67-.91,1.32-1.82,1.96-2.75.21-.31.42-.61.63-.91.22-.31.43-.61.63-.92.42-.61.83-1.23,1.24-1.84.87-1.31,1.72-2.63,2.54-3.96.27-.42.53-.84.78-1.27.09-.12.16-.25.23-.37.28-.44.53-.86.79-1.3.44-.72.86-1.44,1.27-2.16.08-.14.16-.28.24-.42.98-1.72,1.94-3.45,2.87-5.2.33-.62.65-1.24.96-1.86.23-.44.46-.89.68-1.34.02,0,.03-.03.03-.05.06-.1.12-.21.16-.32.69-1.36,1.35-2.72,1.99-4.1.32-.69.64-1.38.95-2.08.24-.53.48-1.05.71-1.58.72-1.63,1.42-3.27,2.09-4.93h0c.22,0,.44.02.66.04.22.02.44.03.66.04.5.04,1,.07,1.5.1h.05c.41.02.82.04,1.24.05.55.03,1.11.05,1.67.07.33,0,.66.02.99.02Z"/>
  <path class="cls-3" d="m1027.9,353.65c-12,29.7-31.9,55.4-57.2,74.3-5.9,4.5-12.2,8.5-18.6,12.2-7.3,4.2-15,7.8-22.9,10.9-6.2,2.4-12.5,4.5-19,6.2-6.7,1.8-13.5,3.1-20.4,4.1-6.8.9-13.8,1.5-20.8,1.6h-3.4c-1.6,0-3.1,0-4.7-.1-6.7-.2-13.2-.7-19.7-1.6-5.2-.7-10.2-1.6-15.2-2.8-6.6-1.5-13-3.4-19.3-5.7-7.5-2.7-14.8-5.9-21.7-9.5-5.9-3.1-11.6-6.5-17.1-10.2-27.9-18.8-50-45.5-63.3-76.8,6.7-.6,13.3-1.5,19.8-2.8,25.2,51.8,78.4,87.4,139.8,87.4s116.6-37,141.2-90.4c7.3,1.7,14.8,2.7,22.5,3.2Z"/>
  <path class="cls-2" d="m986.8,345.95c-22.6,44.6-68.9,75.1-122.2,75.1s-97.8-29.4-120.9-72.5c-6.3,2.1-12.8,3.8-19.4,5.1,25.2,51.8,78.4,87.4,139.8,87.4s116.6-37,141.2-90.4c-6.3-1.2-12.4-2.8-18.5-4.7Z"/>
  <path class="cls-3" d="m80.9,441.25c-4.8-2.7-9.5-5.6-14.1-8.7C62,466.35,34.3,492.85,0,495.75h-.1v20.6c40.7-4.6,73.4-35.4,81-75.1Z"/>
  <path class="cls-2" d="m66.8,432.55c-27.4-18.8-49.2-45.1-62.4-76-1.3.1-2.6.2-3.8.3H-.1v139H0c34.4-3,62-29.5,66.8-63.3Z"/>
  <path class="cls-3" d="m326.7,356.45s-.03.07-.04.1c-13.01,30.56-34.49,56.72-61.46,75.4-5.4,3.7-11,7.2-16.8,10.3-3.37,1.78-6.78,3.49-10.26,5.1-.88.4-1.76.79-2.65,1.18-1.31.58-2.64,1.14-3.97,1.67-1.4.58-2.8,1.13-4.22,1.65-5.6,2.1-11.3,4-17.2,5.5-6.29,1.6-12.69,3-19.18,3.9h-.02c-6.79,1-13.69,1.6-20.58,1.8h-.02c-1.6,0-3.1.1-4.7.1h-3.72c-6.69-.1-13.19-.7-19.68-1.5h-.02s-.02,0-.03,0c-6.48-.9-12.77-2.09-19.05-3.59-.02,0-.03-.01-.05-.01-6.68-1.7-13.07-3.7-19.45-6.09-.01-.01-.03-.01-.04-.02-7.89-2.99-15.47-6.49-22.66-10.48-.01-.01-.03-.02-.04-.02-4.79-2.7-9.47-5.59-14.06-8.68-.01-.01-.02-.01-.03-.02-27.39-18.8-49.17-45.09-62.37-75.98.03,0,.05-.01.08-.01,4.57-.51,9.09-1.07,13.52-1.8,1.64-.27,3.28-.57,4.9-.89,1.1-.2,2.2-.4,3.3-.7.01.02.02.05.04.07,25.21,51.86,78.39,87.53,139.86,87.53,40.36,0,77.14-15.42,104.79-40.66,3.91-3.57,7.64-7.34,11.17-11.3,9.49-10.62,17.55-22.54,23.85-35.46.03-.06.06-.12.09-.18,6.8,1.5,13.7,2.5,20.7,3.1Z"/>
  <path class="cls-2" d="m164.6,421.05c-52.2,0-97.6-29.2-120.8-72.2-5.8,1.8-11.7,3.4-17.7,4.6,25.2,51.9,78.4,87.6,139.9,87.6s114.7-35.8,139.9-87.6c-6.9-1.4-13.7-3.3-20.2-5.5-22.9,43.5-68.5,73.1-121.1,73.1Z"/>
  <path class="cls-3" d="m864.6,421.05c53.4,0,99.6-30.5,122.2-75.1-5.6-1.8-11.1-3.8-16.5-6.1-19.6,37.6-58.9,63.2-104.2,63.2s-83.7-25.1-103.5-61.9c-6.1,2.8-12.4,5.3-18.9,7.4,23,43.1,68.5,72.5,120.9,72.5Z"/>
  <path class="cls-3" d="m514.6,421.05c52.4,0,97.8-29.4,120.9-72.5-6.2-2-12.2-4.3-18.1-7-19.9,36.6-58.7,61.5-103.3,61.5s-82.7-24.4-102.7-60.5c-5.6,2.5-11.4,4.6-17.4,6.5,23.1,42.9,68.4,72,120.6,72Z"/>
  <path class="cls-3" d="m164.6,421.05c52.6,0,98.2-29.6,121.2-73.1-6.2-2.1-12.1-4.5-18-7.2-19.8,37.1-58.8,62.3-103.7,62.3s-82.9-24.6-102.9-60.8c-5.3,2.3-10.7,4.4-16.3,6.2-.3.1-.7.2-1,.3h0c23,43.1,68.4,72.3,120.7,72.3Z"/>
  <path class="cls-2" d="m164.1,403.05c44.9,0,84-25.2,103.7-62.3-6.6-3.1-13-6.6-19.1-10.4-15,31.7-47.2,53.7-84.6,53.7s-68.4-21.1-83.7-51.8c-3.9,2.3-7.9,4.5-12,6.6-2.4,1.2-4.8,2.3-7.2,3.4h0c19.9,36.2,58.5,60.8,102.9,60.8Z"/>
  <path class="cls-2" d="m514.1,403.05c44.6,0,83.4-24.9,103.3-61.5-6.6-3-13-6.4-19.2-10.2-15.2,31.2-47.1,52.7-84.2,52.7s-68-20.9-83.5-51.3c-6.2,3.7-12.6,7-19.3,9.9,20.2,36,58.7,60.4,102.9,60.4Z"/>
  <path class="cls-2" d="m866.1,403.05c45.3,0,84.6-25.7,104.2-63.2-7.3-3.1-14.3-6.7-21-10.8-14.7,32.5-47.3,55-85.3,55s-68.7-21.3-83.9-52.2c-5.7,3.4-11.5,6.6-17.6,9.3,19.9,36.8,58.8,61.9,103.6,61.9Z"/>
  <path class="cls-3" d="m164.1,384.05c37.4,0,69.7-22,84.6-53.7-6.1-3.8-12-8-17.5-12.6-11,27.1-37.5,46.2-68.6,46.2-29.5,0-54.9-17.2-66.8-42.1h0c-3.4,2.5-6.8,5-10.4,7.2-1.7,1.1-3.3,2.1-5,3.1h0c15.3,30.8,47,51.9,83.7,51.9Z"/>
  <path class="cls-3" d="m514.1,384.05c37,0,69-21.5,84.2-52.7-5.6-3.4-10.9-7.1-16.1-11.1-11.6,25.8-37.5,43.8-67.6,43.8s-55.3-17.5-67.1-42.7c-5.4,4.1-11,7.9-16.9,11.4,15.4,30.4,47,51.3,83.5,51.3Z"/>
  <path class="cls-3" d="m864.1,384.05c37.9,0,70.6-22.6,85.3-55-6.5-3.9-12.6-8.2-18.5-12.9-10.6,28-37.6,47.9-69.2,47.9-29.5,0-54.9-17.2-66.8-42.1-4.7,3.5-9.6,6.8-14.6,9.9,15.1,30.9,47,52.2,83.8,52.2Z"/>
  <path class="cls-2" d="m102.8,316.35c-2.3,1.9-4.6,3.8-7,5.5,11.9,24.9,37.3,42.1,66.8,42.1,31,0,57.6-19.1,68.6-46.2-30.6-24.9-52.5-59.8-60.9-99.8-1.6,0-3.1.1-4.7.1h-3.7c-6.9,33.3-23.4,63.1-46.3,86.5-4.1,4.2-8.4,8.1-12.8,11.8Z"/>
  <path class="cls-2" d="m447.5,321.35c11.8,25.2,37.4,42.7,67.1,42.7s56-18,67.6-43.9c-32.1-25-55.2-60.9-63.9-102.2h-5.4c-8.8,42-32.5,78.4-65.4,103.4Z"/>
  <path class="cls-2" d="m794.8,321.95c11.9,24.9,37.3,42.1,66.8,42.1,31.7,0,58.7-19.9,69.2-47.9-30.6-24.3-52.9-58.7-61.9-98.1h-3.4c-1.6,0-3.1,0-4.7-.1-8.7,42.3-32.8,78.9-66,104Z"/>
  <path class="cls-3" d="m344.3,7.05h-2.7c-1.6,0-3.1,0-4.7.1h0c1.2,5.6,2.1,11.2,2.7,16.9h2c.6-5.7,1.5-11.4,2.7-17Z"/>
  <path class="cls-3" d="m231.2,317.85c5.6,4.5,11.4,8.7,17.5,12.6,6.1,3.8,12.5,7.3,19.1,10.4,5.8,2.7,11.8,5.1,18,7.2,6.6,2.2,13.3,4,20.2,5.5,6.8,1.4,13.7,2.4,20.7,3,4.9.4,9.8.6,14.9.6,4.3,0,8.7-.2,12.9-.5,6.7-.5,13.4-1.4,19.9-2.6,6.7-1.3,13.2-2.9,19.6-4.9,5.9-1.9,11.7-4,17.4-6.5,6.7-2.9,13.1-6.2,19.3-9.9,5.9-3.5,11.5-7.3,16.9-11.4,32.9-25,56.6-61.4,65.4-103.3-6.7-.1-13.3-.6-19.8-1.4-16.6,68-77.9,118.4-151,118.4s-134.7-50.6-151.1-118.8h0c-4.3.6-8.7,1.1-13.1,1.4h0c-2.5.2-5,.3-7.5.4h0c8.1,39.9,30.1,74.9,60.7,99.8Z"/>
  <path class="cls-2" d="m341.6,24.05h-2c.5,4.8.8,9.6,1,14.5v1.4h.1c0-5.3.3-10.6.9-15.9Z"/>
  <path class="cls-2" d="m342.1,335.05c73.1,0,134.4-50.4,151-118.4-6.2-.8-12.4-1.9-18.4-3.4-15.8,58.1-69,100.8-132.1,100.8s-116.8-43.2-132.4-101.7h0c-6.3,1.6-12.7,3-19.2,3.9,16.4,68.2,77.8,118.8,151.1,118.8Z"/>
  <path class="cls-3" d="m691.6,24.05c.6-5.7,1.5-11.4,2.7-17-1.6,0-3.1-.1-4.7-.1h-2.7c1.2,5.6,2.1,11.2,2.7,17h.5c.5.1,1,.1,1.5.1Z"/>
  <path class="cls-3" d="m582.2,320.15c5.1,4,10.5,7.7,16.1,11.1,6.2,3.8,12.6,7.2,19.2,10.2,5.9,2.7,11.9,5,18.1,7,6,2,12.2,3.6,18.5,4.9,7.4,1.5,14.9,2.6,22.6,3.1,4.3.3,8.6.5,12.9.5,5,0,10-.2,14.9-.6,6.7-.6,13.3-1.5,19.8-2.8,6.6-1.3,13.1-3,19.4-5.1,6.5-2.1,12.8-4.6,18.9-7.4,6.1-2.8,11.9-5.9,17.6-9.3,5-3.1,9.9-6.4,14.6-9.9,33.3-25.1,57.3-61.7,66.1-103.9-6.7-.2-13.2-.7-19.7-1.6-16.5,68.1-77.9,118.7-151.1,118.7s-134.5-50.5-151.1-118.6c-6.8.9-13.7,1.4-20.7,1.5,8.6,41.3,31.8,77.3,63.9,102.2Z"/>
  <path class="cls-2" d="m691.6,24.05h-2c.7,6.2,1,12.6,1,19,0-6.4.3-12.7,1-19Z"/>
  <path class="cls-2" d="m690.6,43.05v2h.1c-.1-.7-.1-1.3-.1-2Z"/>
  <path class="cls-2" d="m690.1,335.05c73.2,0,134.6-50.6,151.1-118.7-5.2-.7-10.2-1.7-15.2-2.8-14.3,60.5-68.6,105.5-133.4,105.5s-119.7-45.5-133.6-106.4c-6.5,1.7-13.2,3-20,3.9,16.6,68,77.9,118.5,151.1,118.5Z"/>
  <path class="cls-3" d="m1034.67,331.95v22.03c-.33,0-.66-.01-.99-.02-.56-.02-1.12-.04-1.67-.07-.42-.01-.83-.03-1.24-.05h-.05c-.5-.03-1-.06-1.5-.1-.22-.01-.44-.02-.66-.04-.22-.01-.44-.02-.66-.04-.03,0-.07,0-.1,0-.93-.06-1.85-.13-2.78-.21-.95-.08-1.91-.17-2.86-.26h-.04c-5.66-.56-11.26-1.4-16.81-2.53h-.01c-1.58-.3-3.14-.62-4.7-.97-.18-.04-.35-.08-.53-.13-.12-.03-.23-.05-.35-.08-.48-.11-.96-.22-1.43-.33-.19-.04-.37-.09-.56-.14-.57-.14-1.13-.28-1.69-.43-.89-.22-1.78-.45-2.66-.69-1.44-.39-2.87-.8-4.29-1.23-.77-.23-1.53-.46-2.29-.7-4.9-1.49-9.72-3.28-14.47-5.25-.68-.28-1.35-.56-2.03-.85-1.54-.66-3.07-1.33-4.58-2.04-.47-.21-.95-.43-1.42-.66-1.43-.67-2.86-1.37-4.27-2.1-.29-.14-.59-.3-.88-.45-.3-.15-.59-.31-.88-.46-.16-.08-.31-.16-.46-.25-.44-.23-.88-.46-1.32-.7-.01-.01-.03-.01-.04-.02-.69-.37-1.38-.75-2.07-1.14-1.68-.94-3.35-1.92-5-2.93-.03-.02-.05-.03-.08-.05-6.37-3.88-12.54-8.16-18.42-12.84-.03-.02-.05-.04-.08-.06-.66-.53-1.32-1.06-1.98-1.61-.1-.08-.2-.17-.3-.25-.12-.09-.25-.2-.37-.3-.7-.57-1.39-1.15-2.08-1.74-.05-.04-.1-.08-.15-.13-.23-.19-.46-.39-.69-.59-.23-.2-.46-.4-.69-.6-.71-.62-1.42-1.25-2.12-1.88-.84-.75-1.67-1.52-2.5-2.29-1.05-.99-2.1-2-3.13-3.01-.77-.76-1.53-1.53-2.29-2.3-1.71-1.74-3.38-3.52-5.01-5.34-1.63-1.81-3.23-3.66-4.79-5.54h0c-.78-.95-1.54-1.89-2.31-2.85-.33-.42-.66-.84-.98-1.27-.67-.86-1.33-1.73-1.99-2.6-.32-.43-.65-.87-.97-1.31-.33-.44-.65-.88-.96-1.32-.64-.89-1.27-1.78-1.89-2.67-.07-.11-.15-.21-.22-.32-.55-.79-1.09-1.59-1.62-2.39-.47-.71-.94-1.42-1.39-2.14-.25-.37-.49-.75-.73-1.13-10.42-16.48-18.16-34.82-22.59-54.42-.02-.07-.03-.13-.05-.2,7-.1,14-.7,20.8-1.6.01.03.02.07.03.1.01.03.01.07.03.1,7.68,28.88,23.43,54.46,44.69,74.19,2.2,2.04,4.47,4.02,6.79,5.93.8.66,1.61,1.31,2.42,1.95.83.66,1.68,1.32,2.53,1.96,2.82,2.13,5.71,4.18,8.68,6.12,1.02.67,2.05,1.33,3.09,1.97h.01c1.14.71,2.29,1.4,3.45,2.09,2.33,1.37,4.7,2.67,7.1,3.92.01.01.02.01.03.01,1.24.64,2.49,1.27,3.75,1.88h0c1.26.62,2.53,1.21,3.81,1.78,3.09,1.41,6.24,2.7,9.44,3.9h.01c.75.28,1.49.55,2.24.82,1.51.53,3.02,1.05,4.55,1.54.76.25,1.52.49,2.29.72,12.7,3.87,26.08,6.15,39.92,6.62Z"/>
  <path class="cls-2" d="m1034.67,313.82v18.13c-13.84-.47-27.22-2.75-39.92-6.62-.77-.23-1.53-.47-2.29-.72-1.53-.49-3.04-1.01-4.55-1.54-.75-.27-1.49-.54-2.24-.82h-.01c-3.2-1.2-6.35-2.49-9.44-3.9-1.28-.57-2.55-1.16-3.81-1.77h0c-1.26-.62-2.51-1.25-3.75-1.89-.01,0-.02,0-.03-.01-2.4-1.25-4.77-2.55-7.1-3.92-1.16-.69-2.31-1.38-3.45-2.09h-.01c-1.04-.64-2.07-1.3-3.09-1.97-2.97-1.94-5.86-3.99-8.68-6.12-.85-.64-1.7-1.3-2.53-1.96-.81-.64-1.62-1.29-2.42-1.95-2.32-1.91-4.59-3.89-6.79-5.93-21.32-19.7-37.11-45.3-44.72-74.19-.01-.03-.02-.07-.03-.1h.03c6.89-1,13.68-2.3,20.37-4.1.01.03.02.06.03.09,5.55,20.89,15.93,39.83,29.89,55.54.99,1.12,2.01,2.22,3.04,3.31,1.03,1.09,2.08,2.16,3.15,3.22.55.55,1.1,1.08,1.66,1.62,22.79,21.78,53.12,35.78,86.7,37.69Z"/>
  <path class="cls-3" d="m4.5,356.55c6.2-.5,12.4-1.3,18.4-2.5,1.1-.2,2.2-.4,3.3-.7h0c6-1.2,11.9-2.8,17.7-4.6h0c.3-.1.7-.2,1-.3,5.6-1.8,11-3.9,16.3-6.2h0c2.4-1.1,4.8-2.2,7.2-3.4,4.1-2,8.1-4.2,12-6.6h0c1.7-1,3.4-2,5-3.1,3.5-2.3,7-4.7,10.4-7.2h0c2.4-1.8,4.7-3.6,7-5.5,4.5-3.7,8.7-7.7,12.8-11.8,23-23.4,39.4-53.2,46.3-86.5-4.3-.1-8.5-.3-12.8-.7h0c-2.3-.2-4.6-.5-6.9-.8-.2.9-.4,1.7-.7,2.6-7.2,27.5-21.8,52.1-41.5,71.4-3.4,3.4-7,6.6-10.8,9.6-.8.6-1.6,1.3-2.4,1.9-4.4,3.5-9.1,6.7-13.9,9.7-1.6,1-3.3,2-5,2.9-5,2.9-10.2,5.5-15.5,7.7-1.3.6-2.7,1.1-4.1,1.7-4.4,1.7-8.8,3.3-13.4,4.6-5.6,1.6-11.3,3-17.2,4h0c-1.3.2-2.6.4-4,.6-4.3.6-8.7,1.1-13.2,1.4H-.3v22H.4c1.5-.1,2.8-.1,4.1-.2Z"/>
  <path class="cls-3" d="m340.6,43.05v3.7h.1c-.1-1.2-.1-2.5-.1-3.7Z"/>
  <path class="cls-3" d="m342.6,314.05c63.1,0,116.3-42.7,132.2-100.8-7.5-1.8-14.8-4.1-21.8-6.8-14.2,48.9-59.4,84.6-112.8,84.6s-98.4-35.5-112.7-84.2c-4.4,1.7-9,3.2-13.6,4.5-1.2.3-2.4.7-3.6,1,15.4,58.5,68.8,101.7,132.3,101.7Z"/>
  <path class="cls-3" d="m1034.67,290.82v23c-33.58-1.91-63.91-15.91-86.7-37.69-.56-.54-1.11-1.07-1.66-1.62-1.07-1.06-2.12-2.13-3.15-3.22-1.03-1.09-2.04-2.19-3.04-3.31-13.93-15.72-24.29-34.67-29.8-55.56-.01-.02-.01-.05-.02-.07,6.47-1.69,12.74-3.78,18.91-6.17.03-.01.06-.02.09-.03,0,.02.01.03.02.05,9.3,32.27,32.1,58.86,61.9,73.26.98.47,1.96.92,2.95,1.37.5.23,1,.45,1.5.66.51.22,1.02.44,1.53.65,1.05.44,2.12.86,3.19,1.27,1.68.64,3.39,1.25,5.11,1.81,1.19.39,2.38.76,3.58,1.11,1.24.37,2.49.71,3.75,1.03.64.17,1.28.33,1.92.48.66.16,1.31.31,1.97.45h.01c1.35.3,2.72.58,4.09.83.44.09.89.17,1.34.24.39.06.78.13,1.16.19.73.11,1.46.22,2.19.33.12.02.23.04.34.05.62.09,1.23.17,1.86.24,1.54.19,3.1.35,4.66.48.76.06,1.53.12,2.3.17Z"/>
  <path class="cls-3" d="m690.7,48.35h-.2c0-1.1,0-2.2.1-3.3,0,1.1,0,2.2.1,3.3Z"/>
  <path class="cls-3" d="m692.6,319.05c64.8,0,119.1-45,133.4-105.5-6.6-1.5-13-3.4-19.3-5.7-12,52.2-58.8,91.2-114.6,91.2s-103.2-39.5-114.8-92.2c-6,2.2-12.1,4.2-18.3,5.8,13.9,60.9,68.4,106.4,133.6,106.4Z"/>
  <path class="cls-2" d="m13.9,333.35c1.3-.2,2.6-.4,4-.6h0c5.8-1,11.6-2.4,17.2-4,4.6-1.3,9-2.9,13.4-4.6,1.4-.6,2.7-1.1,4.1-1.7,5.3-2.3,10.5-4.9,15.5-7.7,1.7-.9,3.3-1.9,5-2.9,4.8-3,9.5-6.2,13.9-9.7.8-.6,1.6-1.3,2.4-1.9,3.7-3,7.3-6.3,10.8-9.6,19.7-19.3,34.3-43.9,41.5-71.4.2-.9.4-1.7.7-2.6-6.5-.9-12.8-2.1-19.1-3.6-1.5,6.4-3.4,12.6-5.7,18.6-6.3,16.3-15.7,31.1-27.3,43.7-1.5,1.6-3.1,3.2-4.7,4.8-4.3,4.2-8.8,8.1-13.6,11.7-.4.3-.8.6-1.2.9-6.2,4.5-12.7,8.6-19.6,12-.9.4-1.8.9-2.7,1.3-5.7,2.7-11.6,5-17.7,7-1.4.5-2.9.9-4.3,1.3-4.1,1.1-8.3,2.1-12.5,2.8-4.2.8-8.6,1.3-12.9,1.7-.3,0-.6.1-.9.1v16.1h.8c4.2-.6,8.6-1,12.9-1.7Z"/>
  <path class="cls-2" d="m1034.67,271.58v19.24c-.77-.05-1.54-.11-2.3-.17-1.56-.13-3.12-.29-4.66-.48-.62-.07-1.24-.15-1.86-.24-.11-.01-.22-.03-.34-.05-.73-.11-1.46-.22-2.19-.33-.38-.06-.77-.13-1.16-.19-.45-.07-.9-.15-1.34-.24-1.37-.25-2.74-.53-4.09-.83h-.01c-.66-.14-1.31-.29-1.97-.45-.64-.15-1.28-.31-1.92-.48-1.26-.32-2.51-.66-3.75-1.03-1.2-.35-2.39-.72-3.58-1.11-1.72-.56-3.43-1.17-5.11-1.81-1.07-.41-2.14-.83-3.19-1.27-.51-.21-1.02-.43-1.53-.65-.5-.21-1-.43-1.5-.66-.99-.45-1.97-.9-2.95-1.37-29.84-14.33-52.67-40.93-61.99-73.22-.01-.02-.02-.04-.02-.06,0-.01-.01-.02-.01-.03,7.9-3.1,15.6-6.7,22.9-10.9,0,.02.01.04.01.06h0c6.25,34.87,31.84,62.96,65.29,72.88.1.03.2.06.3.08.1.03.2.05.3.08,1.13.34,2.27.66,3.43.94.02,0,.03.01.05.01.34.09.68.17,1.02.25s.68.16,1.03.23c.53.13,1.05.24,1.59.35.05.02.1.03.15.03.44.09.89.18,1.34.26.42.08.85.16,1.27.24.42.08.85.15,1.28.21.43.07.86.13,1.29.19.01,0,.02,0,.04.01l1.29.18h.02c.55.07,1.11.14,1.67.2h.03s.05.01.08.01c.36.04.72.08,1.09.12Z"/>
  <path class="cls-2" d="m692.1,299.05c55.8,0,102.6-39,114.5-91.2-7.5-2.7-14.8-5.9-21.7-9.5-8.3,43.1-46.3,75.7-91.8,75.7s-84.9-33.8-92.2-78.2c-7.5,4.2-15.4,7.9-23.5,10.9,11.5,52.8,58.5,92.3,114.7,92.3Z"/>
  <path class="cls-2" d="m340.1,291.05c53.5,0,98.6-35.7,112.8-84.6-7.3-2.8-14.3-6-21.1-9.7-8.5,42.9-46.3,75.3-91.7,75.3s-83-32.1-91.6-74.8c-1.4.8-2.9,1.5-4.4,2.3-5.4,2.7-11,5.2-16.7,7.3h0c14.3,48.7,59.3,84.2,112.7,84.2Z"/>
  <path class="cls-3" d="m784.9,198.35c-8.3,43.1-46.3,75.7-91.8,75.7-18.9,0-36.4-5.6-51.1-15.2-1.1-.7-2.2-1.5-3.3-2.3-.5-.4-1.1-.8-1.6-1.2-18.8-14.1-32.2-35.2-36.2-59.5h0c7-3.9,13.7-8.2,20-13v.1c1.5,19.1,10.2,36.1,23.4,48.3,13.2,12.3,30.9,19.8,50.4,19.8,37.1,0,67.8-27.3,73.2-62.9,5.4,3.7,11.1,7.1,17,10.2Z"/>
  <path class="cls-2" d="m767.8,188.15c-5.4,35.6-36.1,62.9-73.2,62.9-19.5,0-37.2-7.5-50.4-19.8s-21.9-29.3-23.3-48.4c5.7-4.3,11.2-9,16.3-13.9,1-1,2.1-2.1,3.1-3.1.7-.7,1.3-1.3,1.9-2,.1-.1.2-.2.2-.2.1-.1.2-.2.3-.3l.1-.1c.3-.4.7-.7,1-1.1.5-.6,1.1-1.2,1.6-1.8.9-1,1.7-1.9,2.6-2.9.8-1,1.7-2,2.5-3,7.4-9,14-18.8,19.5-29.1.6-1.1,1.2-2.3,1.8-3.5,1.2-2.3,2.3-4.6,3.3-7,.8-1.8,1.6-3.7,2.4-5.6.2-.6.5-1.1.7-1.7s.5-1.1.7-1.7c3.1-8.1,5.6-16.4,7.5-25.1,2.3-10.5,3.7-21.3,4-32.4h.2c.2,5.6.6,11.1,1.3,16.5.3,2.7.7,5.4,1.2,8.1h0c.4,2.6,1,5.2,1.5,7.8,6.8,31,21.8,59,42.8,81.4.5.5.9,1,1.3,1.4,1.1,1.2,2.2,2.3,3.3,3.4,5,5,10.3,9.7,15.8,14.1,3.3,2.5,6.6,4.8,10,7.1Z"/>
  <path class="cls-2" d="m637.2,168.85c1-1,2.1-2,3.1-3.1-1,1.1-2,2.2-3.1,3.1-5.1,5-10.6,9.7-16.3,14h0c5.8-4.3,11.2-9,16.3-14Z"/>
  <path class="cls-3" d="m431.8,196.75c-.1.7-.3,1.3-.4,2-.1.6-.3,1.3-.4,2v.1c-.3,1.3-.7,2.6-1,3.9-5.4,18.8-16.6,35.2-31.6,47.1-1.5,1.2-3.1,2.4-4.8,3.5-.5.4-1.1.8-1.6,1.1-1.6,1.1-3.3,2.1-5,3.1l-.1.1c-1.7,1-3.4,1.9-5.2,2.8h-.1c-.6.3-1.1.5-1.7.8s-1.2.6-1.9.9h0c-.6.3-1.2.5-1.8.8-1.2.5-2.5,1-3.7,1.5-1.3.5-2.5.9-3.8,1.3s-2.6.8-3.9,1.1c-.6.2-1.3.4-2,.5-1.3.3-2.6.6-4,.9h0c-1.3.3-2.7.5-4,.7-1.4.2-2.7.4-4.1.5-3.4.4-6.9.6-10.5.6h-2.4c-.8,0-1.6,0-2.4-.1-.6,0-1.2-.1-1.8-.1-.5,0-.9-.1-1.4-.1-.3,0-.7-.1-1-.1s-.7,0-1-.1c-.4,0-.8-.1-1.2-.1s-.8-.1-1.1-.1-.5-.1-.8-.1c-.5-.1-.9-.1-1.4-.2-.2,0-.4-.1-.6-.1-.5-.1-1-.2-1.6-.3-.7-.1-1.3-.2-2-.4-.9-.2-1.8-.4-2.7-.6-.2-.1-.5-.1-.7-.2-.4-.1-.7-.2-1-.3h0c-.3-.1-.6-.2-.9-.2-.7-.2-1.4-.4-2.1-.6-.2,0-.4-.1-.5-.2-.4-.1-.8-.2-1.2-.4-.3-.1-.7-.2-1-.3h0c-.1,0-.2,0-.3-.1-.2-.1-.5-.2-.7-.2-.3-.1-.6-.2-1-.3-.2-.1-.5-.2-.7-.2h-.1c-.9-.3-1.7-.6-2.6-1-.6-.2-1.1-.4-1.7-.7-.6-.2-1.2-.5-1.8-.8h-.1c-7.9-3.5-15.2-8-21.8-13.5-5.5-4.6-10.6-9.8-14.9-15.6-.4-.5-.8-1-1.1-1.5,0-.1-.1-.1-.1-.2-.3-.5-.7-.9-1-1.4-.1-.2-.2-.3-.4-.5h0c-.5-.7-.9-1.4-1.4-2.1,0-.1-.1-.1-.1-.2-.1-.2-.2-.3-.3-.5-.3-.5-.6-1-1-1.5,0-.1-.1-.2-.2-.2-.4-.7-.8-1.3-1.2-2,0-.1-.1-.2-.2-.3-.4-.7-.8-1.3-1.1-2,0-.1-.1-.2-.1-.3-.1-.1-.2-.3-.2-.4-.3-.6-.7-1.3-1-1.9-.3-.6-.6-1.2-.9-1.8-.6-1.2-1.1-2.4-1.6-3.6-.9-2.2-1.8-4.6-2.6-6.9-.1-.4-.3-.8-.4-1.2-.1-.2-.2-.5-.2-.8-.1-.4-.3-.9-.4-1.3-.2-.6-.3-1.2-.5-1.8-.1-.4-.2-.9-.3-1.3-.2-.6-.3-1.2-.5-1.9s-.3-1.5-.5-2.2c5-2.7,9.8-5.6,14.4-8.7.8-.5,1.5-1,2.3-1.5l.1-.1c1.5,11.6,5.8,22.4,12.1,31.7.4.6.8,1.2,1.3,1.8.7.9,1.3,1.8,2,2.6s1.4,1.7,2.1,2.5c.4.4.7.8,1.1,1.2.7.8,1.5,1.6,2.2,2.3,2.5,2.5,5.1,4.8,7.9,6.9.7.5,1.4,1,2.1,1.5.9.6,1.8,1.2,2.7,1.8,1.4.9,2.8,1.7,4.2,2.5,1,.5,1.9,1,2.9,1.5,3.4,1.7,7,3.1,10.8,4.3,1.1.3,2.1.6,3.2.9,6,1.5,12.2,2.4,18.7,2.4,38.4,0,70-29.3,73.6-66.8,6.3,4.8,12.9,9,19.7,12.7Z"/>
  <path class="cls-2" d="m412.2,184.25c-3.6,37.5-35.2,66.8-73.6,66.8-6.5,0-12.7-.8-18.7-2.4-1.1-.3-2.2-.6-3.2-.9-3.7-1.2-7.3-2.6-10.8-4.3-1-.5-2-1-2.9-1.5-1.4-.8-2.8-1.6-4.2-2.5-.9-.6-1.8-1.2-2.7-1.8-.7-.5-1.4-1-2.1-1.5-2.8-2.1-5.4-4.4-7.9-6.9-.8-.8-1.5-1.5-2.2-2.3-.4-.4-.8-.8-1.1-1.2-.7-.8-1.4-1.6-2.1-2.5s-1.4-1.7-2-2.6c-.4-.6-.9-1.2-1.3-1.8-6.3-9.3-10.6-20.1-12.1-31.7,0,0-.1,0-.1.1v-.2c3.9-2.7,7.7-5.5,11.3-8.5.4-.3.8-.6,1.2-1,4.5-3.7,8.7-7.6,12.8-11.8l.1-.1c1.3-1.3,2.5-2.6,3.7-3.9h0l.1-.1c.5-.5.9-1,1.3-1.5.3-.3.6-.6.8-1l2-2.3c4.2-4.8,8-9.9,11.6-15.2l4.6-7.1s0-.1.1-.1c6-9.7,11-20,15-30.9,1.8-4.9,3.4-9.8,4.8-14.9.3-1.2.6-2.3.9-3.5,2.3-9.4,3.9-19.2,4.6-29.1.2-3.1.4-6.1.4-9.2,0,.9,0,1.8.1,2.7.5,13.5,2.5,26.5,5.8,39.1,5.7,21.2,15.3,40.9,28,58.1.8,1.2,1.7,2.3,2.6,3.4,1,1.3,2.1,2.6,3.2,3.9,1.4,1.7,2.8,3.4,4.3,5,.9,1,1.7,1.9,2.6,2.9,3.2,3.5,6.6,6.8,10.1,10,4.8,4.4,9.8,8.5,15,12.3Z"/>
  <path class="cls-2" d="m277.4,218.65c-6.3-9.2-10.6-20-12.2-31.7l.1-.1c1.6,11.7,5.8,22.5,12.1,31.8Z"/>
  <path class="cls-3" d="m1034.67,252.47v19.16c-.36-.03-.75-.1-1.09-.17-.03,0-.05,0-.08-.01h-.2c-.5-.1-1-.1-1.5-.2h-.02c-.48-.08-.89-.16-1.29-.18-.02-.01-.03-.01-.04-.01-.09-.01-.17-.01-.25-.01-.35-.05-.69-.11-1.04-.18-.43-.06-.86-.13-1.28-.21-.42-.08-.85-.16-1.27-.24-.45-.08-.9-.17-1.34-.26-.05,0-.1,0-.15-.03-.54-.11-1.06-.22-1.59-.35-.35-.07-.69-.15-1.03-.23s-.68-.16-1.02-.25c-.02,0-.03-.01-.05-.01-.24-.08-.49-.16-.73-.24h-.1c-.6-.2-1.2-.3-1.8-.5-.3-.1-.6-.2-.8-.2-.1-.03-.2-.05-.3-.08-.1-.02-.2-.05-.3-.08-.2-.07-.4-.14-.6-.24-.6-.2-1.2-.4-1.8-.6-.5-.1-.9-.3-1.3-.4-.2-.1-.4-.1-.5-.2-.5-.2-1-.4-1.6-.6-1.3-.5-2.5-1-3.8-1.5-1.2-.5-2.5-1.1-3.7-1.7-1.2-.6-2.4-1.2-3.6-1.8-1.2-.6-2.4-1.3-3.5-2-.7-.4-1.4-.8-2.1-1.2-.6-.3-1.1-.7-1.7-1.1-.3-.2-.6-.4-.9-.6-.6-.4-1.1-.8-1.7-1.2-1.2-.9-2.4-1.7-3.6-2.7-.3-.2-.5-.4-.8-.6-.5-.4-.9-.7-1.4-1.1-.1-.1-.2-.2-.3-.2-.5-.5-1.1-.9-1.7-1.4l-.1-.1c-1.2-1.1-2.5-2.2-3.6-3.3-1.2-1.2-2.4-2.3-3.5-3.6-11.88-12.78-20.17-28.95-23.38-46.81,0-.03,0-.06-.02-.09,2.4-1.4,4.8-2.8,7.1-4.2,1.6-1,3.1-2,4.7-3,.6-.4,1.2-.8,1.8-1.3.6-.4,1.2-.8,1.8-1.3.3-.2.7-.5,1-.7.09-.06.19-.13.3-.21.29-.2.58-.36.8-.59.37-.28.65-.47,1.01-.73.03-.02.06-.05.09-.07.88,17.17,7.6,32.77,18.2,44.87.34.39.69.78,1.04,1.16,1.51,1.66,3.11,3.24,4.77,4.75,10.82,9.89,24.6,16.59,39.86,18.64Z"/>
  <path class="cls-2" d="m650.6,154.35c7.4-9,14-18.8,19.5-29.1-5.5,10.4-12,20.2-19.5,29.1Z"/>
  <path class="cls-2" d="m675.2,114.85c-1,2.3-2.2,4.7-3.3,7,1.2-2.4,2.3-4.7,3.3-7Z"/>
  <path class="cls-2" d="m340.1,56.05c.2-3.1.4-6.2.5-9.2,0,3-.2,6-.5,9.2-.6,9.8-2.2,19.6-4.5,29-.3,1.2-.6,2.3-.9,3.5-1.4,5.1-3,10-4.8,14.9-4,10.8-9,21.2-15,30.9,0,0,0,.1-.1.1,6-9.7,11-20,15-30.9,1.9-4.9,3.4-9.9,4.8-15,.3-1.1.6-2.3.9-3.4,2.3-9.4,3.9-19.1,4.6-29.1Z"/>
  <path class="cls-2" d="m374.6,146.65c-12.7-17.2-22.3-36.9-28-58.1-3.4-12.5-5.4-25.6-5.8-39.1.5,13.5,2.5,26.5,5.9,39.1,5.6,21.3,15.2,40.9,27.9,58.1Z"/>
  <path class="cls-2" d="m334.7,88.55c-1.4,5.1-3,10-4.8,14.9-4,10.8-9,21.2-15,30.9,0,0,0,.1-.1.1l-4.6,7.1c-3.6,5.3-7.5,10.3-11.6,15.2l-2,2.3c-.3.3-.6.6-.8,1-.4.5-.9,1-1.3,1.5l-.1.1h0c-1.2,1.3-2.4,2.6-3.7,3.9l-.1.1c-4.1,4.2-8.3,8.1-12.8,11.8-.4.3-.8.7-1.2,1v-89.9h58.1Z"/>
  <path class="cls-2" d="m397.3,88.55v83.4c-3.5-3.2-6.8-6.5-10.1-10-.9-1-1.8-1.9-2.6-2.9-1.5-1.7-2.9-3.3-4.3-5-1.1-1.3-2.1-2.6-3.2-3.9-.9-1.1-1.7-2.3-2.6-3.4-12.7-17.2-22.3-36.9-28-58.1h50.8v-.1Z"/>
  <path class="cls-2" d="m686.5,80.75c-1.9,8.6-4.4,17-7.5,25.1-.2.6-.4,1.2-.7,1.7-.2.6-.5,1.2-.7,1.7-.8,1.9-1.6,3.7-2.4,5.6-1,2.3-2.2,4.7-3.3,7-.6,1.2-1.2,2.3-1.8,3.5-5.5,10.4-12,20.2-19.5,29.1-.8,1-1.7,2-2.5,3-.9,1-1.7,2-2.6,2.9-.5.6-1.1,1.2-1.6,1.8-.3.4-.7.7-1,1.1l-.1.1c-.1.1-.2.2-.3.3s-.2.2-.2.2c-.6.7-1.3,1.3-1.9,2-1,1-2,2.1-3.1,3.1v-88.2h49.2Z"/>
  <path class="cls-2" d="m758,80.75v100.3c-5.6-4.4-10.9-9.1-15.8-14.1-1.1-1.1-2.2-2.2-3.3-3.4-.5-.5-.9-1-1.3-1.4-21-22.4-36-50.4-42.8-81.4,0,0,63.2,0,63.2,0Z"/>
  <path class="cls-2" d="m1034.67,30.45v57.58c-1.68,6.35-3.71,12.56-6.07,18.62-1.95,5-4.12,9.9-6.51,14.67-.75,1.5-1.52,3-2.32,4.47-.47.87-.94,1.74-1.42,2.6-.02.04-.04.08-.06.11-1.28,2.29-2.61,4.54-3.99,6.75-.4.6-.8,1.3-1.2,1.9-.4.7-.8,1.3-1.2,1.9-1.1,1.7-2.3,3.4-3.5,5.1-.13.18-.26.34-.37.52l-.06.08c-.24.33-.46.67-.7,1-.07.1-.15.2-.22.3-.1.17-.23.33-.35.5h-23.2V30.45h51.17Z"/>
  <path class="cls-2" d="m1034.67,87.66v164.72c-15.25-2.03-29.03-8.7-39.86-18.55-1.66-1.51-3.26-3.09-4.77-4.75-.35-.38-.7-.77-1.04-1.16-10.63-12.08-17.38-27.65-18.29-44.8v-.08s-.01-.06-.01-.09c2.95-2.22,5.83-4.54,8.64-6.95.6-.52,1.21-1.04,1.81-1.56l5.66-5.23c.64-.61,1.27-1.23,1.9-1.85,1.88-1.86,3.73-3.77,5.52-5.73.02-.03.05-.06.08-.09h.01c.58-.63,1.16-1.27,1.73-1.92,1.76-1.98,3.48-4.01,5.15-6.07.6-.7,1.2-1.5,1.8-2.2.6-.8,1.2-1.6,1.8-2.4.6-.8,1.2-1.6,1.8-2.4.6-.8,1.1-1.6,1.7-2.4,1.2-1.7,2.3-3.4,3.5-5.1.4-.6.8-1.3,1.2-1.9.4-.6.8-1.3,1.2-1.9,5.6-9,10.4-18.6,14.3-28.6,2.41-6.18,4.47-12.51,6.17-18.99Z"/>
  <path class="cls-2" d="m1001.2,153.65c-8.9,11-19.2,20.8-30.5,29.4h0c11.3-8.6,21.5-18.5,30.5-29.4Z"/>
  <path class="cls-2" d="m1008.3,144.25c-.6.8-1.1,1.6-1.7,2.4h0c.6-.8,1.2-1.6,1.7-2.4Z"/>
  <path class="cls-3" d="m690.5,43.15v2c-.1,1.1-.1,2.2-.1,3.3-.3,11-1.7,21.8-4,32.3-1.9,8.6-4.4,17-7.5,25.1-.2.6-.4,1.2-.7,1.7-.2.6-.5,1.2-.7,1.7-.8,1.9-1.6,3.7-2.4,5.6-1,2.3-2.2,4.7-3.3,7-.6,1.2-1.2,2.3-1.8,3.5-5.5,10.4-12,20.2-19.5,29.1-.8,1-1.7,2-2.5,3-.9,1-1.7,2-2.6,2.9-.5.6-1.1,1.2-1.6,1.8-.3.4-.7.7-1,1.1l-.1.1c-.1.1-.2.2-.3.3s-.2.2-.2.2c-.6.7-1.3,1.3-1.9,2-1,1-2,2.1-3.1,3.1-5.1,5-10.6,9.7-16.3,13.9,0,0-.1,0-.1.1h0c-6.4,4.8-12.9,9-19.9,12.9h-.1c-2.6,1.4-5.2,2.8-7.9,4.1-.6.3-1.2.6-1.8.8-.1,0-.2.1-.3.1-.9.4-1.8.8-2.7,1.3-.1,0-.1.1-.2.1s-.1.1-.2.1h-.1c-.9.4-1.9.8-2.8,1.2-.6.3-1.2.5-1.8.8-1.9.8-3.7,1.5-5.6,2.3h-.1c-5.9,2.3-12.1,4.2-18.3,5.8-6.5,1.7-13.2,3-20,3.9h0c-6.8.9-13.7,1.4-20.7,1.5h-5.4c-.8,0-1.6,0-2.4-.1-.8,0-1.5,0-2.3-.1h-.2c-.8,0-1.6-.1-2.5-.1-.8,0-1.6-.1-2.5-.2-.8-.1-1.6-.1-2.4-.2h0c-1.6-.1-3.3-.3-4.9-.5-.8-.1-1.6-.2-2.4-.3h-.1c-.8-.1-1.6-.2-2.4-.3s-1.6-.2-2.3-.4c-4.6-.7-9.2-1.7-13.6-2.7h-.1c-2.8-.7-5.5-1.4-8.2-2.2-.9-.3-1.8-.5-2.7-.8h0c-1.8-.6-3.6-1.2-5.4-1.8h0c-1-.4-2.1-.7-3.1-1.1-.8-.3-1.5-.5-2.2-.8h-.1c-7.3-2.7-14.3-6-21.1-9.7-6.8-3.8-13.4-7.9-19.6-12.5-5.2-3.8-10.2-7.9-14.9-12.3-3.5-3.2-6.8-6.5-10.1-10-.9-1-1.8-1.9-2.6-2.9-1.5-1.7-2.9-3.3-4.3-5-1.1-1.3-2.1-2.6-3.2-3.9-.9-1.1-1.7-2.3-2.6-3.4-.4-.5-.8-1.1-1.2-1.6-12.1-16.9-21.3-35.9-26.9-56.5-3.2-11.7-5.1-23.9-5.7-36.5,0-.8-.1-1.7-.1-2.5,0-.9-.1-1.8-.1-2.7v-6.8c0-2.7.1-5.3.3-8,0-.5.1-1,.1-1.4v-.7c.1-1.3.2-2.6.3-3.8.1-.7.1-1.3.2-2,.6-5.7,1.5-11.4,2.7-17,.4-2,.9-4,1.4-6h18c-2.5,9.5-4.1,19.4-4.8,29.5-.1.8-.1,1.6-.1,2.4s-.1,1.7-.1,2.5-.1,1.7-.1,2.5v5.1c0,1.1,0,2.1.1,3.2,0,.6,0,1.2.1,1.9.1,2.5.3,5,.5,7.5.1,1.1.2,2.3.4,3.4.1.5.1.9.2,1.4.1.6.2,1.2.2,1.9,0,.4.1.7.2,1.1.1.4.1.9.2,1.3.1.5.2,1,.2,1.6.1.6.2,1.3.3,1.9.2,1.3.5,2.6.7,3.8.1.6.2,1.2.4,1.8.2.7.3,1.3.5,2,.3,1.2.6,2.5.9,3.7.2.6.3,1.2.5,1.9.3,1.2.7,2.5,1,3.7h0c.3,1.2.7,2.4,1.1,3.6,6.6,20.4,17.3,39,31.1,54.7,28.5,32.4,70.2,52.9,116.7,52.9,28.9,0,56-7.9,79.1-21.6.5-.3,1.1-.6,1.6-1,1.1-.6,2.1-1.3,3.2-2,.5-.3,1-.7,1.6-1,.5-.3,1-.7,1.6-1,1-.7,2.1-1.4,3.1-2.1,1-.7,2-1.4,3-2.2.5-.3,1-.7,1.5-1.1.5-.4,1-.8,1.5-1.2.3-.2.6-.5.9-.7,0,0,.1,0,.1-.1.8-.6,1.6-1.2,2.3-1.9,5.6-4.6,10.8-9.6,15.6-15,2.8-3.1,5.5-6.4,8.1-9.7,12.4-16,21.7-34.6,27-54.8,3.4-12.8,5.2-26.2,5.2-40.1,0-3.4-.1-6.8-.3-10.1-.7-10.1-2.3-19.9-4.8-29.4h21c.5,2,1,4,1.4,6,1.2,5.6,2.1,11.3,2.7,17,.2,2.1.4,4.2.5,6.4.5,4,.7,8.2.7,12.4Z"/>
  <path class="cls-3" d="m13.7,316.95c4.2-.8,8.4-1.7,12.5-2.8,1.4-.4,2.9-.8,4.3-1.3,6.1-1.9,12-4.2,17.7-7,.9-.4,1.8-.8,2.7-1.3,6.9-3.5,13.4-7.5,19.6-12,.4-.3.8-.6,1.2-.9,4.8-3.6,9.3-7.5,13.6-11.7,1.6-1.6,3.1-3.2,4.7-4.8,11.7-12.6,21-27.4,27.3-43.7,2.3-6,4.2-12.2,5.7-18.6-2.6-.7-5.2-1.4-7.8-2.1-4-1.2-7.9-2.5-11.7-4-1.4,6-3.2,11.8-5.4,17.4h0c-5.3,13.3-13,25.3-22.5,35.7-3,3.3-6.2,6.4-9.5,9.3-4.9,4.3-10.2,8.2-15.8,11.6-1.2.8-2.5,1.5-3.8,2.2-6,3.4-12.3,6.2-18.8,8.5-2.2.8-4.5,1.5-6.8,2.1-3.3.9-6.6,1.7-10,2.4-3.3.6-6.6,1.1-10,1.4-.3,0-.7.1-1,.1v21.1c.3,0,.6,0,.9-.1,4.4-.2,8.7-.8,12.9-1.5Z"/>
  <path class="cls-2" d="m10.9,296.05c3.4-.6,6.8-1.4,10-2.4,2.3-.6,4.6-1.3,6.8-2.1,6.6-2.3,12.9-5.1,18.8-8.5,1.3-.7,2.6-1.5,3.8-2.2,5.6-3.4,10.9-7.3,15.8-11.6,3.3-2.9,6.5-6,9.5-9.3,9.5-10.4,17.2-22.4,22.5-35.7h0c2.2-5.6,4.1-11.4,5.4-17.4-6.3-2.4-12.5-5.2-18.5-8.3-1.4-.7-2.9-1.5-4.3-2.3-.5,2.8-1.2,5.7-2,8.4-4.7,16.2-13.7,30.7-25.7,42h0c-4.7,4.5-9.9,8.4-15.5,11.8-2.7,1.7-5.6,3.2-8.5,4.6h0c-5.6,2.7-11.6,4.8-17.8,6.3-1,.2-1.9.5-2.9.7-2.5.5-5,1-7.5,1.3-.4,0-.8.1-1.1.1v26.1c.3,0,.7,0,1-.1,3.6-.3,6.9-.8,10.2-1.4Z"/>
  <path class="cls-2" d="m358.6,40.55c0,85.9,69.6,155.5,155.5,155.5s155.5-69.6,155.5-155.5c0-13.6-1.8-26.9-5.1-39.5h-18.3c3.5,12.1,5.3,24.8,5.3,38,0,75.7-61.3,137-137,137s-137-61.3-137-137c0-13.2,1.9-25.9,5.3-38h-19.3c-3.2,12.6-4.9,25.9-4.9,39.5Z"/>
  <path class="cls-3" d="m1034.67,1.75v86.16c-1.7,6.47-3.77,12.79-6.17,18.94-2.55,6.53-5.48,12.84-8.73,18.94-.47.87-.94,1.74-1.42,2.6-.02.04-.04.08-.06.11-1.29,2.32-2.61,4.6-3.99,6.85-.4.6-.8,1.3-1.2,1.9-.4.7-.8,1.3-1.2,1.9-1.1,1.7-2.3,3.4-3.5,5.1-.6.8-1.1,1.6-1.7,2.4-.6.8-1.2,1.6-1.8,2.4-.6.8-1.2,1.6-1.8,2.4-.6.7-1.2,1.5-1.8,2.2-2.19,2.7-4.46,5.33-6.8,7.89-7.22,7.85-15.17,15.02-23.7,21.51,0,0-.08,0-.09.07-.01.01-.01.02-.01.03-.3.2-.7.5-1,.7-.28.21-.56.42-.8.59-.11.08-.21.15-.3.21-.3.2-.7.5-1,.7-.6.4-1.2.9-1.8,1.3-.6.4-1.2.8-1.8,1.3-1.5,1-3.1,2.1-4.7,3-2.29,1.5-4.69,2.89-7.08,4.29,0,0,0,.01-.02.01,0,0-.07,0-.09.06h0s-.01.03-.01.04c-7.26,4.08-14.92,7.76-22.78,10.85-.03.01-.06.03-.09.04-.01,0-.02.01-.03.01-6.16,2.39-12.42,4.47-18.88,6.17-.03.01-.06.01-.09.02-.01,0-.02.01-.03.01-6.6,1.8-13.4,3.1-20.3,4.1h-.1c-6.8.9-13.7,1.5-20.7,1.6h-3.5c-1.6,0-3-.1-4.6-.1h-.22c-6.66-.11-13.02-.71-19.48-1.6h-.13c-5.09-.7-10.08-1.6-15.07-2.8h-.1s-.01,0-.02-.01c-2.09-.49-4.19-.99-6.28-1.59-.2,0-.3-.1-.4-.1-.5-.2-1.1-.3-1.6-.5-2.1-.6-4.1-1.2-6.2-1.9-.2-.1-.5-.2-.7-.2-.2-.1-.4-.1-.6-.2-.1,0-.2-.1-.3-.1-1-.3-2-.7-3-1h-.1s-.09-.03-.14-.05c-.03-.01-.06-.02-.09-.04-1.82-.67-3.55-1.34-5.37-2.01-.7-.3-1.4-.6-2.1-.8-4.1-1.7-8.1-3.6-12.1-5.5-.7-.3-1.3-.7-2-1-.05-.03-.1-.05-.15-.08-5.85-3.08-11.5-6.45-16.95-10.12-.01-.01-.03-.02-.04-.03-.03-.02-.06-.04-.09-.06-3.11-2.11-6.06-4.3-8.99-6.58-.03-.02-.05-.04-.08-.06-.02,0-.03-.03-.05-.04-.18-.15-.37-.28-.55-.43-1.05-.82-2.07-1.65-3.1-2.49-.04-.03-.09-.06-.13-.1-.02-.02-.05-.04-.07-.06-4.39-3.59-8.57-7.34-12.5-11.35-.55-.55-1.1-1.1-1.65-1.66-.55-.57-1.1-1.14-1.65-1.74-.1-.1-.2-.2-.3-.3-.01-.03-.04-.05-.06-.07-.32-.35-.6-.68-.88-.96-.02-.03-.04-.05-.06-.07-.28-.3-.56-.61-.83-.91-7.51-8.19-14.25-17.08-20.1-26.56-.06-.08-.11-.16-.15-.25-.97-1.55-1.9-3.13-2.81-4.72-.53-.92-1.05-1.85-1.56-2.78-.46-.85-.92-1.7-1.37-2.55-.86-1.62-1.69-3.26-2.5-4.91-1.7-3.49-3.28-7.03-4.75-10.63-.36-.89-.71-1.78-1.06-2.68-.04-.11-.09-.21-.13-.32-.38-.99-.75-1.98-1.12-2.98-.2-.57-.41-1.13-.61-1.7-.01-.03-.02-.07-.03-.1-.14-.41-.28-.8-.42-1.21-.01-.02-.02-.05-.03-.07-.03-.1-.07-.2-.1-.3-.31-.92-.62-1.84-.92-2.76-.02-.06-.04-.13-.06-.19-.03-.1-.07-.21-.1-.31-.03-.1-.06-.19-.09-.29-.16-.5-.31-1-.47-1.5-.18-.59-.36-1.19-.54-1.79-1.15-3.91-2.17-7.87-3.05-11.89-.02-.1-.05-.2-.07-.3-.57-2.5-1.05-5-1.43-7.5-.5-2.7-.9-5.4-1.2-8.1-.7-5.4-1.1-10.9-1.3-16.5-.1-1.1-.1-2.2-.1-3.3v-6.4c0-.7,0-1.5.1-2.2,0-.7.1-1.4.1-2.1.1-1.3.1-2.5.2-3.8,0-.1,0-.2.01-.3.02-.5.09-1,.09-1.5.1-.8.1-1.5.2-2.3s.1-1.6.2-2.4c.1-.9.2-1.8.3-2.7.1-.6.1-1.3.2-1.9.1-.4.1-.9.2-1.3.1-.7.2-1.4.3-2.1.1-.9.3-1.8.4-2.6.4-2.1.8-4.2,1.2-6.2.2-1,.4-2,.7-3,.1-.5.2-1,.4-1.5.1-.5.2-1,.4-1.5h18c-2.46,9.34-4.05,19.07-4.76,29-.02.17-.03.33-.04.5-.1.8-.1,1.6-.1,2.4s-.1,1.7-.1,2.5-.1,1.7-.1,2.5v5.1c0,1.1,0,2.1.1,3.2,0,.6,0,1.2.1,1.9.1,2.5.3,5,.5,7.5.1,1.1.2,2.3.4,3.4.1.5.1.9.2,1.4.1.6.2,1.2.2,1.9,0,.05,0,.09.01.14h0c0,.18.03.33.07.49.03.15.08.3.12.47.1.4.1.9.2,1.3.09.45.18.9.19,1.43v.02c.01.05.01.1.01.15.1.6.2,1.3.3,1.9.2,1.3.5,2.6.7,3.8.1.6.2,1.2.4,1.8.2.7.3,1.3.5,2,.3,1.2.6,2.5.9,3.7.05.22.11.46.16.7.05.21.09.42.14.6,0,.2.1.4.1.5.3,1.2.7,2.5,1,3.7.2.6.4,1.2.6,1.8.2.6.4,1.2.6,1.8.4,1.2.8,2.4,1.2,3.6.2.6.4,1.2.6,1.8.2.6.4,1.2.7,1.8.2.6.4,1.2.7,1.8.2.6.5,1.2.7,1.8,8.5,21,21.6,39.7,37.9,55,2.44,2.28,4.94,4.48,7.52,6.59,26.83,22.06,61.07,35.21,98.48,35.21,28.9,0,56-7.9,79.1-21.6.5-.3,1.1-.6,1.6-1,1.1-.6,2.1-1.3,3.2-2,.5-.3,1-.7,1.6-1,.5-.3,1-.7,1.6-1,1-.7,2.1-1.4,3.1-2.1s2-1.4,3-2.2c.5-.3,1-.7,1.5-1.1s1-.8,1.5-1.2c.3-.2.6-.5.9-.7,0,0,.1,0,.1-.1.53-.39,1.05-.79,1.55-1.21.26-.22.51-.45.75-.69,5.6-4.6,10.8-9.6,15.6-15,1.5-1.6,2.9-3.2,4.3-4.9.03-.04.07-.08.1-.12,16.63-20,28.38-44.2,33.32-70.84.13-.63.25-1.27.35-1.91.11-.64.23-1.28.33-1.92.07-.42.14-.85.2-1.27.05-.27.09-.55.13-.82.11-.69.21-1.39.3-2.09.9-6.78,1.37-13.7,1.37-20.73,0-3.4-.1-6.8-.3-10.1v-.1c-.01-.17-.02-.33-.04-.5v-.1c-.72-9.89-2.31-19.49-4.76-28.7h20.27Z"/>
  <path class="cls-2" d="m708.6,40.55c0,85.9,69.6,155.5,155.5,155.5s155.5-69.6,155.5-155.5c0-13.6-1.8-26.9-5.1-39.5h-18.3c3.5,12.1,5.3,24.8,5.3,38,0,75.7-61.3,137-137,137s-137-61.3-137-137c0-13.2,1.9-25.9,5.3-38h-19.3c-3.2,12.6-4.9,25.9-4.9,39.5Z"/>
  <path class="cls-3" d="m0,98.5v3.8c.5,0,.9.1,1.4.1-.5-1.3-1-2.6-1.4-3.9Z"/>
  <path class="cls-3" d="m8.5,270.05c1-.2,1.9-.4,2.9-.7,6.2-1.5,12.1-3.6,17.8-6.3h0c2.9-1.4,5.7-2.9,8.5-4.6,5.6-3.4,10.8-7.4,15.5-11.8h0c12-11.3,21-25.7,25.7-42,.8-2.8,1.5-5.6,2-8.4-4.7-2.6-9.3-5.5-13.8-8.5-.1-.1-.2-.1-.3-.2,0,.2-.1.4-.1.6h0c-3.1,20.7-14.8,38.5-31.2,49.9-6.2,4.2-13,7.6-20.3,9.8-4.5,1.4-9.2,2.3-14.1,2.8-.4,0-.8.1-1.2.1v20.6c.4,0,.8-.1,1.1-.1,2.6-.3,5.1-.7,7.5-1.2Z"/>
  <path class="cls-2" d="m15.2,247.85c7.3-2.2,14.2-5.6,20.3-9.8,16.5-11.3,28.1-29.2,31.2-49.9h0c0-.2.1-.4.1-.6-4.5-3-8.8-6.3-12.9-9.7-4.6-3.9-9.1-8-13.3-12.3C23.8,148.35,10.4,127.75,1.8,104.85c-.2-.4-.3-.9-.5-1.4-.5-.1-.9-.1-1.4-.1v147.4c.4,0,.8-.1,1.2-.1,4.9-.5,9.6-1.4,14.1-2.8Z"/>
  <path class="cls-3" d="m340.6,38.55v8.2c0,3.1-.2,6.1-.4,9.2-.7,9.9-2.3,19.7-4.6,29.1-.3,1.2-.6,2.3-.9,3.5-1.4,5.1-3,10-4.8,14.9-4,10.8-9,21.2-15,30.9,0,0,0,.1-.1.1l-4.6,7.1c-3.6,5.3-7.5,10.3-11.6,15.2l-2,2.3c-.3.3-.6.6-.8,1-.4.5-.9,1-1.3,1.5l-.1.1h0c-1.2,1.3-2.4,2.6-3.7,3.9l-.1.1c-4.1,4.1-8.2,8-12.7,11.7-.4.3-.8.7-1.3,1-3.6,3-7.4,5.8-11.2,8.5-.8.5-1.6,1.1-2.4,1.6-4.7,3.1-9.5,6-14.4,8.7-1.5.8-2.9,1.6-4.4,2.3-5.4,2.7-11,5.1-16.7,7.3-4.4,1.7-9,3.2-13.6,4.5-1.2.4-2.4.7-3.6,1-6.2,1.7-12.7,3-19.2,3.9-4.3.6-8.7,1.1-13.1,1.4-2.5.2-5,.3-7.5.4-1.6.1-3.1.1-4.7.1h-3.7c-4.3-.1-8.6-.3-12.8-.7-2.3-.2-4.6-.5-6.9-.8-6.5-.8-12.9-2.1-19.1-3.6-.5-.1-1-.2-1.5-.3h-.1c-1.4-.3-2.8-.7-4.2-1.1h-.1c-.6-.2-1.2-.3-1.8-.5-4-1.2-7.9-2.5-11.7-4-6.4-2.4-12.5-5.2-18.5-8.3-1.5-.8-2.9-1.5-4.3-2.3-4.8-2.6-9.4-5.5-13.8-8.5-.1,0-.2-.1-.3-.2-4.4-3-8.8-6.3-12.9-9.7-4.6-3.9-9.1-8-13.3-12.3-16.8-17.1-30.2-37.8-38.8-60.7-.2-.5-.3-.9-.5-1.4-.5-1.3-1-2.6-1.4-3.9V1.05h15.8c-2.7,10.3-4.4,21.2-4.9,32.2-.1,2.4-.2,4.9-.2,7.3,0,85.9,69.6,155.5,155.5,155.5,1.4,0,2.8,0,4.2-.1,1.1,0,2.3-.1,3.4-.1,1.7-.1,3.4-.2,5.1-.3.9-.1,1.9-.2,2.8-.2h.4c1.1-.1,2.2-.2,3.3-.4,4.1-.5,8.1-1.2,12-2,.6-.1,1.3-.3,1.9-.4,9.5-2,18.6-5,27.3-8.7,1.2-.5,2.3-1,3.5-1.5,7.1-3.2,14-7,20.5-11.2,1-.6,1.9-1.3,2.9-1.9.5-.4,1.1-.7,1.6-1.1.5-.4,1-.7,1.4-1,.5-.4,1-.7,1.5-1.1,1-.7,2-1.5,3-2.3s2-1.5,3-2.3c.5-.4,1-.8,1.5-1.2s1-.8,1.5-1.2.9-.8,1.4-1.2.9-.8,1.4-1.2.9-.8,1.4-1.3c.5-.4.9-.8,1.4-1.3.5-.4.9-.9,1.4-1.3.5-.4.9-.9,1.3-1.3.5-.4.9-.9,1.3-1.3.5-.5,1-1.1,1.6-1.6.5-.5.9-1,1.4-1.5.6-.6,1.1-1.2,1.7-1.8.5-.5,1-1.1,1.5-1.7.5-.6,1-1.1,1.5-1.7.5-.6,1-1.2,1.5-1.8s.9-1.1,1.4-1.7c.5-.6.9-1.1,1.4-1.7,2.9-3.7,5.6-7.5,8.2-11.4.3-.5.7-1,1-1.5,1.9-3,3.7-6.1,5.4-9.2.2-.4.5-.9.7-1.3,1-1.8,1.9-3.6,2.8-5.5.3-.6.6-1.3.9-1.9.3-.7.6-1.4.9-2,.1-.2.2-.5.3-.8.5-1.2,1-2.3,1.5-3.5,1.4-3.5,2.8-7.1,3.9-10.8.6-1.9,1.2-3.8,1.7-5.7.3-1,.5-1.9.8-2.9.2-.8.4-1.6.6-2.4.1-.3.2-.7.2-1,.2-.8.4-1.6.6-2.5.2-1,.4-2,.6-3s.4-2,.6-3,.3-2,.5-3c.1-1,.3-1.9.4-2.9v-.2c.1-1,.3-2,.4-3,.1-.9.2-1.8.3-2.7.1-1.2.2-2.3.3-3.5.1-.8.1-1.6.2-2.4v-.9c.1-.9.1-1.8.1-2.7v-.4c0-.9.1-1.7.1-2.6v-3.4c0-1.9,0-3.9-.1-5.8,0-.6-.1-1.2-.1-1.8,0-.8-.1-1.6-.1-2.4v-.1c-.1-1.7-.2-3.3-.4-4.9v-.1c-.1-1.4-.3-2.8-.5-4.2,0-.3-.1-.6-.1-.8-.1-.8-.2-1.6-.3-2.3h0c-.4-2.5-.8-4.9-1.3-7.3-.1-.8-.3-1.6-.5-2.4-.3-1.6-.7-3.2-1.1-4.8-.2-.8-.4-1.6-.6-2.4h19l.4,1.5c.4,1.5.7,3.1,1,4.6.2.7.3,1.4.4,2.1s.3,1.4.4,2.1c.3,1.4.5,2.8.7,4.2v.2l1.1,8.3c.3,2.2.5,4.3.6,6.5.2,2.5.4,5.1.4,7.8Z"/>
  <path class="cls-2" d="m10.6,40.55c0,85.9,69.6,155.5,155.5,155.5s155.5-69.6,155.5-155.5c0-13.6-1.8-26.9-5.1-39.5h-20.3c3.5,12.1,5.3,24.8,5.3,38,0,75.7-61.3,137-137,137S27.5,114.75,27.5,39.05c0-13.2,1.9-25.9,5.3-38H15.6c-3.3,12.6-5,25.9-5,39.5Z"/>
  <path class="cls-3" d="m727.6,39.05c0,75.7,61.3,137,137,137s137-61.3,137-137c0-13.2-1.9-25.9-5.3-38h-19.5c4.4,12.3,6.8,25.6,6.8,39.5,0,64.9-52.6,117.5-117.5,117.5s-117.5-52.6-117.5-117.5c0-13.9,2.4-27.2,6.8-39.5h-22.5c-3.5,12.1-5.3,24.8-5.3,38Z"/>
  <path class="cls-3" d="m377.6,39.05c0,75.7,61.3,137,137,137s137-61.3,137-137c0-13.2-1.9-25.9-5.3-38h-21.5c4.4,12.3,6.8,25.6,6.8,39.5,0,64.9-52.6,117.5-117.5,117.5s-117.5-52.6-117.5-117.5c0-13.9,2.4-27.2,6.8-39.5h-20.5c-3.5,12.1-5.3,24.8-5.3,38Z"/>
  <path class="cls-3" d="m27.6,39.05c0,75.7,61.3,137,137,137s137-61.3,137-137c0-13.2-1.9-25.9-5.3-38h-21.5c4.4,12.3,6.8,25.6,6.8,39.5,0,64.9-52.6,117.5-117.5,117.5S46.6,105.45,46.6,40.55c0-13.9,2.4-27.2,6.8-39.5h-20.5c-3.5,12.1-5.3,24.8-5.3,38Z"/>
  <path class="cls-2" d="m46.6,40.55c0,64.9,52.6,117.5,117.5,117.5s117.5-52.6,117.5-117.5c0-13.9-2.4-27.2-6.8-39.5h-28.4c7.2,13.2,11.2,28.4,11.2,44.5,0,51.6-41.9,93.5-93.5,93.5s-93.5-41.9-93.5-93.5c0-16.1,4.1-31.3,11.2-44.5h-28.4c-4.4,12.3-6.8,25.6-6.8,39.5Z"/>
  <path class="cls-2" d="m396.6,40.55c0,64.9,52.6,117.5,117.5,117.5s117.5-52.6,117.5-117.5c0-13.9-2.4-27.2-6.8-39.5h-28.4c7.2,13.2,11.2,28.4,11.2,44.5,0,51.6-41.9,93.5-93.5,93.5s-93.5-41.9-93.5-93.5c0-16.1,4.1-31.3,11.2-44.5h-28.4c-4.4,12.3-6.8,25.6-6.8,39.5Z"/>
  <path class="cls-2" d="m748.6,40.55c0,64.9,52.6,117.5,117.5,117.5s117.5-52.6,117.5-117.5c0-13.9-2.4-27.2-6.8-39.5h-30.4c7.2,13.2,11.2,28.4,11.2,44.5,0,51.6-41.9,93.5-93.5,93.5s-93.5-41.9-93.5-93.5c0-16.1,4.1-31.3,11.2-44.5h-26.4c-4.4,12.3-6.8,25.6-6.8,39.5Z"/>
  <path class="cls-3" d="m70.6,45.55c0,51.6,41.9,93.5,93.5,93.5s93.5-41.9,93.5-93.5c0-16.1-4.1-31.3-11.2-44.5h-24.3c9.1,12.3,14.5,27.5,14.5,44,0,40.9-33.1,74-74,74s-74-33.1-74-74c0-16.5,5.4-31.7,14.5-44h-21.3c-7.1,13.2-11.2,28.4-11.2,44.5Z"/>
  <path class="cls-3" d="m420.6,45.55c0,51.6,41.9,93.5,93.5,93.5s93.5-41.9,93.5-93.5c0-16.1-4.1-31.3-11.2-44.5h-22.3c9.1,12.3,14.5,27.5,14.5,44,0,40.9-33.1,74-74,74s-74-33.1-74-74c0-16.5,5.4-31.7,14.5-44h-23.3c-7.1,13.2-11.2,28.4-11.2,44.5Z"/>
  <path class="cls-3" d="m770.6,45.55c0,51.6,41.9,93.5,93.5,93.5s93.5-41.9,93.5-93.5c0-16.1-4.1-31.3-11.2-44.5h-25.3c9.1,12.3,14.5,27.5,14.5,44,0,40.9-33.1,74-74,74s-74-33.1-74-74c0-16.5,5.4-31.7,14.5-44h-20.3c-7.1,13.2-11.2,28.4-11.2,44.5Z"/>
  <path class="cls-2" d="m88.6,45.05c0,40.9,33.1,74,74,74s74-33.1,74-74c0-16.5-5.4-31.7-14.5-44h-119c-9.1,12.3-14.5,27.5-14.5,44Z"/>
  <path class="cls-2" d="m440.6,45.05c0,40.9,33.1,74,74,74s74-33.1,74-74c0-16.5-5.4-31.7-14.5-44h-119c-9.1,12.3-14.5,27.5-14.5,44Z"/>
  <path class="cls-2" d="m787.6,45.05c0,40.9,33.1,74,74,74s74-33.1,74-74c0-16.5-5.4-31.7-14.5-44h-119c-9.1,12.3-14.5,27.5-14.5,44Z"/>
</svg>