<svg width="1728" height="1109" viewBox="0 0 1728 1109" fill="none" xmlns="http://www.w3.org/2000/svg">
<g clip-path="url(#clip0_66_2)">
<rect width="1728" height="1109" fill="white"/>
<path d="M1728 1117L-5.59001 1109.02L-0.470613 -2.99988L1733.12 4.98104L1728 1117Z" fill="#4C4C4C"/>
<path d="M513.059 382.088C511.703 478.728 432.261 555.971 335.62 554.614C238.98 553.258 161.737 473.816 163.094 377.176C164.45 280.535 243.892 203.292 340.533 204.649C437.173 206.005 514.416 285.448 513.059 382.088Z" fill="#BE9961"/>
<path d="M494.096 379.321C492.891 465.193 422.301 533.829 336.429 532.624C250.557 531.418 181.921 460.828 183.127 374.956C184.332 289.085 254.922 220.449 340.794 221.654C426.666 222.86 495.301 293.449 494.096 379.321Z" fill="#4C4C4C"/>
<path d="M861.025 386.972C859.668 483.612 780.226 560.855 683.586 559.499C586.946 558.142 509.703 478.7 511.059 382.06C512.416 285.419 591.858 208.177 688.498 209.533C785.139 210.89 862.381 290.332 861.025 386.972Z" fill="#BE9961"/>
<path d="M842.062 384.206C840.856 470.077 770.266 538.713 684.395 537.508C598.523 536.302 529.887 465.712 531.092 379.841C532.298 293.969 602.888 225.333 688.76 226.538C774.631 227.744 843.267 298.334 842.062 384.206Z" fill="#4C4C4C"/>
<path d="M1211.03 388.885C1209.68 485.525 1130.23 562.768 1033.59 561.411C936.953 560.055 859.71 480.613 861.067 383.972C862.423 287.332 941.865 210.089 1038.51 211.446C1135.15 212.802 1212.39 292.244 1211.03 388.885Z" fill="#BE9961"/>
<path d="M1192.07 386.118C1190.86 471.99 1120.27 540.626 1034.4 539.42C948.53 538.215 879.894 467.625 881.1 381.753C882.305 295.881 952.895 227.246 1038.77 228.451C1124.64 229.656 1193.27 300.246 1192.07 386.118Z" fill="#4C4C4C"/>
<path d="M1562 393.811C1560.64 490.451 1481.2 567.694 1384.56 566.338C1287.92 564.981 1210.68 485.539 1212.03 388.899C1213.39 292.258 1292.83 215.016 1389.47 216.372C1486.11 217.729 1563.35 297.171 1562 393.811Z" fill="#BE9961"/>
<path d="M1543.03 391.045C1541.83 476.916 1471.24 545.552 1385.37 544.347C1299.5 543.141 1230.86 472.551 1232.07 386.68C1233.27 300.808 1303.86 232.172 1389.73 233.377C1475.6 234.583 1544.24 305.173 1543.03 391.045Z" fill="#4C4C4C"/>
<path d="M1913.01 395.738C1911.65 492.378 1832.21 569.621 1735.57 568.264C1638.93 566.908 1561.68 487.466 1563.04 390.825C1564.4 294.185 1643.84 216.942 1740.48 218.299C1837.12 219.655 1914.36 299.097 1913.01 395.738Z" fill="#BE9961"/>
<path d="M1894.04 392.971C1892.84 478.843 1822.25 547.479 1736.38 546.273C1650.5 545.068 1581.87 474.478 1583.07 388.606C1584.28 302.735 1654.87 234.099 1740.74 235.304C1826.61 236.509 1895.25 307.099 1894.04 392.971Z" fill="#4C4C4C"/>
<path d="M162.094 377.161C160.737 473.802 81.2952 551.045 -15.3451 549.688C-111.985 548.332 -189.228 468.889 -187.872 372.249C-186.515 275.609 -107.073 198.366 -10.4328 199.723C86.2075 201.079 163.45 280.521 162.094 377.161Z" fill="#BE9961"/>
<path d="M476.133 376.569C475.071 452.225 412.879 512.695 337.223 511.633C261.568 510.571 201.098 448.379 202.16 372.723C203.222 297.068 265.413 236.598 341.069 237.66C416.725 238.722 477.195 300.913 476.133 376.569Z" fill="#BE9961"/>
<path d="M1879.01 395.26C1877.95 470.916 1815.75 531.386 1740.1 530.324C1664.44 529.262 1603.97 467.07 1605.04 391.415C1606.1 315.759 1668.29 255.289 1743.94 256.351C1819.6 257.413 1880.07 319.605 1879.01 395.26Z" fill="#BE9961"/>
<path d="M1176.06 386.394C1175 462.049 1112.81 522.519 1037.15 521.457C961.499 520.395 901.029 458.204 902.091 382.548C903.153 306.892 965.345 246.422 1041 247.484C1116.66 248.546 1177.13 310.738 1176.06 386.394Z" fill="#BE9961"/>
<path d="M1861.05 392.508C1860.13 457.395 1806.79 509.258 1741.91 508.347C1677.02 507.437 1625.16 454.097 1626.07 389.21C1626.98 324.323 1680.32 272.46 1745.21 273.371C1810.09 274.281 1861.96 327.621 1861.05 392.508Z" fill="#4C4C4C"/>
<path d="M1525.03 391.292C1523.97 466.947 1461.78 527.418 1386.12 526.356C1310.46 525.294 1249.99 463.102 1251.06 387.446C1252.12 311.791 1314.31 251.321 1389.97 252.383C1465.62 253.445 1526.09 315.636 1525.03 391.292Z" fill="#BE9961"/>
<path d="M826.028 386.481C824.966 462.136 762.774 522.606 687.119 521.544C611.463 520.483 550.993 458.291 552.055 382.635C553.117 306.98 615.309 246.509 690.965 247.571C766.62 248.633 827.09 310.825 826.028 386.481Z" fill="#BE9961"/>
<path d="M143.131 374.395C141.925 460.267 71.3353 528.903 -14.5365 527.697C-100.408 526.492 -169.044 455.902 -167.839 370.03C-166.633 284.158 -96.0434 215.523 -10.1716 216.728C75.7002 217.933 144.336 288.523 143.131 374.395Z" fill="#4C4C4C"/>
<path d="M1505.07 388.511C1504.16 453.398 1450.82 505.262 1385.93 504.351C1321.04 503.44 1269.18 450.1 1270.09 385.213C1271 320.326 1324.34 268.463 1389.23 269.374C1454.11 270.285 1505.98 323.624 1505.07 388.511Z" fill="#4C4C4C"/>
<path d="M1156.11 382.613C1155.2 447.5 1101.86 499.363 1036.98 498.453C972.09 497.542 920.227 444.202 921.138 379.315C922.049 314.428 975.388 262.565 1040.28 263.476C1105.16 264.386 1157.03 317.726 1156.11 382.613Z" fill="#4C4C4C"/>
<path d="M806.037 385.7C805.126 450.587 751.787 502.45 686.9 501.539C622.013 500.629 570.15 447.289 571.06 382.402C571.971 317.515 625.311 265.652 690.198 266.563C755.085 267.473 806.948 320.813 806.037 385.7Z" fill="#4C4C4C"/>
<path d="M454.184 372.761C453.273 437.648 399.934 489.511 335.047 488.6C270.16 487.689 218.297 434.349 219.207 369.462C220.118 304.575 273.458 252.712 338.345 253.623C403.232 254.534 455.095 307.873 454.184 372.761Z" fill="#4C4C4C"/>
<path d="M783.054 384.377C782.329 436.011 739.884 477.281 688.25 476.556C636.617 475.831 595.347 433.386 596.072 381.753C596.797 330.119 639.242 288.85 690.875 289.574C742.509 290.299 783.778 332.744 783.054 384.377Z" fill="#BE9961"/>
<path d="M765.105 380.625C764.531 421.49 730.938 454.153 690.073 453.579C649.208 453.006 616.546 419.413 617.119 378.548C617.693 337.683 651.285 305.02 692.15 305.594C733.015 306.167 765.678 339.76 765.105 380.625Z" fill="#4C4C4C"/>
<path d="M430.117 377.423C429.392 429.057 386.947 470.326 335.313 469.602C283.68 468.877 242.41 426.432 243.135 374.799C243.86 323.165 286.305 281.895 337.938 282.62C389.572 283.345 430.841 325.79 430.117 377.423Z" fill="#BE9961"/>
<path d="M409.14 375.629C408.566 416.494 374.973 449.156 334.108 448.583C293.243 448.009 260.581 414.416 261.154 373.551C261.728 332.686 295.321 300.024 336.186 300.597C377.051 301.171 409.713 334.764 409.14 375.629Z" fill="#4C4C4C"/>
<path d="M688.993 245.544C687.636 342.184 608.194 419.427 511.554 418.07C414.914 416.714 337.671 337.272 339.027 240.631C340.384 143.991 419.826 66.7482 516.466 68.1047C613.106 69.4612 690.349 148.903 688.993 245.544Z" fill="#BE9961"/>
<path d="M123.098 376.614C122.036 452.27 59.8438 512.74 -15.8118 511.678C-91.4673 510.616 -151.937 448.424 -150.875 372.768C-149.814 297.113 -87.6217 236.643 -11.9661 237.705C63.6894 238.767 124.159 300.959 123.098 376.614Z" fill="#BE9961"/>
<path d="M103.121 374.834C102.21 439.721 48.8702 491.584 -16.0169 490.673C-80.904 489.762 -132.767 436.422 -131.856 371.535C-130.945 306.648 -77.6057 254.785 -12.7186 255.696C52.1685 256.607 104.031 309.946 103.121 374.834Z" fill="#4C4C4C"/>
<path d="M668.03 242.749C666.825 328.621 596.235 397.257 510.363 396.051C424.491 394.846 355.855 324.256 357.061 238.384C358.266 152.512 428.856 83.8767 514.728 85.082C600.6 86.2874 669.235 156.877 668.03 242.749Z" fill="#4C4C4C"/>
<path d="M1134.05 387.304C1133.32 438.938 1090.88 480.207 1039.24 479.482C987.611 478.758 946.341 436.313 947.066 384.679C947.79 333.046 990.235 291.776 1041.87 292.501C1093.5 293.226 1134.77 335.67 1134.05 387.304Z" fill="#BE9961"/>
<path d="M1480.01 392.16C1479.29 443.794 1436.84 485.063 1385.21 484.339C1333.58 483.614 1292.31 441.169 1293.03 389.536C1293.76 337.902 1336.2 296.632 1387.83 297.357C1439.47 298.082 1480.74 340.527 1480.01 392.16Z" fill="#BE9961"/>
<path d="M1115.04 387.537C1114.47 428.402 1080.88 461.065 1040.01 460.491C999.145 459.918 966.483 426.325 967.056 385.46C967.63 344.595 1001.22 311.932 1042.09 312.506C1082.95 313.08 1115.62 346.672 1115.04 387.537Z" fill="#4C4C4C"/>
<path d="M1038.96 250.456C1037.6 347.096 958.159 424.339 861.519 422.982C764.879 421.626 687.636 342.184 688.993 245.544C690.349 148.903 769.791 71.6605 866.431 73.017C963.072 74.3735 1040.31 153.816 1038.96 250.456Z" fill="#BE9961"/>
<path d="M1460.99 393.393C1460.42 434.258 1426.83 466.921 1385.96 466.347C1345.1 465.774 1312.43 432.181 1313.01 391.316C1313.58 350.451 1347.17 317.788 1388.04 318.362C1428.9 318.936 1461.57 352.528 1460.99 393.393Z" fill="#4C4C4C"/>
<path d="M1831.99 396.101C1831.27 447.734 1788.82 489.004 1737.19 488.279C1685.56 487.554 1644.29 445.11 1645.01 393.476C1645.74 341.843 1688.18 300.573 1739.81 301.298C1791.45 302.022 1832.72 344.467 1831.99 396.101Z" fill="#BE9961"/>
<path d="M1388.92 255.368C1387.57 352.009 1308.13 429.251 1211.48 427.895C1114.84 426.538 1037.6 347.096 1038.96 250.456C1040.31 153.816 1119.76 76.5728 1216.4 77.9293C1313.04 79.2858 1390.28 158.728 1388.92 255.368Z" fill="#BE9961"/>
<path d="M1813.04 392.334C1812.47 433.199 1778.88 465.862 1738.01 465.288C1697.15 464.715 1664.48 431.122 1665.06 390.257C1665.63 349.392 1699.22 316.729 1740.09 317.303C1780.95 317.877 1813.62 351.469 1813.04 392.334Z" fill="#4C4C4C"/>
<path d="M1018 247.661C1016.79 333.533 946.2 402.169 860.328 400.964C774.456 399.758 705.821 329.168 707.026 243.296C708.231 157.425 778.821 88.7889 864.693 89.9942C950.565 91.1996 1019.2 161.79 1018 247.661Z" fill="#4C4C4C"/>
<path d="M1738.89 260.281C1737.53 356.921 1658.09 434.164 1561.45 432.807C1464.81 431.451 1387.57 352.009 1388.92 255.368C1390.28 158.728 1469.72 81.4852 1566.36 82.8417C1663 84.1982 1740.25 163.64 1738.89 260.281Z" fill="#BE9961"/>
<path d="M1718.93 257.5C1717.72 343.372 1647.13 412.008 1561.26 410.802C1475.39 409.597 1406.75 339.007 1407.96 253.135C1409.16 167.263 1479.75 98.6276 1565.62 99.833C1651.5 101.038 1720.13 171.628 1718.93 257.5Z" fill="#4C4C4C"/>
<path d="M1368.96 252.588C1367.76 338.46 1297.17 407.095 1211.29 405.89C1125.42 404.685 1056.79 334.095 1057.99 248.223C1059.2 162.351 1129.79 93.7153 1215.66 94.9206C1301.53 96.126 1370.17 166.716 1368.96 252.588Z" fill="#4C4C4C"/>
<path d="M79.1507 372.497C78.426 424.13 35.9812 465.4 -15.6524 464.675C-67.2859 463.951 -108.556 421.506 -107.831 369.872C-107.106 318.239 -64.6613 276.969 -13.0278 277.694C38.6058 278.419 79.8755 320.863 79.1507 372.497Z" fill="#BE9961"/>
<path d="M64.1734 370.786C63.5998 411.652 30.0071 444.314 -10.8579 443.741C-51.723 443.167 -84.3856 409.574 -83.812 368.709C-83.2384 327.844 -49.6458 295.182 -8.78073 295.755C32.0843 296.329 64.747 329.921 64.1734 370.786Z" fill="#4C4C4C"/>
<path d="M339.027 240.631C337.671 337.272 258.229 414.514 161.588 413.158C64.9482 411.801 -12.2946 332.359 -10.9381 235.719C-9.58159 139.079 69.8605 61.8359 166.501 63.1924C263.141 64.5489 340.384 143.991 339.027 240.631Z" fill="#BE9961"/>
<path d="M320.064 237.865C318.859 323.737 248.269 392.372 162.397 391.167C76.5253 389.962 7.88952 319.372 9.09487 233.5C10.3002 147.628 80.8902 78.9924 166.762 80.1977C252.634 81.4031 321.27 151.993 320.064 237.865Z" fill="#4C4C4C"/>
<path d="M1700.91 258.747C1699.85 334.403 1637.65 394.873 1562 393.811C1486.34 392.749 1425.87 330.557 1426.93 254.902C1428 179.246 1490.19 118.776 1565.84 119.838C1641.5 120.9 1701.97 183.092 1700.91 258.747Z" fill="#BE9961"/>
<path d="M1350.98 250.835C1349.92 326.491 1287.73 386.961 1212.07 385.899C1136.42 384.837 1075.95 322.645 1077.01 246.99C1078.07 171.334 1140.26 110.864 1215.92 111.926C1291.58 112.988 1352.05 175.18 1350.98 250.835Z" fill="#BE9961"/>
<path d="M1000.02 245.909C998.956 321.564 936.765 382.035 861.109 380.973C785.454 379.911 724.983 317.719 726.045 242.063C727.107 166.408 789.299 105.938 864.955 107C940.61 108.062 1001.08 170.253 1000.02 245.909Z" fill="#BE9961"/>
<path d="M650.053 240.997C648.991 316.652 586.799 377.122 511.143 376.06C435.488 374.998 375.018 312.806 376.08 237.151C377.142 161.495 439.333 101.025 514.989 102.087C590.644 103.149 651.115 165.341 650.053 240.997Z" fill="#BE9961"/>
<path d="M300.087 236.084C299.025 311.74 236.834 372.21 161.178 371.148C85.5224 370.086 25.0523 307.894 26.1143 232.239C27.1762 156.583 89.3681 96.1131 165.024 97.175C240.679 98.237 301.149 160.429 300.087 236.084Z" fill="#BE9961"/>
<path d="M280.068 237.303C279.157 302.19 225.817 354.054 160.93 353.143C96.0433 352.232 44.1803 298.892 45.0911 234.005C46.0019 169.118 99.3416 117.255 164.229 118.166C229.116 119.077 280.979 172.416 280.068 237.303Z" fill="#4C4C4C"/>
<path d="M630.034 242.216C629.123 307.103 575.783 358.966 510.896 358.055C446.009 357.144 394.146 303.805 395.057 238.918C395.968 174.03 449.307 122.167 514.194 123.078C579.082 123.989 630.945 177.329 630.034 242.216Z" fill="#4C4C4C"/>
<path d="M981.999 247.156C981.088 312.043 927.749 363.906 862.862 362.995C797.974 362.085 746.111 308.745 747.022 243.858C747.933 178.971 801.273 127.108 866.16 128.019C931.047 128.929 982.91 182.269 981.999 247.156Z" fill="#4C4C4C"/>
<path d="M1331.96 252.068C1331.05 316.956 1277.71 368.819 1212.83 367.908C1147.94 366.997 1096.08 313.657 1096.99 248.77C1097.9 183.883 1151.24 132.02 1216.13 132.931C1281.01 133.842 1332.88 187.181 1331.96 252.068Z" fill="#4C4C4C"/>
<path d="M1680.93 256.967C1680.02 321.854 1626.68 373.717 1561.79 372.806C1496.91 371.895 1445.04 318.556 1445.95 253.668C1446.86 188.781 1500.2 136.918 1565.09 137.829C1629.98 138.74 1681.84 192.08 1680.93 256.967Z" fill="#4C4C4C"/>
<path d="M256 241.966C255.276 293.6 212.831 334.869 161.197 334.145C109.564 333.42 68.294 290.975 69.0188 239.341C69.7435 187.708 112.188 146.438 163.822 147.163C215.455 147.888 256.725 190.333 256 241.966Z" fill="#BE9961"/>
<path d="M605.966 246.878C605.241 298.512 562.796 339.782 511.163 339.057C459.529 338.332 418.259 295.887 418.984 244.254C419.709 192.62 462.154 151.351 513.787 152.075C565.421 152.8 606.69 195.245 605.966 246.878Z" fill="#BE9961"/>
<path d="M955.931 251.791C955.207 303.424 912.762 344.694 861.128 343.969C809.495 343.245 768.225 300.8 768.95 249.166C769.675 197.533 812.119 156.263 863.753 156.988C915.387 157.712 956.656 200.157 955.931 251.791Z" fill="#BE9961"/>
<path d="M1306.9 256.717C1306.17 308.351 1263.73 349.62 1212.09 348.896C1160.46 348.171 1119.19 305.726 1119.92 254.092C1120.64 202.459 1163.08 161.189 1214.72 161.914C1266.35 162.639 1307.62 205.084 1306.9 256.717Z" fill="#BE9961"/>
<path d="M1638.87 260.877C1638.3 301.742 1604.7 334.405 1563.84 333.831C1522.97 333.257 1490.31 299.665 1490.89 258.8C1491.46 217.935 1525.05 185.272 1565.92 185.845C1606.78 186.419 1639.44 220.012 1638.87 260.877Z" fill="#4C4C4C"/>
<path d="M1656.86 261.629C1656.14 313.263 1613.69 354.533 1562.06 353.808C1510.43 353.083 1469.16 310.638 1469.88 259.005C1470.61 207.371 1513.05 166.102 1564.68 166.826C1616.32 167.551 1657.59 209.996 1656.86 261.629Z" fill="#BE9961"/>
<path d="M1286.91 255.936C1286.33 296.802 1252.74 329.464 1211.87 328.891C1171.01 328.317 1138.35 294.724 1138.92 253.859C1139.49 212.994 1173.09 180.332 1213.95 180.905C1254.82 181.479 1287.48 215.071 1286.91 255.936Z" fill="#4C4C4C"/>
<path d="M1637.87 260.863C1637.3 301.728 1603.7 334.39 1562.84 333.817C1521.97 333.243 1489.31 299.651 1489.89 258.786C1490.46 217.921 1524.05 185.258 1564.92 185.831C1605.78 186.405 1638.44 219.998 1637.87 260.863Z" fill="#4C4C4C"/>
<path d="M235.009 241.171C234.436 282.036 200.843 314.699 159.978 314.125C119.113 313.552 86.4503 279.959 87.0239 239.094C87.5975 198.229 121.19 165.566 162.055 166.14C202.92 166.714 235.583 200.306 235.009 241.171Z" fill="#4C4C4C"/>
<path d="M586.975 246.112C586.401 286.977 552.808 319.64 511.943 319.066C471.078 318.492 438.416 284.9 438.989 244.035C439.563 203.17 473.155 170.507 514.021 171.08C554.886 171.654 587.548 205.247 586.975 246.112Z" fill="#4C4C4C"/>
<path d="M933.94 250.982C933.367 291.847 899.774 324.51 858.909 323.936C818.044 323.363 785.381 289.77 785.955 248.905C786.529 208.04 820.121 175.377 860.986 175.951C901.851 176.524 934.514 210.117 933.94 250.982Z" fill="#4C4C4C"/>
<path d="M1485.47 738V498.5H1535.97V516.5C1545.64 509.833 1556.14 505.167 1567.47 502.5C1579.14 499.5 1591.64 498 1604.97 498C1608.97 498 1613.31 498.333 1617.97 499C1622.97 499.333 1627.64 499.833 1631.97 500.5V519C1629.97 519 1627.81 519 1625.47 519C1623.47 518.667 1621.47 518.5 1619.47 518.5C1617.47 518.5 1615.31 518.5 1612.97 518.5C1610.97 518.5 1608.97 518.5 1606.97 518.5C1595.97 518.5 1584.81 519.333 1573.47 521C1562.47 522.333 1551.14 524.833 1539.47 528.5V738H1485.47Z" fill="#E1CD97"/>
<path d="M1319.14 741.5C1300.14 741.5 1283.14 738.667 1268.14 733C1253.47 727.333 1240.97 719.167 1230.64 708.5C1220.64 697.833 1212.97 685 1207.64 670C1202.31 654.667 1199.64 637.5 1199.64 618.5C1199.64 599.833 1202.31 583 1207.64 568C1212.97 552.667 1220.64 539.667 1230.64 529C1240.97 518 1253.47 509.667 1268.14 504C1283.14 498 1300.14 495 1319.14 495C1338.14 495 1354.97 498 1369.64 504C1384.31 509.667 1396.81 518 1407.14 529C1417.47 539.667 1425.31 552.667 1430.64 568C1435.97 583 1438.64 599.833 1438.64 618.5C1438.64 637.5 1435.97 654.5 1430.64 669.5C1425.31 684.5 1417.47 697.5 1407.14 708.5C1397.14 719.167 1384.64 727.333 1369.64 733C1354.97 738.667 1338.14 741.5 1319.14 741.5ZM1319.14 723C1330.81 723 1340.64 720.833 1348.64 716.5C1356.64 711.833 1363.14 705.167 1368.14 696.5C1373.47 687.5 1377.31 676.5 1379.64 663.5C1381.97 650.5 1383.14 635.5 1383.14 618.5C1383.14 601.167 1381.97 586 1379.64 573C1377.31 560 1373.47 549.167 1368.14 540.5C1363.14 531.5 1356.64 524.833 1348.64 520.5C1340.64 516.167 1330.81 514 1319.14 514C1307.81 514 1297.97 516.167 1289.64 520.5C1281.64 524.833 1274.97 531.5 1269.64 540.5C1264.64 549.167 1260.97 560 1258.64 573C1256.31 586 1255.14 601.167 1255.14 618.5C1255.14 635.5 1256.31 650.5 1258.64 663.5C1260.97 676.5 1264.64 687.5 1269.64 696.5C1274.97 705.167 1281.64 711.833 1289.64 716.5C1297.97 720.833 1307.81 723 1319.14 723Z" fill="#E1CD97"/>
<path d="M1100.81 738V719H1098.81V369H1152.81V738H1100.81ZM1031.81 741.5C1015.48 741.5 1000.64 739 987.309 734C973.975 728.667 962.309 720.833 952.309 710.5C942.642 700.167 935.142 687.333 929.809 672C924.475 656.667 921.809 638.833 921.809 618.5C921.809 597.833 924.475 579.833 929.809 564.5C935.142 549.167 942.809 536.333 952.809 526C962.809 515.667 974.475 508 987.809 503C1001.14 497.667 1015.81 495 1031.81 495C1041.81 495 1051.48 495.833 1060.81 497.5C1070.14 499.167 1078.98 501.833 1087.31 505.5C1095.98 508.833 1103.98 513.667 1111.31 520V717C1103.98 723 1095.98 727.833 1087.31 731.5C1078.98 734.833 1070.14 737.333 1060.81 739C1051.48 740.667 1041.81 741.5 1031.81 741.5ZM1052.81 720C1058.14 720 1063.31 719.667 1068.31 719C1073.64 718.333 1078.81 717.5 1083.81 716.5C1089.14 715.167 1094.14 713.667 1098.81 712V525C1091.48 522.333 1083.81 520.333 1075.81 519C1068.14 517.667 1060.48 517 1052.81 517C1040.48 517 1029.48 518.833 1019.81 522.5C1010.48 525.833 1002.64 531.5 996.309 539.5C989.975 547.167 985.142 557.5 981.809 570.5C978.809 583.167 977.309 599 977.309 618C977.309 637 978.809 653.167 981.809 666.5C985.142 679.5 989.975 690 996.309 698C1002.64 705.667 1010.48 711.333 1019.81 715C1029.48 718.333 1040.48 720 1052.81 720Z" fill="#E1CD97"/>
<path d="M655.395 738V498.5H707.395V516.5C713.395 512.5 720.395 508.833 728.395 505.5C736.728 502.167 745.728 499.667 755.395 498C765.061 496 775.061 495 785.395 495C799.395 495 811.895 496.667 822.895 500C834.228 503 843.895 508 851.895 515C859.895 521.667 865.895 530.667 869.895 542C874.228 553.333 876.395 567 876.395 583V738H822.395V583C822.395 567.333 820.395 554.833 816.395 545.5C812.395 536.167 805.895 529.5 796.895 525.5C788.228 521.167 776.228 519 760.895 519C750.895 519 741.728 519.833 733.395 521.5C725.395 523.167 717.395 525.333 709.395 528V738H655.395Z" fill="#E1CD97"/>
<path d="M489.062 741.5C470.062 741.5 453.062 738.667 438.062 733C423.396 727.333 410.896 719.167 400.562 708.5C390.562 697.833 382.896 685 377.562 670C372.229 654.667 369.562 637.5 369.562 618.5C369.562 599.833 372.229 583 377.562 568C382.896 552.667 390.562 539.667 400.562 529C410.896 518 423.396 509.667 438.062 504C453.062 498 470.062 495 489.062 495C508.062 495 524.896 498 539.562 504C554.229 509.667 566.729 518 577.062 529C587.396 539.667 595.229 552.667 600.562 568C605.896 583 608.562 599.833 608.562 618.5C608.562 637.5 605.896 654.5 600.562 669.5C595.229 684.5 587.396 697.5 577.062 708.5C567.062 719.167 554.562 727.333 539.562 733C524.896 738.667 508.062 741.5 489.062 741.5ZM489.062 723C500.729 723 510.562 720.833 518.562 716.5C526.562 711.833 533.062 705.167 538.062 696.5C543.396 687.5 547.229 676.5 549.562 663.5C551.896 650.5 553.062 635.5 553.062 618.5C553.062 601.167 551.896 586 549.562 573C547.229 560 543.396 549.167 538.062 540.5C533.062 531.5 526.562 524.833 518.562 520.5C510.562 516.167 500.729 514 489.062 514C477.729 514 467.896 516.167 459.562 520.5C451.562 524.833 444.896 531.5 439.562 540.5C434.562 549.167 430.896 560 428.562 573C426.229 586 425.062 601.167 425.062 618.5C425.062 635.5 426.229 650.5 428.562 663.5C430.896 676.5 434.562 687.5 439.562 696.5C444.896 705.167 451.562 711.833 459.562 716.5C467.896 720.833 477.729 723 489.062 723Z" fill="#E1CD97"/>
<path d="M264 741C235 741 209.333 737.5 187 730.5C164.667 723.167 145.833 712 130.5 697C115.167 681.667 103.5 662.167 95.5 638.5C87.8333 614.833 84 586.667 84 554C84 521.333 87.8333 493.167 95.5 469.5C103.5 445.833 115.167 426.333 130.5 411C145.833 395.667 164.667 384.333 187 377C209.333 369.667 235 366 264 366C273.333 366 282.833 366.5 292.5 367.5C302.167 368.167 311.833 369.167 321.5 370.5C331.167 371.833 340.667 373.5 350 375.5V393.5C338.667 391.5 327 390 315 389C303 387.667 291.167 387 279.5 387C253.833 387 232.167 390 214.5 396C196.833 401.667 182.667 411 172 424C161.667 437 154.167 454.167 149.5 475.5C144.833 496.5 142.5 522.333 142.5 553C142.5 583.667 144.833 609.667 149.5 631C154.167 652.333 161.667 669.5 172 682.5C182.667 695.5 196.833 705 214.5 711C232.167 717 253.833 720 279.5 720C292.167 720 304.167 719.333 315.5 718C326.833 716.667 338.333 715.167 350 713.5V731.5C340.333 733.5 330.667 735.167 321 736.5C311.667 737.833 302.167 738.833 292.5 739.5C283.167 740.5 273.667 741 264 741Z" fill="#E1CD97"/>
<path d="M514 142C514 238.65 435.65 317 339 317C242.35 317 164 238.65 164 142C164 45.3502 242.35 -33 339 -33C435.65 -33 514 45.3502 514 142Z" fill="#BE9961"/>
<path d="M495 139.5C495 225.38 425.38 295 339.5 295C253.62 295 184 225.38 184 139.5C184 53.6197 253.62 -16 339.5 -16C425.38 -16 495 53.6197 495 139.5Z" fill="#4C4C4C"/>
<path d="M862 142C862 238.65 783.65 317 687 317C590.35 317 512 238.65 512 142C512 45.3502 590.35 -33 687 -33C783.65 -33 862 45.3502 862 142Z" fill="#BE9961"/>
<path d="M843 139.5C843 225.38 773.38 295 687.5 295C601.62 295 532 225.38 532 139.5C532 53.6197 601.62 -16 687.5 -16C773.38 -16 843 53.6197 843 139.5Z" fill="#4C4C4C"/>
<path d="M1212 139C1212 235.65 1133.65 314 1037 314C940.35 314 862 235.65 862 139C862 42.3502 940.35 -36 1037 -36C1133.65 -36 1212 42.3502 1212 139Z" fill="#BE9961"/>
<path d="M1193 136.5C1193 222.38 1123.38 292 1037.5 292C951.62 292 882 222.38 882 136.5C882 50.6197 951.62 -19 1037.5 -19C1123.38 -19 1193 50.6197 1193 136.5Z" fill="#4C4C4C"/>
<path d="M1563 139C1563 235.65 1484.65 314 1388 314C1291.35 314 1213 235.65 1213 139C1213 42.3502 1291.35 -36 1388 -36C1484.65 -36 1563 42.3502 1563 139Z" fill="#BE9961"/>
<path d="M1544 136.5C1544 222.38 1474.38 292 1388.5 292C1302.62 292 1233 222.38 1233 136.5C1233 50.6197 1302.62 -19 1388.5 -19C1474.38 -19 1544 50.6197 1544 136.5Z" fill="#4C4C4C"/>
<path d="M1914 136C1914 232.65 1835.65 311 1739 311C1642.35 311 1564 232.65 1564 136C1564 39.3502 1642.35 -39 1739 -39C1835.65 -39 1914 39.3502 1914 136Z" fill="#BE9961"/>
<path d="M1895 133.5C1895 219.38 1825.38 289 1739.5 289C1653.62 289 1584 219.38 1584 133.5C1584 47.6197 1653.62 -22 1739.5 -22C1825.38 -22 1895 47.6197 1895 133.5Z" fill="#4C4C4C"/>
<path d="M163 142C163 238.65 84.6498 317 -12 317C-108.65 317 -187 238.65 -187 142C-187 45.3502 -108.65 -33 -12 -33C84.6498 -33 163 45.3502 163 142Z" fill="#BE9961"/>
<path d="M477 137C477 212.663 415.663 274 340 274C264.337 274 203 212.663 203 137C203 61.337 264.337 0 340 0C415.663 0 477 61.337 477 137Z" fill="#BE9961"/>
<path d="M1880 136C1880 211.663 1818.66 273 1743 273C1667.34 273 1606 211.663 1606 136C1606 60.337 1667.34 -1 1743 -1C1818.66 -1 1880 60.337 1880 136Z" fill="#BE9961"/>
<path d="M1177 137C1177 212.663 1115.66 274 1040 274C964.337 274 903 212.663 903 137C903 61.337 964.337 0 1040 0C1115.66 0 1177 61.337 1177 137Z" fill="#BE9961"/>
<path d="M1862 133.5C1862 198.393 1809.39 251 1744.5 251C1679.61 251 1627 198.393 1627 133.5C1627 68.6065 1679.61 16 1744.5 16C1809.39 16 1862 68.6065 1862 133.5Z" fill="#4C4C4C"/>
<path d="M1526 137C1526 212.663 1464.66 274 1389 274C1313.34 274 1252 212.663 1252 137C1252 61.337 1313.34 0 1389 0C1464.66 0 1526 61.337 1526 137Z" fill="#BE9961"/>
<path d="M827 142C827 217.663 765.663 279 690 279C614.337 279 553 217.663 553 142C553 66.337 614.337 5 690 5C765.663 5 827 66.337 827 142Z" fill="#BE9961"/>
<path d="M144 139.5C144 225.38 74.3803 295 -11.5 295C-97.3803 295 -167 225.38 -167 139.5C-167 53.6197 -97.3803 -16 -11.5 -16C74.3803 -16 144 53.6197 144 139.5Z" fill="#4C4C4C"/>
<path d="M1506 134.5C1506 199.393 1453.39 252 1388.5 252C1323.61 252 1271 199.393 1271 134.5C1271 69.6065 1323.61 17 1388.5 17C1453.39 17 1506 69.6065 1506 134.5Z" fill="#4C4C4C"/>
<path d="M1157 133.5C1157 198.393 1104.39 251 1039.5 251C974.607 251 922 198.393 922 133.5C922 68.6065 974.607 16 1039.5 16C1104.39 16 1157 68.6065 1157 133.5Z" fill="#4C4C4C"/>
<path d="M807 141.5C807 206.393 754.393 259 689.5 259C624.607 259 572 206.393 572 141.5C572 76.6065 624.607 24 689.5 24C754.393 24 807 76.6065 807 141.5Z" fill="#4C4C4C"/>
<path d="M455 133.5C455 198.393 402.393 251 337.5 251C272.607 251 220 198.393 220 133.5C220 68.6065 272.607 16 337.5 16C402.393 16 455 68.6065 455 133.5Z" fill="#4C4C4C"/>
<path d="M784 140.5C784 192.139 742.139 234 690.5 234C638.861 234 597 192.139 597 140.5C597 88.8614 638.861 47 690.5 47C742.139 47 784 88.8614 784 140.5Z" fill="#BE9961"/>
<path d="M766 137C766 177.869 732.869 211 692 211C651.131 211 618 177.869 618 137C618 96.1309 651.131 63 692 63C732.869 63 766 96.1309 766 137Z" fill="#4C4C4C"/>
<path d="M431 138.5C431 190.139 389.139 232 337.5 232C285.861 232 244 190.139 244 138.5C244 86.8614 285.861 45 337.5 45C389.139 45 431 86.8614 431 138.5Z" fill="#BE9961"/>
<path d="M410 137C410 177.869 376.869 211 336 211C295.131 211 262 177.869 262 137C262 96.1309 295.131 63 336 63C376.869 63 410 96.1309 410 137Z" fill="#4C4C4C"/>
<path d="M1135 138.5C1135 190.139 1093.14 232 1041.5 232C989.861 232 948 190.139 948 138.5C948 86.8614 989.861 45 1041.5 45C1093.14 45 1135 86.8614 1135 138.5Z" fill="#BE9961"/>
<path d="M1481 138.5C1481 190.139 1439.14 232 1387.5 232C1335.86 232 1294 190.139 1294 138.5C1294 86.8614 1335.86 45 1387.5 45C1439.14 45 1481 86.8614 1481 138.5Z" fill="#BE9961"/>
<path d="M1431.24 126.745L183 120.999L183.529 5.99996L1431.77 11.7465L1431.24 126.745Z" fill="#4C4C4C"/>
<path d="M1116 139C1116 179.869 1082.87 213 1042 213C1001.13 213 968 179.869 968 139C968 98.1309 1001.13 65 1042 65C1082.87 65 1116 98.1309 1116 139Z" fill="#4C4C4C"/>
<path d="M688 3C688 99.6498 609.65 178 513 178C416.35 178 338 99.6498 338 3C338 -93.6498 416.35 -172 513 -172C609.65 -172 688 -93.6498 688 3Z" fill="#BE9961"/>
<path d="M124 142C124 217.663 62.663 279 -13 279C-88.663 279 -150 217.663 -150 142C-150 66.337 -88.663 5 -13 5C62.663 5 124 66.337 124 142Z" fill="#BE9961"/>
<path d="M104 140.5C104 205.393 51.3935 258 -13.5 258C-78.3935 258 -131 205.393 -131 140.5C-131 75.6065 -78.3935 23 -13.5 23C51.3935 23 104 75.6065 104 140.5Z" fill="#4C4C4C"/>
<path d="M667 0.5C667 86.3803 597.38 156 511.5 156C425.62 156 356 86.3803 356 0.5C356 -85.3803 425.62 -155 511.5 -155C597.38 -155 667 -85.3803 667 0.5Z" fill="#4C4C4C"/>
<path d="M1038 3C1038 99.6498 959.65 178 863 178C766.35 178 688 99.6498 688 3C688 -93.6498 766.35 -172 863 -172C959.65 -172 1038 -93.6498 1038 3Z" fill="#BE9961"/>
<path d="M1462 140C1462 180.869 1428.87 214 1388 214C1347.13 214 1314 180.869 1314 140C1314 99.1309 1347.13 66 1388 66C1428.87 66 1462 99.1309 1462 140Z" fill="#4C4C4C"/>
<path d="M1833 137.5C1833 189.139 1791.14 231 1739.5 231C1687.86 231 1646 189.139 1646 137.5C1646 85.8614 1687.86 44 1739.5 44C1791.14 44 1833 85.8614 1833 137.5Z" fill="#BE9961"/>
<path d="M1388 3C1388 99.6498 1309.65 178 1213 178C1116.35 178 1038 99.6498 1038 3C1038 -93.6498 1116.35 -172 1213 -172C1309.65 -172 1388 -93.6498 1388 3Z" fill="#BE9961"/>
<path d="M1814 134C1814 174.869 1780.87 208 1740 208C1699.13 208 1666 174.869 1666 134C1666 93.1309 1699.13 60 1740 60C1780.87 60 1814 93.1309 1814 134Z" fill="#4C4C4C"/>
<path d="M1017 0.5C1017 86.3803 947.38 156 861.5 156C775.62 156 706 86.3803 706 0.5C706 -85.3803 775.62 -155 861.5 -155C947.38 -155 1017 -85.3803 1017 0.5Z" fill="#4C4C4C"/>
<path d="M1738 3C1738 99.6498 1659.65 178 1563 178C1466.35 178 1388 99.6498 1388 3C1388 -93.6498 1466.35 -172 1563 -172C1659.65 -172 1738 -93.6498 1738 3Z" fill="#BE9961"/>
<path d="M1718 0.5C1718 86.3803 1648.38 156 1562.5 156C1476.62 156 1407 86.3803 1407 0.5C1407 -85.3803 1476.62 -155 1562.5 -155C1648.38 -155 1718 -85.3803 1718 0.5Z" fill="#4C4C4C"/>
<path d="M1368 0.5C1368 86.3803 1298.38 156 1212.5 156C1126.62 156 1057 86.3803 1057 0.5C1057 -85.3803 1126.62 -155 1212.5 -155C1298.38 -155 1368 -85.3803 1368 0.5Z" fill="#4C4C4C"/>
<path d="M80 138.5C80 190.139 38.1386 232 -13.5 232C-65.1386 232 -107 190.139 -107 138.5C-107 86.8614 -65.1386 45 -13.5 45C38.1386 45 80 86.8614 80 138.5Z" fill="#BE9961"/>
<path d="M65 137C65 177.869 31.8691 211 -9 211C-49.8691 211 -83 177.869 -83 137C-83 96.1309 -49.8691 63 -9 63C31.8691 63 65 96.1309 65 137Z" fill="#4C4C4C"/>
<path d="M338 3C338 99.6498 259.65 178 163 178C66.3502 178 -12 99.6498 -12 3C-12 -93.6498 66.3502 -172 163 -172C259.65 -172 338 -93.6498 338 3Z" fill="#BE9961"/>
<path d="M319 0.5C319 86.3803 249.38 156 163.5 156C77.6197 156 8 86.3803 8 0.5C8 -85.3803 77.6197 -155 163.5 -155C249.38 -155 319 -85.3803 319 0.5Z" fill="#4C4C4C"/>
<path d="M1700 2C1700 77.663 1638.66 139 1563 139C1487.34 139 1426 77.663 1426 2C1426 -73.663 1487.34 -135 1563 -135C1638.66 -135 1700 -73.663 1700 2Z" fill="#BE9961"/>
<path d="M1350 -1C1350 74.663 1288.66 136 1213 136C1137.34 136 1076 74.663 1076 -1C1076 -76.663 1137.34 -138 1213 -138C1288.66 -138 1350 -76.663 1350 -1Z" fill="#BE9961"/>
<path d="M999 -1C999 74.663 937.663 136 862 136C786.337 136 725 74.663 725 -1C725 -76.663 786.337 -138 862 -138C937.663 -138 999 -76.663 999 -1Z" fill="#BE9961"/>
<path d="M649 -1C649 74.663 587.663 136 512 136C436.337 136 375 74.663 375 -1C375 -76.663 436.337 -138 512 -138C587.663 -138 649 -76.663 649 -1Z" fill="#BE9961"/>
<path d="M299 -1C299 74.663 237.663 136 162 136C86.337 136 25 74.663 25 -1C25 -76.663 86.337 -138 162 -138C237.663 -138 299 -76.663 299 -1Z" fill="#BE9961"/>
<path d="M279 0.5C279 65.3935 226.393 118 161.5 118C96.6065 118 44 65.3935 44 0.5C44 -64.3935 96.6065 -117 161.5 -117C226.393 -117 279 -64.3935 279 0.5Z" fill="#4C4C4C"/>
<path d="M629 0.5C629 65.3935 576.393 118 511.5 118C446.607 118 394 65.3935 394 0.5C394 -64.3935 446.607 -117 511.5 -117C576.393 -117 629 -64.3935 629 0.5Z" fill="#4C4C4C"/>
<path d="M981 0.5C981 65.3935 928.393 118 863.5 118C798.607 118 746 65.3935 746 0.5C746 -64.3935 798.607 -117 863.5 -117C928.393 -117 981 -64.3935 981 0.5Z" fill="#4C4C4C"/>
<path d="M1331 0.5C1331 65.3935 1278.39 118 1213.5 118C1148.61 118 1096 65.3935 1096 0.5C1096 -64.3935 1148.61 -117 1213.5 -117C1278.39 -117 1331 -64.3935 1331 0.5Z" fill="#4C4C4C"/>
<path d="M1680 0.5C1680 65.3935 1627.39 118 1562.5 118C1497.61 118 1445 65.3935 1445 0.5C1445 -64.3935 1497.61 -117 1562.5 -117C1627.39 -117 1680 -64.3935 1680 0.5Z" fill="#4C4C4C"/>
<path d="M255 5.5C255 57.1386 213.139 99 161.5 99C109.861 99 68 57.1386 68 5.5C68 -46.1386 109.861 -88 161.5 -88C213.139 -88 255 -46.1386 255 5.5Z" fill="#BE9961"/>
<path d="M605 5.5C605 57.1386 563.139 99 511.5 99C459.861 99 418 57.1386 418 5.5C418 -46.1386 459.861 -88 511.5 -88C563.139 -88 605 -46.1386 605 5.5Z" fill="#BE9961"/>
<path d="M955 5.5C955 57.1386 913.139 99 861.5 99C809.861 99 768 57.1386 768 5.5C768 -46.1386 809.861 -88 861.5 -88C913.139 -88 955 -46.1386 955 5.5Z" fill="#BE9961"/>
<path d="M1306 5.5C1306 57.1386 1264.14 99 1212.5 99C1160.86 99 1119 57.1386 1119 5.5C1119 -46.1386 1160.86 -88 1212.5 -88C1264.14 -88 1306 -46.1386 1306 5.5Z" fill="#BE9961"/>
<path d="M1638 5C1638 45.8691 1604.87 79 1564 79C1523.13 79 1490 45.8691 1490 5C1490 -35.8691 1523.13 -69 1564 -69C1604.87 -69 1638 -35.8691 1638 5Z" fill="#4C4C4C"/>
<path d="M1656 5.5C1656 57.1386 1614.14 99 1562.5 99C1510.86 99 1469 57.1386 1469 5.5C1469 -46.1386 1510.86 -88 1562.5 -88C1614.14 -88 1656 -46.1386 1656 5.5Z" fill="#BE9961"/>
<path d="M1286 5C1286 45.8691 1252.87 79 1212 79C1171.13 79 1138 45.8691 1138 5C1138 -35.8691 1171.13 -69 1212 -69C1252.87 -69 1286 -35.8691 1286 5Z" fill="#4C4C4C"/>
<path d="M1637 5C1637 45.8691 1603.87 79 1563 79C1522.13 79 1489 45.8691 1489 5C1489 -35.8691 1522.13 -69 1563 -69C1603.87 -69 1637 -35.8691 1637 5Z" fill="#4C4C4C"/>
<path d="M234 5C234 45.8691 200.869 79 160 79C119.131 79 86 45.8691 86 5C86 -35.8691 119.131 -69 160 -69C200.869 -69 234 -35.8691 234 5Z" fill="#4C4C4C"/>
<path d="M586 5C586 45.8691 552.869 79 512 79C471.131 79 438 45.8691 438 5C438 -35.8691 471.131 -69 512 -69C552.869 -69 586 -35.8691 586 5Z" fill="#4C4C4C"/>
<path d="M933 5C933 45.8691 899.869 79 859 79C818.131 79 785 45.8691 785 5C785 -35.8691 818.131 -69 859 -69C899.869 -69 933 -35.8691 933 5Z" fill="#4C4C4C"/>
</g>
<defs>
<clipPath id="clip0_66_2">
<rect width="1728" height="1109" fill="white"/>
</clipPath>
</defs>
</svg>
