<?xml version="1.0" encoding="UTF-8"?>
<svg id="Layer_1" data-name="Layer 1" xmlns="http://www.w3.org/2000/svg" viewBox="0 0 1034.7 1033.6">
  <defs>
    <style>
      .cls-1 {
        fill: none;
      }

      .cls-1, .cls-2, .cls-3, .cls-4 {
        stroke-width: 0px;
      }

      .cls-5 {
        stroke: #4c4c4c;
        stroke-width: 2px;
      }

      .cls-5, .cls-6, .cls-7 {
        stroke-miterlimit: 10;
      }

      .cls-5, .cls-2 {
        fill: #4c4c4c;
      }

      .cls-6 {
        stroke-width: 3px;
      }

      .cls-6, .cls-4, .cls-7 {
        fill: #be9961;
      }

      .cls-6, .cls-7 {
        stroke: #be9961;
      }

      .cls-3 {
        fill: #e1cd97;
      }

      .cls-7 {
        stroke-width: .75px;
      }
    </style>
  </defs>
  <rect class="cls-2" x="-.3" y="402" width="1035" height="631.6"/>
  <rect class="cls-2" x="150.5" width="884.2" height="29.5"/>
  <path class="cls-1" d="m689.6,6c1.6,0,3.1,0,4.7.1.4-2,.9-4.1,1.4-6.1h-10.2c.5,2,1,4,1.4,6h2.7Z"/>
  <path class="cls-1" d="m341.6,6h2.7c.4-2,.9-4,1.4-6h-10.2c.5,2,1,4,1.4,6.1,1.5-.1,3.1-.1,4.7-.1Z"/>
  <path class="cls-2" d="m170.3,461.9s0,.1,0,0q0,.1,0,0c-1.6.1-3.1.2-4.7.2h-3.7v-.1h3.7c1.6,0,3.1,0,4.7-.1Z"/>
  <path class="cls-2" d="m170.3,462c7,33.5,23.5,63.4,46.7,86.9-23.2-23.5-39.7-53.4-46.7-86.9Z"/>
  <path class="cls-2" d="m239.2,567.9c24.8,17.9,54.5,29.5,86.7,32.4-32.2-2.8-61.8-14.4-86.7-32.4Z"/>
  <path class="cls-4" d="m512.9,462c-16.6,79.4-87,139-171.3,139-5.3,0-10.5-.2-15.7-.7-32.2-2.8-61.9-14.4-86.7-32.4-3-2.1-5.9-4.4-8.7-6.7-4.7-3.9-9.2-8-13.5-12.3-23.1-23.4-39.7-53.4-46.7-86.9v-.1c7-.2,13.9-.8,20.6-1.8v.1c3.1,12.8,7.8,24.9,13.8,36.2v.1c.9,1.7,1.9,3.4,2.8,5.1.6,1.1,1.3,2.2,1.9,3.2.6,1,1.2,2,1.9,3,.5.8,1,1.5,1.5,2.2.1.2.3.4.4.6.6.9,1.2,1.7,1.8,2.6h0c8.5,12,18.6,22.7,30.1,31.8,14.9,11.9,32.1,21.1,50.8,26.9q.1,0,.2.1c1.4.4,2.8.8,4.2,1.2.3.1.5.1.8.2,1.2.3,2.5.7,3.7,1,.3.1.7.2,1,.2,1.2.3,2.5.6,3.7.8.3.1.7.1,1,.2,1.5.3,3.1.6,4.7.9,2.2.4,4.4.7,6.6,1,1.1.2,2.2.3,3.3.4,2.2.2,4.5.4,6.7.6,3.4.2,6.8.3,10.2.3,11.4,0,22.6-1.2,33.3-3.6,53.6-11.7,96.9-51.1,114.1-102.3,1.4-4.1,2.6-8.3,3.6-12.5,6.6,1,13.2,1.5,19.9,1.6Z"/>
  <path class="cls-2" d="m342.6,558c-63.5,0-116.8-43.2-132.4-101.7h0c-6.3,1.6-12.7,3-19.2,3.9,16.4,68.2,77.8,118.8,151.1,118.8s134.4-50.4,151-118.4c-6.2-.8-12.4-1.9-18.4-3.4-15.8,58.1-69,100.8-132.1,100.8Z"/>
  <path class="cls-4" d="m860.9,461.9c-16.6,79.4-87,139.1-171.3,139.1s-154.7-59.6-171.3-139c7-.1,13.9-.6,20.7-1.5,16.6,68,77.9,118.5,151.1,118.5s134.6-50.6,151.1-118.7c6.5.9,13,1.5,19.7,1.6Z"/>
  <path class="cls-2" d="m692.6,563c-65.2,0-119.7-45.5-133.6-106.4-6.5,1.7-13.2,3-20,3.9,16.6,68,77.9,118.5,151.1,118.5s134.6-50.6,151.1-118.7c-5.2-.7-10.2-1.7-15.2-2.8-14.3,60.5-68.6,105.5-133.4,105.5Z"/>
  <path class="cls-4" d="m1034.7,576v21.9c-2.3-.1-4.6-.2-6.8-.3-1.1-.1-2.2-.2-3.4-.2-16.7-1.4-32.7-5.2-47.7-11-1.1-.4-2.2-.9-3.3-1.3-8-3.2-15.6-7.1-22.9-11.4-1-.6-2.1-1.2-3.1-1.9-.5-.3-1.1-.7-1.6-1-1-.6-2-1.3-3-2h0c-.9-.6-1.8-1.2-2.8-1.9-4.8-3.3-9.4-6.9-13.8-10.6-1.6-1.4-3.2-2.8-4.8-4.2h0c-1.8-1.6-3.5-3.3-5.2-5l-2.6-2.6c-5.9-6.1-11.3-12.6-16.2-19.4-6.3-8.8-11.9-18.2-16.5-28.2-.5-1.1-1-2.2-1.5-3.4-2-4.5-3.8-9-5.4-13.7-2-5.8-3.7-11.8-5.1-17.9,7-.1,14-.7,20.8-1.6,17.2,65,75.2,113.3,144.9,115.7Z"/>
  <path class="cls-2" d="m1034.7,557.8v18.2c-69.7-2.4-127.7-50.7-144.9-115.6,6.9-1,13.7-2.3,20.4-4.1.7,2.7,1.5,5.5,2.4,8.1h0c.6,1.7,1.1,3.3,1.8,5,.7,1.8,1.4,3.5,2.1,5.3.4.9.8,1.7,1.1,2.6.8,1.7,1.6,3.4,2.4,5.1.4.8.8,1.7,1.3,2.5.9,1.7,1.8,3.3,2.7,4.9h0c.4.7.8,1.4,1.2,2.1.5.9,1.1,1.7,1.6,2.6,1.1,1.7,2.2,3.4,3.4,5,.6.8,1.2,1.7,1.8,2.5,1,1.3,1.9,2.6,2.9,3.8,9.7,12.3,21.4,22.8,34.7,31.2,1.4.9,2.8,1.7,4.2,2.5,8.2,4.8,16.9,8.7,26,11.7,1.5.5,3.1,1,4.6,1.4,1.4.4,2.8.8,4.2,1.1,3.3.9,6.7,1.6,10.1,2.2,1.2.2,2.4.4,3.6.6,1.8.3,3.6.5,5.4.7,2.5.3,4.7.4,7,.6Z"/>
  <path class="cls-4" d="m161.9,462s0,.1,0,0c-1,4.8-2.2,9.5-3.6,14.1-20.4,68.2-81.2,118.9-154.7,124.5-1.2.1-2.5.2-3.7.2v-22c69.2-3.9,126.3-53,142.3-118.2v-.1c6.4.8,13,1.3,19.7,1.5Z"/>
  <path class="cls-4" d="m340.1,535c-53.3,0-98.4-35.5-112.7-84.2-5.6,2.1-11.3,4-17.2,5.5,15.5,58.5,68.9,101.7,132.4,101.7s116.3-42.7,132.2-100.8c-7.5-1.8-14.8-4.1-21.8-6.8-14.3,48.9-59.5,84.6-112.9,84.6Z"/>
  <path class="cls-4" d="m1034.7,534.8v23c-2.3-.1-4.5-.3-6.8-.6-1.8-.2-3.6-.4-5.4-.7-1.2-.2-2.4-.4-3.6-.6-3.4-.6-6.8-1.3-10.1-2.2-1.4-.3-2.8-.7-4.2-1.1-1.5-.4-3.1-.9-4.6-1.4-9.1-3-17.8-6.9-26-11.7-1.4-.8-2.8-1.7-4.2-2.5-13.3-8.4-25-18.9-34.7-31.2-1-1.3-2-2.5-2.9-3.8-.6-.8-1.2-1.6-1.8-2.5-1.2-1.6-2.3-3.3-3.4-5-.5-.9-1.1-1.7-1.6-2.6-.4-.7-.8-1.4-1.2-2.1h0c-.9-1.6-1.8-3.3-2.7-4.9-.4-.8-.9-1.7-1.3-2.5-.8-1.7-1.7-3.4-2.4-5.1-.4-.9-.8-1.7-1.1-2.6-.7-1.7-1.5-3.5-2.1-5.3-.6-1.6-1.2-3.3-1.8-5h0c-.9-2.7-1.7-5.4-2.4-8.1,6.5-1.7,12.8-3.8,19-6.2,13.2,46.7,55,81.5,105.3,84.7Z"/>
  <path class="cls-4" d="m692.1,543c-56.2,0-103.2-39.5-114.8-92.2-6,2.2-12.1,4.2-18.3,5.8,13.9,60.9,68.4,106.4,133.6,106.4s119.1-45,133.4-105.5c-6.6-1.5-13-3.4-19.3-5.7-12,52.2-58.8,91.2-114.6,91.2Z"/>
  <path class="cls-2" d="m142.2,460.4c-6.5-.9-12.8-2.1-19.1-3.6-13.2,57.6-62.8,101.3-123.2,105.8v16.1c69.2-3.8,126.4-53,142.3-118.3Z"/>
  <path class="cls-2" d="m1034.7,515.5v19.2c-50.3-3.1-92-38-105.5-84.7,7.9-3.1,15.6-6.7,22.9-10.9,7.3,40.8,40.9,72.3,82.6,76.4Z"/>
  <path class="cls-2" d="m693.1,518c-46.4,0-84.9-33.8-92.2-78.2-7.5,4.2-15.4,7.9-23.5,10.9,11.5,52.8,58.5,92.3,114.7,92.3s102.6-39,114.5-91.2c-7.5-2.7-14.8-5.9-21.7-9.5-8.3,43.1-46.3,75.7-91.8,75.7Z"/>
  <path class="cls-2" d="m340.1,516c-45.2,0-83-32.1-91.6-74.8-6.8,3.6-13.8,6.8-21.1,9.6h0c14.3,48.7,59.4,84.2,112.7,84.2s98.6-35.7,112.8-84.6c-7.3-2.8-14.3-6-21.1-9.7-8.5,42.9-46.3,75.3-91.7,75.3Z"/>
  <path class="cls-4" d="m694.6,495c-38.9,0-70.8-30-73.8-68.2-6.3,4.8-13,9.1-20,13,7.3,44.3,45.8,78.2,92.2,78.2s83.5-32.6,91.8-75.7c-5.9-3.1-11.6-6.5-17.1-10.2-5.3,35.6-36,62.9-73.1,62.9Z"/>
  <path class="cls-2" d="m676.7,355.5c-12.1,28.4-31.5,52.9-55.8,71.3,3,38.1,34.8,68.2,73.8,68.2s67.8-27.3,73.2-62.9c-27.9-18.8-50-45.5-63.3-76.8-4.9.4-9.9.6-14.9.6-4.5.1-8.8-.1-13-.4Z"/>
  <path class="cls-4" d="m338.6,495c-37.5,0-68.5-27.9-73.3-64.1h0c-5.4,3.7-11,7.2-16.8,10.3h0c8.7,42.7,46.4,74.8,91.6,74.8s83.3-32.4,91.7-75.3c-6.8-3.7-13.4-7.9-19.6-12.5-3.6,37.5-35.2,66.8-73.6,66.8Z"/>
  <path class="cls-2" d="m326.7,355.4h0c-13,30.6-34.5,56.8-61.5,75.5,4.8,36.2,35.8,64.1,73.3,64.1s70-29.3,73.6-66.8c-25.2-18.5-45.3-43.6-57.7-72.7-4.3.3-8.6.5-12.9.5-4.9,0-9.9-.2-14.8-.6Z"/>
  <path class="cls-4" d="m676.7,355.5c-12.1,28.4-31.5,52.9-55.8,71.3-6.3,4.8-13,9.1-20,13-7.5,4.2-15.4,7.9-23.5,10.9-6,2.2-12.1,4.2-18.3,5.8-6.5,1.7-13.2,3-20,3.9s-13.7,1.4-20.7,1.5h-5.4c-6.7-.1-13.3-.6-19.8-1.4-6.2-.8-12.4-1.9-18.4-3.4-7.5-1.8-14.8-4.1-21.8-6.8-7.3-2.8-14.3-6-21.1-9.8-6.8-3.7-13.4-7.9-19.6-12.5-25.2-18.5-45.3-43.6-57.7-72.7,6.8-.5,13.4-1.4,19.9-2.6,25.3,51.6,78.3,87.1,139.7,87.1s114.7-35.8,139.9-87.6c7.3,1.7,14.9,2.8,22.6,3.3Z"/>
  <path class="cls-4" d="m123.1,456.8c-6.7-1.7-13.1-3.7-19.5-6.1-11.1,48.9-52.7,86.1-103.7,90.8v21.1c60.4-4.5,110-48.2,123.2-105.8Z"/>
  <path class="cls-2" d="m103.6,450.7c-7.9-3-15.5-6.5-22.7-10.5-7.6,39.7-40.3,70.5-81,75.2v26.1c51-4.7,92.6-41.9,103.7-90.8Z"/>
  <path class="cls-2" d="m635.5,347.5c-23.1,43.1-68.6,72.5-120.9,72.5s-97.5-29.1-120.6-72c-6.4,2-12.9,3.6-19.6,4.9,25.3,51.6,78.3,87.1,139.7,87.1s114.7-35.8,139.9-87.6c-6.3-1.3-12.5-3-18.5-4.9Z"/>
  <path class="cls-4" d="m1034.7,496.3v19.1c-41.6-4.2-75.2-35.6-82.6-76.3,5.7-3.2,11.2-6.7,16.4-10.5.8-.5,1.5-1.1,2.2-1.7.2,3.7.6,7.3,1.3,10.8.1.4.2.8.3,1.2.2.8.4,1.6.6,2.4.1.4.2.8.3,1.2.2.8.4,1.6.7,2.4h0c3.4,11,9.3,20.9,17,29,.5.5,1,1.1,1.6,1.6,1.3,1.3,2.7,2.6,4.2,3.8.5.4,1,.9,1.6,1.3.9.8,1.9,1.5,2.9,2.2s2.1,1.5,3.1,2.2,2.1,1.4,3.2,2c1.1.6,2.2,1.2,3.3,1.8.6.3,1.1.6,1.7.8,2.9,1.4,6,2.7,9.1,3.7.6.2,1.1.4,1.7.5.4.1.9.2,1.3.4.9.2,1.7.5,2.6.7.4.1.9.2,1.3.3.6.1,1.2.2,1.8.4,1.2.2,2.3.4,3.5.6.2,0,.5.1.9.1Z"/>
  <path class="cls-2" d="m1034.7,352.9v143.4c-.3,0-.7-.1-1-.1-1.2-.2-2.4-.4-3.5-.6-.6-.1-1.2-.2-1.8-.4-.4-.1-.9-.2-1.3-.3-.9-.2-1.7-.4-2.6-.7-.4-.1-.9-.2-1.3-.4-.6-.2-1.1-.3-1.7-.5-3.1-1-6.2-2.2-9.1-3.7-.6-.3-1.1-.6-1.7-.8-1.1-.6-2.2-1.2-3.3-1.8-1.1-.6-2.2-1.3-3.2-2-1.1-.7-2.1-1.4-3.1-2.2-1-.7-1.9-1.4-2.9-2.2-.5-.4-1.1-.9-1.6-1.3-1.4-1.2-2.8-2.5-4.2-3.8-.5-.5-1-1.1-1.6-1.6-7.7-8.1-13.6-18-17-29h0c-.2-.8-.5-1.6-.7-2.4-.1-.4-.2-.8-.3-1.2-.2-.8-.4-1.6-.6-2.4-.1-.4-.2-.8-.3-1.2-.7-3.5-1.1-7.1-1.3-10.8.6-.4,1.2-.9,1.8-1.4,12.4-9.5,23.4-20.7,32.8-33.1.6-.8,1.2-1.7,1.9-2.5.7-.9,1.3-1.8,2-2.8.2-.3.4-.6.6-.9.2-.3.4-.6.6-.9.4-.6.8-1.2,1.2-1.8.9-1.3,1.7-2.6,2.5-4,.3-.4.5-.8.8-1.3.1-.1.2-.2.2-.4.3-.4.5-.9.8-1.3.4-.7.9-1.4,1.3-2.2.1-.1.2-.3.2-.4,1-1.7,1.9-3.5,2.9-5.2.3-.6.6-1.2,1-1.9.2-.4.5-.9.7-1.3h0c.1-.1.1-.2.2-.3.7-1.4,1.4-2.7,2-4.1.3-.7.6-1.4.9-2.1.2-.5.5-1,.7-1.6.7-1.6,1.4-3.3,2.1-4.9h1.4c.5,0,1,.1,1.5.1h1.3c.6,0,1.1,0,1.7.1.3.2.6.2,1,.2Z"/>
  <path class="cls-4" d="m1027.9,352.6c-12,29.7-31.9,55.4-57.2,74.3-5.9,4.5-12.2,8.5-18.6,12.2-7.3,4.2-15,7.8-22.9,10.9-6.2,2.4-12.5,4.5-19,6.2-6.7,1.8-13.5,3.1-20.4,4.1-6.8.9-13.8,1.5-20.8,1.6h-3.4c-1.6,0-3.1,0-4.7-.1-6.7-.2-13.2-.7-19.7-1.6-5.2-.7-10.2-1.6-15.2-2.8-6.6-1.5-13-3.4-19.3-5.7-7.5-2.7-14.8-5.9-21.7-9.5-5.9-3.1-11.6-6.5-17.1-10.2-27.9-18.8-50-45.5-63.3-76.8,6.7-.6,13.3-1.5,19.8-2.8,25.2,51.8,78.4,87.4,139.8,87.4s116.6-37,141.2-90.4c7.3,1.7,14.8,2.7,22.5,3.2Z"/>
  <path class="cls-2" d="m986.8,344.9c-22.6,44.6-68.9,75.1-122.2,75.1s-97.8-29.4-120.9-72.5c-6.3,2.1-12.8,3.8-19.4,5.1,25.2,51.8,78.4,87.4,139.8,87.4s116.6-37,141.2-90.4c-6.3-1.2-12.4-2.8-18.5-4.7Z"/>
  <path class="cls-4" d="m80.9,440.2c-4.8-2.7-9.5-5.6-14.1-8.7-4.8,33.8-32.5,60.3-66.8,63.2h-.1v20.6c40.7-4.6,73.4-35.4,81-75.1Z"/>
  <path class="cls-2" d="m66.8,431.5c-27.4-18.8-49.2-45.1-62.4-76-1.3.1-2.6.2-3.8.3H-.1v139h.1c34.4-3,62-29.5,66.8-63.3Z"/>
  <path class="cls-4" d="m326.7,355.4s0,.1,0,0c-13,30.7-34.5,56.8-61.5,75.5-5.4,3.7-11,7.2-16.8,10.3-3.4,1.8-6.8,3.5-10.3,5.1-.9.4-1.8.8-2.6,1.2-1.3.6-2.6,1.1-4,1.7s-2.8,1.1-4.2,1.6c-5.6,2.1-11.3,4-17.2,5.5-6.3,1.6-12.7,3-19.2,3.9h0c-6.8,1-13.7,1.6-20.6,1.8h0c-1.6,0-3.1.1-4.7.1h-3.7c-6.7-.1-13.2-.7-19.7-1.5h0c-6.5-.9-12.8-2.1-19-3.6h0c-6.7-1.7-13.1-3.7-19.5-6.1h0c-7.9-3-15.5-6.5-22.7-10.5h0c-4.8-2.7-9.5-5.6-14.1-8.7h0c-27.4-18.8-49.2-45.1-62.4-76h.1c4.6-.5,9.1-1.1,13.5-1.8,1.6-.3,3.3-.6,4.9-.9,1.1-.2,2.2-.4,3.3-.7v.1c25.2,51.9,78.4,87.5,139.9,87.5,40.4,0,77.1-15.4,104.8-40.7,3.9-3.6,7.6-7.3,11.2-11.3,9.5-10.6,17.6-22.5,23.9-35.5,0-.1.1-.1.1-.2,6.6,1.6,13.5,2.6,20.5,3.2Z"/>
  <path class="cls-2" d="m164.6,420c-52.2,0-97.6-29.2-120.8-72.2-5.8,1.8-11.7,3.4-17.7,4.6,25.2,51.9,78.4,87.6,139.9,87.6s114.7-35.8,139.9-87.6c-6.9-1.4-13.7-3.3-20.2-5.5-22.9,43.5-68.5,73.1-121.1,73.1Z"/>
  <path class="cls-4" d="m864.6,420c53.4,0,99.6-30.5,122.2-75.1-5.6-1.8-11.1-3.8-16.5-6.1-19.6,37.6-58.9,63.2-104.2,63.2s-83.7-25.1-103.5-61.9c-6.1,2.8-12.4,5.3-18.9,7.4,23,43.1,68.5,72.5,120.9,72.5Z"/>
  <path class="cls-4" d="m514.6,420c52.4,0,97.8-29.4,120.9-72.5-6.2-2-12.2-4.3-18.1-7-19.9,36.6-58.7,61.5-103.3,61.5s-82.7-24.4-102.7-60.5c-5.6,2.5-11.4,4.6-17.4,6.5,23.1,42.9,68.4,72,120.6,72Z"/>
  <path class="cls-4" d="m164.6,420c52.6,0,98.2-29.6,121.2-73.1-6.2-2.1-12.1-4.5-18-7.2-19.8,37.1-58.8,62.3-103.7,62.3s-82.9-24.6-102.9-60.8c-5.3,2.3-10.7,4.4-16.3,6.2-.3.1-.7.2-1,.3h0c23,43.1,68.4,72.3,120.7,72.3Z"/>
  <path class="cls-2" d="m164.1,402c44.9,0,84-25.2,103.7-62.3-6.6-3.1-13-6.6-19.1-10.4-15,31.7-47.2,53.7-84.6,53.7s-68.4-21.1-83.7-51.8c-3.9,2.3-7.9,4.5-12,6.6-2.4,1.2-4.8,2.3-7.2,3.4h0c19.9,36.2,58.5,60.8,102.9,60.8Z"/>
  <path class="cls-2" d="m514.1,402c44.6,0,83.4-24.9,103.3-61.5-6.6-3-13-6.4-19.2-10.2-15.2,31.2-47.1,52.7-84.2,52.7s-68-20.9-83.5-51.3c-6.2,3.7-12.6,7-19.3,9.9,20.2,36,58.7,60.4,102.9,60.4Z"/>
  <path class="cls-2" d="m866.1,402c45.3,0,84.6-25.7,104.2-63.2-7.3-3.1-14.3-6.7-21-10.8-14.7,32.5-47.3,55-85.3,55s-68.7-21.3-83.9-52.2c-5.7,3.4-11.5,6.6-17.6,9.3,19.9,36.8,58.8,61.9,103.6,61.9Z"/>
  <path class="cls-4" d="m164.1,383c37.4,0,69.7-22,84.6-53.7-6.1-3.8-12-8-17.5-12.6-11,27.1-37.5,46.2-68.6,46.2-29.5,0-54.9-17.2-66.8-42.1h0c-3.4,2.5-6.8,5-10.4,7.2-1.7,1.1-3.3,2.1-5,3.1h0c15.3,30.8,47,51.9,83.7,51.9Z"/>
  <path class="cls-4" d="m514.1,383c37,0,69-21.5,84.2-52.7-5.6-3.4-10.9-7.1-16.1-11.1-11.6,25.8-37.5,43.8-67.6,43.8s-55.3-17.5-67.1-42.7c-5.4,4.1-11,7.9-16.9,11.4,15.4,30.4,47,51.3,83.5,51.3Z"/>
  <path class="cls-4" d="m864.1,383c37.9,0,70.6-22.6,85.3-55-6.5-3.9-12.6-8.2-18.5-12.9-10.6,28-37.6,47.9-69.2,47.9-29.5,0-54.9-17.2-66.8-42.1-4.7,3.5-9.6,6.8-14.6,9.9,15.1,30.9,47,52.2,83.8,52.2Z"/>
  <path class="cls-2" d="m102.8,315.3c-2.3,1.9-4.6,3.8-7,5.5,11.9,24.9,37.3,42.1,66.8,42.1,31,0,57.6-19.1,68.6-46.2-30.6-24.9-52.5-59.8-60.9-99.8-1.6,0-3.1.1-4.7.1h-3.7c-6.9,33.3-23.4,63.1-46.3,86.5-4.1,4.2-8.4,8.1-12.8,11.8Z"/>
  <path class="cls-2" d="m447.5,320.3c11.8,25.2,37.4,42.7,67.1,42.7s56-18,67.6-43.9c-32.1-25-55.2-60.9-63.9-102.2h-5.4c-8.8,42-32.5,78.4-65.4,103.4Z"/>
  <path class="cls-2" d="m794.8,320.9c11.9,24.9,37.3,42.1,66.8,42.1,31.7,0,58.7-19.9,69.2-47.9-30.6-24.3-52.9-58.7-61.9-98.1h-3.4c-1.6,0-3.1,0-4.7-.1-8.7,42.3-32.8,78.9-66,104Z"/>
  <path class="cls-4" d="m344.3,6h-2.7c-1.6,0-3.1,0-4.7.1h0c1.2,5.6,2.1,11.2,2.7,16.9h2c.6-5.7,1.5-11.4,2.7-17Z"/>
  <path class="cls-4" d="m231.2,316.8c5.6,4.5,11.4,8.7,17.5,12.6,6.1,3.8,12.5,7.3,19.1,10.4,5.8,2.7,11.8,5.1,18,7.2,6.6,2.2,13.3,4,20.2,5.5,6.8,1.4,13.7,2.4,20.7,3,4.9.4,9.8.6,14.9.6,4.3,0,8.7-.2,12.9-.5,6.7-.5,13.4-1.4,19.9-2.6,6.7-1.3,13.2-2.9,19.6-4.9,5.9-1.9,11.7-4,17.4-6.5,6.7-2.9,13.1-6.2,19.3-9.9,5.9-3.5,11.5-7.3,16.9-11.4,32.9-25,56.6-61.4,65.4-103.3-6.7-.1-13.3-.6-19.8-1.4-16.6,68-77.9,118.4-151,118.4s-134.7-50.6-151.1-118.8h0c-4.3.6-8.7,1.1-13.1,1.4h0c-2.5.2-5,.3-7.5.4h0c8.1,39.9,30.1,74.9,60.7,99.8Z"/>
  <path class="cls-2" d="m341.6,23h-2c.5,4.8.8,9.6,1,14.5v1.4h.1c0-5.3.3-10.6.9-15.9Z"/>
  <path class="cls-2" d="m342.1,334c73.1,0,134.4-50.4,151-118.4-6.2-.8-12.4-1.9-18.4-3.4-15.8,58.1-69,100.8-132.1,100.8s-116.8-43.2-132.4-101.7h0c-6.3,1.6-12.7,3-19.2,3.9,16.4,68.2,77.8,118.8,151.1,118.8Z"/>
  <path class="cls-4" d="m691.6,23c.6-5.7,1.5-11.4,2.7-17-1.6,0-3.1-.1-4.7-.1h-2.7c1.2,5.6,2.1,11.2,2.7,17h.5c.5.1,1,.1,1.5.1Z"/>
  <path class="cls-4" d="m582.2,319.1c5.1,4,10.5,7.7,16.1,11.1,6.2,3.8,12.6,7.2,19.2,10.2,5.9,2.7,11.9,5,18.1,7,6,2,12.2,3.6,18.5,4.9,7.4,1.5,14.9,2.6,22.6,3.1,4.3.3,8.6.5,12.9.5,5,0,10-.2,14.9-.6,6.7-.6,13.3-1.5,19.8-2.8,6.6-1.3,13.1-3,19.4-5.1,6.5-2.1,12.8-4.6,18.9-7.4,6.1-2.8,11.9-5.9,17.6-9.3,5-3.1,9.9-6.4,14.6-9.9,33.3-25.1,57.3-61.7,66.1-103.9-6.7-.2-13.2-.7-19.7-1.6-16.5,68.1-77.9,118.7-151.1,118.7s-134.5-50.5-151.1-118.6c-6.8.9-13.7,1.4-20.7,1.5,8.6,41.3,31.8,77.3,63.9,102.2Z"/>
  <path class="cls-2" d="m691.6,23h-2c.7,6.2,1,12.6,1,19,0-6.4.3-12.7,1-19Z"/>
  <path class="cls-2" d="m690.6,42v2h.1c-.1-.7-.1-1.3-.1-2Z"/>
  <path class="cls-2" d="m690.1,334c73.2,0,134.6-50.6,151.1-118.7-5.2-.7-10.2-1.7-15.2-2.8-14.3,60.5-68.6,105.5-133.4,105.5s-119.7-45.5-133.6-106.4c-6.5,1.7-13.2,3-20,3.9,16.6,68,77.9,118.5,151.1,118.5Z"/>
  <path class="cls-4" d="m1034.7,330.9v22h-1c-.6,0-1.1,0-1.7-.1h-1.3c-.5,0-1-.1-1.5-.1h-1.5c-.9-.1-1.9-.1-2.8-.2s-1.9-.2-2.9-.3h0c-5.7-.6-11.3-1.4-16.8-2.5h0c-1.6-.3-3.1-.6-4.7-1-.2,0-.3-.1-.5-.1-.1,0-.2,0-.4-.1-.5-.1-1-.2-1.4-.3-.2,0-.4-.1-.6-.1-.6-.1-1.1-.3-1.7-.4-.9-.2-1.8-.5-2.7-.7-1.4-.4-2.9-.8-4.3-1.2-.8-.2-1.5-.5-2.3-.7-4.9-1.5-9.7-3.3-14.5-5.2-.7-.3-1.4-.6-2-.9-1.5-.7-3.1-1.3-4.6-2-.5-.2-.9-.4-1.4-.7-1.4-.7-2.9-1.4-4.3-2.1-.3-.1-.6-.3-.9-.5-.3-.1-.6-.3-.9-.5-.2-.1-.3-.2-.5-.2-.4-.2-.9-.5-1.3-.7h0c-.7-.4-1.4-.8-2.1-1.1-1.7-.9-3.3-1.9-5-2.9h-.1c-6.4-3.9-12.5-8.2-18.4-12.8l-.1-.1c-.7-.5-1.3-1.1-2-1.6-.1-.1-.2-.2-.3-.2-.1-.1-.2-.2-.4-.3-.7-.6-1.4-1.1-2.1-1.7,0,0-.1-.1-.2-.1-.2-.2-.5-.4-.7-.6s-.5-.4-.7-.6c-.7-.6-1.4-1.2-2.1-1.9-.8-.8-1.7-1.5-2.5-2.3-1-1-2.1-2-3.1-3l-2.3-2.3c-1.7-1.7-3.4-3.5-5-5.3s-3.2-3.7-4.8-5.5h0c-.8-.9-1.5-1.9-2.3-2.8-.3-.4-.7-.8-1-1.3-.7-.9-1.3-1.7-2-2.6-.3-.4-.6-.9-1-1.3-.3-.4-.7-.9-1-1.3-.6-.9-1.3-1.8-1.9-2.7-.1-.1-.1-.2-.2-.3-.5-.8-1.1-1.6-1.6-2.4-.5-.7-.9-1.4-1.4-2.1-.2-.4-.5-.8-.7-1.1-10.4-16.5-18.2-34.8-22.6-54.4v-.2c7-.1,14-.7,20.8-1.6v.2c7.7,28.9,23.4,54.5,44.7,74.2,2.2,2,4.5,4,6.8,5.9.8.7,1.6,1.3,2.4,2,.8.7,1.7,1.3,2.5,2,2.8,2.1,5.7,4.2,8.7,6.1,1,.7,2.1,1.3,3.1,2h0c1.1.7,2.3,1.4,3.5,2.1,2.3,1.4,4.7,2.7,7.1,3.9h0c1.2.6,2.5,1.3,3.8,1.9h0c1.3.6,2.5,1.2,3.8,1.8,3.1,1.4,6.2,2.7,9.4,3.9h0c.8.3,1.5.5,2.2.8,1.5.5,3,1,4.6,1.5.8.2,1.5.5,2.3.7,13.2,3.2,26.5,5.5,40.4,6Z"/>
  <path class="cls-2" d="m1034.7,312.8v18.1c-13.8-.5-27.2-2.8-39.9-6.6-.8-.2-1.5-.5-2.3-.7-1.5-.5-3-1-4.6-1.5-.8-.3-1.5-.5-2.2-.8h0c-3.2-1.2-6.3-2.5-9.4-3.9-1.3-.6-2.5-1.2-3.8-1.8h0c-1.3-.6-2.5-1.2-3.8-1.9h0c-2.4-1.2-4.8-2.5-7.1-3.9-1.2-.7-2.3-1.4-3.5-2.1h0c-1-.6-2.1-1.3-3.1-2-3-1.9-5.9-4-8.7-6.1-.8-.6-1.7-1.3-2.5-2-.8-.6-1.6-1.3-2.4-2-2.3-1.9-4.6-3.9-6.8-5.9-21.3-19.7-37.1-45.3-44.7-74.2v-.1h0c6.9-1,13.7-2.3,20.4-4.1v.1c5.6,20.9,15.9,39.8,29.9,55.5,1,1.1,2,2.2,3,3.3,1,1.1,2.1,2.2,3.2,3.2.5.5,1.1,1.1,1.7,1.6,22.7,21.9,53,35.9,86.6,37.8Z"/>
  <path class="cls-4" d="m4.5,355.5c6.2-.5,12.4-1.3,18.4-2.5,1.1-.2,2.2-.4,3.3-.7h0c6-1.2,11.9-2.8,17.7-4.6h0c.3-.1.7-.2,1-.3,5.6-1.8,11-3.9,16.3-6.2h0c2.4-1.1,4.8-2.2,7.2-3.4,4.1-2,8.1-4.2,12-6.6h0c1.7-1,3.4-2,5-3.1,3.5-2.3,7-4.7,10.4-7.2h0c2.4-1.8,4.7-3.6,7-5.5,4.5-3.7,8.7-7.7,12.8-11.8,23-23.4,39.4-53.2,46.3-86.5-4.3-.1-8.5-.3-12.8-.7h0c-2.3-.2-4.6-.5-6.9-.8-.2.9-.4,1.7-.7,2.6-7.2,27.5-21.8,52.1-41.5,71.4-3.4,3.4-7,6.6-10.8,9.6-.8.6-1.6,1.3-2.4,1.9-4.4,3.5-9.1,6.7-13.9,9.7-1.6,1-3.3,2-5,2.9-5,2.9-10.2,5.5-15.5,7.7-1.3.6-2.7,1.1-4.1,1.7-4.4,1.7-8.8,3.3-13.4,4.6-5.6,1.6-11.3,3-17.2,4h0c-1.3.2-2.6.4-4,.6-4.3.6-8.7,1.1-13.2,1.4H-.3v22H.4c1.5-.1,2.8-.1,4.1-.2Z"/>
  <path class="cls-4" d="m340.6,42v3.7h.1c-.1-1.2-.1-2.5-.1-3.7Z"/>
  <path class="cls-4" d="m342.6,313c63.1,0,116.3-42.7,132.2-100.8-7.5-1.8-14.8-4.1-21.8-6.8-14.2,48.9-59.4,84.6-112.8,84.6s-98.4-35.5-112.7-84.2c-4.4,1.7-9,3.2-13.6,4.5-1.2.3-2.4.7-3.6,1,15.4,58.5,68.8,101.7,132.3,101.7Z"/>
  <path class="cls-4" d="m1034.7,289.8v23c-33.6-1.9-63.9-15.9-86.7-37.7-.6-.5-1.1-1.1-1.7-1.6-1.1-1.1-2.1-2.1-3.2-3.2-1-1.1-2-2.2-3-3.3-13.9-15.7-24.3-34.7-29.8-55.6v-.1c6.5-1.7,12.7-3.8,18.9-6.2h.1c9.3,32.3,32.1,58.9,61.9,73.3,1,.5,2,.9,3,1.4.5.2,1,.5,1.5.7s1,.4,1.5.7c1,.4,2.1.9,3.2,1.3,1.7.6,3.4,1.2,5.1,1.8,1.2.4,2.4.8,3.6,1.1,1.2.4,2.5.7,3.8,1,.6.2,1.3.3,1.9.5.7.2,1.3.3,2,.4h0c1.4.3,2.7.6,4.1.8.4.1.9.2,1.3.2.4.1.8.1,1.2.2.7.1,1.5.2,2.2.3h.3c.6.1,1.2.2,1.9.2,1.5.2,3.1.4,4.7.5.6.2,1.4.2,2.2.3Z"/>
  <path class="cls-4" d="m690.7,47.3h-.2c0-1.1,0-2.2.1-3.3,0,1.1,0,2.2.1,3.3Z"/>
  <path class="cls-4" d="m692.6,318c64.8,0,119.1-45,133.4-105.5-6.6-1.5-13-3.4-19.3-5.7-12,52.2-58.8,91.2-114.6,91.2s-103.2-39.5-114.8-92.2c-6,2.2-12.1,4.2-18.3,5.8,13.9,60.9,68.4,106.4,133.6,106.4Z"/>
  <path class="cls-2" d="m13.9,332.3c1.3-.2,2.6-.4,4-.6h0c5.8-1,11.6-2.4,17.2-4,4.6-1.3,9-2.9,13.4-4.6,1.4-.6,2.7-1.1,4.1-1.7,5.3-2.3,10.5-4.9,15.5-7.7,1.7-.9,3.3-1.9,5-2.9,4.8-3,9.5-6.2,13.9-9.7.8-.6,1.6-1.3,2.4-1.9,3.7-3,7.3-6.3,10.8-9.6,19.7-19.3,34.3-43.9,41.5-71.4.2-.9.4-1.7.7-2.6-6.5-.9-12.8-2.1-19.1-3.6-1.5,6.4-3.4,12.6-5.7,18.6-6.3,16.3-15.7,31.1-27.3,43.7-1.5,1.6-3.1,3.2-4.7,4.8-4.3,4.2-8.8,8.1-13.6,11.7-.4.3-.8.6-1.2.9-6.2,4.5-12.7,8.6-19.6,12-.9.4-1.8.9-2.7,1.3-5.7,2.7-11.6,5-17.7,7-1.4.5-2.9.9-4.3,1.3-4.1,1.1-8.3,2.1-12.5,2.8-4.2.8-8.6,1.3-12.9,1.7-.3,0-.6.1-.9.1v16.1h.8c4.2-.6,8.6-1,12.9-1.7Z"/>
  <path class="cls-2" d="m1034.7,270.5v19.2c-.8,0-1.5-.1-2.3-.2-1.6-.1-3.1-.3-4.7-.5-.6-.1-1.2-.1-1.9-.2h-.3c-.7-.1-1.5-.2-2.2-.3-.4-.1-.8-.1-1.2-.2s-.9-.1-1.3-.2c-1.4-.2-2.7-.5-4.1-.8h0c-.7-.1-1.3-.3-2-.4-.6-.2-1.3-.3-1.9-.5-1.3-.3-2.5-.7-3.8-1-1.2-.4-2.4-.7-3.6-1.1-1.7-.6-3.4-1.2-5.1-1.8-1.1-.4-2.1-.8-3.2-1.3-.5-.2-1-.4-1.5-.7-.5-.2-1-.4-1.5-.7-1-.5-2-.9-3-1.4-29.8-14.3-52.7-40.9-62-73.2v-.1h0c7.9-3.1,15.6-6.7,22.9-10.9v.1h0c6.2,34.9,31.8,63,65.3,72.9.1,0,.2.1.3.1s.2,0,.3.1c1.1.3,2.3.7,3.4.9h0c.3.1.7.2,1,.2s.7.2,1,.2c.5.1,1.1.2,1.6.3h.2c.4.1.9.2,1.3.3.4.1.8.2,1.3.2.4.1.8.2,1.3.2.4.1.9.1,1.3.2h0l1.3.2h0c.5.1,1.1.1,1.7.2h.1c.5.1.9.2,1.3.2Z"/>
  <path class="cls-2" d="m692.1,298c55.8,0,102.6-39,114.5-91.2-7.5-2.7-14.8-5.9-21.7-9.5-8.3,43.1-46.3,75.7-91.8,75.7s-84.9-33.8-92.2-78.2c-7.5,4.2-15.4,7.9-23.5,10.9,11.5,52.8,58.5,92.3,114.7,92.3Z"/>
  <path class="cls-2" d="m340.1,290c53.5,0,98.6-35.7,112.8-84.6-7.3-2.8-14.3-6-21.1-9.7-8.5,42.9-46.3,75.3-91.7,75.3s-83-32.1-91.6-74.8c-1.4.8-2.9,1.5-4.4,2.3-5.4,2.7-11,5.2-16.7,7.3h0c14.3,48.7,59.3,84.2,112.7,84.2Z"/>
  <path class="cls-4" d="m784.9,197.3c-8.3,43.1-46.3,75.7-91.8,75.7-18.9,0-36.4-5.6-51.1-15.2-1.1-.7-2.2-1.5-3.3-2.3-.5-.4-1.1-.8-1.6-1.2-18.8-14.1-32.2-35.2-36.2-59.5h0c7-3.9,13.7-8.2,20-13v.1c1.5,19.1,10.2,36.1,23.4,48.3,13.2,12.3,30.9,19.8,50.4,19.8,37.1,0,67.8-27.3,73.2-62.9,5.4,3.7,11.1,7.1,17,10.2Z"/>
  <path class="cls-2" d="m767.8,187.1c-5.4,35.6-36.1,62.9-73.2,62.9-19.5,0-37.2-7.5-50.4-19.8s-21.9-29.3-23.3-48.4c5.7-4.3,11.2-9,16.3-13.9,1-1,2.1-2.1,3.1-3.1.7-.7,1.3-1.3,1.9-2,.1-.1.2-.2.2-.2.1-.1.2-.2.3-.3l.1-.1c.3-.4.7-.7,1-1.1.5-.6,1.1-1.2,1.6-1.8.9-1,1.7-1.9,2.6-2.9.8-1,1.7-2,2.5-3,7.4-9,14-18.8,19.5-29.1.6-1.1,1.2-2.3,1.8-3.5,1.2-2.3,2.3-4.6,3.3-7,.8-1.8,1.6-3.7,2.4-5.6.2-.6.5-1.1.7-1.7s.5-1.1.7-1.7c3.1-8.1,5.6-16.4,7.5-25.1,2.3-10.5,3.7-21.3,4-32.4h.2c.2,5.6.6,11.1,1.3,16.5.3,2.7.7,5.4,1.2,8.1h0c.4,2.6,1,5.2,1.5,7.8,6.8,31,21.8,59,42.8,81.4.5.5.9,1,1.3,1.4,1.1,1.2,2.2,2.3,3.3,3.4,5,5,10.3,9.7,15.8,14.1,3.3,2.5,6.6,4.8,10,7.1Z"/>
  <path class="cls-2" d="m637.2,167.8c1-1,2.1-2,3.1-3.1-1,1.1-2,2.2-3.1,3.1-5.1,5-10.6,9.7-16.3,14h0c5.8-4.3,11.2-9,16.3-14Z"/>
  <path class="cls-4" d="m431.8,195.7c-.1.7-.3,1.3-.4,2-.1.6-.3,1.3-.4,2v.1c-.3,1.3-.7,2.6-1,3.9-5.4,18.8-16.6,35.2-31.6,47.1-1.5,1.2-3.1,2.4-4.8,3.5-.5.4-1.1.8-1.6,1.1-1.6,1.1-3.3,2.1-5,3.1l-.1.1c-1.7,1-3.4,1.9-5.2,2.8h-.1c-.6.3-1.1.5-1.7.8s-1.2.6-1.9.9h0c-.6.3-1.2.5-1.8.8-1.2.5-2.5,1-3.7,1.5-1.3.5-2.5.9-3.8,1.3s-2.6.8-3.9,1.1c-.6.2-1.3.4-2,.5-1.3.3-2.6.6-4,.9h0c-1.3.3-2.7.5-4,.7-1.4.2-2.7.4-4.1.5-3.4.4-6.9.6-10.5.6h-2.4c-.8,0-1.6,0-2.4-.1-.6,0-1.2-.1-1.8-.1-.5,0-.9-.1-1.4-.1-.3,0-.7-.1-1-.1s-.7,0-1-.1c-.4,0-.8-.1-1.2-.1s-.8-.1-1.1-.1-.5-.1-.8-.1c-.5-.1-.9-.1-1.4-.2-.2,0-.4-.1-.6-.1-.5-.1-1-.2-1.6-.3-.7-.1-1.3-.2-2-.4-.9-.2-1.8-.4-2.7-.6-.2-.1-.5-.1-.7-.2-.4-.1-.7-.2-1-.3h0c-.3-.1-.6-.2-.9-.2-.7-.2-1.4-.4-2.1-.6-.2,0-.4-.1-.5-.2-.4-.1-.8-.2-1.2-.4-.3-.1-.7-.2-1-.3h0c-.1,0-.2,0-.3-.1-.2-.1-.5-.2-.7-.2-.3-.1-.6-.2-1-.3-.2-.1-.5-.2-.7-.2h-.1c-.9-.3-1.7-.6-2.6-1-.6-.2-1.1-.4-1.7-.7-.6-.2-1.2-.5-1.8-.8h-.1c-7.9-3.5-15.2-8-21.8-13.5-5.5-4.6-10.6-9.8-14.9-15.6-.4-.5-.8-1-1.1-1.5,0-.1-.1-.1-.1-.2-.3-.5-.7-.9-1-1.4-.1-.2-.2-.3-.4-.5h0c-.5-.7-.9-1.4-1.4-2.1,0-.1-.1-.1-.1-.2-.1-.2-.2-.3-.3-.5-.3-.5-.6-1-1-1.5,0-.1-.1-.2-.2-.2-.4-.7-.8-1.3-1.2-2,0-.1-.1-.2-.2-.3-.4-.7-.8-1.3-1.1-2,0-.1-.1-.2-.1-.3-.1-.1-.2-.3-.2-.4-.3-.6-.7-1.3-1-1.9-.3-.6-.6-1.2-.9-1.8-.6-1.2-1.1-2.4-1.6-3.6-.9-2.2-1.8-4.6-2.6-6.9-.1-.4-.3-.8-.4-1.2-.1-.2-.2-.5-.2-.8-.1-.4-.3-.9-.4-1.3-.2-.6-.3-1.2-.5-1.8-.1-.4-.2-.9-.3-1.3-.2-.6-.3-1.2-.5-1.9s-.3-1.5-.5-2.2c5-2.7,9.8-5.6,14.4-8.7.8-.5,1.5-1,2.3-1.5l.1-.1c1.5,11.6,5.8,22.4,12.1,31.7.4.6.8,1.2,1.3,1.8.7.9,1.3,1.8,2,2.6s1.4,1.7,2.1,2.5c.4.4.7.8,1.1,1.2.7.8,1.5,1.6,2.2,2.3,2.5,2.5,5.1,4.8,7.9,6.9.7.5,1.4,1,2.1,1.5.9.6,1.8,1.2,2.7,1.8,1.4.9,2.8,1.7,4.2,2.5,1,.5,1.9,1,2.9,1.5,3.4,1.7,7,3.1,10.8,4.3,1.1.3,2.1.6,3.2.9,6,1.5,12.2,2.4,18.7,2.4,38.4,0,70-29.3,73.6-66.8,6.3,4.8,12.9,9,19.7,12.7Z"/>
  <path class="cls-2" d="m412.2,183.2c-3.6,37.5-35.2,66.8-73.6,66.8-6.5,0-12.7-.8-18.7-2.4-1.1-.3-2.2-.6-3.2-.9-3.7-1.2-7.3-2.6-10.8-4.3-1-.5-2-1-2.9-1.5-1.4-.8-2.8-1.6-4.2-2.5-.9-.6-1.8-1.2-2.7-1.8-.7-.5-1.4-1-2.1-1.5-2.8-2.1-5.4-4.4-7.9-6.9-.8-.8-1.5-1.5-2.2-2.3-.4-.4-.8-.8-1.1-1.2-.7-.8-1.4-1.6-2.1-2.5s-1.4-1.7-2-2.6c-.4-.6-.9-1.2-1.3-1.8-6.3-9.3-10.6-20.1-12.1-31.7,0,0-.1,0-.1.1v-.2c3.9-2.7,7.7-5.5,11.3-8.5.4-.3.8-.6,1.2-1,4.5-3.7,8.7-7.6,12.8-11.8l.1-.1c1.3-1.3,2.5-2.6,3.7-3.9h0l.1-.1c.5-.5.9-1,1.3-1.5.3-.3.6-.6.8-1l2-2.3c4.2-4.8,8-9.9,11.6-15.2l4.6-7.1s0-.1.1-.1c6-9.7,11-20,15-30.9,1.8-4.9,3.4-9.8,4.8-14.9.3-1.2.6-2.3.9-3.5,2.3-9.4,3.9-19.2,4.6-29.1.2-3.1.4-6.1.4-9.2,0,.9,0,1.8.1,2.7.5,13.5,2.5,26.5,5.8,39.1,5.7,21.2,15.3,40.9,28,58.1.8,1.2,1.7,2.3,2.6,3.4,1,1.3,2.1,2.6,3.2,3.9,1.4,1.7,2.8,3.4,4.3,5,.9,1,1.7,1.9,2.6,2.9,3.2,3.5,6.6,6.8,10.1,10,4.8,4.4,9.8,8.5,15,12.3Z"/>
  <path class="cls-2" d="m277.4,217.6c-6.3-9.2-10.6-20-12.2-31.7l.1-.1c1.6,11.7,5.8,22.5,12.1,31.8Z"/>
  <path class="cls-4" d="m1034.7,251.4v19.2c-.4,0-.8-.1-1.1-.2h-.3c-.5-.1-1-.1-1.5-.2h0c-.5-.1-.9-.2-1.3-.2h-.2c-.3,0-.7-.1-1-.2-.4-.1-.9-.1-1.3-.2s-.8-.2-1.3-.2c-.5-.1-.9-.2-1.3-.3h-.2c-.5-.1-1.1-.2-1.6-.3-.4-.1-.7-.2-1-.2s-.7-.2-1-.2h0c-.2-.1-.5-.2-.7-.2h-.1c-.6-.2-1.2-.3-1.8-.5-.3-.1-.6-.2-.8-.2-.1,0-.2,0-.3-.1-.1,0-.2-.1-.3-.1-.2-.1-.4-.1-.6-.2-.6-.2-1.2-.4-1.8-.6-.5-.1-.9-.3-1.3-.4-.2-.1-.4-.1-.5-.2-.5-.2-1-.4-1.6-.6-1.3-.5-2.5-1-3.8-1.5-1.2-.5-2.5-1.1-3.7-1.7l-3.6-1.8c-1.2-.6-2.4-1.3-3.5-2-.7-.4-1.4-.8-2.1-1.2-.6-.3-1.1-.7-1.7-1.1-.3-.2-.6-.4-.9-.6-.6-.4-1.1-.8-1.7-1.2-1.2-.9-2.4-1.7-3.6-2.7-.3-.2-.5-.4-.8-.6-.5-.4-.9-.7-1.4-1.1-.1-.1-.2-.2-.3-.2-.5-.5-1.1-.9-1.7-1.4l-.1-.1c-1.2-1.1-2.5-2.2-3.6-3.3-1.2-1.2-2.4-2.3-3.5-3.6-11.9-12.8-20.2-29-23.4-46.8v-.1c2.4-1.4,4.8-2.8,7.1-4.2,1.6-1,3.1-2,4.7-3,.6-.4,1.2-.8,1.8-1.3.6-.4,1.2-.8,1.8-1.3.3-.2.7-.5,1-.7.1-.1.2-.1.3-.2.3-.2.6-.4.8-.6.4-.3.6-.5,1-.7,0,0,.1,0,.1-.1.9,17.2,7.6,32.8,18.2,44.9.3.4.7.8,1,1.2,1.5,1.7,3.1,3.2,4.8,4.8,10.6,9.6,24.4,16.3,39.7,18.3Z"/>
  <path class="cls-2" d="m650.6,153.3c7.4-9,14-18.8,19.5-29.1-5.5,10.4-12,20.2-19.5,29.1Z"/>
  <path class="cls-2" d="m675.2,113.8c-1,2.3-2.2,4.7-3.3,7,1.2-2.4,2.3-4.7,3.3-7Z"/>
  <path class="cls-2" d="m340.1,55c.2-3.1.4-6.2.5-9.2,0,3-.2,6-.5,9.2-.6,9.8-2.2,19.6-4.5,29-.3,1.2-.6,2.3-.9,3.5-1.4,5.1-3,10-4.8,14.9-4,10.8-9,21.2-15,30.9,0,0,0,.1-.1.1,6-9.7,11-20,15-30.9,1.9-4.9,3.4-9.9,4.8-15,.3-1.1.6-2.3.9-3.4,2.3-9.4,3.9-19.1,4.6-29.1Z"/>
  <path class="cls-2" d="m374.6,145.6c-12.7-17.2-22.3-36.9-28-58.1-3.4-12.5-5.4-25.6-5.8-39.1.5,13.5,2.5,26.5,5.9,39.1,5.6,21.3,15.2,40.9,27.9,58.1Z"/>
  <path class="cls-2" d="m334.7,87.5c-1.4,5.1-3,10-4.8,14.9-4,10.8-9,21.2-15,30.9,0,0,0,.1-.1.1l-4.6,7.1c-3.6,5.3-7.5,10.3-11.6,15.2l-2,2.3c-.3.3-.6.6-.8,1-.4.5-.9,1-1.3,1.5l-.1.1h0c-1.2,1.3-2.4,2.6-3.7,3.9l-.1.1c-4.1,4.2-8.3,8.1-12.8,11.8-.4.3-.8.7-1.2,1v-89.9h58.1Z"/>
  <path class="cls-2" d="m397.3,87.5v83.4c-3.5-3.2-6.8-6.5-10.1-10-.9-1-1.8-1.9-2.6-2.9-1.5-1.7-2.9-3.3-4.3-5-1.1-1.3-2.1-2.6-3.2-3.9-.9-1.1-1.7-2.3-2.6-3.4-12.7-17.2-22.3-36.9-28-58.1h50.8v-.1h0Z"/>
  <path class="cls-2" d="m686.5,79.7c-1.9,8.6-4.4,17-7.5,25.1-.2.6-.4,1.2-.7,1.7-.2.6-.5,1.2-.7,1.7-.8,1.9-1.6,3.7-2.4,5.6-1,2.3-2.2,4.7-3.3,7-.6,1.2-1.2,2.3-1.8,3.5-5.5,10.4-12,20.2-19.5,29.1-.8,1-1.7,2-2.5,3-.9,1-1.7,2-2.6,2.9-.5.6-1.1,1.2-1.6,1.8-.3.4-.7.7-1,1.1l-.1.1c-.1.1-.2.2-.3.3s-.2.2-.2.2c-.6.7-1.3,1.3-1.9,2-1,1-2,2.1-3.1,3.1v-88.2h49.2Z"/>
  <path class="cls-2" d="m758,79.7v100.3c-5.6-4.4-10.9-9.1-15.8-14.1-1.1-1.1-2.2-2.2-3.3-3.4-.5-.5-.9-1-1.3-1.4-21-22.4-36-50.4-42.8-81.4,0,0,63.2,0,63.2,0Z"/>
  <path class="cls-2" d="m1034.7,29.4v57.6c-1.7,6.3-3.7,12.6-6.1,18.6-1.9,5-4.1,9.9-6.5,14.7-.8,1.5-1.5,3-2.3,4.5-.5.9-.9,1.7-1.4,2.6,0,0,0,.1-.1.1-1.3,2.3-2.6,4.5-4,6.8-.4.6-.8,1.3-1.2,1.9-.4.7-.8,1.3-1.2,1.9-1.1,1.7-2.3,3.4-3.5,5.1-.1.2-.3.3-.4.5l-.1.1c-.2.3-.5.7-.7,1-.1.1-.2.2-.2.3-.1.2-.2.3-.3.5h-23.2V29.4h51.2Z"/>
  <path class="cls-2" d="m1034.7,86.6v164.7c-15.2-2-29-8.7-39.9-18.5-1.7-1.5-3.3-3.1-4.8-4.8-.3-.4-.7-.8-1-1.2-10.6-12.1-17.4-27.6-18.3-44.8h0s0-.1,0-.1c3-2.2,5.8-4.5,8.6-7,.6-.5,1.2-1,1.8-1.6l5.7-5.2c.6-.6,1.3-1.2,1.9-1.9,1.9-1.9,3.7-3.8,5.5-5.7l.1-.1h0c.6-.6,1.2-1.3,1.7-1.9,1.8-2,3.5-4,5.2-6.1.6-.7,1.2-1.5,1.8-2.2.6-.8,1.2-1.6,1.8-2.4.6-.8,1.2-1.6,1.8-2.4.6-.8,1.1-1.6,1.7-2.4,1.2-1.7,2.3-3.4,3.5-5.1.4-.6.8-1.3,1.2-1.9.4-.6.8-1.3,1.2-1.9,5.6-9,10.4-18.6,14.3-28.6,2.4-6.1,4.5-12.4,6.2-18.9Z"/>
  <path class="cls-2" d="m1001.2,152.6c-8.9,11-19.2,20.8-30.5,29.4h0c11.3-8.6,21.5-18.5,30.5-29.4Z"/>
  <path class="cls-2" d="m1008.3,143.2c-.6.8-1.1,1.6-1.7,2.4h0c.6-.8,1.2-1.6,1.7-2.4Z"/>
  <path class="cls-7" d="m690.5,42.1v2c-.1,1.1-.1,2.2-.1,3.3-.3,11-1.7,21.8-4,32.3-1.9,8.6-4.4,17-7.5,25.1-.2.6-.4,1.2-.7,1.7-.2.6-.5,1.2-.7,1.7-.8,1.9-1.6,3.7-2.4,5.6-1,2.3-2.2,4.7-3.3,7-.6,1.2-1.2,2.3-1.8,3.5-5.5,10.4-12,20.2-19.5,29.1-.8,1-1.7,2-2.5,3-.9,1-1.7,2-2.6,2.9-.5.6-1.1,1.2-1.6,1.8-.3.4-.7.7-1,1.1l-.1.1c-.1.1-.2.2-.3.3s-.2.2-.2.2c-.6.7-1.3,1.3-1.9,2-1,1-2,2.1-3.1,3.1-5.1,5-10.6,9.7-16.3,13.9,0,0-.1,0-.1.1h0c-6.4,4.8-12.9,9-19.9,12.9h-.1c-2.6,1.4-5.2,2.8-7.9,4.1-.6.3-1.2.6-1.8.8-.1,0-.2.1-.3.1-.9.4-1.8.8-2.7,1.3-.1,0-.1.1-.2.1s-.1.1-.2.1h-.1c-.9.4-1.9.8-2.8,1.2-.6.3-1.2.5-1.8.8-1.9.8-3.7,1.5-5.6,2.3h-.1c-5.9,2.3-12.1,4.2-18.3,5.8-6.5,1.7-13.2,3-20,3.9h0c-6.8.9-13.7,1.4-20.7,1.5h-5.4c-.8,0-1.6,0-2.4-.1-.8,0-1.5,0-2.3-.1h-.2c-.8,0-1.6-.1-2.5-.1-.8,0-1.6-.1-2.5-.2-.8-.1-1.6-.1-2.4-.2h0c-1.6-.1-3.3-.3-4.9-.5-.8-.1-1.6-.2-2.4-.3h-.1c-.8-.1-1.6-.2-2.4-.3s-1.6-.2-2.3-.4c-4.6-.7-9.2-1.7-13.6-2.7h-.1c-2.8-.7-5.5-1.4-8.2-2.2-.9-.3-1.8-.5-2.7-.8h0c-1.8-.6-3.6-1.2-5.4-1.8h0c-1-.4-2.1-.7-3.1-1.1-.8-.3-1.5-.5-2.2-.8h-.1c-7.3-2.7-14.3-6-21.1-9.7-6.8-3.8-13.4-7.9-19.6-12.5-5.2-3.8-10.2-7.9-14.9-12.3-3.5-3.2-6.8-6.5-10.1-10-.9-1-1.8-1.9-2.6-2.9-1.5-1.7-2.9-3.3-4.3-5-1.1-1.3-2.1-2.6-3.2-3.9-.9-1.1-1.7-2.3-2.6-3.4-.4-.5-.8-1.1-1.2-1.6-12.1-16.9-21.3-35.9-26.9-56.5-3.2-11.7-5.1-23.9-5.7-36.5,0-.8-.1-1.7-.1-2.5,0-.9-.1-1.8-.1-2.7v-6.8c0-2.7.1-5.3.3-8,0-.5.1-1,.1-1.4v-.7c.1-1.3.2-2.6.3-3.8.1-.7.1-1.3.2-2,.6-5.7,1.5-11.4,2.7-17,.4-2,.9-4,1.4-6h18c-2.5,9.5-4.1,19.4-4.8,29.5-.1.8-.1,1.6-.1,2.4s-.1,1.7-.1,2.5-.1,1.7-.1,2.5v5.1c0,1.1,0,2.1.1,3.2,0,.6,0,1.2.1,1.9.1,2.5.3,5,.5,7.5.1,1.1.2,2.3.4,3.4.1.5.1.9.2,1.4.1.6.2,1.2.2,1.9,0,.4.1.7.2,1.1.1.4.1.9.2,1.3.1.5.2,1,.2,1.6.1.6.2,1.3.3,1.9.2,1.3.5,2.6.7,3.8.1.6.2,1.2.4,1.8.2.7.3,1.3.5,2,.3,1.2.6,2.5.9,3.7.2.6.3,1.2.5,1.9.3,1.2.7,2.5,1,3.7h0c.3,1.2.7,2.4,1.1,3.6,6.6,20.4,17.3,39,31.1,54.7,28.5,32.4,70.2,52.9,116.7,52.9,28.9,0,56-7.9,79.1-21.6.5-.3,1.1-.6,1.6-1,1.1-.6,2.1-1.3,3.2-2,.5-.3,1-.7,1.6-1,.5-.3,1-.7,1.6-1,1-.7,2.1-1.4,3.1-2.1,1-.7,2-1.4,3-2.2.5-.3,1-.7,1.5-1.1.5-.4,1-.8,1.5-1.2.3-.2.6-.5.9-.7,0,0,.1,0,.1-.1.8-.6,1.6-1.2,2.3-1.9,5.6-4.6,10.8-9.6,15.6-15,2.8-3.1,5.5-6.4,8.1-9.7,12.4-16,21.7-34.6,27-54.8,3.4-12.8,5.2-26.2,5.2-40.1,0-3.4-.1-6.8-.3-10.1-.7-10.1-2.3-19.9-4.8-29.4h21c.5,2,1,4,1.4,6,1.2,5.6,2.1,11.3,2.7,17,.2,2.1.4,4.2.5,6.4.5,4,.7,8.2.7,12.4Z"/>
  <path class="cls-6" d="m13.7,315.9c4.2-.8,8.4-1.7,12.5-2.8,1.4-.4,2.9-.8,4.3-1.3,6.1-1.9,12-4.2,17.7-7,.9-.4,1.8-.8,2.7-1.3,6.9-3.5,13.4-7.5,19.6-12,.4-.3.8-.6,1.2-.9,4.8-3.6,9.3-7.5,13.6-11.7,1.6-1.6,3.1-3.2,4.7-4.8,11.7-12.6,21-27.4,27.3-43.7,2.3-6,4.2-12.2,5.7-18.6-2.6-.7-5.2-1.4-7.8-2.1-4-1.2-7.9-2.5-11.7-4-1.4,6-3.2,11.8-5.4,17.4h0c-5.3,13.3-13,25.3-22.5,35.7-3,3.3-6.2,6.4-9.5,9.3-4.9,4.3-10.2,8.2-15.8,11.6-1.2.8-2.5,1.5-3.8,2.2-6,3.4-12.3,6.2-18.8,8.5-2.2.8-4.5,1.5-6.8,2.1-3.3.9-6.6,1.7-10,2.4-3.3.6-6.6,1.1-10,1.4-.3,0-.7.1-1,.1v21.1c.3,0,.6,0,.9-.1,4.4-.2,8.7-.8,12.9-1.5Z"/>
  <path class="cls-2" d="m10.9,295c3.4-.6,6.8-1.4,10-2.4,2.3-.6,4.6-1.3,6.8-2.1,6.6-2.3,12.9-5.1,18.8-8.5,1.3-.7,2.6-1.5,3.8-2.2,5.6-3.4,10.9-7.3,15.8-11.6,3.3-2.9,6.5-6,9.5-9.3,9.5-10.4,17.2-22.4,22.5-35.7h0c2.2-5.6,4.1-11.4,5.4-17.4-6.3-2.4-12.5-5.2-18.5-8.3-1.4-.7-2.9-1.5-4.3-2.3-.5,2.8-1.2,5.7-2,8.4-4.7,16.2-13.7,30.7-25.7,42h0c-4.7,4.5-9.9,8.4-15.5,11.8-2.7,1.7-5.6,3.2-8.5,4.6h0c-5.6,2.7-11.6,4.8-17.8,6.3-1,.2-1.9.5-2.9.7-2.5.5-5,1-7.5,1.3-.4,0-.8.1-1.1.1v26.1c.3,0,.7,0,1-.1,3.6-.3,6.9-.8,10.2-1.4Z"/>
  <path class="cls-2" d="m358.6,39.5c0,85.9,69.6,155.5,155.5,155.5s155.5-69.6,155.5-155.5c0-13.6-1.8-26.9-5.1-39.5h-18.3c3.5,12.1,5.3,24.8,5.3,38,0,75.7-61.3,137-137,137s-137-61.3-137-137c0-13.2,1.9-25.9,5.3-38h-19.3c-3.2,12.6-4.9,25.9-4.9,39.5Z"/>
  <path class="cls-4" d="m1034.7.7v86.2c-1.7,6.5-3.8,12.8-6.2,18.9-2.6,6.5-5.5,12.8-8.7,18.9-.5.9-.9,1.7-1.4,2.6,0,0,0,.1-.1.1-1.3,2.3-2.6,4.6-4,6.8-.4.6-.8,1.3-1.2,1.9-.4.7-.8,1.3-1.2,1.9-1.1,1.7-2.3,3.4-3.5,5.1-.6.8-1.1,1.6-1.7,2.4-.6.8-1.2,1.6-1.8,2.4-.6.8-1.2,1.6-1.8,2.4-.6.7-1.2,1.5-1.8,2.2-2.2,2.7-4.5,5.3-6.8,7.9-7.2,7.9-15.2,15-23.7,21.5,0,0-.1,0-.1.1h0c-.3.2-.7.5-1,.7s-.6.4-.8.6c-.1.1-.2.2-.3.2-.3.2-.7.5-1,.7-.6.4-1.2.9-1.8,1.3-.6.4-1.2.8-1.8,1.3-1.5,1-3.1,2.1-4.7,3-2.3,1.5-4.7,2.9-7.1,4.3h0s-.1,0-.1.1h0c-7.3,4.1-14.9,7.8-22.8,10.9h-.1c-6.2,2.4-12.4,4.5-18.9,6.2h-.1c-6.6,1.8-13.4,3.1-20.3,4.1h-.1c-6.8.9-13.7,1.5-20.7,1.6h-3.5c-1.6,0-3-.1-4.6-.1h-.2c-6.7-.1-13-.7-19.5-1.6h-.1c-5.1-.7-10.1-1.6-15.1-2.8h-.1c-2.1-.5-4.2-1-6.3-1.6-.2,0-.3-.1-.4-.1-.5-.2-1.1-.3-1.6-.5-2.1-.6-4.1-1.2-6.2-1.9-.2-.1-.5-.2-.7-.2-.2-.1-.4-.1-.6-.2-.1,0-.2-.1-.3-.1-1-.3-2-.7-3-1h-.3c-1.8-.7-3.5-1.3-5.4-2-.7-.3-1.4-.6-2.1-.8-4.1-1.7-8.1-3.6-12.1-5.5-.7-.3-1.3-.7-2-1,0,0-.1-.1-.2-.1-5.8-3.1-11.5-6.5-16.9-10.1h0s-.1,0-.1-.1c-3.1-2.1-6.1-4.3-9-6.6,0,0-.1,0-.1-.1h0c-.2-.1-.4-.3-.6-.4-1-.8-2.1-1.7-3.1-2.5l-.1-.1-.1-.1c-4.4-3.6-8.6-7.3-12.5-11.3-.5-.5-1.1-1.1-1.6-1.7-.6-.6-1.1-1.1-1.7-1.7-.1-.1-.2-.2-.3-.3l-.1-.1c-.3-.3-.6-.7-.9-1,0,0,0-.1-.1-.1-.3-.3-.6-.6-.8-.9-7.5-8.2-14.2-17.1-20.1-26.6-.1-.1-.1-.2-.2-.2-1-1.5-1.9-3.1-2.8-4.7-.5-.9-1-1.9-1.6-2.8-.5-.8-.9-1.7-1.4-2.6-.9-1.6-1.7-3.3-2.5-4.9-1.7-3.5-3.3-7-4.8-10.6-.4-.9-.7-1.8-1.1-2.7,0-.1-.1-.2-.1-.3-.4-1-.8-2-1.1-3-.2-.6-.4-1.1-.6-1.7v-.1c-.1-.4-.3-.8-.4-1.2v-.1c0-.1-.1-.2-.1-.3-.3-.9-.6-1.8-.9-2.8q0-.1-.1-.2c0-.1-.1-.2-.1-.3s-.1-.2-.1-.3c-.2-.5-.3-1-.5-1.5-.2-.6-.4-1.2-.5-1.8-1.2-3.9-2.2-7.9-3-11.9,0-.1-.1-.2-.1-.3-.6-2.5-1-5-1.4-7.5-.5-2.7-.9-5.4-1.2-8.1-.7-5.4-1.1-10.9-1.3-16.5-.1-1.1-.1-2.2-.1-3.3v-6.4c0-.7,0-1.5.1-2.2,0-.7.1-1.4.1-2.1.1-1.3.1-2.5.2-3.8v-.3c0-.5.1-1,.1-1.5.1-.8.1-1.5.2-2.3s.1-1.6.2-2.4c.1-.9.2-1.8.3-2.7.1-.6.1-1.3.2-1.9.1-.4.1-.9.2-1.3.1-.7.2-1.4.3-2.1.1-.9.3-1.8.4-2.6.4-2.1.8-4.2,1.2-6.2.2-1,.4-2,.7-3,.1-.5.2-1,.4-1.5.1-.5.2-1,.4-1.5h18c-2.5,9.3-4,19.1-4.8,29v.5c-.1.8-.1,1.6-.1,2.4s-.1,1.7-.1,2.5-.1,1.7-.1,2.5v5.1c0,1.1,0,2.1.1,3.2,0,.6,0,1.2.1,1.9.1,2.5.3,5,.5,7.5.1,1.1.2,2.3.4,3.4.1.5.1.9.2,1.4.1.6.2,1.2.2,1.9v.1h0c0,.2,0,.3.1.5,0,.2.1.3.1.5.1.4.1.9.2,1.3.1.4.2.9.2,1.4h0v.2c.1.6.2,1.3.3,1.9.2,1.3.5,2.6.7,3.8.1.6.2,1.2.4,1.8.2.7.3,1.3.5,2,.3,1.2.6,2.5.9,3.7.1.2.1.5.2.7,0,.2.1.4.1.6s.1.4.1.5c.3,1.2.7,2.5,1,3.7.2.6.4,1.2.6,1.8.2.6.4,1.2.6,1.8.4,1.2.8,2.4,1.2,3.6.2.6.4,1.2.6,1.8.2.6.4,1.2.7,1.8.2.6.4,1.2.7,1.8.2.6.5,1.2.7,1.8,8.5,21,21.6,39.7,37.9,55,2.4,2.3,4.9,4.5,7.5,6.6,26.8,22.1,61.1,35.2,98.5,35.2,28.9,0,56-7.9,79.1-21.6.5-.3,1.1-.6,1.6-1,1.1-.6,2.1-1.3,3.2-2,.5-.3,1-.7,1.6-1,.5-.3,1-.7,1.6-1,1-.7,2.1-1.4,3.1-2.1s2-1.4,3-2.2c.5-.3,1-.7,1.5-1.1s1-.8,1.5-1.2c.3-.2.6-.5.9-.7,0,0,.1,0,.1-.1.5-.4,1-.8,1.5-1.2.3-.2.5-.4.8-.7,5.6-4.6,10.8-9.6,15.6-15,1.5-1.6,2.9-3.2,4.3-4.9l.1-.1c16.6-20,28.4-44.2,33.3-70.8.1-.6.2-1.3.3-1.9s.2-1.3.3-1.9c.1-.4.1-.8.2-1.3,0-.3.1-.5.1-.8.1-.7.2-1.4.3-2.1.9-6.8,1.4-13.7,1.4-20.7,0-3.4-.1-6.8-.3-10.1h0v-.6c-.7-9.9-2.3-19.5-4.8-28.7,0,0,20.5,0,20.5,0Z"/>
  <path class="cls-5" d="m708.6,39.5c0,85.9,69.6,155.5,155.5,155.5s155.5-69.6,155.5-155.5c0-13.6-1.8-26.9-5.1-39.5h-18.3c3.5,12.1,5.3,24.8,5.3,38,0,75.7-61.3,137-137,137s-137-61.3-137-137c0-13.2,1.9-25.9,5.3-38h-19.3c-3.2,12.6-4.9,25.9-4.9,39.5Z"/>
  <path class="cls-7" d="m8.5,269c1-.2,1.9-.4,2.9-.7,6.2-1.5,12.1-3.6,17.8-6.3h0c2.9-1.4,5.7-2.9,8.5-4.6,5.6-3.4,10.8-7.4,15.5-11.8h0c12-11.3,21-25.7,25.7-42,.8-2.8,1.5-5.6,2-8.4-4.7-2.6-9.3-5.5-13.8-8.5-.1-.1-.2-.1-.3-.2,0,.2-.1.4-.1.6h0c-3.1,20.7-14.8,38.5-31.2,49.9-6.2,4.2-13,7.6-20.3,9.8-4.5,1.4-9.2,2.3-14.1,2.8-.4,0-.8.1-1.2.1v20.6c.4,0,.8-.1,1.1-.1,2.6-.3,5.1-.7,7.5-1.2Z"/>
  <path class="cls-2" d="m15.2,246.8c7.3-2.2,14.2-5.6,20.3-9.8,16.5-11.3,28.1-29.2,31.2-49.9h0c0-.2.1-.4.1-.6-4.5-3-8.8-6.3-12.9-9.7-4.6-3.9-9.1-8-13.3-12.3-16.8-17.2-13.4-35.5-22-58.4-.2-.4-14.7-5-14.9-5.5-.5-.1-3.3-1.8-3.8-1.8L0,230.5v19.2c.4,0,.8-.1,1.2-.1,4.8-.5,9.5-1.4,14-2.8Z"/>
  <path class="cls-4" d="m340.6,37.5v8.2c0,3.1-.2,6.1-.4,9.2-.7,9.9-2.3,19.7-4.6,29.1-.3,1.2-.6,2.3-.9,3.5-1.4,5.1-3,10-4.8,14.9-4,10.8-9,21.2-15,30.9,0,0,0,.1-.1.1l-4.6,7.1c-3.6,5.3-7.5,10.3-11.6,15.2l-2,2.3c-.3.3-.6.6-.8,1-.4.5-.9,1-1.3,1.5l-.1.1h0c-1.2,1.3-2.4,2.6-3.7,3.9l-.1.1c-4.1,4.1-8.2,8-12.7,11.7-.4.3-.8.7-1.3,1-3.6,3-7.4,5.8-11.2,8.5-.8.5-1.6,1.1-2.4,1.6-4.7,3.1-9.5,6-14.4,8.7-1.5.8-2.9,1.6-4.4,2.3-5.4,2.7-11,5.1-16.7,7.3-4.4,1.7-9,3.2-13.6,4.5-1.2.4-2.4.7-3.6,1-6.2,1.7-12.7,3-19.2,3.9-4.3.6-8.7,1.1-13.1,1.4-2.5.2-5,.3-7.5.4-1.6.1-3.1.1-4.7.1h-3.7c-4.3-.1-8.6-.3-12.8-.7-2.3-.2-4.6-.5-6.9-.8-6.5-.8-12.9-2.1-19.1-3.6-.5-.1-1-.2-1.5-.3h-.1c-1.4-.3-2.8-.7-4.2-1.1h-.1c-.6-.2-1.2-.3-1.8-.5-4-1.2-7.9-2.5-11.7-4-6.4-2.4-12.5-5.2-18.5-8.3-1.5-.8-2.9-1.5-4.3-2.3-4.8-2.6-9.4-5.5-13.8-8.5-.1,0-.2-.1-.3-.2-4.4-3-8.8-6.3-12.9-9.7-4.6-3.9-9.1-8-13.3-12.3-16.8-17.1-30.2-37.8-38.8-60.7-.2-.5-.3-.9-.5-1.4-.5-1.3-1-2.6-1.4-3.9V0h15.8c-2.7,10.3-4.4,21.2-4.9,32.2-.1,2.4-.2,4.9-.2,7.3,0,85.9,69.6,155.5,155.5,155.5,1.4,0,2.8,0,4.2-.1,1.1,0,2.3-.1,3.4-.1,1.7-.1,3.4-.2,5.1-.3.9-.1,1.9-.2,2.8-.2h.4c1.1-.1,2.2-.2,3.3-.4,4.1-.5,8.1-1.2,12-2,.6-.1,1.3-.3,1.9-.4,9.5-2,18.6-5,27.3-8.7,1.2-.5,2.3-1,3.5-1.5,7.1-3.2,14-7,20.5-11.2,1-.6,1.9-1.3,2.9-1.9.5-.4,1.1-.7,1.6-1.1.5-.4,1-.7,1.4-1,.5-.4,1-.7,1.5-1.1,1-.7,2-1.5,3-2.3s2-1.5,3-2.3c.5-.4,1-.8,1.5-1.2s1-.8,1.5-1.2.9-.8,1.4-1.2.9-.8,1.4-1.2.9-.8,1.4-1.3c.5-.4.9-.8,1.4-1.3.5-.4.9-.9,1.4-1.3.5-.4.9-.9,1.3-1.3.5-.4.9-.9,1.3-1.3.5-.5,1-1.1,1.6-1.6.5-.5.9-1,1.4-1.5.6-.6,1.1-1.2,1.7-1.8.5-.5,1-1.1,1.5-1.7.5-.6,1-1.1,1.5-1.7.5-.6,1-1.2,1.5-1.8s.9-1.1,1.4-1.7c.5-.6.9-1.1,1.4-1.7,2.9-3.7,5.6-7.5,8.2-11.4.3-.5.7-1,1-1.5,1.9-3,3.7-6.1,5.4-9.2.2-.4.5-.9.7-1.3,1-1.8,1.9-3.6,2.8-5.5.3-.6.6-1.3.9-1.9.3-.7.6-1.4.9-2,.1-.2.2-.5.3-.8.5-1.2,1-2.3,1.5-3.5,1.4-3.5,2.8-7.1,3.9-10.8.6-1.9,1.2-3.8,1.7-5.7.3-1,.5-1.9.8-2.9.2-.8.4-1.6.6-2.4.1-.3.2-.7.2-1,.2-.8.4-1.6.6-2.5.2-1,.4-2,.6-3s.4-2,.6-3,.3-2,.5-3c.1-1,.3-1.9.4-2.9v-.2c.1-1,.3-2,.4-3,.1-.9.2-1.8.3-2.7.1-1.2.2-2.3.3-3.5.1-.8.1-1.6.2-2.4v-.9c.1-.9.1-1.8.1-2.7v-.4c0-.9.1-1.7.1-2.6v-3.4c0-1.9,0-3.9-.1-5.8,0-.6-.1-1.2-.1-1.8,0-.8-.1-1.6-.1-2.4v-.1c-.1-1.7-.2-3.3-.4-4.9v-.1c-.1-1.4-.3-2.8-.5-4.2,0-.3-.1-.6-.1-.8-.1-.8-.2-1.6-.3-2.3h0c-.4-2.5-.8-4.9-1.3-7.3-.1-.8-.3-1.6-.5-2.4-.3-1.6-.7-3.2-1.1-4.8-.2-.8-.4-1.6-.6-2.4h19l.4,1.5c.4,1.5.7,3.1,1,4.6.2.7.3,1.4.4,2.1s.3,1.4.4,2.1c.3,1.4.5,2.8.7,4.2v.2l1.1,8.3c.3,2.2.5,4.3.6,6.5.2,2.5.4,5.1.4,7.8Z"/>
  <path class="cls-2" d="m10.6,39.5c0,85.9,69.6,155.5,155.5,155.5s155.5-69.6,155.5-155.5c0-13.6-1.8-26.9-5.1-39.5h-20.3c3.5,12.1,5.3,24.8,5.3,38,0,75.7-61.3,137-137,137S27.5,113.7,27.5,38c0-13.2,1.9-25.9,5.3-38H15.6c-3.3,12.6-5,25.9-5,39.5Z"/>
  <path class="cls-4" d="m727.6,38c0,75.7,61.3,137,137,137s137-61.3,137-137c0-13.2-1.9-25.9-5.3-38h-19.5c4.4,12.3,6.8,25.6,6.8,39.5,0,64.9-52.6,117.5-117.5,117.5s-117.5-52.6-117.5-117.5c0-13.9,2.4-27.2,6.8-39.5h-22.5c-3.5,12.1-5.3,24.8-5.3,38Z"/>
  <path class="cls-4" d="m377.6,38c0,75.7,61.3,137,137,137s137-61.3,137-137c0-13.2-1.9-25.9-5.3-38h-21.5c4.4,12.3,6.8,25.6,6.8,39.5,0,64.9-52.6,117.5-117.5,117.5s-117.5-52.6-117.5-117.5c0-13.9,2.4-27.2,6.8-39.5h-20.5c-3.5,12.1-5.3,24.8-5.3,38Z"/>
  <path class="cls-4" d="m27.6,38c0,75.7,61.3,137,137,137s137-61.3,137-137c0-13.2-1.9-25.9-5.3-38h-21.5c4.4,12.3,6.8,25.6,6.8,39.5,0,64.9-52.6,117.5-117.5,117.5S46.6,104.4,46.6,39.5c0-13.9,2.4-27.2,6.8-39.5h-20.5c-3.5,12.1-5.3,24.8-5.3,38Z"/>
  <path class="cls-2" d="m46.6,39.5c0,64.9,52.6,117.5,117.5,117.5s117.5-52.6,117.5-117.5c0-13.9-2.4-27.2-6.8-39.5h-28.4c7.2,13.2,11.2,28.4,11.2,44.5,0,51.6-41.9,93.5-93.5,93.5s-93.5-41.9-93.5-93.5c0-16.1,4.1-31.3,11.2-44.5h-28.4c-4.4,12.3-6.8,25.6-6.8,39.5Z"/>
  <path class="cls-2" d="m396.6,39.5c0,64.9,52.6,117.5,117.5,117.5s117.5-52.6,117.5-117.5c0-13.9-2.4-27.2-6.8-39.5h-28.4c7.2,13.2,11.2,28.4,11.2,44.5,0,51.6-41.9,93.5-93.5,93.5s-93.5-41.9-93.5-93.5c0-16.1,4.1-31.3,11.2-44.5h-28.4c-4.4,12.3-6.8,25.6-6.8,39.5Z"/>
  <path class="cls-2" d="m748.6,39.5c0,64.9,52.6,117.5,117.5,117.5s117.5-52.6,117.5-117.5c0-13.9-2.4-27.2-6.8-39.5h-30.4c7.2,13.2,11.2,28.4,11.2,44.5,0,51.6-41.9,93.5-93.5,93.5s-93.5-41.9-93.5-93.5c0-16.1,4.1-31.3,11.2-44.5h-26.4c-4.4,12.3-6.8,25.6-6.8,39.5Z"/>
  <path class="cls-4" d="m70.6,44.5c0,51.6,41.9,93.5,93.5,93.5s93.5-41.9,93.5-93.5c0-16.1-4.1-31.3-11.2-44.5h-24.3c9.1,12.3,14.5,27.5,14.5,44,0,40.9-33.1,74-74,74s-74-33.1-74-74c0-16.5,5.4-31.7,14.5-44h-21.3c-7.1,13.2-11.2,28.4-11.2,44.5Z"/>
  <path class="cls-4" d="m420.6,44.5c0,51.6,41.9,93.5,93.5,93.5s93.5-41.9,93.5-93.5c0-16.1-4.1-31.3-11.2-44.5h-22.3c9.1,12.3,14.5,27.5,14.5,44,0,40.9-33.1,74-74,74s-74-33.1-74-74c0-16.5,5.4-31.7,14.5-44h-23.3c-7.1,13.2-11.2,28.4-11.2,44.5Z"/>
  <path class="cls-4" d="m770.6,44.5c0,51.6,41.9,93.5,93.5,93.5s93.5-41.9,93.5-93.5c0-16.1-4.1-31.3-11.2-44.5h-25.3c9.1,12.3,14.5,27.5,14.5,44,0,40.9-33.1,74-74,74s-74-33.1-74-74c0-16.5,5.4-31.7,14.5-44h-20.3c-7.1,13.2-11.2,28.4-11.2,44.5Z"/>
  <path class="cls-2" d="m88.6,44c0,40.9,33.1,74,74,74s74-33.1,74-74c0-16.5-5.4-31.7-14.5-44h-119c-9.1,12.3-14.5,27.5-14.5,44Z"/>
  <path class="cls-2" d="m440.6,44c0,40.9,33.1,74,74,74s74-33.1,74-74c0-16.5-5.4-31.7-14.5-44h-119c-9.1,12.3-14.5,27.5-14.5,44Z"/>
  <path class="cls-2" d="m787.6,44c0,40.9,33.1,74,74,74s74-33.1,74-74c0-16.5-5.4-31.7-14.5-44h-119c-9.1,12.3-14.5,27.5-14.5,44Z"/>
  <path class="cls-3" d="m154.82,719.67c-18.07,0-34.06-2.23-47.97-6.7-13.92-4.46-25.65-11.42-35.2-20.87-9.55-9.45-16.77-21.54-21.65-36.29-4.88-14.74-7.32-32.29-7.32-52.64s2.44-37.9,7.32-52.64c4.88-14.74,12.09-26.89,21.65-36.45,9.55-9.55,21.28-16.61,35.2-21.18,13.91-4.57,29.9-6.85,47.97-6.85,5.81,0,11.73.26,17.76.78,6.02.52,12.04,1.2,18.07,2.02,6.02.83,11.94,1.87,17.75,3.11v11.21c-7.06-1.25-14.33-2.23-21.8-2.96-7.48-.73-14.85-1.09-22.12-1.09-15.99,0-29.49,1.82-40.5,5.45-11.01,3.64-19.78,9.5-26.32,17.6-6.54,8.1-11.27,18.74-14.17,31.93-2.91,13.19-4.36,29.33-4.36,48.44s1.45,35.31,4.36,48.59c2.91,13.29,7.63,23.99,14.17,32.08,6.54,8.1,15.31,14.02,26.32,17.76,11,3.74,24.5,5.61,40.5,5.61,7.89,0,15.37-.41,22.43-1.25,7.06-.83,14.22-1.76,21.49-2.8v11.21c-6.03,1.25-11.99,2.29-17.91,3.11-5.92.83-11.84,1.5-17.76,2.03-5.92.52-11.89.78-17.91.78Z"/>
  <path class="cls-3" d="m295.3,719.98c-11.84,0-22.38-1.77-31.62-5.29-9.24-3.53-17.03-8.62-23.36-15.26-6.34-6.64-11.17-14.69-14.48-24.14-3.32-9.45-4.98-20.09-4.98-31.93s1.66-22.17,4.98-31.62c3.32-9.45,8.15-17.55,14.48-24.3,6.33-6.75,14.12-11.94,23.36-15.58,9.24-3.63,19.78-5.45,31.62-5.45s22.32,1.82,31.46,5.45c9.14,3.64,16.92,8.83,23.36,15.58,6.43,6.75,11.32,14.85,14.64,24.3,3.32,9.45,4.98,19.99,4.98,31.62s-1.67,22.43-4.98,31.77c-3.32,9.34-8.15,17.39-14.48,24.14-6.34,6.75-14.12,11.89-23.36,15.42-9.24,3.53-19.78,5.29-31.62,5.29Zm0-11.53c7.27,0,13.39-1.4,18.38-4.21s9.08-6.96,12.3-12.46c3.22-5.5,5.55-12.3,7.01-20.4,1.45-8.1,2.18-17.44,2.18-28.04s-.73-20.25-2.18-28.35c-1.46-8.1-3.79-14.9-7.01-20.4-3.22-5.5-7.32-9.6-12.3-12.3-4.98-2.7-11.11-4.05-18.38-4.05s-13.14,1.35-18.22,4.05c-5.09,2.7-9.24,6.8-12.46,12.3-3.22,5.5-5.56,12.3-7.01,20.4-1.46,8.1-2.18,17.55-2.18,28.35s.73,19.94,2.18,28.04c1.45,8.1,3.79,14.9,7.01,20.4,3.22,5.5,7.37,9.66,12.46,12.46,5.09,2.8,11.16,4.21,18.22,4.21Z"/>
  <path class="cls-3" d="m399.03,717.8v-149.21h32.4v11.21c3.74-2.49,8.15-4.77,13.24-6.85,5.09-2.07,10.64-3.68,16.67-4.83,6.02-1.14,12.25-1.71,18.69-1.71,8.72,0,16.56.99,23.52,2.96,6.96,1.98,12.93,5.09,17.91,9.35,4.98,4.26,8.77,9.92,11.37,16.98,2.59,7.06,3.89,15.58,3.89,25.54v96.56h-33.64v-96.56c0-9.76-1.25-17.55-3.74-23.36-2.49-5.81-6.49-10.02-11.99-12.62-5.5-2.59-13.03-3.89-22.58-3.89-6.23,0-11.89.52-16.98,1.56-5.09,1.04-10.12,2.39-15.11,4.05v130.83h-33.64Z"/>
  <path class="cls-3" d="m633.59,719.98c-10.18,0-19.42-1.61-27.72-4.83-8.31-3.22-15.53-8.04-21.65-14.48-6.13-6.43-10.85-14.43-14.17-23.99-3.32-9.55-4.98-20.66-4.98-33.33s1.66-24.09,4.98-33.64c3.32-9.55,8.1-17.55,14.33-23.99,6.23-6.43,13.5-11.26,21.8-14.49,8.3-3.22,17.44-4.83,27.41-4.83,6.23,0,12.25.52,18.07,1.56,5.81,1.04,11.37,2.65,16.67,4.83,5.29,2.18,10.23,5.25,14.8,9.19v122.73c-4.57,3.74-9.5,6.7-14.8,8.88-5.3,2.18-10.85,3.79-16.67,4.83-5.82,1.04-11.84,1.56-18.07,1.56Zm13.08-13.39c3.32,0,6.59-.2,9.81-.62,3.22-.41,6.43-.98,9.66-1.71,3.22-.73,6.28-1.61,9.19-2.65v-116.5c-4.57-1.66-9.3-2.91-14.17-3.74-4.88-.83-9.71-1.25-14.48-1.25-7.69,0-14.49,1.09-20.4,3.27-5.92,2.18-10.85,5.71-14.8,10.59-3.95,4.88-6.91,11.32-8.88,19.31-1.98,8-2.96,17.91-2.96,29.75s.98,21.86,2.96,30.06c1.97,8.21,4.93,14.75,8.88,19.62,3.94,4.88,8.88,8.41,14.8,10.59,5.92,2.18,12.72,3.27,20.4,3.27Zm29.9,11.21v-11.84h-1.25v-218.05h33.64v229.89h-32.4Z"/>
  <path class="cls-3" d="m812.7,719.98c-11.84,0-22.38-1.77-31.62-5.29-9.24-3.53-17.03-8.62-23.36-15.26-6.34-6.64-11.17-14.69-14.48-24.14-3.32-9.45-4.98-20.09-4.98-31.93s1.66-22.17,4.98-31.62c3.32-9.45,8.15-17.55,14.48-24.3,6.33-6.75,14.12-11.94,23.36-15.58,9.24-3.63,19.78-5.45,31.62-5.45s22.32,1.82,31.46,5.45c9.14,3.64,16.92,8.83,23.36,15.58,6.43,6.75,11.32,14.85,14.64,24.3,3.32,9.45,4.98,19.99,4.98,31.62s-1.67,22.43-4.98,31.77c-3.32,9.34-8.15,17.39-14.48,24.14-6.34,6.75-14.12,11.89-23.36,15.42-9.24,3.53-19.78,5.29-31.62,5.29Zm0-11.53c7.27,0,13.39-1.4,18.38-4.21s9.08-6.96,12.3-12.46c3.22-5.5,5.55-12.3,7.01-20.4,1.45-8.1,2.18-17.44,2.18-28.04s-.73-20.25-2.18-28.35c-1.46-8.1-3.79-14.9-7.01-20.4-3.22-5.5-7.32-9.6-12.3-12.3-4.98-2.7-11.11-4.05-18.38-4.05s-13.14,1.35-18.22,4.05c-5.09,2.7-9.24,6.8-12.46,12.3-3.22,5.5-5.56,12.3-7.01,20.4-1.46,8.1-2.18,17.55-2.18,28.35s.73,19.94,2.18,28.04c1.45,8.1,3.79,14.9,7.01,20.4,3.22,5.5,7.37,9.66,12.46,12.46,5.09,2.8,11.16,4.21,18.22,4.21Z"/>
  <path class="cls-3" d="m916.43,717.8v-149.21h31.46v11.21c6.02-4.15,12.62-7.11,19.78-8.88,7.17-1.76,14.9-2.65,23.21-2.65,2.49,0,5.24.16,8.25.47,3.01.31,5.87.68,8.57,1.09v11.53c-1.25,0-2.54-.05-3.89-.16-1.35-.1-2.65-.16-3.89-.16h-7.79c-6.85,0-13.76.47-20.71,1.4-6.96.93-14.07,2.55-21.34,4.83v130.52h-33.64Z"/>
</svg>